<svg width="40" height="67" viewBox="0 0 40 67" fill="none" xmlns="http://www.w3.org/2000/svg">
<path d="M2.91402 52.6544L2.91246 52.6506C1.23008 48.5917 0.48533 44.1097 1.38546 39.6603C1.60621 38.6176 1.9735 37.5549 2.40164 36.4408C2.55042 36.0536 2.70963 35.6528 2.87167 35.2449C3.16381 34.5095 3.46518 33.7509 3.73139 33.0066C4.27378 31.4901 4.73142 29.8787 4.8081 28.1908C5.64321 29.363 6.23068 30.844 6.45734 32.4627C6.74718 34.66 6.31547 36.8639 5.81657 39.2533C5.80025 39.3315 5.78386 39.4099 5.76742 39.4884C5.2937 41.7528 4.78331 44.1924 5.028 46.6772C5.20074 48.7884 5.97493 50.894 7.37858 52.2801C8.78042 53.6644 10.963 54.3601 12.8658 53.4467L12.8736 53.443L12.8813 53.4391C14.5303 52.6122 15.4344 50.8764 15.8411 49.0928C16.2529 47.287 16.208 45.2314 15.7822 43.4368C15.4271 41.786 14.8504 40.2561 14.3015 38.7999C14.2708 38.7184 14.2402 38.6371 14.2097 38.5561C13.6251 37.0031 13.0827 35.5179 12.7841 33.9082C12.2406 30.8158 12.827 27.4406 14.2034 24.8073C14.4494 25.7235 14.8678 26.5665 15.3281 27.2302C16.0193 28.2425 16.9349 29.1969 17.9959 29.7935C19.0734 30.3994 20.3682 30.6653 21.6755 30.1274C22.6373 29.7316 23.3689 28.9729 23.9148 28.1616C24.4653 27.3434 24.876 26.3994 25.1712 25.5147L25.1768 25.4979L25.1818 25.4808C25.8443 23.232 26.1337 20.5566 25.3255 18.2289L25.3255 18.2288L25.3217 18.2181C24.7872 16.7337 23.9048 15.5507 23.0646 14.5013C22.9271 14.3295 22.7915 14.1621 22.6584 13.9978C21.9521 13.1259 21.3161 12.3408 20.8297 11.4402L20.8297 11.4402L20.827 11.4353C19.9626 9.85604 19.6775 7.78759 19.961 5.76704C20.1259 4.59166 20.4769 3.47563 20.9821 2.51636C21.4823 3.59324 22.281 4.87395 23.1189 6.10524C24.4244 8.02367 25.9264 9.96392 26.6895 10.9496C26.9032 11.2257 27.0589 11.4269 27.1362 11.5318L27.1498 11.5504L27.1644 11.5683C29.8945 14.9383 31.8054 19.2644 32.5712 23.9859C33.0316 27.0198 33.0195 30.18 32.205 32.9222L32.2014 32.9342L32.1981 32.9463C31.7904 34.4564 31.1552 35.8477 30.4282 37.2357C30.1345 37.7964 29.8061 38.391 29.4718 38.9961C29.02 39.8139 28.5575 40.6511 28.1557 41.4502L28.1556 41.4501L28.1497 41.4622C26.7007 44.4432 25.4651 48.1216 26.2528 51.6866C26.6598 53.5286 27.7641 55.1891 29.1552 56.1703C30.5562 57.1585 32.409 57.5358 34.0435 56.3991C35.3867 55.5009 36.0851 53.9235 36.3457 52.3551C36.6103 50.7632 36.4587 49.0027 35.9243 47.5184L35.9244 47.5184L35.9201 47.5069C35.7782 47.1274 35.6047 46.7135 35.4422 46.3256C35.3367 46.074 35.2359 45.8334 35.1512 45.6202C34.9145 45.0241 34.7252 44.4624 34.6236 43.8771C34.3863 42.5101 34.7142 41.1277 35.3522 39.8608C35.5277 40.4297 35.7622 40.953 36.0025 41.398L36.0146 41.4203L36.0278 41.442C36.3329 41.9442 36.669 42.4181 36.9809 42.858C37.056 42.964 37.1298 43.068 37.2014 43.1699C37.5808 43.7103 37.9211 44.222 38.2029 44.7873L38.2057 44.7928C39.4109 47.1731 39.1413 49.9266 38.0869 52.634C37.0351 55.3349 35.2533 57.8464 33.6854 59.5929L33.6756 59.6038L33.6662 59.615C30.1259 63.799 25.3354 66 20.5037 66C13.2397 66 6.27628 60.8606 2.91402 52.6544Z" fill="#E03E3D" stroke="#0C145A" stroke-width="2"/>
</svg>
