<svg width="352" height="327" viewBox="0 0 352 327" fill="none" xmlns="http://www.w3.org/2000/svg">
<path d="M84.6844 150.255C79.6527 154.567 72.9563 161.15 66.6761 170.381C62.1362 177.078 54.4183 188.73 51.7322 205.49C47.8354 229.703 56.9531 248.846 59.9797 254.635C70.989 275.708 88.1272 285.544 94.4831 288.835C93.0833 291.105 91.116 294.662 89.3 299.202C88.8839 300.299 80.6742 321.296 86.2356 325.155C90.435 328.03 100.536 320.01 102.087 318.761C111.319 311.384 115.632 301.472 120.398 290.084C122.404 285.241 123.803 281.193 124.674 278.469C119.415 274.8 111.621 268.482 104.849 258.645C100.612 252.516 86.1599 231.557 92.3266 212.262C95.1641 203.409 99.1365 204.771 110.032 186.914C118.015 173.786 122.517 166.447 120.096 160.356C116.842 152.108 102.087 148.628 84.6844 150.255Z" fill="white" stroke="#161616" stroke-width="2" stroke-miterlimit="10"/>
<path d="M85.5546 283.047C94.2183 279.037 101.558 272.605 106.627 264.509C106.93 264.055 106.173 263.601 105.909 264.093C100.877 272.076 93.6887 278.394 85.1385 282.328C84.6467 282.555 85.0628 283.274 85.5546 283.047Z" fill="#161616"/>
<path d="M83.0555 237.837C88.0494 248.582 94.7458 258.418 102.88 267.006C103.258 267.422 103.863 266.817 103.485 266.401C95.3889 257.851 88.7682 248.052 83.7743 237.383C83.5473 236.929 82.8285 237.346 83.0555 237.837Z" fill="#161616"/>
<path d="M54.1547 238.518C55.6302 236.286 58.4676 235.453 61.0024 236.248C63.575 237.042 65.5045 239.274 66.526 241.696C67.6988 244.42 67.9636 247.56 67.1691 250.435C66.3368 253.386 63.7642 256.261 60.4728 254.899C59.9809 254.672 59.7539 255.505 60.2458 255.732C63.1967 256.942 66.0342 255.088 67.3583 252.44C69.0229 249.073 68.8338 244.76 67.3205 241.355C66.072 238.518 63.6507 235.907 60.5106 235.302C57.7866 234.772 54.9492 235.832 53.4359 238.139C53.0954 238.556 53.852 239.01 54.1547 238.518Z" fill="#161616"/>
<path d="M55.6297 192.06C59.4508 191.568 63.2719 191.643 67.0551 192.4C70.6114 193.119 74.4703 194.178 76.8159 197.167C77.1564 197.583 77.7618 196.978 77.4213 196.562C75.1513 193.649 71.4437 192.514 67.9631 191.757C63.915 190.849 59.7534 190.698 55.6297 191.227C55.1 191.303 55.1 192.135 55.6297 192.06Z" fill="#161616"/>
<path d="M54.3426 195.654C58.3528 195.351 62.2874 195.805 66.1085 197.016C66.6382 197.167 66.8652 196.373 66.3355 196.183C62.4387 194.973 58.4285 194.519 54.3426 194.784C53.8129 194.859 53.8129 195.692 54.3426 195.654Z" fill="#161616"/>
<path d="M90.0597 165.312C86.2764 170.571 82.1905 175.602 77.8776 180.445C77.4993 180.861 78.1046 181.466 78.4829 181.05C82.8337 176.17 86.9574 171.062 90.7785 165.766C91.119 165.274 90.4002 164.858 90.0597 165.312Z" fill="#161616"/>
<path d="M80.4061 206.436C77.493 212.413 75.9418 218.807 75.7148 225.428C75.7148 225.957 76.5472 225.957 76.585 225.428C76.7742 218.958 78.3253 212.678 81.1628 206.852C81.3897 206.36 80.6709 205.944 80.4061 206.436Z" fill="#161616"/>
<path d="M86.4253 194.519C90.1707 197.318 93.2352 200.799 95.5808 204.847C95.8456 205.339 96.6023 204.885 96.2996 204.431C93.8783 200.269 90.7004 196.675 86.8036 193.8C86.4253 193.46 86.0091 194.178 86.4253 194.519Z" fill="#161616"/>
<path d="M120.587 275.972C116.123 280.664 117.636 287.398 116.047 293.148C115.064 296.742 113.21 300.11 111.659 303.477C110.145 306.806 108.632 310.097 107.081 313.427C106.854 313.918 107.573 314.372 107.8 313.843C110.599 307.714 113.815 301.661 116.161 295.343C118.393 289.327 116.426 281.496 121.117 276.578C121.571 276.199 120.965 275.594 120.587 275.972Z" fill="#161616"/>
<path d="M94.3325 289.327C97.0564 287.625 99.9317 286.414 103.072 285.733C103.601 285.62 103.374 284.787 102.845 284.901C99.629 285.582 96.6403 286.83 93.8785 288.571C93.4623 288.873 93.8785 289.63 94.3325 289.327Z" fill="#161616"/>
<path opacity="0.23" d="M104.244 190.698C100.347 192.4 86.576 198.945 80.2202 214.154C74.8479 226.979 77.8367 238.556 80.031 247.068C85.0249 266.439 96.9422 279.037 103.676 285.09C103.487 287.171 102.995 290.311 101.406 293.792C98.342 300.488 93.9912 302.342 90.6241 307.222C88.392 310.514 86.0464 315.924 86.6517 325.004C87.7489 325.117 89.3378 325.155 91.1916 324.814C93.9912 324.323 98.342 322.772 105.001 315.167C109.389 310.135 112.227 305.368 114.459 301.169C117.334 295.759 120.928 288.003 123.917 278.091C112.87 269.541 105.833 260.802 101.596 254.635C95.8829 246.312 93.7642 240.561 93.0833 238.556C91.57 234.092 88.9217 226.147 90.6241 216.424C91.2295 213.057 91.57 211.09 92.8941 208.668C96.299 202.464 101.785 201.215 103.676 195.049C104.244 193.233 104.282 191.644 104.244 190.698Z" fill="#6D6C6C"/>
<path opacity="0.24" d="M93.3862 205.679C90.9271 211.354 87.8627 220.661 88.1653 232.2C88.8463 256.262 103.715 272.151 107.838 276.275C109.125 280.323 110.449 286.566 109.503 294.056C107.233 311.611 93.9915 321.75 91.0028 323.906C93.6132 323.074 97.8126 321.447 102.126 318.232C110.449 312.065 114.194 303.817 118.696 293.602C120.323 289.971 122.48 284.56 124.371 277.713C113.135 269.011 106.136 259.969 102.088 253.765C97.8126 247.258 93.8024 241.015 91.9107 231.746C89.6408 220.434 91.7972 210.863 93.3862 205.679Z" fill="#6D6C6C"/>
<path d="M158.984 168.225C162.124 175.035 160.875 182.942 159.892 189.033C158.53 197.583 155.465 204.128 153.195 208.101C152.212 212.943 151.266 221.115 153.725 230.498C156.676 241.848 163.032 248.922 168.934 255.467C173.965 261.067 182.667 269.39 195.984 276.313C195.227 279.113 194.017 283.35 192.39 288.495C185.467 309.984 181.078 314.184 179.489 315.583C175.138 319.405 167.193 323.793 163.751 321.258C160.951 319.215 160.232 311.989 169.993 288.684C165.907 287.209 160.194 284.901 153.763 281.458C147.104 277.94 128.755 268.141 117.179 252.1C99.6622 227.774 104.089 197.81 105.602 189.525C102.916 188.277 98.0732 185.553 96.3708 180.483C93.2685 171.328 102.462 160.772 109.915 156.232C125.994 146.358 152.174 153.433 158.984 168.225Z" fill="white" stroke="#161616" stroke-width="2" stroke-miterlimit="10"/>
<path d="M97.2033 168.452C94.9333 171.895 94.7063 176.284 96.3331 180.067C97.1276 181.921 98.3383 183.585 99.8137 184.985C100.533 185.666 101.289 186.309 102.122 186.877C102.462 187.104 105.262 188.542 104.732 189.071C104.959 189.033 105.186 188.996 105.413 188.996C100.533 185.401 96.7493 180.029 96.8628 173.787C96.8628 173.181 95.8413 172.992 95.7656 173.635C94.8198 179.008 97.0141 184.38 101.441 187.558C101.592 187.217 101.743 186.877 101.895 186.536C96.598 184.91 95.4252 179.046 96.7871 174.279C96.4088 174.241 96.0305 174.165 95.69 174.127C96.0683 179.121 96.6736 184.418 100.646 187.936C101.176 188.428 101.97 187.634 101.441 187.142C97.052 182.98 94.4415 176.473 98.1113 170.949C97.7708 170.911 97.4303 170.874 97.0898 170.798C97.2411 171.668 97.279 172.5 97.1276 173.371C97.506 173.371 97.8464 173.371 98.2248 173.371C97.506 170.949 97.8086 168.604 99.1328 166.447C98.7923 166.409 98.4518 166.372 98.1113 166.296C98.8301 170.344 97.3168 174.392 97.8843 178.44C98.0735 179.802 98.4518 181.202 99.2084 182.413C99.5868 183.018 100.041 183.548 100.57 184.002C101.138 184.493 102.424 184.947 102.538 185.78C102.765 185.553 102.992 185.326 103.219 185.099C102.424 184.985 101.592 184.872 100.797 184.758C100.419 184.72 99.9272 185.023 100.116 185.439C100.76 187.066 101.781 188.201 103.37 188.958C103.37 188.617 103.37 188.315 103.37 187.974C102.992 187.974 102.576 187.974 102.197 187.974C102.046 188.315 101.932 188.617 101.781 188.958C102.235 189.185 102.689 189.412 103.105 189.639C103.257 189.298 103.37 188.996 103.521 188.655C102.651 188.693 101.705 186.763 101.365 186.12C100.873 185.212 100.495 184.229 100.192 183.207C99.6246 181.164 99.5111 179.083 99.8137 177.003C99.4733 177.04 99.1328 177.078 98.7923 177.154C100.116 179.537 100.533 182.148 99.9651 184.834C100.23 184.72 100.533 184.607 100.797 184.493C100.608 184.153 100.419 183.812 100.192 183.472C99.8894 183.623 99.6246 183.812 99.3219 183.964C99.9651 184.342 100.57 184.72 101.214 185.061C101.857 185.439 102.424 184.456 101.781 184.077C101.138 183.699 100.533 183.321 99.8894 182.98C99.5489 182.791 98.9814 183.018 99.0193 183.472C99.1328 184.38 99.4354 184.947 100.192 185.477C100.495 185.704 100.949 185.477 101.024 185.137C101.63 182.148 101.214 179.235 99.7381 176.586C99.5111 176.208 98.7923 176.208 98.7166 176.738C98.3004 179.537 98.5274 182.337 99.5489 184.985C100.154 186.536 101.403 189.903 103.484 189.866C104.013 189.866 104.202 189.26 103.9 188.882C103.294 188.163 102.689 187.898 101.743 187.861C101.251 187.823 100.987 188.504 101.327 188.844C102.084 189.563 103.03 189.677 103.9 189.033C104.202 188.806 104.316 188.239 103.9 188.05C102.576 187.444 101.705 186.574 101.176 185.212C100.949 185.439 100.722 185.666 100.495 185.893C101.289 186.007 102.122 186.12 102.916 186.234C103.37 186.309 103.673 186.007 103.597 185.553C103.408 184.229 102.008 183.926 101.138 183.131C99.7002 181.807 99.0949 179.764 98.9058 177.873C98.5653 173.9 99.8894 170.041 99.1706 166.107C99.0949 165.615 98.3761 165.577 98.1491 165.955C96.6736 168.339 96.2953 171.063 97.1276 173.749C97.279 174.241 98.1491 174.354 98.2248 173.749C98.3761 172.652 98.3761 171.668 98.1869 170.571C98.1113 170.041 97.3925 170.079 97.1655 170.42C93.2309 176.359 95.917 183.472 100.684 187.974C100.949 187.709 101.214 187.444 101.478 187.18C97.733 183.888 97.2411 178.894 96.8628 174.203C96.825 173.598 95.917 173.408 95.7656 174.052C94.2145 179.462 95.8035 185.893 101.668 187.709C102.311 187.898 102.613 187.028 102.122 186.688C98.1491 183.812 96.144 178.894 96.9763 174.052C96.598 174.014 96.2196 173.938 95.8791 173.9C95.7656 180.559 99.8138 186.272 104.997 190.093C105.186 190.244 105.526 190.168 105.678 190.017C106.51 189.185 106.207 188.239 105.337 187.558C103.521 186.158 101.554 185.288 99.9651 183.548C96.4088 179.613 95.3117 173.787 98.3383 169.209C98.6031 168.415 97.6194 167.847 97.2033 168.452Z" fill="white"/>
<path d="M148.694 176.775C149.526 181.126 147.18 185.401 145.478 189.26C144.04 192.552 142.565 195.843 141.279 199.21C138.857 205.642 137.382 212.3 137.571 219.224C137.911 231.784 143.17 244.155 152.212 252.97C158.152 258.721 165.302 262.958 172.453 267.006C172.944 267.271 173.361 266.552 172.869 266.287C166.551 262.693 160.233 259.024 154.747 254.181C149.677 249.717 145.629 244.307 142.792 238.14C140.068 232.125 138.555 225.542 138.403 218.959C138.252 211.998 139.803 205.301 142.3 198.832C143.851 194.784 145.705 190.849 147.37 186.877C148.769 183.585 150.131 180.218 149.45 176.586C149.413 175.981 148.58 176.246 148.694 176.775Z" fill="#161616"/>
<path d="M164.431 286.036C165.452 281.723 167.42 277.675 169.576 273.816C171.581 270.26 173.965 266.893 177.672 265.001C178.164 264.736 177.748 264.018 177.256 264.282C173.586 266.136 171.165 269.39 169.16 272.87C166.814 276.919 164.733 281.232 163.636 285.809C163.485 286.339 164.279 286.566 164.431 286.036Z" fill="#161616"/>
<path d="M189.552 273.325C187.774 275.632 186.904 278.508 187.169 281.421C187.282 282.707 187.661 283.956 188.19 285.128C188.871 286.642 188.72 287.55 188.304 289.063C188.001 290.122 187.699 291.144 187.396 292.165C184.899 300.299 181.986 308.32 178.694 316.151C178.467 316.643 179.224 317.097 179.413 316.567C182.553 309.114 185.391 301.472 187.774 293.754C188.38 291.825 189.061 289.857 189.515 287.852C189.817 286.49 189.401 285.696 188.834 284.447C187.282 280.853 187.926 276.767 190.309 273.703C190.612 273.325 189.855 272.871 189.552 273.325Z" fill="#161616"/>
<path d="M170.336 289.176C172.077 287.436 174.233 286.301 176.654 285.847C177.184 285.733 176.957 284.939 176.427 285.015C173.855 285.469 171.585 286.717 169.731 288.571C169.353 288.949 169.958 289.555 170.336 289.176Z" fill="#161616"/>
<path d="M145.783 244.95C147.448 245.706 149.869 243.474 151.117 242.566C153.16 241.091 154.863 239.313 156.187 237.156C156.452 236.702 155.733 236.248 155.468 236.74C154.409 238.556 153.009 240.069 151.382 241.356C150.55 241.999 147.372 244.761 146.275 244.231C145.745 244.004 145.291 244.723 145.783 244.95Z" fill="#161616"/>
<path d="M109.8 237.61C109.005 234.167 113.318 233.108 115.701 234.319C117.744 235.378 119.031 237.345 119.674 239.502C120.241 241.393 120.431 243.436 120.506 245.441C120.62 248.128 118.577 250.284 115.815 249.225C115.323 249.036 115.096 249.83 115.588 250.057C117.707 250.889 120.393 249.868 121.149 247.636C121.717 246.009 121.263 243.89 121.036 242.226C120.809 240.561 120.468 238.896 119.712 237.383C118.463 234.886 115.891 232.692 112.978 232.881C110.443 233.032 108.324 235.227 108.892 237.837C109.119 238.367 109.913 238.14 109.8 237.61Z" fill="#161616"/>
<path d="M123.081 213.246C123.346 214.306 123.498 215.403 123.498 216.5C123.498 217.029 124.33 217.067 124.368 216.5C124.368 215.327 124.216 214.154 123.952 213.019C123.762 212.49 122.968 212.717 123.081 213.246Z" fill="#161616"/>
<path d="M135.719 270.335C140.864 267.573 145.253 263.714 148.695 258.985C149.036 258.531 148.279 258.115 147.976 258.569C144.647 263.185 140.334 266.93 135.303 269.616C134.811 269.881 135.227 270.6 135.719 270.335Z" fill="#161616"/>
<path d="M133.941 193.006C134.66 200.837 130.612 207.912 129.401 215.478C128.266 222.402 129.515 229.476 132.731 235.681C132.995 236.173 133.714 235.719 133.449 235.265C129.893 228.417 128.947 220.624 130.726 213.17C132.314 206.512 135.417 200.08 134.774 193.044C134.736 192.476 133.866 192.476 133.941 193.006Z" fill="#161616"/>
<path opacity="0.19" d="M114.53 161.68C112.071 171.971 106.169 202.577 121.416 233.789C123.534 238.14 131.782 254.257 149.185 268.974C159.173 277.41 168.896 282.631 175.933 285.809C174.495 286.641 173.057 287.512 171.582 288.344C169.879 296.364 168.631 302.266 168.026 305.179C165.869 315.356 164.848 320.464 166.512 321.75C169.161 323.793 176.008 320.086 180.283 315.886C184.067 312.141 185.466 308.282 188.682 298.559C191.557 289.933 193.865 282.707 195.568 277.41C191.406 274.989 185.845 271.433 179.754 266.439C173.814 261.558 166.247 255.354 160.648 246.312C152.741 233.562 151.644 220.018 151.984 210.901C153.346 208.744 155.2 205.453 156.827 201.215C158.265 197.47 164.734 180.71 159.135 170.382C153.422 159.826 134.657 155.097 114.53 161.68Z" fill="#6D6C6C"/>
<path opacity="0.29" d="M140.788 171.517C137.912 179.5 134.167 193.308 135.945 210.371C137.837 228.531 145.063 241.091 149.83 249.225C159.742 266.136 172.189 277.259 181.42 284.031C181.117 288.495 180.436 293.83 178.961 299.656C176.88 307.941 173.853 314.638 171.091 319.632C171.621 319.669 172.302 319.669 173.021 319.556C175.594 319.026 177.069 317.135 177.561 316.454C179.15 314.978 181.382 312.67 183.501 309.492C186.452 305.066 187.7 301.056 190.083 293.224C192.807 284.296 194.586 278.356 195.304 275.973C189.554 273.06 181.458 268.293 173.097 260.726C169.124 257.132 163.903 252.365 159.553 245.48C151.419 232.465 150.662 218.429 151.229 209.387C154.596 204.62 160.839 194.179 160.234 180.597C160.082 177.23 159.553 174.203 158.834 171.593C152.818 171.517 146.803 171.517 140.788 171.517Z" fill="#6D6C6C"/>
<path d="M102.125 66.758C96.2987 64.4502 83.6626 84.161 81.7331 87.1498C77.7607 93.3543 72.5776 102.775 68.6052 115.562C58.239 118.135 47.8729 120.745 37.5446 123.318C27.4055 117 24.0005 116.092 23.206 117C22.6385 117.681 23.1304 119.762 23.9249 121.123C24.8328 122.712 25.8921 122.939 25.8543 123.545C25.7786 124.982 20.1416 125.096 15.6395 126.458C6.52183 129.182 0.241611 137.278 1.07393 138.602C2.20891 140.342 18.023 132.625 18.0608 132.776C18.0986 132.889 10.2294 134.743 7.39198 140.796C6.29484 143.104 5.72733 146.434 7.16497 147.606C7.95946 148.249 9.2836 148.06 13.9748 146.131C19.9146 143.71 23.7357 141.629 23.887 141.894C24.1518 142.348 11.9319 149.574 12.7264 151.314C13.3695 152.714 22.1467 149.876 23.1304 149.574C29.8646 147.417 35.0855 144.542 38.7552 142.234C42.5763 143.672 49.424 145.639 57.9364 144.92C73.2208 143.596 82.8681 134.478 85.365 132.057C90.5481 127.025 93.5747 119.383 99.7036 104.137C103.298 95.1324 107.686 82.5342 104.546 70.6169C104.13 69.0279 103.525 67.3255 102.125 66.758Z" fill="white" stroke="#161616" stroke-width="2" stroke-miterlimit="10"/>
<path d="M7.84613 146.85C11.0241 142.31 16.6233 140.645 21.4659 138.413C22.109 138.11 21.5415 137.127 20.8984 137.429C15.8667 139.775 10.2296 141.515 6.90032 146.282C6.44632 146.888 7.42997 147.455 7.84613 146.85Z" fill="#161616"/>
<path d="M25.8149 129.749C28.047 132.625 31.452 134.138 35.0839 133.987C35.8027 133.949 35.8027 132.814 35.0839 132.852C31.7168 133.003 28.6902 131.603 26.6472 128.955C26.1554 128.388 25.3609 129.182 25.8149 129.749Z" fill="#161616"/>
<path d="M81.6593 87.4905C83.4375 89.8362 85.5939 91.6521 88.2422 92.9763C88.1665 92.7493 88.053 92.5601 87.9774 92.3331C87.1451 95.8137 85.9344 99.1052 84.3454 102.321C84.0049 102.964 84.9886 103.532 85.3291 102.888C86.9559 99.597 88.2044 96.192 89.0745 92.6358C89.1123 92.4088 89.0367 92.1061 88.8097 91.9926C86.3506 90.782 84.2698 89.1173 82.6051 86.9231C82.2268 86.3556 81.2432 86.9231 81.6593 87.4905Z" fill="#161616"/>
<path d="M79.9175 136.673C79.1231 130.96 83.8143 126.344 89.4513 126.988C90.1702 127.063 90.1702 125.928 89.4513 125.853C82.982 125.134 77.9124 130.619 78.8204 136.975C78.896 137.694 79.9932 137.392 79.9175 136.673Z" fill="#161616"/>
<path d="M46.4334 121.313C45.7902 125.058 45.6767 128.841 46.0929 132.625C46.1686 133.343 47.3035 133.343 47.2279 132.625C46.8117 128.917 46.8874 125.285 47.5305 121.615C47.644 120.896 46.5469 120.594 46.4334 121.313Z" fill="#161616"/>
<path opacity="0.24" d="M105.53 76.7458C101.255 82.4964 98.4178 87.4525 96.6018 90.8574C90.2459 102.926 88.9218 108.563 82.7172 116.735C80.4094 119.799 76.5127 124.301 70.4216 128.917C65.7682 129.863 59.1097 131.338 51.2027 133.381C41.5553 135.916 36.5993 137.24 31.0379 139.737C26.4601 141.78 19.9907 145.261 12.916 151.238C16.3966 150.936 20.823 150.217 25.7791 148.552C31.3405 146.698 35.6913 144.277 38.7936 142.196C41.4418 143.218 45.4143 144.428 50.3325 144.882C62.8173 145.942 72.1619 141.023 75.2264 139.359C78.0638 137.808 83.2469 134.932 87.749 129.182C89.1109 127.479 90.3594 125.512 93.5752 118.324C98.6826 106.974 101.558 100.505 103.601 90.9331C104.32 87.6417 105.152 82.7612 105.53 76.7458Z" fill="#6D6C6C"/>
<path opacity="0.26" d="M8.79202 144.39C9.32168 143.709 10.9863 141.704 16.6234 139.548C18.7042 138.753 24.5304 136.559 25.287 137.883C25.514 138.299 25.3627 139.132 23.4332 141.213C20.8606 142.915 17.4557 144.769 13.2563 146.206C10.9863 147.001 8.82986 147.531 6.90039 147.871C7.24088 147.001 7.77054 145.715 8.79202 144.39Z" fill="#6D6C6C"/>
<path opacity="0.34" d="M104.773 88.436C102.352 92.6355 98.1904 99.9372 93.0073 109.13C85.5921 122.334 81.3927 128.766 77.9121 132.095C73.7126 136.067 62.779 144.126 38.377 141.78C42.3494 143.256 54.7207 147.19 68.7944 142.348C78.9336 138.829 84.9111 132.511 86.3488 130.96C87.8242 129.333 90.813 125.815 96.2231 112.876C98.6822 106.898 101.822 98.6508 104.773 88.436Z" fill="#6D6C6C"/>
<path opacity="0.47" d="M14.8828 150.936C19.3471 149.46 24.8328 147.417 30.9617 144.655C35.3881 142.65 38.2255 141.137 38.3769 141.402C38.566 141.704 34.1396 144.958 28.9566 147.304C23.5087 149.725 18.5147 150.595 14.8828 150.936Z" fill="#6D6C6C"/>
<path d="M133.639 67.59C135.795 66.909 167.045 57.5265 186.794 75.5727C208.207 95.1322 197.273 129.749 192.204 145.752C186.794 162.928 179.719 167.733 176.011 169.587C168.861 173.181 161.862 171.97 154.863 170.949C142.946 169.208 126.072 167.317 104.205 166.712C106.589 136.559 109.01 106.368 111.393 76.2158C118.808 73.3406 126.224 70.4653 133.639 67.59Z" fill="#F3CA20" stroke="#161616" stroke-width="2" stroke-miterlimit="10"/>
<path d="M161.936 81.437C170.297 81.5505 183.463 83.0638 194.927 91.6518C202.153 97.0619 209.038 105.536 218.912 139.056C231.851 182.828 226.895 191.265 238.699 206.247C240.364 208.366 256.14 227.774 280.693 230.233C311.224 233.297 334.756 207.987 350.873 190.66C378.793 160.621 389.916 126.609 394.645 104.288C399.261 105.688 403.838 107.088 408.454 108.487C393.888 145.753 376.75 173.635 363.471 192.476C338.085 228.455 323.066 236.626 313.683 240.448C306.949 243.209 284.022 252.554 259.091 242.831C235.937 233.827 225.382 213.927 221.901 207.458C217.967 200.08 217.702 196.827 211.686 170.268C200.034 118.702 196.024 109.055 187.095 103.077C182.063 99.7102 173.173 96.0026 157.699 98.2725C159.137 92.6355 160.537 87.0362 161.936 81.437Z" fill="white" stroke="#161616" stroke-width="2" stroke-miterlimit="10"/>
<path d="M187.475 102.472C187.929 98.4993 190.123 95.0187 193.452 92.8622C194.057 92.4839 193.49 91.5002 192.885 91.8785C189.177 94.2998 186.831 98.0831 186.34 102.472C186.264 103.228 187.399 103.191 187.475 102.472Z" fill="#161616"/>
<path d="M198.898 117.076C200.752 113.519 203.854 111.022 207.713 109.925C208.432 109.736 208.129 108.639 207.41 108.828C203.287 109.963 199.882 112.687 197.914 116.47C197.574 117.151 198.557 117.719 198.898 117.076Z" fill="#161616"/>
<path d="M196.855 108.147C198.406 105.385 201.092 103.531 204.232 103.115C204.951 103.039 204.951 101.905 204.232 101.98C200.676 102.434 197.65 104.439 195.871 107.579C195.531 108.223 196.515 108.79 196.855 108.147Z" fill="#161616"/>
<path d="M207.069 144.58C209.415 141.288 213.236 139.472 217.246 139.623C217.965 139.661 217.965 138.526 217.246 138.488C212.782 138.299 208.658 140.38 206.086 144.012C205.632 144.617 206.615 145.185 207.069 144.58Z" fill="#161616"/>
<path d="M205.594 132.436C207.524 129.295 211.193 128.236 214.636 127.744C215.355 127.631 215.052 126.534 214.333 126.647C210.55 127.177 206.729 128.463 204.61 131.868C204.232 132.473 205.216 133.041 205.594 132.436Z" fill="#161616"/>
<path d="M201.397 125.966C203.251 122.864 206.504 120.972 210.098 120.859C210.817 120.821 210.817 119.686 210.098 119.724C206.088 119.837 202.494 121.918 200.413 125.361C200.035 126.004 201.019 126.571 201.397 125.966Z" fill="#161616"/>
<path d="M212.177 169.814C215.355 166.371 219.706 164.593 224.397 164.782C225.116 164.82 225.116 163.685 224.397 163.647C219.441 163.458 214.75 165.388 211.383 169.019C210.853 169.549 211.686 170.344 212.177 169.814Z" fill="#161616"/>
<path d="M210.625 162.929C213.5 159.41 217.813 157.594 222.353 157.973C223.072 158.048 223.072 156.913 222.353 156.838C217.548 156.421 212.895 158.389 209.831 162.134C209.339 162.664 210.133 163.496 210.625 162.929Z" fill="#161616"/>
<path d="M208.961 155.362C211.08 152.865 213.955 151.314 217.246 150.973C217.965 150.897 217.965 149.762 217.246 149.838C213.69 150.216 210.512 151.805 208.166 154.567C207.675 155.135 208.469 155.929 208.961 155.362Z" fill="#161616"/>
<path d="M212.219 149.157C214.564 147.531 217.213 146.85 220.05 147.152C220.769 147.228 220.769 146.093 220.05 146.017C217.061 145.715 214.148 146.433 211.651 148.174C211.046 148.628 211.614 149.611 212.219 149.157Z" fill="#161616"/>
<path d="M223.832 209.803C226.027 205.982 229.507 203.221 233.707 201.934C234.388 201.707 234.123 200.61 233.404 200.837C228.902 202.199 225.194 205.15 222.849 209.236C222.47 209.879 223.454 210.447 223.832 209.803Z" fill="#161616"/>
<path d="M219.139 199.815C221.447 195.918 225.457 193.421 229.959 193.081C230.678 193.043 230.678 191.908 229.959 191.946C225.041 192.324 220.69 195.01 218.155 199.248C217.777 199.853 218.761 200.421 219.139 199.815Z" fill="#161616"/>
<path d="M216.19 187.103C218.876 183.471 223.227 181.542 227.729 181.92C228.448 181.996 228.448 180.861 227.729 180.785C222.811 180.369 218.12 182.563 215.207 186.536C214.753 187.141 215.736 187.709 216.19 187.103Z" fill="#161616"/>
<path d="M219.594 189.903C222.469 187.86 225.723 186.839 229.241 186.876C229.96 186.876 229.96 185.741 229.241 185.741C225.534 185.704 222.053 186.763 219.026 188.919C218.421 189.336 218.989 190.319 219.594 189.903Z" fill="#161616"/>
<path d="M262.796 226.412C263.553 228.795 263.931 231.292 263.818 233.789C263.704 236.135 263.326 239.086 261.396 240.637C260.829 241.091 261.623 241.885 262.191 241.431C264.045 239.88 264.537 237.383 264.839 235.075C265.217 232.011 264.839 228.984 263.893 226.071C263.666 225.428 262.569 225.731 262.796 226.412Z" fill="#161616"/>
<path d="M276.419 231.973C278.121 235.794 277.743 240.069 275.511 243.588C275.133 244.193 276.116 244.76 276.495 244.155C278.954 240.296 279.256 235.567 277.403 231.406C277.1 230.725 276.116 231.292 276.419 231.973Z" fill="#161616"/>
<path d="M300.481 229.249C303.583 233.07 304.34 238.178 302.675 242.793C302.41 243.474 303.508 243.777 303.772 243.096C305.626 238.102 304.642 232.578 301.313 228.455C300.821 227.887 300.027 228.682 300.481 229.249Z" fill="#161616"/>
<path d="M326.015 215.024C328.853 218.769 330.026 223.347 329.269 227.963C329.155 228.682 330.253 228.984 330.366 228.265C331.161 223.347 329.988 218.429 326.999 214.456C326.545 213.889 325.561 214.456 326.015 215.024Z" fill="#161616"/>
<path d="M315.159 223.688C318.034 227.017 321.098 231.065 319.472 235.681C319.245 236.362 320.342 236.664 320.569 235.983C322.309 230.951 319.093 226.525 315.953 222.855C315.461 222.363 314.667 223.158 315.159 223.688Z" fill="#161616"/>
<path d="M234.613 224.709C235.672 220.585 238.434 217.256 242.255 215.402C242.898 215.1 242.331 214.116 241.688 214.419C237.602 216.386 234.651 220.018 233.516 224.407C233.327 225.125 234.424 225.428 234.613 224.709Z" fill="#161616"/>
<path d="M241.197 231.217C243.391 226.677 246.796 222.969 251.185 220.434C251.828 220.056 251.261 219.072 250.617 219.451C246.077 222.061 242.483 225.92 240.251 230.649C239.873 231.292 240.857 231.898 241.197 231.217Z" fill="#161616"/>
<path d="M229.847 215.516C231.247 212.868 233.479 210.787 236.241 209.652C236.922 209.387 236.619 208.29 235.938 208.555C232.874 209.803 230.377 211.998 228.864 214.949C228.561 215.554 229.507 216.159 229.847 215.516Z" fill="#161616"/>
<path d="M340.167 202.691C344.064 203.977 346.939 207.193 347.847 211.203C347.998 211.922 349.095 211.619 348.944 210.9C347.96 206.512 344.744 202.993 340.507 201.593C339.788 201.366 339.486 202.464 340.167 202.691Z" fill="#161616"/>
<path d="M347.203 199.551C349.019 200.534 350.381 202.085 351.024 204.053C351.251 204.734 352.348 204.431 352.121 203.75C351.364 201.518 349.851 199.702 347.77 198.567C347.127 198.226 346.56 199.21 347.203 199.551Z" fill="#161616"/>
<path d="M291.852 233.297C293.554 236.437 293.743 239.956 292.419 243.285C292.155 243.966 293.252 244.269 293.516 243.588C294.916 239.994 294.651 236.097 292.835 232.73C292.495 232.087 291.511 232.654 291.852 233.297Z" fill="#161616"/>
<path d="M338.54 211.316C340.659 213.359 341.756 216.008 341.68 218.959C341.68 219.677 342.815 219.677 342.815 218.959C342.891 215.743 341.68 212.754 339.334 210.522C338.805 209.992 338.01 210.825 338.54 211.316Z" fill="#161616"/>
<path opacity="0.29" d="M159.856 86.2417C173.021 90.0628 191.938 97.932 203.704 115.524C214.902 132.246 210.4 142.953 219.896 175.338C226.819 198.945 233.402 221.304 252.697 232.238C277.288 246.16 307.516 233.07 312.927 230.573C328.022 223.612 337.48 212.943 351.97 196.524C362.752 184.342 369.789 173.635 373.156 168.263C381.517 154.984 392.489 134.176 399.715 106.142C402.514 106.898 405.314 107.693 408.076 108.449C402.893 122.977 397.558 134.667 393.359 143.104C384.695 160.507 376.788 172.008 361.012 195.086C354.807 204.128 350.343 210.257 343.684 217.332C337.518 223.839 332.259 229.438 324.049 234.659C318.866 237.951 302.447 248.052 279.861 246.803C266.96 246.085 257.615 241.961 254.437 240.448C251.713 239.161 238.169 232.503 227.311 217.067C219.896 206.549 217.361 195.729 212.292 174.051C207.903 155.362 207.525 146.66 201.32 127.29C196.818 113.216 194.094 108.601 190.046 104.78C179.377 94.6405 164.358 94.5649 157.699 94.981C158.532 92.0301 159.175 89.117 159.856 86.2417Z" fill="#6D6C6C"/>
<path d="M99.287 67.8174C94.3687 73.9841 94.2552 86.9229 93.9526 112.838C93.8769 121.275 94.0661 128.236 94.2552 132.927C89.0343 140.607 83.8134 148.287 78.5547 156.005C84.0026 160.205 90.8881 164.593 99.2491 168.225C124.37 179.197 147.94 176.851 159.744 174.77C164.662 160.961 168.142 149.271 170.526 140.759C181.649 100.807 179.303 90.1008 175.747 82.8748C172.115 75.4218 166.97 71.071 164.624 69.1415C145.405 53.1005 111.393 52.5708 99.287 67.8174Z" fill="white" stroke="#161616" stroke-width="2" stroke-miterlimit="10"/>
<path d="M102.202 140.532C103.186 141.515 104.321 142.234 105.569 142.764C106.25 143.029 106.553 141.932 105.872 141.667C104.775 141.213 103.829 140.532 102.997 139.737C102.467 139.245 101.672 140.04 102.202 140.532Z" fill="#161616"/>
<path d="M93.8405 128.841C93.7648 131.83 94.635 134.668 96.4131 137.089C96.7158 137.543 97.4724 137.089 97.1319 136.673C95.4295 134.365 94.5971 131.717 94.7106 128.879C94.7106 128.312 93.8783 128.312 93.8405 128.841Z" fill="#161616"/>
<path d="M138.482 124.604C138.255 125.663 137.309 127.895 137.914 128.955C138.557 130.014 140.865 130.165 141.924 130.355C145.632 131.111 149.453 131.376 153.236 131.111C160.954 130.619 168.407 128.047 174.801 123.696C175.255 123.393 174.839 122.637 174.385 122.977C168.861 126.76 162.543 129.182 155.922 130.014C152.707 130.43 149.453 130.468 146.237 130.165C144.459 129.976 142.681 129.674 140.941 129.295C139.654 128.993 138.784 129.144 138.746 127.366C138.709 126.571 139.087 125.625 139.238 124.869C139.427 124.301 138.595 124.074 138.482 124.604Z" fill="#161616"/>
<path d="M87.8624 142.651C92.4023 147.531 97.7745 151.466 103.828 154.265C104.32 154.492 104.774 153.773 104.244 153.546C98.2664 150.785 92.932 146.926 88.4299 142.083C88.0894 141.629 87.4841 142.234 87.8624 142.651Z" fill="#161616"/>
<path d="M103.409 92.4845C102.16 92.6358 101.063 90.4037 100.798 89.4957C100.382 88.1337 100.458 86.6583 100.987 85.3341C102.047 82.648 104.884 81.0212 107.684 82.0427C110.294 82.9885 111.618 86.053 110.748 88.6256C110.257 90.101 109.122 91.236 107.722 91.8792C106.473 92.4467 104.355 93.0898 103.068 92.371C102.576 92.1062 102.16 92.825 102.652 93.0898C104.165 93.96 106.511 93.3547 107.987 92.6737C109.462 92.0305 110.635 90.8955 111.316 89.4201C112.678 86.3556 111.278 82.5724 108.138 81.286C104.733 79.8862 101.177 81.967 100.042 85.2585C99.4742 86.8853 99.512 88.7012 100.193 90.2902C100.685 91.463 101.933 93.4681 103.409 93.279C103.938 93.279 103.976 92.4467 103.409 92.4845Z" fill="#161616"/>
<path d="M93.9895 119.875C98.6429 123.583 104.318 125.55 110.295 125.474C110.825 125.474 110.863 124.604 110.295 124.604C104.583 124.68 99.0969 122.826 94.5948 119.27C94.1787 118.929 93.5733 119.535 93.9895 119.875Z" fill="#161616"/>
<path d="M115.214 146.32C125.466 149.99 136.286 151.617 147.144 151.163C147.674 151.125 147.712 150.293 147.144 150.293C136.362 150.747 125.618 149.12 115.441 145.488C114.911 145.299 114.684 146.131 115.214 146.32Z" fill="#161616"/>
<path d="M148.924 172.652C148.772 173.711 148.508 174.77 148.129 175.792C147.94 176.322 148.772 176.549 148.962 176.019C149.34 174.997 149.605 173.976 149.756 172.879C149.832 172.349 148.999 172.122 148.924 172.652Z" fill="#161616"/>
<path d="M153.007 172.463C153.007 173.371 152.817 174.241 152.401 175.035C152.136 175.527 152.893 175.943 153.12 175.451C153.612 174.506 153.877 173.484 153.839 172.425C153.877 171.895 153.007 171.895 153.007 172.463Z" fill="#161616"/>
<path d="M157.248 171.82C157.248 172.576 157.059 173.295 156.643 173.938C156.34 174.392 157.097 174.846 157.361 174.354C157.853 173.598 158.08 172.69 158.08 171.782C158.118 171.29 157.248 171.29 157.248 171.82Z" fill="#161616"/>
<path d="M124.786 90.7063C124.332 94.3761 123.916 98.008 123.462 101.678C123.387 102.397 123.008 103.607 123.5 104.25C124.143 105.083 125.846 104.969 126.754 105.121C133.564 106.18 140.449 106.899 147.297 107.353C147.826 107.391 147.826 106.52 147.297 106.483C141.206 106.066 135.152 105.461 129.137 104.591C128.418 104.477 127.699 104.364 126.943 104.25C126.337 104.175 125.24 104.213 124.749 103.91C123.538 103.153 124.37 100.619 124.522 99.4457C124.862 96.5326 125.203 93.6195 125.581 90.6685C125.732 90.1389 124.862 90.1389 124.786 90.7063Z" fill="#161616"/>
<path d="M125.431 90.6683C132.013 89.5711 138.672 90.3278 145.217 91.3871C146.693 91.6141 149.114 91.4627 149.568 93.203C149.87 94.3759 149.492 96.154 149.379 97.3646C149.076 100.543 148.357 103.683 147.374 106.747C147.222 107.277 148.017 107.504 148.206 106.974C149.341 103.531 150.06 99.9751 150.324 96.3431C150.4 95.1325 150.816 93.3544 150.287 92.1816C149.87 91.2357 148.925 91.1601 148.017 91.0087C140.488 89.6846 132.846 88.5875 125.241 89.8738C124.674 89.9494 124.901 90.7817 125.431 90.6683Z" fill="#161616"/>
<path d="M124.978 95.2082C133.225 93.7705 141.624 94.5272 149.493 97.4025C150.023 97.5916 150.212 96.7593 149.72 96.5701C141.7 93.657 133.15 92.9004 124.751 94.3758C124.221 94.4893 124.448 95.2838 124.978 95.2082Z" fill="#161616"/>
<path d="M136.667 98.8024C136.364 101.035 136.062 103.267 135.835 105.537C135.759 106.066 136.629 106.066 136.705 105.537C136.932 103.38 137.197 101.186 137.499 99.0294C137.575 98.4998 136.743 98.2728 136.667 98.8024Z" fill="#161616"/>
<path d="M137.046 99.2184C140.791 99.8616 144.536 100.543 148.282 101.186C148.812 101.261 149.039 100.467 148.509 100.353C144.763 99.7102 141.018 99.0292 137.273 98.3861C136.743 98.2726 136.516 99.1049 137.046 99.2184Z" fill="#161616"/>
<path d="M126.869 157.595C126.68 160.508 125.431 163.421 124.485 166.183C123.539 168.982 122.556 171.782 121.497 174.544C121.307 175.073 122.14 175.262 122.329 174.771C123.464 171.782 124.523 168.755 125.545 165.691C126.415 163.08 127.55 160.356 127.701 157.595C127.739 157.065 126.907 157.065 126.869 157.595Z" fill="#161616"/>
<path d="M127.208 157.519C133.866 158.729 140.563 159.448 147.297 159.751C147.146 159.599 146.994 159.448 146.881 159.335C147.108 165.161 145.973 170.873 143.476 176.132C143.249 176.624 143.968 177.04 144.195 176.548C146.767 171.138 147.94 165.274 147.713 159.297C147.713 159.07 147.524 158.881 147.297 158.881C140.638 158.578 134.018 157.859 127.435 156.686C126.905 156.611 126.678 157.443 127.208 157.519Z" fill="#161616"/>
<path d="M125.276 166.409C131.708 168.982 138.631 169.852 145.517 168.944C146.046 168.868 146.046 168.036 145.517 168.074C138.707 168.982 131.897 168.112 125.503 165.577C125.012 165.388 124.784 166.182 125.276 166.409Z" fill="#161616"/>
<path d="M138.899 164.82C138.672 165.993 138.445 167.166 138.218 168.339C138.104 168.868 138.936 169.095 139.05 168.566C139.277 167.393 139.504 166.22 139.731 165.047C139.844 164.518 139.012 164.291 138.899 164.82Z" fill="#161616"/>
<path d="M127.168 173.219C126.828 173.182 126.79 172.69 126.866 172.463C126.941 172.16 127.131 171.933 127.395 171.782C127.925 171.441 128.53 171.593 128.871 172.122C129.514 173.182 128.228 174.317 127.244 173.56C126.828 173.22 126.223 173.825 126.639 174.165C127.471 174.808 128.682 174.771 129.401 174.014C130.157 173.22 129.968 171.858 129.136 171.177C128.266 170.458 126.979 170.723 126.336 171.631C125.693 172.539 125.958 173.976 127.168 174.127C127.698 174.127 127.698 173.295 127.168 173.219Z" fill="#161616"/>
<path d="M133.602 173.825C133.035 173.711 132.694 173.106 133.035 172.614C133.375 172.046 134.132 172.046 134.586 172.5C134.964 172.879 135.116 173.522 134.586 173.825C134.208 174.052 133.64 174.052 133.224 174.014C132.694 174.014 132.694 174.846 133.224 174.884C134.056 174.922 135.153 174.808 135.607 173.976C136.099 173.03 135.456 171.895 134.548 171.517C133.64 171.138 132.543 171.555 132.165 172.463C131.786 173.408 132.392 174.505 133.375 174.695C133.905 174.77 134.132 173.938 133.602 173.825Z" fill="#161616"/>
<path d="M139.881 174.127C138.671 173.824 139.276 172.046 140.411 172.5C140.827 172.652 141.092 173.219 140.978 173.635C140.827 174.165 140.222 174.468 139.692 174.354C139.162 174.241 138.935 175.073 139.465 175.186C140.449 175.413 141.508 174.884 141.773 173.9C142 173.03 141.47 171.971 140.6 171.706C139.73 171.441 138.671 171.933 138.406 172.841C138.103 173.787 138.746 174.77 139.654 174.997C140.184 175.073 140.411 174.278 139.881 174.127Z" fill="#161616"/>
<path d="M144.686 68.1958C150.323 70.5414 155.506 73.7194 160.159 77.654C160.727 78.108 161.521 77.3135 160.954 76.8595C156.149 72.7736 150.815 69.52 144.988 67.0987C144.307 66.796 144.043 67.8931 144.686 68.1958Z" fill="#161616"/>
<path d="M145.101 67.4392C145.782 66.7582 146.576 65.9259 147.484 65.5097C148.846 64.9044 149.792 65.2449 151.078 65.888C152.403 66.5312 153.651 67.3257 154.824 68.1958C157.51 70.1631 159.893 72.5088 162.277 74.8544C162.807 75.384 163.601 74.5517 163.071 74.0599C160.045 71.0711 156.98 68.0445 153.311 65.8124C152.1 65.0936 150.057 63.6938 148.544 63.8451C146.992 63.9964 145.366 65.6232 144.344 66.6447C143.777 67.1365 144.571 67.9688 145.101 67.4392Z" fill="#161616"/>
<path d="M161.106 77.6164C161.712 76.8597 162.317 76.0652 162.96 75.3464C163.414 74.7789 162.62 73.9844 162.166 74.5519C161.485 75.3842 160.804 76.2166 160.123 77.0489C159.934 77.2759 160.085 77.692 160.312 77.8434C160.652 77.9947 160.917 77.8434 161.106 77.6164Z" fill="#161616"/>
<path opacity="0.18" d="M100.572 69.1418C105.68 70.5795 111.165 71.9036 116.954 73.1143C123.991 74.5897 130.649 75.6869 136.892 76.4814C130.876 110.493 128.795 123.243 128.077 128.123C127.963 129.031 127.169 134.554 125.996 141.97C125.617 144.277 125.315 146.131 125.163 147.228C123.423 147.342 121.645 147.493 119.905 147.607C115.403 154.946 110.938 162.286 106.436 169.587C111.468 171.782 117.937 174.052 125.655 175.338C139.918 177.759 151.911 175.906 159.402 174.052C160.726 170.306 162.656 164.594 164.963 157.595C176.313 122.978 177.259 113.52 177.562 109.131C178.394 97.0623 178.848 89.4958 174.573 80.9456C165.985 63.8453 142.113 58.5865 140.94 58.3974C119.337 54.8033 103.334 66.9854 100.572 69.1418Z" fill="#6D6C6C"/>
<path opacity="0.28" d="M94.2159 133.268C93.989 133.343 94.7078 137.883 98.1505 140.418C99.6638 141.553 101.404 142.007 101.518 141.818C101.669 141.591 99.3612 140.532 97.1669 138.035C94.8969 135.462 94.3673 133.192 94.2159 133.268Z" fill="#6D6C6C"/>
<path opacity="0.33" d="M115.291 146.169C117.523 148.06 120.966 150.444 125.657 151.995C135.948 155.4 144.99 152.298 148.054 151.125C143.552 151.39 137.877 151.314 131.483 150.368C125.014 149.384 119.566 147.758 115.291 146.169Z" fill="#6D6C6C"/>
<path opacity="0.38" d="M174.764 91.8789C171.662 109.395 167.916 123.658 164.89 133.873C158.874 154.341 155.356 159.108 151.989 162.475C140.526 173.862 123.804 174.241 116.199 173.862C121.836 175.073 128.684 176.132 136.44 176.397C145.444 176.7 153.275 175.943 159.593 174.884C164.247 162.626 167.462 151.995 169.732 143.747C176.277 119.61 176.353 108.639 175.937 101.753C175.634 97.6295 175.142 94.2245 174.764 91.8789Z" fill="#6D6C6C"/>
<path d="M167.348 70.617C173.477 70.9953 177.298 83.2909 179.643 90.9331C182.292 99.4833 188.307 118.929 179.189 138.716C173.666 150.671 164.813 158.162 155.582 165.917C150.134 170.495 145.216 173.787 141.659 176.019C141.849 177.456 142.416 183.245 138.595 188.655C133.79 195.54 125.921 196.221 124.862 196.297C129.553 190.13 130.272 188.806 130.083 188.655C129.818 188.428 127.548 191.795 123.765 193.233C119.83 194.708 115.744 193.497 113.058 192.362C115.101 191.492 117.976 189.979 120.625 187.179C122.176 185.553 123.462 183.699 123.159 183.396C122.743 182.942 119.792 186.498 115.706 186.688C113.096 186.801 110.902 185.515 109.615 184.493C111.129 184.266 114.723 183.51 117.901 180.559C119.792 178.818 120.852 176.927 121.457 175.678C120.473 175.413 119.376 175.224 118.128 175.111C115.252 174.884 112.869 175.3 111.166 175.754C114.912 170.949 118.657 168.755 121.419 167.696C126.224 165.804 129.364 166.598 133.942 163.761C136.628 162.096 138.255 160.091 139.995 157.708C149.113 145.072 155.658 136.067 156.339 124.074C157.057 111.93 150.928 111.476 151.307 99.2184C151.761 85.0312 160.462 70.2008 167.348 70.617Z" fill="white" stroke="#161616" stroke-width="2" stroke-miterlimit="10"/>
<path d="M113.852 192.703C118.468 193.762 124.37 190.66 127.207 187.066C127.661 186.498 126.867 185.704 126.413 186.271C123.878 189.487 118.392 192.552 114.155 191.606C113.436 191.454 113.134 192.552 113.852 192.703Z" fill="#161616"/>
<path d="M156.491 116.697C160.237 112.271 165.987 111.249 171.473 110.871C172.002 110.833 172.002 109.963 171.473 110.001C165.76 110.417 159.783 111.476 155.886 116.092C155.545 116.508 156.151 117.113 156.491 116.697Z" fill="#161616"/>
<path d="M171.134 111.022C171.852 114.389 171.966 117.757 171.55 121.199C171.474 121.729 172.344 121.729 172.42 121.199C172.836 117.719 172.685 114.238 171.966 110.795C171.852 110.266 171.02 110.493 171.134 111.022Z" fill="#161616"/>
<path d="M156.718 126.08C160.842 122.637 166.176 122.032 171.321 121.502C171.851 121.464 171.851 120.594 171.321 120.632C165.911 121.161 160.425 121.88 156.113 125.474C155.696 125.815 156.302 126.42 156.718 126.08Z" fill="#161616"/>
<path d="M156.868 120.405C160.879 116.584 166.137 114.541 171.661 114.616C172.191 114.616 172.191 113.784 171.661 113.746C165.91 113.633 160.425 115.789 156.263 119.762C155.885 120.178 156.452 120.783 156.868 120.405Z" fill="#161616"/>
<path d="M177.109 86.5822C177.374 87.301 177.79 87.9442 178.357 88.4738C178.773 88.8521 179.379 88.2468 178.963 87.8685C178.509 87.4523 178.13 86.9227 177.941 86.3552C177.752 85.8634 176.958 86.0904 177.109 86.5822Z" fill="#161616"/>
<path d="M182.028 127.82C174.877 130.922 171.51 138.981 174.234 146.282C174.423 146.774 175.256 146.585 175.067 146.055C172.456 139.056 175.634 131.528 182.482 128.539C182.974 128.35 182.557 127.593 182.028 127.82Z" fill="#161616"/>
<path d="M138.706 159.826C140.068 162.248 141.279 165.161 143.208 167.166C144.873 168.868 147.143 169.814 149.375 170.495C149.904 170.646 150.131 169.852 149.602 169.663C147.294 168.982 145.024 167.998 143.435 166.106C141.77 164.139 140.673 161.567 139.425 159.334C139.198 158.918 138.441 159.372 138.706 159.826Z" fill="#161616"/>
<path d="M155.735 155.173C157.287 157.14 159.027 158.956 160.956 160.583C161.372 160.924 161.978 160.318 161.562 159.978C159.632 158.351 157.892 156.573 156.341 154.568C156 154.114 155.395 154.719 155.735 155.173Z" fill="#161616"/>
<path d="M156.602 154.832C157.056 154.189 157.586 153.206 158.267 152.752C159.364 152.033 159.856 152.714 160.688 153.281C162.201 154.303 163.639 155.4 165.039 156.573C165.455 156.913 166.06 156.308 165.644 155.967C164.623 155.097 163.563 154.265 162.466 153.47C161.558 152.827 160.385 151.654 159.326 151.39C157.813 151.011 156.564 153.319 155.846 154.341C155.543 154.832 156.3 155.286 156.602 154.832Z" fill="#161616"/>
<path opacity="0.25" d="M157.739 77.6161C161.371 81.475 169.165 90.8954 171.7 105.158C174.045 118.513 170.489 128.879 168.446 134.933C160.842 157.178 143.855 169.02 137.688 172.879C137.159 174.808 136.402 177.683 135.532 181.24C134.321 186.158 134.245 186.839 133.602 188.201C130.992 193.762 125.96 195.654 126.225 196.146C126.565 196.713 134.775 194.973 139.201 188.201C142.569 183.056 142.152 177.57 141.925 175.603C147.865 172.236 154.524 167.733 161.107 161.642C167.16 156.081 173.478 150.255 178.358 140.305C183.125 130.62 184.109 121.918 184.374 117.643C184.903 108.752 183.277 102.207 181.65 95.9271C178.964 85.4853 175.407 72.0169 168.257 71.1089C166.857 70.9576 163.112 70.9954 157.739 77.6161Z" fill="#6D6C6C"/>
<path opacity="0.28" d="M180.551 133.079C175.33 141.97 169.882 148.59 165.645 153.206C157.965 161.529 151.231 168.642 140.865 170.155C138.065 170.571 135.72 170.458 134.055 170.306C135.303 170.722 137.838 171.819 139.276 174.354C141.281 177.911 139.692 181.921 138.557 184.796C136.59 189.79 133.147 192.968 130.877 194.633C132.579 193.952 135.228 192.59 137.536 189.979C142.756 184.077 142.038 176.624 141.886 175.187C150.474 170.344 156.83 165.237 161.143 161.264C166.667 156.232 172.531 150.785 177.071 141.705C178.811 138.3 179.908 135.235 180.551 133.079Z" fill="#6D6C6C"/>
<path d="M92.8932 29.8333C90.8502 38.3078 94.747 45.3068 97.9249 51.0574C101.027 56.6945 103.6 61.3479 109.313 63.6178C109.842 63.8448 117.409 66.6823 124.597 62.7098C132.58 58.2834 133.828 48.9388 134.396 44.7015C134.85 41.3722 136.098 32.1032 130.045 24.3854C123.538 16.1 110.296 11.8628 101.292 17.3107C94.974 21.1696 93.2715 28.32 92.8932 29.8333Z" fill="white" stroke="#161616" stroke-width="2" stroke-miterlimit="10"/>
<path d="M108.367 17.1591C108.972 17.9914 110.107 19.2777 111.847 20.2613C114.798 21.9638 117.674 21.8125 118.809 21.699C119.036 23.2501 119.981 28.4332 124.483 32.1408C127.321 34.4864 132.958 37.3617 136.022 35.2431C139.541 32.8218 138.292 24.6499 135.304 19.6182C131.482 13.111 124.105 11.749 119.792 10.8788C117.144 10.3492 110.069 8.91154 108.14 12.1273C107.724 12.7705 107.156 14.2459 108.367 17.1591Z" fill="#EC615B"/>
<path d="M103.939 14.7757C104.733 15.0784 105.225 15.2675 105.603 15.7215C107.306 17.8402 105.149 23.7799 100.95 26.3903C98.7179 27.7523 96.448 27.8658 95.086 27.828C95.4643 29.2656 96.1453 32.5192 94.9725 36.3403C94.2537 38.6859 93.0809 40.3506 92.2107 41.3721C91.5297 40.4641 90.6974 39.1021 90.0542 37.2861C88.5031 32.8219 89.4868 28.8873 90.0542 26.7687C90.7731 24.0447 92.816 16.2512 98.7936 14.6622C101.631 13.9056 103.939 14.7757 103.939 14.7757Z" fill="#EC615B"/>
<path d="M90.0933 42.545C89.8663 40.0102 88.6179 25.0663 98.9462 18.8618C108.177 13.3004 119.149 19.2023 120.738 20.0346C129.364 24.8015 133.79 34.0327 133.979 42.3937C134.017 44.3988 134.206 53.3273 128.039 58.5861C124.899 61.2722 121.457 61.8775 116.879 62.7098C110.107 63.9205 104.394 63.353 100.686 62.7098C100.913 64.9041 101.14 67.1362 101.367 69.3305C109.312 70.9952 115.971 70.9952 120.511 70.6925C126.942 70.2764 131.861 69.0279 135.114 68.1956C140.827 66.7201 145.518 64.9419 149.037 63.3908C149.793 59.0779 150.588 52.8733 150.626 45.3825C150.663 34.7893 150.701 27.7903 147.145 20.1859C145.707 17.1215 140.449 5.84736 127.812 1.6101C113.512 -3.19464 101.178 4.75022 99.0597 6.18786C96.1465 8.15515 89.0718 13.603 85.8182 23.5152C85.3264 24.9907 82.9051 32.822 85.3642 42.4315C89.1475 57.2998 101.821 65.6229 102.427 65.1311C100.308 63.353 91.1905 55.4838 90.0933 42.545Z" fill="#161616"/>
<path d="M106.588 35.7729C107.799 40.048 108.745 44.3988 109.464 48.7874C109.577 49.5062 110.674 49.2035 110.561 48.4847C109.842 44.0961 108.896 39.7454 107.685 35.4703C107.496 34.7893 106.399 35.092 106.588 35.7729Z" fill="#161616"/>
<path d="M109.765 49.1659C111.959 49.6199 114.153 49.2794 116.12 48.1444C116.764 47.7661 116.196 46.7824 115.553 47.1608C113.85 48.1444 111.997 48.4471 110.067 48.0688C109.348 47.9174 109.046 49.0146 109.765 49.1659Z" fill="#161616"/>
<path d="M101.705 44.3985C100.381 42.9609 99.8514 41.0314 100.23 39.1019C99.9271 39.1776 99.5866 39.2533 99.2839 39.3668C100.003 40.1234 100.457 40.9936 100.759 41.9772C100.873 42.3177 100.986 42.696 101.1 43.0744C101.176 43.3014 101.213 43.5662 101.289 43.7932C101.289 44.1337 101.44 44.3228 101.819 44.3985C101.44 43.7932 100.457 44.3607 100.835 44.966C101.062 45.3821 101.516 45.5713 101.97 45.3443C102.575 45.0795 102.575 44.3985 102.462 43.831C102.084 41.9394 101.403 40.0099 100.078 38.5723C99.8136 38.2696 99.2083 38.4209 99.1326 38.8371C98.6786 41.1827 99.284 43.4527 100.911 45.2308C101.403 45.7605 102.197 44.9282 101.705 44.3985Z" fill="#161616"/>
<path d="M99.4772 40.0101C99.8177 41.599 100.347 43.1502 101.066 44.5878C101.369 45.231 102.352 44.6635 102.05 44.0203C101.369 42.6583 100.915 41.2207 100.574 39.7074C100.423 38.9886 99.3258 39.2912 99.4772 40.0101Z" fill="#161616"/>
<path d="M117.749 37.3618C116.804 36.0755 116.614 34.5244 117.144 33.0489C116.879 33.1624 116.577 33.2759 116.312 33.3894C117.182 33.8812 117.295 34.9784 117.522 35.8485C117.636 36.3404 117.749 36.8322 117.825 37.324C118.052 38.5347 117.447 36.6052 117.409 36.3404C117.371 35.6215 116.236 35.6215 116.274 36.3404C116.312 37.2105 116.69 38.2698 117.522 38.686C118.166 38.9886 118.884 38.7238 118.998 38.005C119.149 36.9835 118.62 35.5459 118.317 34.5622C118.052 33.6921 117.674 32.8976 116.841 32.4058C116.501 32.2166 116.123 32.4058 116.009 32.7463C115.366 34.4866 115.631 36.416 116.728 37.9293C117.182 38.5347 118.166 37.9672 117.749 37.3618Z" fill="#161616"/>
<path d="M116.389 33.6541C116.615 35.2052 116.994 36.6807 117.599 38.1184C117.864 38.7993 118.961 38.4967 118.696 37.8157C118.129 36.3781 117.713 34.9026 117.486 33.3514C117.41 32.6326 116.313 32.9353 116.389 33.6541Z" fill="#161616"/>
<path d="M96.0316 36.9836C96.2964 35.092 98.0367 33.8056 99.9284 34.1083C100.647 34.2218 100.95 33.1247 100.231 33.0112C97.5449 32.595 95.2371 34.2975 94.8966 36.9836C94.7831 37.7402 95.9181 37.7024 96.0316 36.9836Z" fill="#161616"/>
<path d="M112.643 29.8713C114.686 28.0175 117.561 28.0553 119.566 29.9091C120.096 30.4009 120.89 29.6064 120.361 29.1146C117.864 26.8068 114.345 26.769 111.848 29.0768C111.319 29.5686 112.113 30.3631 112.643 29.8713Z" fill="#161616"/>
<path d="M111.016 55.7864C115.972 55.8999 120.625 53.7434 123.766 49.8845C124.22 49.317 123.425 48.5225 122.971 49.09C120.058 52.7219 115.707 54.7649 111.054 54.6514C110.259 54.6136 110.259 55.7486 111.016 55.7864Z" fill="#161616"/>
<path d="M121.796 49.0904C122.666 49.2796 123.423 49.8471 123.725 50.6794C123.99 51.3604 125.087 51.0577 124.822 50.3767C124.368 49.1661 123.385 48.2581 122.098 47.9933C121.38 47.842 121.077 48.9391 121.796 49.0904Z" fill="#161616"/>
<path opacity="0.29" d="M123.651 22.002C126.639 30.4008 127.661 37.4755 128.039 42.3181C128.644 50.1494 127.623 52.8734 126.753 54.5002C123.688 60.2129 117.37 62.1802 115.062 62.7855C116.803 62.8234 123.159 62.8234 128.228 58.2456C134.319 52.6842 133.903 44.588 133.752 41.5236C133.184 30.5143 125.504 23.5909 123.651 22.002Z" fill="#6D6C6C"/>
</svg>
