<svg width="261" height="255" viewBox="0 0 261 255" fill="none" xmlns="http://www.w3.org/2000/svg">
<path d="M159.706 95.9478C141.586 105.955 133.36 109.697 125.815 114.042C119.812 117.474 111.082 123.131 101.393 131.987C99.0127 133.179 95.6356 134.339 92.7197 133.148C85.9201 130.272 89.4185 117.981 82.3859 107.147C76.9858 98.7713 66.4995 93.1088 56.6356 93.0806C37.9001 92.9346 25.3346 112.695 26.4367 114.083C27.4893 115.448 41.7979 100.814 56.3464 104.85C61.3609 106.27 64.8201 109.43 65.8303 110.36C71.7261 116.043 71.339 121.938 75.1579 130.257C77.1082 134.525 80.6062 140.38 87.3932 146.463C85.756 147.988 83.9014 150.13 82.5176 153.078C78.0202 162.957 83.4191 173.058 84.2837 174.577C84.2602 176.351 84.0716 179.42 82.4654 182.863C80.4811 187.148 77.4018 189.632 75.9152 190.69C76.8217 195.559 78.0739 199.394 79.0828 202.048C81.4996 208.191 83.0494 209.245 83.6485 209.633C87.5302 211.852 92.5546 209.409 93.6257 208.879C92.759 207.894 88.5858 202.747 89.2491 195.311C89.8952 188.045 94.8168 183.711 96.0608 182.663C97.4211 181.49 98.747 180.657 99.6969 180.132C101.681 182.868 103.886 186.833 103.669 191.555C103.379 198.029 98.7624 200.358 99.8295 205.002C100.978 209.861 107.167 212.641 111.468 213.264C116.089 213.972 121.77 212.716 122.164 210.513C122.62 208.041 115.626 206.922 114.104 201.835C112.727 197.349 116.488 192.554 119.208 189.015C127.881 177.919 136.439 178.074 140.707 169.103C142.674 164.989 142.795 160.878 142.553 157.973C159.411 143.889 172.722 140.349 182.152 139.885C187.752 139.604 196.145 141.054 208.103 138.274C213.541 137.028 217.806 135.613 222.762 133.852C228.771 131.733 241.867 127.084 241.434 124.867C241.045 123.086 232.149 123.552 229.531 123.685C216.975 124.351 213.936 127.805 206.513 126.315C200.732 125.146 194.013 121.295 194.078 117.576C194.161 113.151 203.981 113.278 207.688 105.424C208.293 104.208 208.762 102.634 207.243 88.2675C205.829 75.2568 204.981 72.3769 203.736 72.2342C201.808 72.0227 201.014 79.2219 196.147 80.7841C193.51 81.6223 190.864 80.4931 189.148 79.544C185.109 68.2697 182.821 65.8139 181.371 65.9955C178.691 66.3982 180.222 76.3675 173.938 85.3248C170.884 89.6054 167.543 91.6146 159.706 95.9478Z" fill="#643D3D"/>
<path d="M189.764 93.2669C189.792 93.3386 189.769 93.3881 189.747 93.4377C189.792 93.3386 189.769 93.3881 189.747 93.4377C189.863 93.3114 189.675 93.4649 189.747 93.4377C189.819 93.4104 189.675 93.4649 189.675 93.4649C189.604 93.4922 189.725 93.4872 189.675 93.4649C189.626 93.4427 189.576 93.4204 189.527 93.3982C189.527 93.3982 189.401 93.282 189.477 93.376C189.505 93.4477 189.45 93.3042 189.45 93.3042C189.477 93.376 189.428 93.3537 189.45 93.3042C189.472 93.2547 189.495 93.2052 189.517 93.1557C189.539 93.1062 189.611 93.0789 189.539 93.1062C189.611 93.0789 189.633 93.0294 189.683 93.0517C189.561 93.0567 189.683 93.0517 189.732 93.0739C189.534 92.9849 189.831 93.1184 189.732 93.0739C189.633 93.0294 189.858 93.1901 189.782 93.0961C189.705 93.0022 189.886 93.2619 189.782 93.0961C189.524 92.7424 188.962 92.6686 188.631 92.8767C188.277 93.1343 188.225 93.6465 188.411 94.0275C188.751 94.5964 189.538 94.831 190.134 94.5633C190.851 94.2907 191.207 93.4986 190.984 92.8033C190.761 92.1081 190.112 91.6977 189.412 91.7997C188.64 91.9289 188.158 92.6047 188.166 93.3818C188.208 93.8173 188.659 94.1387 189.094 94.0963C189.508 94.1035 189.757 93.6802 189.764 93.2669Z" fill="white"/>
<path d="M202.009 93.829C201.977 93.636 202.015 93.9503 201.921 94.027C201.898 94.0765 201.827 94.1038 201.804 94.1533C201.589 94.2351 201.27 94.1512 201.21 93.8864C201.123 93.5499 201.455 93.3419 201.675 93.3813C201.554 93.3864 201.675 93.3813 201.725 93.4036C201.824 93.448 201.9 93.542 201.928 93.6138C201.764 93.1833 201.269 92.9609 200.888 93.1467C200.458 93.3103 200.257 93.7559 200.421 94.1864C200.59 94.7381 201.211 95.0767 201.79 94.9798C202.49 94.8779 202.923 94.1798 202.799 93.529C202.675 92.8783 202.048 92.4184 201.375 92.5921C200.774 92.7385 200.314 93.3649 200.389 93.9934C200.481 94.4511 200.81 94.7776 201.317 94.708C201.703 94.6434 202.124 94.2373 202.009 93.829Z" fill="white"/>
<path d="M196.805 97.8579C196.779 98.9765 195.905 102.511 194.1 101.76C193.605 101.537 193.272 102.28 193.767 102.502C196.314 103.587 197.603 99.5253 197.604 97.8005C197.629 97.2165 196.807 97.3234 196.805 97.8579Z" fill="white"/>
<path d="M196.944 98.2173C196.851 99.4843 197.037 101.056 197.976 102.013C198.761 102.782 200.072 102.776 200.589 101.759C200.861 101.286 200.118 100.952 199.846 101.425C199.263 102.591 198.178 101.033 197.96 100.459C197.737 99.7634 197.635 99.0632 197.726 98.3306C197.778 97.8183 196.996 97.705 196.944 98.2173Z" fill="white"/>
<path d="M187.261 94.344C188.241 94.5463 189.061 94.9739 189.697 95.6762C190.054 96.0744 190.585 95.4208 190.207 95.0721C189.444 94.2535 188.476 93.7592 187.375 93.562C186.885 93.4608 186.771 94.2429 187.261 94.344Z" fill="white"/>
<path d="M203.704 93.1026C202.83 93.7219 202.133 94.4796 201.589 95.4252C201.317 95.8981 202.06 96.2316 202.332 95.7588C202.809 94.9617 203.412 94.2807 204.192 93.7383C204.617 93.4534 204.129 92.8178 203.704 93.1026Z" fill="white"/>
<path d="M177.77 122.09C182.489 115.821 189.724 117.464 205.633 113.306C216.351 110.505 222.988 107.121 224.007 108.827C224.789 110.131 221.629 113.59 220.534 114.705C217.579 117.839 214.459 119.353 213.222 119.988C208.099 122.386 198.908 126.29 183.154 128.911C180.066 129.428 176.901 129.851 175.866 128.315C174.644 126.398 177.47 122.491 177.77 122.09Z" fill="#643D3D"/>
<path opacity="0.73" d="M159.849 97.6185C156.069 89.0786 157.776 81.0399 158.147 79.4212C161.258 66.0042 172.905 59.8125 175.285 58.6206C188.04 52.2129 206.875 53.5937 216.645 66.0149C224.316 75.8267 222.527 87.7556 221.913 91.1091C219.893 101.566 212.605 112.095 201.16 116.116C184.329 122.062 165.911 111.408 159.849 97.6185Z" fill="white" stroke="#161616" stroke-width="2" stroke-miterlimit="10"/>
</svg>
