<svg width="81" height="81" viewBox="0 0 81 81" fill="none" xmlns="http://www.w3.org/2000/svg">
<g clip-path="url(#clip0_318_1596)">
<path d="M49.3976 25.3339C41.0655 26.393 34.919 21.7442 32.6702 21.1633C30.4214 20.5824 27.6238 21.9578 26.8457 24.4601C25.8399 27.6942 27.6494 29.1168 30.4798 30.7451C31.437 31.2957 34.5124 32.8984 34.5124 32.8984L18.0909 42.1933C14.7063 44.109 14.5994 47.4083 15.6529 49.2696C16.7064 51.1309 19.8362 52.295 22.8447 50.5921L29.1626 47.0161C29.1626 47.0161 27.5626 48.9849 29.1945 51.8681C30.8264 54.7513 33.9005 54.0999 33.9005 54.0999C33.9005 54.0999 33.0901 55.6509 34.6085 58.3335C36.0418 60.8657 39.2376 60.5465 39.2376 60.5465C39.2376 60.5465 38.9419 62.0711 40.2191 64.3275C41.1982 66.0574 44.8311 67.2121 47.4636 65.7221C58.8407 59.2825 74.8421 49.0367 66.3111 33.9647C64.0657 29.9603 57.7296 24.2748 49.3976 25.3339Z" fill="#C68D7B"/>
<path d="M29.1374 47.0301C33.8918 43.8994 36.1682 41.2629 36.5873 40.1319L23.1492 47.7381C19.5924 49.7513 17.1511 50.1165 16.0645 49.8459C17.3816 51.3489 20.1613 52.1107 22.8445 50.592L29.1374 47.0301Z" fill="#A9715F"/>
<path d="M33.9001 54.0998L39.0147 51.2048C39.4578 50.954 39.6137 50.3915 39.3629 49.9484C39.1121 49.5054 38.5496 49.3495 38.1065 49.6003L30.9671 53.6413C32.4097 54.4087 33.8813 54.1037 33.9001 54.0998Z" fill="#A9715F"/>
<path d="M44.9787 57.2967L39.2373 60.5464C39.2211 60.548 37.793 60.6861 36.422 60.0213L44.0705 55.6921C44.5135 55.4413 45.076 55.5972 45.3268 56.0403C45.5776 56.4834 45.4217 57.0459 44.9787 57.2967Z" fill="#A9715F"/>
</g>
<defs>
<clipPath id="clip0_318_1596">
<rect width="59" height="59" fill="white" transform="translate(0 29.0625) rotate(-29.5105)"/>
</clipPath>
</defs>
</svg>
