<svg width="56" height="56" viewBox="0 0 56 56" fill="none" xmlns="http://www.w3.org/2000/svg">
<mask id="path-1-inside-1_318_1599" fill="white">
<path fill-rule="evenodd" clip-rule="evenodd" d="M28 56C43.464 56 56 43.464 56 28C56 12.536 43.464 0 28 0C12.536 0 0 12.536 0 28C0 28.2782 0.00405699 28.5554 0.012115 28.8317H0V56H27.7228V55.9987C27.8151 55.9996 27.9075 56 28 56Z"/>
</mask>
<path fill-rule="evenodd" clip-rule="evenodd" d="M28 56C43.464 56 56 43.464 56 28C56 12.536 43.464 0 28 0C12.536 0 0 12.536 0 28C0 28.2782 0.00405699 28.5554 0.012115 28.8317H0V56H27.7228V55.9987C27.8151 55.9996 27.9075 56 28 56Z" fill="#E03E3D"/>
<path d="M0.012115 28.8317V30.8317H2.07131L2.01126 28.7734L0.012115 28.8317ZM0 28.8317V26.8317H-2V28.8317H0ZM0 56H-2V58H0V56ZM27.7228 56V58H29.7228V56H27.7228ZM27.7228 55.9987L27.7422 53.9988L25.7228 53.9791V55.9987H27.7228ZM54 28C54 42.3594 42.3594 54 28 54V58C44.5685 58 58 44.5685 58 28H54ZM28 2C42.3594 2 54 13.6406 54 28H58C58 11.4315 44.5685 -2 28 -2V2ZM2 28C2 13.6406 13.6406 2 28 2V-2C11.4315 -2 -2 11.4315 -2 28H2ZM2.01126 28.7734C2.00377 28.5165 2 28.2587 2 28H-2C-2 28.2976 -1.99566 28.5943 -1.98703 28.89L2.01126 28.7734ZM0 30.8317H0.012115V26.8317H0V30.8317ZM2 56V28.8317H-2V56H2ZM27.7228 54H0V58H27.7228V54ZM25.7228 55.9987V56H29.7228V55.9987H25.7228ZM28 54C27.9139 54 27.828 53.9996 27.7422 53.9988L27.7033 57.9986C27.8022 57.9995 27.9011 58 28 58V54Z" fill="black" mask="url(#path-1-inside-1_318_1599)"/>
<path d="M41.975 20.1471C41.5147 19.0798 40.8511 18.1127 40.0212 17.2998C39.1908 16.4844 38.2116 15.8365 37.137 15.3912C36.0227 14.9276 34.8275 14.6904 33.6209 14.6931C31.9281 14.6931 30.2765 15.1574 28.8413 16.0343C28.4979 16.244 28.1717 16.4744 27.8627 16.7255C27.5536 16.4744 27.2275 16.244 26.8841 16.0343C25.4488 15.1574 23.7972 14.6931 22.1044 14.6931C20.8855 14.6931 19.7043 14.927 18.5884 15.3912C17.5102 15.8383 16.5385 16.4813 15.7041 17.2998C14.8732 18.1117 14.2094 19.0791 13.7504 20.1471C13.2731 21.2578 13.0293 22.4373 13.0293 23.6512C13.0293 24.7964 13.2628 25.9896 13.7263 27.2035C14.1143 28.218 14.6706 29.2703 15.3813 30.3329C16.5076 32.0144 18.0562 33.7682 19.979 35.5461C23.1654 38.4932 26.321 40.5289 26.4549 40.6115L27.2687 41.1342C27.6292 41.3646 28.0927 41.3646 28.4533 41.1342L29.267 40.6115C29.401 40.5255 32.553 38.4932 35.7429 35.5461C37.6658 33.7682 39.2143 32.0144 40.3406 30.3329C41.0513 29.2703 41.611 28.218 41.9956 27.2035C42.4591 25.9896 42.6926 24.7964 42.6926 23.6512C42.6961 22.4373 42.4523 21.2578 41.975 20.1471Z" fill="white"/>
</svg>
