<svg width="281" height="73" viewBox="0 0 281 73" fill="none" xmlns="http://www.w3.org/2000/svg">
<rect x="1" y="1" width="279" height="71" rx="35.5" fill="#339969" stroke="black" stroke-width="2"/>
<path d="M53.349 53.5504C51.6208 53.5504 50.0642 53.2427 48.6793 52.6271C47.3062 51.9998 46.2172 51.0765 45.4123 49.8572C44.6192 48.638 44.2226 47.1347 44.2226 45.3473C44.2226 43.8085 44.5067 42.536 45.0749 41.5298C45.6431 40.5237 46.4184 39.7188 47.4009 39.1151C48.3834 38.5114 49.4901 38.0556 50.7212 37.7479C51.9641 37.4283 53.2484 37.1974 54.5742 37.0554C56.1722 36.8897 57.4684 36.7417 58.4627 36.6115C59.457 36.4695 60.1791 36.2564 60.6289 35.9723C61.0905 35.6764 61.3213 35.2206 61.3213 34.6051V34.4986C61.3213 33.161 60.9248 32.1252 60.1317 31.3913C59.3386 30.6574 58.1963 30.2905 56.7049 30.2905C55.1305 30.2905 53.8817 30.6338 52.9584 31.3203C52.047 32.0069 51.4314 32.8177 51.1118 33.7528L45.1104 32.9006C45.5839 31.2434 46.3651 29.8584 47.4542 28.7457C48.5432 27.6212 49.8749 26.7808 51.4492 26.2244C53.0235 25.6562 54.7636 25.3722 56.6694 25.3722C57.9833 25.3722 59.2913 25.526 60.5934 25.8338C61.8954 26.1416 63.0851 26.6506 64.1623 27.3608C65.2394 28.0592 66.1035 29.0121 66.7546 30.2195C67.4175 31.4268 67.7489 32.9361 67.7489 34.7472V53H61.5699V49.2536H61.3569C60.9662 50.0111 60.4158 50.7214 59.7056 51.3842C59.0072 52.0353 58.1253 52.562 57.06 52.9645C56.0065 53.3551 54.7695 53.5504 53.349 53.5504ZM55.0181 48.8274C56.3083 48.8274 57.4269 48.5729 58.3739 48.0639C59.3209 47.5431 60.0489 46.8565 60.5579 46.0043C61.0787 45.152 61.3391 44.2228 61.3391 43.2166V40.0028C61.1379 40.1686 60.7946 40.3224 60.3093 40.4645C59.8358 40.6065 59.3031 40.7308 58.7113 40.8374C58.1194 40.9439 57.5335 41.0386 56.9535 41.1214C56.3734 41.2043 55.8704 41.2753 55.4442 41.3345C54.4854 41.4647 53.6272 41.6778 52.8696 41.9737C52.1121 42.2696 51.5143 42.6839 51.0763 43.2166C50.6383 43.7375 50.4194 44.4122 50.4194 45.2408C50.4194 46.4245 50.8514 47.3182 51.7155 47.9219C52.5796 48.5256 53.6805 48.8274 55.0181 48.8274ZM74.4961 53V16.6364H80.9236V30.2372H81.19C81.5214 29.5743 81.989 28.87 82.5927 28.1243C83.1963 27.3667 84.0131 26.7216 85.0429 26.1889C86.0728 25.6444 87.3867 25.3722 88.9847 25.3722C91.0917 25.3722 92.9916 25.9107 94.6843 26.9879C96.3888 28.0533 97.7383 29.6335 98.7326 31.7287C99.7387 33.812 100.242 36.3688 100.242 39.3991C100.242 42.3939 99.7506 44.9389 98.7681 47.0341C97.7856 49.1293 96.448 50.7273 94.7553 51.8281C93.0626 52.929 91.145 53.4794 89.0025 53.4794C87.44 53.4794 86.1438 53.219 85.114 52.6982C84.0841 52.1773 83.2555 51.55 82.6282 50.8161C82.0126 50.0703 81.5332 49.366 81.19 48.7031H80.8171V53H74.4961ZM80.7993 39.3636C80.7993 41.1274 81.0479 42.6721 81.5451 43.9979C82.0541 45.3236 82.782 46.3594 83.729 47.1051C84.6878 47.839 85.8479 48.206 87.2091 48.206C88.6296 48.206 89.8192 47.8272 90.778 47.0696C91.7368 46.3002 92.4589 45.2526 92.9442 43.9268C93.4414 42.5893 93.69 41.0682 93.69 39.3636C93.69 37.6709 93.4473 36.1676 92.962 34.8537C92.4767 33.5398 91.7546 32.5099 90.7958 31.7642C89.837 31.0185 88.6414 30.6456 87.2091 30.6456C85.836 30.6456 84.6701 31.0066 83.7113 31.7287C82.7525 32.4508 82.0245 33.4628 81.5273 34.7649C81.042 36.067 80.7993 37.5999 80.7993 39.3636ZM117.602 53.5327C114.939 53.5327 112.631 52.9467 110.678 51.7749C108.725 50.603 107.209 48.9635 106.132 46.8565C105.067 44.7495 104.534 42.2874 104.534 39.4702C104.534 36.6529 105.067 34.1849 106.132 32.0661C107.209 29.9472 108.725 28.3018 110.678 27.13C112.631 25.9581 114.939 25.3722 117.602 25.3722C120.266 25.3722 122.574 25.9581 124.527 27.13C126.48 28.3018 127.989 29.9472 129.055 32.0661C130.132 34.1849 130.671 36.6529 130.671 39.4702C130.671 42.2874 130.132 44.7495 129.055 46.8565C127.989 48.9635 126.48 50.603 124.527 51.7749C122.574 52.9467 120.266 53.5327 117.602 53.5327ZM117.638 48.3835C119.082 48.3835 120.289 47.987 121.26 47.1939C122.231 46.389 122.953 45.3118 123.426 43.9624C123.912 42.6129 124.154 41.1096 124.154 39.4524C124.154 37.7834 123.912 36.2741 123.426 34.9247C122.953 33.5634 122.231 32.4804 121.26 31.6754C120.289 30.8705 119.082 30.468 117.638 30.468C116.158 30.468 114.927 30.8705 113.945 31.6754C112.974 32.4804 112.246 33.5634 111.761 34.9247C111.287 36.2741 111.051 37.7834 111.051 39.4524C111.051 41.1096 111.287 42.6129 111.761 43.9624C112.246 45.3118 112.974 46.389 113.945 47.1939C114.927 47.987 116.158 48.3835 117.638 48.3835ZM153.509 41.5298V25.7273H159.936V53H153.704V48.1527H153.42C152.805 49.6797 151.792 50.9285 150.384 51.8991C148.987 52.8698 147.265 53.3551 145.217 53.3551C143.43 53.3551 141.849 52.9586 140.476 52.1655C139.115 51.3606 138.05 50.1946 137.28 48.6676C136.511 47.1288 136.126 45.2704 136.126 43.0923V25.7273H142.554V42.098C142.554 43.8262 143.027 45.1993 143.974 46.2173C144.921 47.2353 146.164 47.7443 147.703 47.7443C148.65 47.7443 149.567 47.5135 150.455 47.0518C151.343 46.5902 152.071 45.9036 152.639 44.9922C153.219 44.0689 153.509 42.9148 153.509 41.5298ZM180.165 25.7273V30.6989H164.486V25.7273H180.165ZM168.357 19.1932H174.785V44.7969C174.785 45.661 174.915 46.3239 175.175 46.7855C175.447 47.2353 175.803 47.5431 176.241 47.7088C176.679 47.8745 177.164 47.9574 177.697 47.9574C178.099 47.9574 178.466 47.9278 178.797 47.8686C179.141 47.8094 179.401 47.7562 179.579 47.7088L180.662 52.7337C180.318 52.852 179.827 52.9822 179.188 53.1243C178.561 53.2663 177.791 53.3492 176.88 53.3729C175.27 53.4202 173.82 53.1776 172.53 52.6449C171.239 52.1004 170.215 51.2599 169.458 50.1236C168.712 48.9872 168.345 47.5668 168.357 45.8622V19.1932Z" fill="white"/>
<circle cx="245" cy="36" r="26" fill="white"/>
</svg>
