<svg width="93" height="104" viewBox="0 0 93 104" fill="none" xmlns="http://www.w3.org/2000/svg">
<path d="M23.9399 99.1674L16.4715 96.2671L9.87318 100.69L10.3082 92.7141L4 87.7836L11.7584 85.7533L14.5138 78.2124L18.8643 85.0282L26.8402 85.3182L21.7646 91.4815L23.9399 99.1674Z" stroke="#E8E8E8" stroke-width="3" stroke-miterlimit="10"/>
<path d="M11.1772 74.0068C22.1985 55.372 35.6851 38.405 51.492 23.5407C52.5071 22.5981 50.9845 21.0754 49.9693 22.018C34.0899 36.9548 20.3858 54.0669 9.29199 72.9191C8.5669 74.1518 10.4521 75.2394 11.1772 74.0068Z" fill="#E8E8E8"/>
<path d="M26.8419 70.3811C44.534 43.9155 66.7941 20.7852 92.5347 2.07794C93.6223 1.28034 92.6072 -0.604887 91.4471 0.192708C65.4165 19.1175 42.8663 42.5378 25.0291 69.2935C24.159 70.4536 26.0443 71.5413 26.8419 70.3811Z" fill="#E8E8E8"/>
<path d="M30.759 91.264C39.3151 80.7502 48.4511 70.599 57.9498 60.9554C58.9649 59.9402 57.3697 58.4175 56.4271 59.4327C46.856 69.0763 37.7924 79.2275 29.2364 89.7413C28.3663 90.7564 29.8889 92.3516 30.759 91.264Z" fill="#E8E8E8"/>
</svg>
