<svg width="1440" height="42" viewBox="0 0 1440 42" fill="none" xmlns="http://www.w3.org/2000/svg">
<path d="M1440 42V16.5C1440 16.5 1440 16.5 1440 14.9459C1379.97 14.9459 1379.97 0 1319.9 0C1259.82 0 1259.82 14.9459 1199.79 14.9459C1139.77 14.9459 1139.77 0 1079.69 0C1019.66 0 1019.66 14.9459 959.59 14.9459C899.516 14.9459 899.516 0 839.487 0C779.458 0 779.458 14.9459 719.384 14.9459C659.311 14.9459 659.311 0 599.282 0C539.252 0 539.252 14.9459 479.179 14.9459C419.15 14.9459 419.15 0 359.076 0C299.047 0 299.047 14.9459 238.974 14.9459C178.945 14.9459 178.945 0 118.871 0C59.2377 0 58.7979 14.7292 0 14.9242V42H1440Z" fill="#4C1FAD"/>
</svg>
