<svg width="1320" height="42" viewBox="0 0 1320 42" fill="none" xmlns="http://www.w3.org/2000/svg">
<path d="M1440 0V25.5C1440 25.5 1440 25.5 1440 27.0541C1379.97 27.0541 1379.97 42 1319.9 42C1259.82 42 1259.82 27.0541 1199.79 27.0541C1139.77 27.0541 1139.77 42 1079.69 42C1019.66 42 1019.66 27.0541 959.59 27.0541C899.516 27.0541 899.516 42 839.487 42C779.458 42 779.458 27.0541 719.384 27.0541C659.311 27.0541 659.311 42 599.282 42C539.252 42 539.252 27.0541 479.179 27.0541C419.15 27.0541 419.15 42 359.076 42C299.047 42 299.047 27.0541 238.974 27.0541C178.945 27.0541 178.945 42 118.871 42C59.2377 42 58.7979 27.2708 0 27.0758V0H1440Z" fill="#4C1FAD"/>
</svg>
