<svg width="298" height="297" viewBox="0 0 298 297" fill="none" xmlns="http://www.w3.org/2000/svg">
<rect x="1.39895" width="157.487" height="157.487" rx="24" transform="matrix(0.699473 -0.714659 0.699473 0.714659 74.4204 165.036)" fill="#EC615B" stroke="black" stroke-width="2"/>
<mask id="mask0_650_1620" style="mask-type:alpha" maskUnits="userSpaceOnUse" x="0" y="0" width="297" height="297">
<circle cx="148.5" cy="148.5" r="148.5" fill="#D9D9D9"/>
</mask>
<g mask="url(#mask0_650_1620)">
<path d="M201.639 284.186C200.31 293.392 193.86 297.921 181.061 315.052C168.803 331.446 160.532 346.018 155.412 355.814C151.425 364.872 147.29 376.983 145.321 391.653C141.382 421.387 148.717 445.51 153.739 458.26C144.976 459.737 136.213 461.263 127.45 462.74C120.361 445.805 113.026 421.929 112.928 393.081C112.829 362.559 120.706 339.47 135.229 300.087C141.825 282.167 151.474 258.242 165.209 230.674C198.291 255.731 203.263 273.011 201.639 284.186Z" fill="#EC615B"/>
<path d="M217.587 242.39C220.344 245.885 224.135 251.103 228.024 257.799C239.987 278.278 242.99 295.804 246.731 315.003C251.506 339.519 257.611 363.691 262.681 388.157C267.653 412.181 271.936 431.824 274.792 444.82C274.349 445.657 269.82 453.337 261.057 454.174C256.38 454.617 252.737 452.845 251.162 451.959C238.067 428.575 229.895 408.489 224.775 394.213C211.286 356.7 208.234 329.181 185.195 292.997C181.256 286.795 177.712 281.872 175.3 278.721C166.34 267.054 167.915 250.365 178.598 240.765C189.576 230.772 207.052 231.363 217.587 242.39Z" fill="#EC615B"/>
<path d="M199.028 258.685C201.096 269.762 206.068 282.709 218.818 284.383C219.754 284.481 219.754 283.004 218.818 282.906C206.806 281.331 202.376 268.531 200.456 258.291C200.308 257.356 198.881 257.75 199.028 258.685Z" fill="#842B08"/>
<path d="M219.458 267.349C235.654 310.129 248.355 354.189 257.413 399.037C259.973 411.837 262.287 424.735 264.256 437.633C264.404 438.568 265.831 438.174 265.684 437.239C258.742 392.046 248.158 347.396 233.931 303.926C229.894 291.52 225.513 279.164 220.885 266.955C220.541 266.069 219.113 266.463 219.458 267.349Z" fill="#842B08"/>
<path d="M180.468 286.105C185.785 294.622 191.052 303.139 196.369 311.655C196.861 312.443 198.141 311.705 197.649 310.917C192.332 302.4 187.064 293.884 181.748 285.367C181.206 284.579 179.926 285.318 180.468 286.105Z" fill="#842B08"/>
<path opacity="0.41" d="M190.758 251.744C199.471 261.786 211.582 277.687 221.625 299.496C227.089 311.36 231.421 327.163 240.085 358.669C249.488 392.933 254.017 414.692 255.347 421.387C258.005 434.532 259.925 445.707 261.303 454.026C262.682 453.879 264.355 453.485 266.128 452.697C271.1 450.482 273.66 446.494 274.644 444.722C274.103 442.014 273.266 438.027 272.232 433.153C270.312 424.046 269.032 418.089 267.605 411.542C266.325 405.683 264.552 397.314 262.386 387.025C261.254 381.413 260.22 376.884 259.531 373.783C258.202 367.974 257.365 364.971 256.085 358.817C255.297 355.125 254.953 353.156 254.46 350.694C252.54 340.848 251.654 338.732 249.537 329.181C246.928 317.268 244.861 304.665 242.793 295.804C242.399 294.081 242.055 292.751 241.858 292.062C241.218 289.552 240.282 286.253 238.953 282.463C234.916 270.598 230.535 262.771 225.907 254.697C218.966 242.538 216.849 241.504 215.815 241.061C205.92 237.024 192.825 249.676 190.758 251.744Z" fill="#6C6D6D"/>
<path opacity="0.39" d="M180.667 285.318C162.157 307.57 151.08 328.394 144.483 343.113C134.391 365.562 117.653 402.927 126.958 446.15C128.435 452.894 130.207 458.359 131.487 461.854C138.871 460.623 146.305 459.393 153.689 458.162C151.572 453.042 149.062 446.002 147.142 437.387C145.665 430.692 141.923 411.64 145.813 387.863C147.536 377.18 150.243 369.352 151.179 366.596C154.132 358.177 157.381 352.073 159.892 347.396C161.172 344.935 164.323 339.224 170.969 329.378C175.744 322.289 182.341 313.083 190.907 302.647C187.46 296.838 184.064 291.078 180.667 285.318Z" fill="#6C6D6D"/>
<path opacity="0.48" d="M184.999 292.949C178.156 301.712 170.476 313.083 163.683 327.065C153.788 347.396 149.16 366.153 146.896 380.134C148.471 373.685 151.08 364.725 155.757 354.682C159.941 345.673 163.978 339.52 169.344 331.397C174.415 323.766 181.504 313.822 190.857 302.598C188.937 299.349 186.968 296.149 184.999 292.949Z" fill="#6C6D6D"/>
<path opacity="0.48" d="M242.006 293.343C247.323 321.846 252.344 351.187 257.021 381.315C260.713 405.29 264.06 428.821 267.063 451.959C267.95 451.565 268.983 450.974 270.017 450.187C272.577 448.267 274.005 445.953 274.743 444.476C263.864 394.065 252.935 343.704 242.006 293.343Z" fill="#6C6D6D"/>
<path d="M63.1625 89.2386C62.8179 89.4355 60.5041 90.617 60.258 92.8323C60.0118 94.7523 61.4395 96.2291 62.2764 97.1153C66.707 101.694 75.4206 100.561 77.3405 100.266C78.8174 100.709 81.0819 101.497 83.6418 102.727C91.3216 106.42 95.9984 111.392 97.8199 113.312C103.383 119.071 111.506 124.634 127.751 135.809C132.674 139.206 140.009 144.031 149.363 149.298C151.086 149.298 153.941 149.101 156.993 147.723C158.175 147.181 166.002 143.637 166.642 136.006C167.184 130 162.852 125.668 162.162 124.979C154.483 121.927 148.132 119.17 143.505 117.102C113.918 103.958 96.0476 92.8816 92.0108 90.3216C89.0571 88.4509 86.6449 86.8756 85.0203 85.8418C83.888 83.8726 81.1804 79.7866 76.0113 77.079C75.0267 76.5867 67.6424 72.8453 59.3719 75.5037C57.8458 75.9959 56.615 76.5867 55.7781 77.079C51.446 76.5375 46.1785 76.1436 45.8831 77.3251C45.6862 78.1128 47.7538 79.2451 50.6091 80.9189C53.6121 82.7403 57.9442 85.4479 63.1625 89.2386Z" fill="white"/>
<path d="M77.5859 99.6748C73.9922 100.069 70.3492 99.8718 66.8539 98.8379C65.2294 98.3457 63.4571 97.7549 62.2756 96.5242C59.7649 93.9643 61.7833 91.4043 64.0479 89.829C64.8355 89.2875 64.0971 88.0075 63.3094 88.5491C61.6849 89.6813 59.9618 90.9121 59.6172 92.9797C59.2726 94.9488 60.3064 96.8196 61.8326 98.0503C65.8693 101.398 72.663 101.693 77.5859 101.152C78.5213 101.053 78.5213 99.5764 77.5859 99.6748Z" fill="#161616"/>
<path d="M62.6708 88.3029C59.9139 86.383 57.1571 84.5122 54.351 82.74C53.0711 81.9031 51.7911 81.1154 50.5112 80.3278C49.7235 79.8355 48.9358 79.3924 48.1482 78.9001C47.6559 78.6047 45.9328 77.9648 45.8344 77.5217C45.7359 77.8171 45.5882 78.0632 45.4898 78.3586C47.8035 76.6356 52.7265 77.8171 55.1879 78.4078C57.994 79.097 61.1939 79.9339 63.6554 81.5093C64.443 82.0016 65.1815 80.7216 64.3938 80.2293C61.3908 78.3094 57.3048 77.2755 53.8587 76.5863C51.2988 76.094 47.0159 75.4048 44.7513 77.0786C44.5052 77.2755 44.3083 77.5709 44.4068 77.9155C44.7021 78.9001 45.8344 79.2447 46.6221 79.737C48.3451 80.7216 50.0189 81.7554 51.6927 82.7892C55.1879 84.9553 58.5847 87.2198 61.9323 89.5828C62.72 90.1244 63.4584 88.8444 62.6708 88.3029Z" fill="#161616"/>
<path d="M56.0237 78.1126C60.9466 74.962 67.1987 74.2235 72.6632 76.5865C77.7338 78.7526 81.3767 83.0848 84.7243 87.3185C85.3151 88.0569 86.3489 87.0231 85.7581 86.2847C82.0167 81.6079 77.8815 76.8327 72.0724 74.765C66.5095 72.7959 60.2574 73.682 55.3345 76.8819C54.4976 77.325 55.236 78.6049 56.0237 78.1126Z" fill="#161616"/>
<path d="M84.9228 87.0723C109.439 101.939 134.989 114.985 161.425 126.111C162.311 126.456 162.705 125.028 161.819 124.683C135.53 113.607 110.079 100.61 85.6613 85.7923C84.8244 85.3492 84.0859 86.58 84.9228 87.0723Z" fill="#161616"/>
<path d="M76.7487 100.61C83.8377 102.383 89.3021 107.256 94.7666 111.835C100.379 116.511 106.04 121.139 111.849 125.619C123.664 134.726 136.07 143.144 149.313 150.086C150.149 150.529 150.888 149.249 150.051 148.806C136.464 141.668 123.763 133.003 111.603 123.6C105.548 118.924 99.6895 114.05 93.8312 109.176C88.8098 104.992 83.5916 100.807 77.1425 99.2319C76.2072 98.9366 75.8133 100.364 76.7487 100.61Z" fill="#161616"/>
<path d="M160.98 126.258C166.986 128.769 166.789 136.252 163.54 140.928C160.734 144.965 154.235 150.036 149.066 148.165C148.18 147.821 147.786 149.248 148.672 149.593C154.924 151.857 162.752 145.556 165.607 140.387C168.659 134.873 167.576 127.489 161.324 124.88C160.487 124.437 160.094 125.864 160.98 126.258Z" fill="#161616"/>
<path d="M167.331 124.634C166.149 124.88 164.426 125.421 162.605 126.504C159.355 128.523 157.682 131.279 156.451 133.593C150.888 144.03 149.362 152.005 149.362 152.005C147.294 162.835 148.525 171.598 149.362 177.26C150.839 187.253 152.414 186.564 154.088 197.542C154.826 202.366 155.762 210.44 155.269 220.434C154.925 227.326 154.039 233.184 153.153 237.664C154.285 238.944 156.008 240.765 158.371 242.636C170.678 252.334 185.545 251.596 190.271 251.349C203.711 250.66 213.557 245.097 218.381 241.897C218.874 241.208 219.317 240.47 219.809 239.781C218.972 237.664 217.84 234.316 216.954 230.082C214.935 220.187 216.068 213.295 216.954 201.53C217.347 196.114 217.84 188.139 217.889 178.146C216.708 178.146 215.526 178.146 214.344 178.146C213.458 178.195 205.434 178.343 200.413 171.992C196.08 166.528 197.114 160.128 197.36 158.749C198.591 151.02 205.089 144.571 213.901 141.962C210.209 139.993 206.222 137.63 202.086 134.873C197.459 131.772 193.373 128.67 189.828 125.667C185.841 126.652 182.592 127.587 180.376 128.277C175.7 129.704 173.927 130.443 171.86 129.704C169.3 128.867 167.971 126.357 167.331 124.634Z" fill="white"/>
<path d="M168.071 124.536C163.099 124.289 159.357 127.834 156.748 131.723C153.351 136.744 151.037 142.652 149.462 148.461C146.016 161.359 147.542 173.962 150.496 186.761C152.071 193.456 153.745 200.152 154.434 207.044C155.123 214.428 154.73 221.911 153.696 229.246C153.351 231.855 152.219 234.957 152.465 237.566C152.711 239.88 155.123 241.356 156.846 242.636C161.622 246.181 167.086 248.692 172.846 250.218C186.679 253.861 201.202 251.35 214.1 245.689C214.986 245.295 214.198 244.015 213.362 244.409C202.088 249.332 189.436 251.891 177.178 249.676C171.714 248.692 166.397 246.821 161.622 244.015C159.505 242.784 156.945 241.307 155.271 239.486C152.957 236.926 154.828 231.757 155.271 228.557C156.846 216.643 156.206 205.173 153.548 193.456C150.89 181.543 147.739 169.876 149.167 157.568C149.954 150.824 151.874 144.227 154.828 138.123C157.339 132.905 161.277 125.668 168.021 126.012C169.055 126.062 169.055 124.585 168.071 124.536Z" fill="#161616"/>
<path d="M201.742 135.858C205.582 137.876 209.373 140.042 213.163 142.258C214 142.75 214.739 141.47 213.902 140.978C210.16 138.762 206.37 136.646 202.481 134.578C201.644 134.135 200.905 135.415 201.742 135.858Z" fill="#161616"/>
<path d="M214.248 140.978C207.503 143.882 202.285 147.427 198.888 154.122C196.23 159.439 194.211 166.429 199.085 171.155C199.774 171.795 200.808 170.761 200.119 170.121C195.097 165.297 198.396 157.716 201.35 152.694C204.451 147.427 209.522 144.621 214.986 142.258C215.872 141.864 215.085 140.584 214.248 140.978Z" fill="#161616"/>
<path d="M216.956 179.376C218.138 189.911 215.873 200.249 215.233 210.735C214.642 220.729 215.873 230.722 218.778 240.273C219.073 241.159 220.501 240.814 220.205 239.879C217.252 230.131 216.07 219.99 216.759 209.8C217.449 199.659 219.516 189.567 218.384 179.376C218.335 178.441 216.858 178.441 216.956 179.376Z" fill="#161616"/>
<path d="M218.873 239.879C217.396 241.799 215.575 243.374 213.458 244.556C212.621 244.999 213.36 246.279 214.196 245.836C216.559 244.507 218.529 242.735 220.153 240.618C220.744 239.83 219.415 239.092 218.873 239.879Z" fill="#161616"/>
<path d="M198.74 170.909C203.466 176.472 210.359 179.524 217.644 179.327C218.58 179.327 218.58 177.85 217.644 177.85C210.703 177.998 204.254 175.094 199.774 169.826C199.134 169.137 198.1 170.171 198.74 170.909Z" fill="#161616"/>
<path opacity="0.15" d="M176.833 138.171C186.039 156.485 189.78 172.632 191.454 183.511C193.423 196.36 193.325 206.6 193.226 212.458C192.931 228.31 190.716 241.503 188.55 251.103C190.322 251.005 192.045 250.906 193.817 250.808C197.263 250.808 203.318 250.266 209.915 247.017C214.149 244.9 217.25 242.291 219.269 240.273C217.299 233.184 216.61 227.424 216.364 223.584C215.675 213.787 217.152 208.421 217.841 194.342C218.185 187.45 218.186 181.936 218.136 178.539C215.379 178.49 210.801 177.998 206.124 175.339C203.466 173.813 199.085 171.253 197.657 166.281C196.771 163.18 197.411 160.521 197.952 158.405C198.248 157.223 200.365 149.248 208.192 144.965C210.949 143.439 213.509 142.848 215.232 142.602C205.583 137.63 195.934 132.658 186.285 127.686C185.399 129.212 184.267 130.885 182.79 132.658C180.673 135.021 178.605 136.842 176.833 138.171Z" fill="#6C6D6D"/>
<path opacity="0.29" d="M202.383 173.371C204.253 183.61 205.779 197.69 204.253 214.231C202.924 228.852 199.626 241.012 196.426 250.119C199.576 249.971 204.302 249.331 209.619 247.165C214.394 245.196 217.939 242.587 220.204 240.667C219.17 237.91 217.89 233.972 217.053 229.147C216.708 227.08 216.117 223.289 216.117 216.889C216.068 206.256 217.545 203.105 217.988 192.521C218.136 189.469 218.185 184.693 217.791 178.786C216.167 178.983 213.311 179.081 209.964 178.047C206.075 176.817 203.564 174.601 202.383 173.371Z" fill="#6C6D6D"/>
<path d="M216.117 142.209C211.342 142.406 207.896 145.31 205.73 147.033C204.007 148.461 199.133 152.498 197.902 159.488C197.558 161.457 196.819 165.642 199.034 169.629C202.431 175.635 210.259 177.063 212.376 177.457C215.526 178.047 215.871 177.408 217.446 178.146C219.218 178.934 222.32 181.247 224.141 194.047C225.077 200.594 226.307 209.899 223.452 222.157C220.941 232.987 218.874 236.187 216.757 237.812C214.443 239.633 210.603 241.405 210.308 241.504C206.419 243.276 205.582 242.882 201.988 244.507C199.231 245.738 196.031 247.116 193.471 250.267C191.108 253.122 190.173 256.273 189.779 258.34C193.471 257.799 197.164 257.257 200.856 256.716C201.447 257.75 202.284 259.325 203.17 261.343C205.04 265.626 205.73 269.023 205.926 269.86C206.714 273.306 209.471 278.82 217.889 287.829C216.905 281.675 215.871 275.521 214.886 269.417C215.871 271.731 217.397 274.537 219.711 277.49C223.157 281.872 226.947 284.629 229.606 286.253C229.163 280.1 228.67 273.946 228.227 267.842C230.689 271.288 233.15 274.734 235.612 278.229C235.218 275.029 234.479 271.238 233.101 267.152C230.443 259.276 226.504 253.467 223.403 249.627C224.831 248.544 226.8 246.968 228.917 244.802C232.018 241.652 234.43 238.353 236.744 234.415C241.864 225.8 245.851 219.105 248.017 209.308C248.707 206.157 251.66 191.684 245.95 174.503C244.424 169.875 239.993 158.356 229.606 148.904C222.714 142.553 218.48 142.11 216.117 142.209Z" fill="white"/>
<path d="M215.475 141.618C224.189 145.064 231.918 150.726 237.333 158.405C242.404 165.642 244.963 174.011 247.031 182.528C251.511 200.841 246.243 219.056 235.807 234.317C232.262 239.486 228.226 244.31 223.844 248.79C223.204 249.479 224.238 250.513 224.878 249.824C234.724 239.683 243.142 227.769 247.376 214.133C250.428 204.385 251.019 194.047 248.853 184.054C246.982 175.488 244.422 166.823 239.696 159.39C234.035 150.479 225.567 144.08 215.82 140.19C214.983 139.846 214.589 141.273 215.475 141.618Z" fill="#161616"/>
<path d="M212.427 177.949C222.666 177.851 223.503 194.342 223.749 201.481C223.995 209.407 223.848 217.579 221.682 225.209C220.599 229 219.023 232.643 216.66 235.843C215.38 237.615 213.805 239.486 211.885 240.618C210.26 241.602 208.488 241.849 206.618 242.242C200.612 243.522 195.246 246.919 191.947 252.138C191.16 253.417 188.304 257.011 189.584 258.685C189.978 259.227 190.569 259.227 191.209 259.227C193.129 259.128 195.098 258.439 196.969 258.045C197.904 257.848 197.51 256.42 196.575 256.617C195.049 256.962 193.079 257.75 191.504 257.7C190.569 257.651 190.716 257.848 191.061 256.864C191.406 255.78 192.095 254.747 192.686 253.762C194.901 250.021 197.855 247.215 201.842 245.393C204.156 244.31 206.47 243.867 208.931 243.276C212.525 242.439 215.134 240.224 217.399 237.32C221.682 231.806 223.7 224.914 224.635 218.071C225.669 210.243 225.718 202.022 224.734 194.195C223.848 187.303 221.386 176.325 212.476 176.423C211.491 176.521 211.491 177.998 212.427 177.949Z" fill="#161616"/>
<path d="M196.032 258.094C196.819 257.946 197.705 257.7 198.542 257.651C199.576 257.306 200.61 257.553 201.545 258.39C201.644 258.685 201.693 258.931 201.791 259.226C202.53 260.703 202.776 262.672 203.268 264.248C204.253 267.3 205.434 270.303 206.763 273.208C209.422 278.967 212.917 284.333 217.495 288.764C218.086 289.305 218.825 288.764 218.726 288.025C217.84 282.315 216.954 276.604 216.068 270.894C215.92 269.958 214.492 270.352 214.64 271.288C215.526 276.998 216.412 282.709 217.298 288.419C217.692 288.173 218.135 287.927 218.529 287.681C212.769 282.167 208.88 275.177 206.074 267.792C205.385 265.922 204.745 264.051 204.154 262.18C203.662 260.605 203.465 258.685 202.727 257.257C201.397 254.747 197.853 256.273 195.687 256.666C194.702 256.814 195.096 258.242 196.032 258.094Z" fill="#161616"/>
<path d="M223.156 250.07C226.947 254.304 229.261 259.128 231.328 264.346C233.494 269.811 235.513 275.324 236.005 281.183C236.497 281.133 236.99 281.035 237.433 280.986C235.267 275.718 232.214 270.992 228.325 266.857C227.685 266.168 226.652 267.202 227.292 267.891C230.984 271.829 233.938 276.358 236.005 281.38C236.301 282.069 237.531 282.118 237.433 281.183C236.891 274.832 234.725 268.974 232.362 263.116C230.295 257.947 227.833 253.221 224.141 249.036C223.599 248.298 222.516 249.331 223.156 250.07Z" fill="#161616"/>
<path d="M213.9 270.204C217.986 276.9 223.302 282.61 229.653 287.238C230.145 287.582 230.736 287.09 230.785 286.598C230.933 280.346 230.047 274.192 228.521 268.186C228.275 267.251 226.847 267.644 227.093 268.58C228.57 274.487 229.456 280.493 229.308 286.598C229.702 286.401 230.047 286.155 230.441 285.958C224.287 281.527 219.167 275.915 215.229 269.466C214.687 268.678 213.407 269.417 213.9 270.204Z" fill="#161616"/>
<path d="M219.365 266.562C223.057 272.371 226.159 278.475 228.571 284.875C228.916 285.761 230.343 285.368 229.999 284.481C227.537 277.934 224.436 271.682 220.645 265.774C220.104 265.036 218.824 265.774 219.365 266.562Z" fill="#161616"/>
<path opacity="0.33" d="M205.188 147.723C210.406 149.987 224.929 157.125 233.692 173.568C243.439 191.98 242.356 216.151 232.904 228.458C229.015 233.48 222.517 240.717 219.957 243.276C215.329 247.953 213.508 249.135 211.637 249.972C207.403 251.941 205.287 251.153 199.576 253.516C194.702 255.535 191.847 257.898 191.995 258.094C192.093 258.341 195.588 256.667 198.985 256.765C198.985 256.765 201.545 256.814 202.284 257.996C202.333 258.045 202.382 258.144 202.382 258.144C202.53 258.439 202.53 258.833 203.022 260.753C203.367 262.18 203.761 263.362 203.957 264.1C205.139 267.793 206.911 272.272 209.717 277.146C212.523 282.069 215.576 285.909 218.185 288.764C217.397 283.004 216.659 277.245 215.871 271.436C217.692 274.389 220.252 277.885 223.846 281.38C226.061 283.546 228.227 285.318 230.197 286.697C229.606 280.297 228.966 273.897 228.375 267.448C230.197 269.762 232.067 272.469 233.889 275.522C234.972 277.294 235.858 279.017 236.695 280.641C236.104 275.718 234.726 269.269 231.575 262.23C229.852 258.341 227.883 255.091 226.061 252.384C225.864 251.055 225.668 249.775 225.52 248.445C227.587 246.378 230.295 243.375 233.249 239.584C236.695 235.154 243.242 226.637 246.885 215.265C253.728 194.047 246.541 175.094 244.621 170.27C242.553 165.051 239.501 157.618 232.117 150.726C226.16 145.163 219.957 142.357 215.969 140.929C214.296 141.47 212.129 142.357 209.816 143.883C207.748 145.212 206.271 146.59 205.188 147.723Z" fill="#6C6D6D"/>
<path opacity="0.31" d="M236.103 233.923C235.365 233.283 226.848 242.046 223.845 245.196C217.051 252.384 216.411 254.353 216.116 255.436C214.836 260.211 216.608 264.346 219.562 270.992C222.073 276.654 227.39 286.598 229.408 285.859C230.343 285.515 231.18 282.758 227.734 266.955C233.888 278.327 235.808 280.543 236.399 280.247C237.531 279.755 234.774 269.811 230.836 261.245C228.62 256.42 226.307 252.63 224.633 250.07C234.725 237.369 236.497 234.267 236.103 233.923Z" fill="#6C6D6D"/>
<path d="M142.026 74.4696C141.534 75.7003 141.731 75.848 140.549 79.6387C140.057 81.214 139.614 82.5432 139.269 83.4293C139.319 88.3522 138.531 92.1921 137.743 94.8505C137.005 97.3612 135.823 100.364 136.611 100.856C137.399 101.349 139.122 98.6904 141.042 99.1334C142.322 99.4288 142.962 101.004 143.602 102.629C143.602 102.629 145.62 107.502 147.737 111.539C149.066 114.099 151.33 118.382 155.81 119.957C158.764 120.991 161.718 120.45 163.441 120.204C165.755 119.81 167.576 119.071 168.758 118.481C166.887 121.483 166.936 125.077 168.758 127.391C170.973 130.099 174.911 129.754 175.847 129.656C178.308 129.409 180.13 128.277 180.967 127.686C180.08 125.52 179.096 122.222 179.047 118.185C178.997 109.718 183.28 103.761 184.954 101.693C185.889 101.496 187.809 101.004 189.532 99.4288C189.926 99.0842 193.175 96.032 192.585 91.6506C192.289 89.3368 190.763 85.6446 187.465 85.0047C185.053 84.5616 183.083 85.94 182.542 86.3338C182.099 85.2508 181.656 84.1678 181.213 83.0847C178.456 83.0355 174.961 82.5924 171.17 81.1648C160.044 77.0295 154.727 67.5775 153.152 64.4761C152.069 64.8699 150.494 65.5591 148.771 66.7406C147.245 67.7252 143.651 70.1867 142.026 74.4696Z" fill="white"/>
<path d="M140.106 76.7833C139.122 84.9553 137.497 93.0289 135.38 101.004C135.232 101.546 135.725 102.038 136.266 101.89C138.482 101.299 140.648 100.709 142.863 100.167C142.568 100.019 142.272 99.8226 141.977 99.6749C143.06 104.647 145.127 109.275 148.032 113.459C149.263 115.231 150.641 116.905 152.118 118.48C153.398 119.859 154.383 121.287 156.302 121.385C164.967 121.828 173.139 117.939 178.8 111.49C179.44 110.801 178.406 109.718 177.766 110.456C172.499 116.462 165.114 120.154 157.041 119.957C153.792 119.859 150.543 114.542 148.918 112.13C146.309 108.241 144.487 103.909 143.454 99.2811C143.355 98.8872 142.912 98.6903 142.568 98.7888C140.352 99.3795 138.186 99.9703 135.971 100.512C136.266 100.807 136.562 101.103 136.857 101.398C139.023 93.3243 140.648 85.103 141.632 76.7833C141.681 75.8479 140.205 75.8479 140.106 76.7833Z" fill="#161616"/>
<path d="M146.999 78.5554C146.95 81.5092 147.393 84.3644 148.328 87.1213C148.623 87.9089 149.706 87.7613 149.756 86.9244C150.051 83.8229 149.706 80.8199 148.722 77.8662C148.476 77.0293 147.343 77.2262 147.294 78.0631C147.146 79.5892 147.245 81.1153 147.54 82.5922C147.737 83.5275 149.116 83.1337 148.968 82.1984C148.722 80.8199 148.673 79.4415 148.771 78.0631C148.279 78.1123 147.786 78.2108 147.343 78.26C148.279 81.1153 148.574 83.9706 148.328 86.9244C148.82 86.8751 149.313 86.7767 149.756 86.7274C148.82 84.0691 148.377 81.3615 148.476 78.5554C148.476 77.62 146.999 77.62 146.999 78.5554Z" fill="#161616"/>
<path d="M136.17 84.8078C136.22 84.8571 136.22 84.857 136.269 84.9063C136.22 84.6601 136.121 84.414 136.072 84.1678C136.121 84.1186 136.17 84.0202 136.22 83.9709C136.466 83.9709 136.712 83.9709 136.958 83.9709C136.466 83.6756 136.515 82.051 136.515 81.6572C136.564 80.8203 136.712 80.0818 137.007 79.2942C136.515 79.2942 136.072 79.2942 135.58 79.2942C136.072 81.5095 136.17 83.6756 135.776 85.9401C136.269 85.9401 136.712 85.9401 137.204 85.9401C136.416 83.8725 136.269 81.7556 136.81 79.6388C137.056 78.7034 135.629 78.3096 135.383 79.2449C134.792 81.6572 134.94 84.0202 135.776 86.3339C136.023 86.9247 137.056 87.1216 137.204 86.3339C137.598 83.8232 137.549 81.411 137.007 78.9003C136.81 78.1127 135.826 78.2603 135.58 78.9003C134.94 80.6233 134.693 82.7402 135.481 84.4632C135.875 85.3493 137.155 85.694 137.45 84.5125C137.5 84.2663 137.45 83.9709 137.253 83.774C137.204 83.7248 137.204 83.7248 137.155 83.6755C136.515 83.134 135.432 84.1678 136.17 84.8078Z" fill="#161616"/>
<path d="M144.931 106.666C146.457 107.01 148.082 107.207 149.559 106.469C150.986 105.779 152.316 104.499 153.546 103.515C154.285 102.924 153.251 101.89 152.512 102.481C151.429 103.318 150.396 104.303 149.214 104.992C148.033 105.681 146.654 105.533 145.374 105.238C144.39 105.041 143.996 106.469 144.931 106.666Z" fill="#161616"/>
<path d="M151.971 91.7981C151.922 91.7981 151.873 91.7981 151.824 91.7981C151.676 91.7488 151.578 91.7488 151.43 91.6996C151.381 91.6504 151.331 91.6504 151.331 91.6012C151.282 91.5027 151.184 91.4042 151.135 91.2566C151.135 91.3058 151.135 91.3058 151.135 91.2073C151.085 91.0104 151.184 90.8135 151.43 90.6166C151.578 90.5673 151.676 90.5674 151.824 90.5181C151.873 90.5181 151.922 90.5181 151.971 90.5181C151.627 90.3704 151.135 90.6658 151.085 91.0104C150.987 91.4535 151.233 91.7489 151.578 91.8965C152.119 92.1427 152.611 91.6012 152.611 91.0596C152.611 90.5181 152.119 90.0258 151.578 90.2227C151.184 90.3704 150.938 90.715 151.085 91.1089C151.184 91.6504 151.627 91.9458 151.971 91.7981Z" fill="#161616"/>
<path d="M155.812 88.0567C156.747 88.0567 156.747 86.5798 155.812 86.5798C154.877 86.5798 154.877 88.0567 155.812 88.0567Z" fill="#161616"/>
<path d="M155.909 92.1916C156.008 92.2901 156.106 92.3885 156.205 92.487C156.5 92.7824 156.943 92.7824 157.238 92.487C157.534 92.1916 157.534 91.7486 157.238 91.4532C157.14 91.3547 157.041 91.2563 156.943 91.1578C156.648 90.8624 156.205 90.8624 155.909 91.1578C155.663 91.404 155.663 91.8962 155.909 92.1916Z" fill="#161616"/>
<path d="M141.731 76.4879C143.995 70.6297 148.82 66.199 154.777 64.3776C155.663 64.0822 155.318 62.6545 154.383 62.9499C147.885 64.9683 142.765 69.7435 140.303 76.0941C139.959 76.9802 141.386 77.3741 141.731 76.4879Z" fill="#161616"/>
<path d="M153.348 63.8855C157.089 76.9312 169.889 83.9218 182.885 83.7741C183.82 83.7741 183.82 82.2972 182.885 82.2972C170.578 82.3957 158.32 75.8974 154.775 63.4917C154.48 62.6056 153.052 62.9994 153.348 63.8855Z" fill="#161616"/>
<path d="M167.676 120.154C167.971 125.816 167.479 131.428 166.15 136.991C166.101 137.286 166.199 137.68 166.494 137.828C172.648 141.077 180.279 138.714 183.478 132.511C183.922 131.674 182.642 130.936 182.199 131.773C179.392 137.237 172.697 139.452 167.233 136.548C167.331 136.843 167.479 137.089 167.577 137.385C168.907 131.723 169.448 125.964 169.153 120.204C169.104 119.219 167.627 119.219 167.676 120.154Z" fill="#161616"/>
<path d="M153.645 65.0178C151.972 65.707 149.707 66.79 147.492 68.71C143.307 72.3037 141.584 76.5866 140.895 78.7527C139.467 78.4081 137.154 77.6205 135.48 75.5528C132.034 71.2699 133.412 63.984 136.957 60.0949C140.255 56.4519 143.012 58.618 149.215 54.1874C153.153 51.3813 153.006 49.806 157.387 46.9507C159.504 45.5723 162.458 43.6031 166.445 42.9139C172.451 41.8801 177.472 44.2923 184.808 47.7876C189.09 49.8552 188.155 49.8552 194.112 52.9566C204.105 58.1257 205.484 57.4365 209.668 60.7348C214 64.1317 216.413 67.9715 218.48 71.2699C221.385 75.9467 221.434 77.5712 224.536 84.3156C229.262 94.4568 230.689 93.9646 233.594 101.004C236.055 106.961 238.517 112.819 237.286 119.908C235.464 130.345 226.899 136.252 225.274 137.335C214.394 144.523 202.382 141.421 198.05 140.289C192.93 138.96 185.891 137.139 181.608 130.985C176.143 123.108 177.275 111.047 184.069 100.561C185.054 100.66 186.777 100.709 188.5 99.8228C192.389 97.8044 194.358 92.0446 192.192 88.0571C191.946 87.614 190.026 84.1679 186.284 84.1187C182.592 84.0695 180.475 87.3678 180.377 87.5648C176.488 86.6786 167.282 83.971 159.996 75.5528C156.747 71.8114 154.827 67.9715 153.645 65.0178Z" fill="#4C1FAD"/>
<path d="M184.07 104.352C185.619 104.352 186.876 103.096 186.876 101.546C186.876 99.9961 185.619 98.7397 184.07 98.7397C182.52 98.7397 181.264 99.9961 181.264 101.546C181.264 103.096 182.52 104.352 184.07 104.352Z" fill="#F8F263"/>
<path d="M167.872 118.776C167.872 119.366 167.921 119.957 167.971 120.548C168.02 121.188 168.118 121.828 168.167 122.419C169.94 121.828 172.598 120.646 174.863 118.136C177.324 115.33 178.456 111.736 178.013 111.441C177.619 111.194 176.438 113.213 173.632 115.428C171.417 117.151 169.3 118.136 167.872 118.776Z" fill="#161616" stroke="#161616" stroke-miterlimit="10"/>
<path opacity="0.19" d="M186.234 48.575C190.173 53.0056 195.736 59.75 201.249 68.7589C207.501 78.9001 212.227 86.6291 214 97.6072C215.083 104.45 217.741 121.139 207.157 130.837C201.052 136.4 193.274 137.237 189.385 137.335C191.403 138.271 194.357 139.452 198.049 140.338C203.169 141.569 211.095 143.44 219.612 140.24C221.286 139.6 232.362 135.218 236.153 123.945C238.663 116.462 236.744 109.57 235.956 106.813C234.577 101.939 232.116 97.7549 230.836 95.5396C228.67 91.8966 226.405 88.9429 224.387 84.463C223.156 81.8047 222.369 79.6386 222.369 79.6386C221.335 76.931 221.482 76.7833 220.793 75.3556C220.055 73.7311 219.563 73.288 217.446 69.9404C215.427 66.7405 215.87 67.1836 215.132 66.1498C212.326 62.2607 209.224 60.2915 208.486 59.8484C207.944 59.5038 206.911 59.0115 204.794 57.9777C201.594 56.4516 199.182 55.3686 198.689 55.1717C196.277 54.2363 192.437 52.3164 186.234 48.575Z" fill="#444647"/>
<path opacity="0.53" d="M153.497 64.4761C159.06 71.4174 164.475 76.2419 168.561 79.4418C175.404 84.8077 179.342 86.2354 182.69 85.2016C183.724 84.9062 184.511 84.4139 185.004 84.0693C183.871 84.5124 182.395 85.2508 181.065 86.6784C180.819 86.9738 180.573 87.2692 180.376 87.5646C179.293 87.3184 177.767 86.9246 175.946 86.2846C165.558 82.5432 159.798 75.3065 158.765 73.9773C157.189 71.9589 155.122 68.8082 153.497 64.4761Z" fill="#125689"/>
<path opacity="0.15" d="M228.474 92.3398C229.065 95.7367 229.655 100.561 229.409 106.272C229.261 109.422 228.966 116.61 226.603 122.37C221.335 135.169 206.173 139.944 202.333 141.028C203.859 141.323 218.972 144.03 229.163 134.185C234.972 128.573 236.695 121.336 236.793 120.893C237.729 116.856 237.384 113.607 237.187 111.785C236.203 102.58 231.378 95.7859 228.474 92.3398Z" fill="#252626"/>
<circle cx="279.5" cy="164.5" r="15.5" fill="#4E53A0" stroke="#0C145A" stroke-width="4"/>
</g>
</svg>
