<svg width="297" height="297" viewBox="0 0 297 297" fill="none" xmlns="http://www.w3.org/2000/svg">
<circle cx="123" cy="149" r="95" fill="#EC615B" stroke="black" stroke-width="2"/>
<mask id="mask0_650_1628" style="mask-type:alpha" maskUnits="userSpaceOnUse" x="0" y="0" width="297" height="297">
<circle r="148.5" transform="matrix(-1 0 0 1 148.5 148.5)" fill="#D9D9D9"/>
</mask>
<g mask="url(#mask0_650_1628)">
<path d="M93.1363 251.73C90.1957 253.69 89.6798 258.075 88.648 266.794C88.1321 270.973 87.8742 276.132 89.1639 291.093C89.3187 292.692 89.7314 297.799 91.0211 308.788C92.8784 324.883 93.3942 326.792 93.9101 333.602C94.3228 338.916 94.5808 344.539 94.426 356.611C94.2712 368.115 94.1165 383.85 92.3109 405.775C90.9696 422.026 88.6997 442.249 84.6241 465.464C88.6481 467.579 92.414 468.869 95.4578 469.694C102.216 471.5 107.684 471.551 112.379 471.551C116.867 471.551 120.788 471.19 123.987 470.777C125.483 462.987 127.443 451.277 128.991 436.935C129.816 429.506 130.332 421.303 131.364 405.208C132.808 382.663 133.531 371.417 133.737 361.873C133.84 357.642 133.84 354.134 133.221 325.141C132.292 281.652 131.931 276.338 127.391 269.373C118.363 255.444 100.049 247.087 93.1363 251.73Z" fill="#EC615B"/>
<path d="M89.2673 253.174C88.3903 267.207 88.6482 281.239 90.0411 295.22C91.434 308.839 93.7556 322.304 94.6326 335.923C96.4382 363.885 94.581 392.001 91.4856 419.807C89.7316 435.336 87.6165 450.864 85.4497 466.341C85.295 467.321 83.7989 466.908 83.9536 465.928C87.8228 438.018 91.692 410.057 93.1881 381.889C93.9103 368.115 94.0651 354.238 93.3944 340.463C92.6722 326.741 90.6602 313.276 89.0094 299.656C87.1522 284.231 86.7395 268.651 87.7197 253.123C87.7712 252.143 89.3189 252.143 89.2673 253.174Z" fill="#161616"/>
<path opacity="0.09" d="M128.682 282.219C130.075 291.97 131.364 303.061 132.241 315.339C132.757 322.046 133.479 333.55 133.583 347.995C133.686 360.016 133.221 370.179 132.241 390.092C131.158 412.585 130.59 424.089 129.094 436.625C127.392 451.07 125.277 462.833 123.729 470.623C120.118 471.397 115.165 471.964 109.387 471.5C105.57 471.19 102.268 470.468 99.5338 469.694C103.919 453.289 107.943 436.11 111.606 418.208C121.665 369.302 126.721 323.542 128.682 282.219Z" fill="#353535"/>
<path d="M149.317 253.69C152.361 256.941 154.373 261.068 154.373 261.068C155.611 263.596 156.385 265.762 156.695 267.516C157.262 271.386 158.087 276.751 159.016 283.148C161.028 297.128 162.421 308.065 163.143 313.947C165.723 334.324 167.167 347.531 170.056 371.933C174.338 407.994 175.576 415.783 178.775 445.086C179.961 455.971 180.941 464.948 181.561 470.829C180.684 472.222 179.187 474.182 176.814 475.936C176.247 476.349 175.163 477.123 171.913 478.671C168.921 480.064 165.877 481.302 164.536 481.766C156.54 484.345 142.095 480.476 141.321 480.27C141.321 474.647 141.218 467.063 140.805 458.035C140.65 454.424 140.134 444.673 138.122 425.947C136.317 409.18 134.924 395.922 131.777 378.072C129.507 365.02 127.289 355.063 125.277 346.396C122.233 332.777 119.241 321.169 116.765 312.141C113.205 305.176 109.645 298.212 106.086 291.247C105.054 289.751 95.6131 275.771 100.978 263.08C109.026 243.785 142.662 246.571 149.317 253.69Z" fill="#EC615B"/>
<path d="M151.072 248.016C160.719 274.532 162.783 303.164 166.033 330.971C169.541 360.789 173.049 390.608 176.506 420.478C178.466 437.193 180.426 453.908 182.387 470.571C182.49 471.551 180.942 471.551 180.839 470.571C177.383 440.907 173.874 411.244 170.418 381.58C167.013 352.432 164.021 323.233 160.049 294.188C157.933 278.66 154.993 263.183 149.576 248.428C149.266 247.5 150.763 247.087 151.072 248.016Z" fill="#161616"/>
<path d="M106.447 290.732C114.598 303.577 121.047 317.403 125.587 331.951C125.897 332.88 124.4 333.293 124.091 332.364C119.603 317.971 113.206 304.248 105.106 291.505C104.59 290.68 105.932 289.855 106.447 290.732Z" fill="#161616"/>
<path opacity="0.06" d="M138.999 258.075C132.86 263.699 142.559 282.219 148.389 296.561C156.901 317.506 158.706 352.122 162.266 421.458C163.04 436.11 163.865 456.642 164.072 481.456C165.877 481.198 168.044 480.682 170.314 479.651C176.35 477.02 179.858 472.635 181.509 470.262C180.064 459.995 178.001 444.467 175.679 425.482C170.366 381.941 169.282 364.091 165.361 332.828C163.143 315.133 159.687 289.751 154.167 258.952C154.218 258.952 154.218 258.952 138.999 258.075Z" fill="#353535"/>
<path d="M104.95 135.19C106.033 135.809 105.569 141.845 104.589 153.762C104.486 154.743 104.434 155.877 104.279 157.425C103.918 160.933 103.454 164.338 102.886 168.001C98.6045 195.807 92.517 216.443 92.517 216.443C89.5764 226.4 85.3977 238.678 79.465 252.349C78.4848 254.103 76.5243 256.941 73.2226 258.591C69.663 260.397 66.4645 259.881 61.7183 259.004C52.5354 257.302 46.6542 253.123 44.5391 251.472C41.4437 249.099 37.3682 245.952 37.7294 242.289C37.8841 241 38.6063 239.091 40.2056 238.523C41.5985 238.007 43.3525 238.678 44.5391 240.174C42.1144 236.821 40.412 233.725 39.277 231.404C36.646 226.039 36.646 224.181 37.2135 222.84C37.3166 222.634 37.9357 221.189 39.277 220.519C39.6382 220.364 40.3604 220.054 42.6819 220.519C45.4161 221.035 45.8288 221.705 47.5829 221.757C49.2337 221.808 49.7496 221.241 50.9877 221.138C52.587 220.983 54.9601 221.602 58.1586 225.316C58.6745 224.904 59.4484 224.439 60.4286 224.491C62.0794 224.543 63.3691 226.09 66.6708 231.817C67.7026 233.571 68.9924 235.892 70.4369 238.73C71.1591 235.531 72.2424 230.579 73.4806 224.543C77.7109 203.288 77.0919 199.161 80.2904 183.632C84.7786 161.552 89.5248 152.318 93.7036 146.076C97.7275 139.782 103.041 134.055 104.95 135.19Z" fill="white"/>
<path d="M104.796 136.325C102.474 135.242 99.6882 139.369 98.4501 140.865C96.9024 142.774 95.4579 144.734 94.1682 146.798C91.7435 150.564 89.7316 154.588 88.0291 158.766C84.2115 168.001 81.9932 177.803 80.2392 187.605C78.4336 197.819 76.9891 208.086 75.3898 218.3C73.9969 227.174 73.0683 236.614 68.1157 244.353C67.5998 245.178 66.2585 244.404 66.7744 243.579C71.1594 236.769 72.2428 228.67 73.4294 220.88C74.7707 212.11 76.112 203.339 77.5049 194.569C80.0328 178.628 83.2313 162.275 91.4856 148.191C93.446 144.889 95.6643 141.742 98.1406 138.801C99.9978 136.686 102.422 133.539 105.518 134.984C106.498 135.397 105.724 136.738 104.796 136.325Z" fill="#161616"/>
<path d="M105.104 158.044C103.299 173.934 100.41 189.668 96.3859 205.145C92.4651 220.209 87.8737 235.737 81.2703 249.873C78.4845 255.754 73.2224 262.254 65.8967 260.345C64.9165 260.087 65.3292 258.591 66.3094 258.849C76.5757 261.584 81.0123 246.881 83.695 239.916C86.9967 231.249 89.9372 222.479 92.5167 213.606C97.7788 195.446 101.442 176.874 103.608 158.096C103.66 157.064 105.208 157.012 105.104 158.044Z" fill="#161616"/>
<path d="M69.5599 239.71C68.2185 236.976 66.9288 234.19 65.5875 231.456C64.1946 228.618 62.4921 224.646 58.7261 225.007C57.7459 225.11 57.7459 223.562 58.7261 223.459C61.6667 223.201 63.7819 225.11 65.2264 227.432C67.4447 230.991 69.0439 235.118 70.9012 238.884C71.3139 239.813 70.0242 240.587 69.5599 239.71Z" fill="#161616"/>
<path d="M61.821 233.158C59.6027 229.443 55.3724 219.126 49.5944 222.273C48.7174 222.737 47.9435 221.396 48.8205 220.931C55.8883 217.062 60.4797 227.844 63.1623 232.332C63.6782 233.261 62.3369 234.035 61.821 233.158Z" fill="#161616"/>
<path d="M57.3333 235.067C55.4761 232.436 53.5673 229.805 51.7101 227.174C49.6981 224.336 47.0155 220.88 43.0947 221.447C42.1145 221.602 41.7018 220.106 42.682 219.951C45.9321 219.435 48.5631 220.983 50.6783 223.356C53.6704 226.658 56.0951 230.682 58.6746 234.293C59.2937 235.067 57.9524 235.841 57.3333 235.067Z" fill="#161616"/>
<path d="M52.9486 236.202C50.7303 233.571 48.5635 230.888 46.3452 228.257C45.0554 226.709 39.8965 218.713 37.7298 223.459C37.1623 224.646 38.0909 227.07 38.5036 228.257C39.0711 229.805 39.8965 231.249 40.6704 232.694C42.4244 235.892 44.23 239.039 46.4999 241.877C47.119 242.65 46.0357 243.734 45.4166 242.96C42.5792 239.349 40.206 235.325 38.1425 231.198C36.8527 228.618 34.8408 223.923 36.8527 221.189C38.8647 218.455 42.3212 221.138 43.8689 222.892C47.377 226.864 50.6787 231.043 54.0319 235.118C54.651 235.841 53.5677 236.924 52.9486 236.202Z" fill="#161616"/>
<path d="M43.4566 221.396C42.6828 221.499 41.9605 221.705 41.2383 221.963C40.8256 222.118 40.4129 221.808 40.3097 221.447C40.2065 220.983 40.4645 220.673 40.8256 220.519C41.651 220.209 42.528 220.003 43.4566 219.899C43.8693 219.848 44.2305 220.312 44.2305 220.673C44.2305 221.086 43.8693 221.344 43.4566 221.396Z" fill="#161616"/>
<path d="M42.7851 239.865C41.5985 238.369 39.2771 239.4 38.8127 241.051C38.6064 241.774 38.6064 242.651 38.7612 243.373C39.1223 245.075 40.2057 246.571 41.3922 247.809C43.5074 250.079 46.0352 252.04 48.7178 253.587C54.0831 256.683 60.1707 258.23 66.3098 258.695C67.29 258.746 67.29 260.294 66.3098 260.242C57.0237 259.572 47.8924 256.373 41.1343 249.77C38.658 247.345 36.1817 243.94 37.4199 240.277C38.3485 237.492 41.8565 236.202 43.8685 238.73C44.5392 239.555 43.4042 240.639 42.7851 239.865Z" fill="#161616"/>
<path opacity="0.08" d="M104.331 136.067C103.196 140.143 101.545 146.437 99.6362 154.175C94.7353 174.243 91.5367 191.113 85.5524 215.979C79.5164 241.051 77.2465 246.726 71.6749 248.893C65.4842 251.266 53.2576 250.079 45.6224 243.734C43.1977 241.722 40.773 238.833 39.5349 239.504C38.2452 240.226 38.6063 244.456 40.2572 247.706C43.3525 253.897 50.6265 256.012 57.6427 258.024C63.3691 259.675 66.258 260.5 69.8693 259.417C75.1829 257.818 78.2267 253.381 79.7228 251.214C81.58 248.48 81.8896 246.881 84.4174 239.916C86.9969 232.745 87.2032 232.952 89.112 227.69C92.9296 217.217 95.1995 208.034 96.644 202.308C99.5846 190.545 102.267 179.66 103.712 164.957C104.331 157.632 104.847 147.778 104.331 136.067Z" fill="#353535"/>
<path opacity="0.06" d="M80.5996 245.746C79.1551 247.242 72.3453 254 61.3568 254.413C48.8723 254.877 40.9276 246.726 39.741 245.488C41.0824 247.758 43.7134 251.369 48.2016 254.155C51.039 255.96 53.4637 256.683 56.1979 257.456C63.2656 259.52 67.8571 260.81 72.1906 258.849C78.794 255.909 80.3417 247.19 80.5996 245.746Z" fill="#353535"/>
<path d="M134.665 153.401C134.626 153.303 134.586 153.202 134.544 153.097C133.098 149.443 130.008 141.634 122.335 136.067C119.498 134.004 114.287 130.238 108.767 130.908L134.665 153.401ZM134.665 153.401C142.719 173.559 145.369 197.735 146.549 208.496M134.665 153.401L146.549 208.496M146.549 208.496C146.616 209.109 146.678 209.678 146.737 210.201L146.549 208.496ZM108.828 131.405L108.826 131.405C105.944 131.748 103.38 133.299 101.097 135.638C98.8133 137.978 96.8366 141.081 95.1367 144.468C91.7365 151.243 89.4907 159.054 88.0963 163.908C84.5051 176.426 83.679 187.305 83.4211 211.133C83.3184 224.131 83.4716 241.479 84.5947 262.055C88.7038 265.333 100.733 273.84 118.224 274.445C138.522 275.095 152.52 264.697 156.483 261.506C150.347 240.053 147.628 222.393 146.24 210.258L146.24 210.256C146.182 209.735 146.119 209.167 146.052 208.556C144.872 197.792 142.228 173.678 134.201 153.587L134.2 153.586C134.162 153.49 134.124 153.392 134.083 153.29C132.64 149.645 129.595 141.952 122.042 136.472L122.041 136.472C120.621 135.439 118.643 134.007 116.343 132.914C114.041 131.82 111.458 131.085 108.828 131.405Z" fill="white" stroke="black"/>
<path opacity="0.08" d="M113.152 132.508C118.311 137.563 105.981 157.27 103.969 161.862C94.683 183.013 90.4011 217.217 112.584 274.481C109.541 273.913 106.136 273.088 102.525 271.798C94.9926 269.219 89.0598 265.711 84.7263 262.615C84.3652 258.849 83.9009 253.794 83.5397 247.809C82.9723 238.265 82.9207 230.424 82.9723 223.82C83.0755 203.701 83.1271 193.641 84.7263 180.279C85.5517 173.624 87.3574 161.191 93.3417 147.107C96.9014 138.802 100.564 133.024 106.394 131.682C107.116 131.476 111.14 130.547 113.152 132.508Z" fill="#353535"/>
<path opacity="0.05" d="M84.1078 191.784C85.1396 191.68 86.4809 201.121 88.854 213.399C93.8581 239.246 100.1 259.417 104.537 272.366C101.597 271.231 98.5012 269.941 95.3542 268.497C91.485 266.743 87.8222 264.937 84.3658 263.183C82.1474 204.062 82.9213 191.887 84.1078 191.784Z" fill="#353535"/>
<path d="M120.582 138.44C122.233 137.77 123.78 137.873 124.709 138.028C126.256 139.885 128.681 142.825 131.622 146.437C144.571 162.584 145.706 166.35 154.734 176.668C163.401 186.573 169.385 191.216 173.822 194.208C178.826 197.561 182.54 199.264 183.675 199.78C191.878 203.443 199.307 204.578 204.208 204.99C205.704 204.268 207.871 203.081 210.037 201.121C212.823 198.542 214.113 196.065 215.454 193.795C220.561 185.18 221.954 182.704 223.863 182.755C224.534 182.755 225.617 183.116 226.958 185.128C227.474 184.767 228.351 184.097 229.332 183.22C231.756 181.053 232.427 179.763 234.439 178.886C235.316 178.525 236.451 178.009 237.431 178.577C238.411 179.144 238.618 180.485 238.669 180.795C239.546 179.866 241.661 177.958 244.654 177.803C245.479 177.751 246.666 177.7 247.233 178.422C248.11 179.454 247.285 181.93 245.118 184.509C245.634 184.355 248.11 183.529 249.142 184.664C250.277 185.851 249.09 188.482 248.316 190.184C246.769 193.641 244.757 195.395 240.578 200.038C238.876 201.947 237.534 203.494 236.657 204.474C237.534 204.371 238.927 204.165 240.475 203.546C242.796 202.617 243.57 201.534 244.602 201.843C245.737 202.204 246.356 204.113 246.15 205.609C245.892 207.312 244.292 208.344 243.312 208.911C237.379 212.522 230.054 214.328 227.784 214.895C222.161 216.288 219.323 216.959 217.208 217.217C213.545 217.681 209.882 217.888 204.414 217.63C189.247 216.907 177.433 213.812 174.905 213.141C169.437 211.697 164.639 210.407 158.603 207.673C152.98 205.145 140.598 199.419 129.765 186.47C123.832 179.402 121.304 173.572 116.197 161.965C115.578 160.52 114.339 157.683 114.133 153.865C113.875 148.5 115.371 140.504 120.582 138.44Z" fill="white"/>
<path d="M120.994 137.357C124.554 136.016 127.237 139.369 129.249 141.845C132.138 145.353 134.872 148.964 137.606 152.627C143.539 160.624 149.265 168.826 155.817 176.41C168.199 190.855 184.501 203.597 204.363 204.062C205.343 204.062 205.343 205.609 204.363 205.609C186.409 205.197 170.933 194.93 159.016 182.239C152.825 175.636 147.357 168.414 141.991 161.14C139.154 157.27 136.316 153.401 133.427 149.584C131.725 147.365 129.971 145.147 128.217 142.98C126.618 141.02 124.399 137.821 121.459 138.905C120.479 139.163 120.117 137.666 120.994 137.357Z" fill="#161616"/>
<path d="M115.01 152.679C121.82 199.522 175.782 220.88 218.033 216.134C224.946 215.36 231.962 213.761 238.308 210.82C239.907 210.098 241.506 209.272 242.951 208.292C243.57 207.879 244.189 207.518 244.653 206.951C245.84 206.074 245.943 205.145 245.066 204.113C244.963 202.721 244.292 202.308 243.002 202.824C240.475 203.391 238.875 205.558 236.141 205.61C235.161 205.61 235.161 204.062 236.141 204.062C238.927 204.01 240.732 201.379 243.467 201.173C245.427 201.018 247.078 202.101 247.336 204.113C247.852 208.86 240.681 211.491 237.276 212.935C224.637 218.197 210.501 218.92 197.036 217.785C172.171 215.669 146.84 206.693 130.022 187.605C121.458 177.855 115.422 165.989 113.565 153.092C113.359 152.112 114.855 151.699 115.01 152.679Z" fill="#161616"/>
<path d="M235.729 204.32C236.967 202.05 238.927 200.605 240.733 198.851C243.312 196.323 245.428 192.764 247.182 189.565C247.646 188.688 248.11 187.811 248.368 186.882C249.039 185.593 248.626 185.128 247.233 185.541C246.356 185.18 245.685 185.386 245.17 186.057C243.88 186.831 242.642 188.327 241.61 189.41C239.082 191.99 236.864 194.879 234.903 197.923C234.387 198.748 233.046 197.974 233.562 197.149C235.11 194.776 247.027 178.267 249.813 184.097C251.463 187.45 247.336 192.248 245.737 194.827C244.55 196.684 243.416 198.438 241.816 199.986C240.114 201.637 238.205 202.978 237.018 205.145C236.606 205.97 235.264 205.197 235.729 204.32Z" fill="#161616"/>
<path d="M243.106 185.335C243.777 184.664 248.781 178.525 245.583 178.164C244.86 178.061 243.003 179.609 242.384 180.021C241.352 180.744 240.321 181.569 239.392 182.498C235.987 185.645 233.304 189.462 230.673 193.228C230.106 194.054 228.765 193.28 229.332 192.454C233.304 186.831 237.844 179.918 244.396 177.029C245.995 176.307 248.162 176.204 248.368 178.422C248.626 181.259 246.099 184.664 244.241 186.47C243.467 187.141 242.384 186.057 243.106 185.335Z" fill="#161616"/>
<path d="M236.863 182.756C237.018 182.446 237.74 180.95 237.637 180.589C237.069 180.125 236.502 179.609 235.934 179.144C235.573 179.351 235.161 179.505 234.799 179.712C233.303 180.589 232.014 181.879 230.827 183.168C228.454 185.851 226.39 188.843 224.224 191.68C223.605 192.454 222.263 191.68 222.882 190.907C226.184 186.625 229.589 180.382 234.748 178.009C235.883 177.493 237.482 177.081 238.514 178.009C240.061 179.351 238.927 181.775 238.307 183.22C237.998 184.097 236.502 183.684 236.863 182.756Z" fill="#161616"/>
<path d="M225.772 186.057C226.185 184.767 226.546 184.458 224.895 184.303C223.451 184.2 223.399 184.509 222.522 185.438C221.439 186.676 220.459 187.966 219.478 189.256C217.827 191.526 216.28 193.899 214.577 196.22C211.946 199.78 208.49 204.784 203.744 205.455C202.763 205.609 202.351 204.113 203.331 203.959C207.613 203.339 210.863 198.696 213.236 195.446C215.403 192.506 217.415 189.359 219.633 186.47C220.923 184.871 222.883 181.569 225.308 181.672C227.887 181.775 227.733 184.716 227.165 186.47C226.959 187.398 225.463 186.986 225.772 186.057Z" fill="#161616"/>
<path opacity="0.08" d="M115.216 144.115C116.454 143.754 118.466 149.016 122.336 155.826C128.681 167.072 135.078 174.45 141.836 181.156C157.881 197.046 165.928 205.042 179.961 209.221C184.965 210.717 208.077 216.907 229.435 203.546C239.546 197.2 245.376 188.895 248.316 183.839C248.832 184.355 249.451 185.129 249.554 186.16C249.761 187.656 248.781 188.791 247.646 190.339C246.098 192.557 245.995 193.125 245.427 194.26C245.427 194.26 244.963 195.085 244.292 196.014C242.538 198.439 236.348 204.062 236.76 204.629C236.915 204.836 238.102 204.268 240.526 203.185C242.899 202.101 243.312 201.792 244.086 201.947C245.479 202.205 246.872 203.752 246.82 205.3C246.769 206.693 245.582 207.621 244.499 208.447C243.261 209.427 242.074 209.788 241.764 209.891C237.225 211.439 236.09 212.471 232.117 213.657C220.51 217.114 207.406 217.423 207.406 217.423C188.163 217.888 173.409 213.038 170.314 211.955C163.916 209.788 151.38 205.403 138.689 194.569C132.395 189.204 122.8 180.847 117.744 166.918C113.875 156.342 113.462 144.579 115.216 144.115Z" fill="#353535"/>
<path opacity="0.06" d="M235.936 211.387C227.681 213.193 217.621 214.534 206.169 214.328C178.156 213.812 156.54 204.113 144.365 197.355C150.865 202.72 161.854 210.407 177.279 214.741C204.569 222.428 227.63 214.638 235.936 211.387Z" fill="#353535"/>
<path d="M151.535 67.3504C151.586 67.4536 153.392 70.4974 156.952 76.6365C161.079 83.7042 162.781 86.6448 164.484 90.8235C165.67 93.7641 166.444 96.1888 166.908 97.8396C164.638 98.7682 162.368 99.6968 160.098 100.625C159.479 105.681 157.983 109.55 156.797 111.975C154.888 115.896 152.154 121.622 145.963 124.408C145.034 124.821 142.249 126.007 138.431 126.007C133.685 126.007 130.177 124.15 128.629 123.221C128.32 125.182 127.7 127.658 126.514 130.392C125.534 132.714 124.399 134.571 123.367 136.016C118.518 134.158 113.668 132.301 108.87 130.392C110.212 128.38 111.966 125.182 113.049 120.952C113.41 119.507 114.236 115.896 113.926 110.788C113.565 104.546 111.811 101.296 109.902 95.4149C106.962 86.2321 105.208 80.8668 106.033 75.1404C107.116 67.7116 112.688 59.1478 121.252 56.0524C133.53 51.5642 146.273 60.2827 151.535 67.3504Z" fill="white"/>
<path d="M160.099 73.3349C163.297 72.0967 164.02 65.8028 163.4 61.6241C163.194 60.2312 162.42 56.1041 158.654 51.977C153.547 46.3537 148.13 46.4053 140.289 43.052C135.955 41.1948 129.764 37.8415 123.161 31.3413C124.141 34.2819 125.121 37.1709 126.153 40.1115C124.657 40.2146 120.943 40.3694 117.073 38.2027C112.276 35.5716 110.418 31.2381 109.903 30C109.077 31.2897 105.672 36.9129 107.478 43.31C107.994 45.1156 108.819 46.5601 109.593 47.6951C106.91 46.9728 103.144 45.5799 99.9459 42.433C96.4378 38.9765 95.9735 35.8296 94.529 35.9843C91.7432 36.2423 90.7114 47.5919 90.1439 53.8342C89.7828 57.9613 89.2153 60.8503 90.2987 64.3068C91.2789 67.5053 93.1361 69.93 92.9297 70.0847C92.5686 70.2911 87.3581 61.7273 85.9136 62.398C85.0366 62.8107 86.5842 66.1124 87.1517 72.3547C87.8224 79.9899 86.2747 81.4343 87.6676 86.8512C88.493 89.9981 89.6796 92.2165 90.9693 94.7444C92.5686 97.6849 94.529 101.399 98.1402 104.701C101.494 107.796 105.621 111.562 110.728 110.84C117.383 109.86 120.478 101.967 120.685 101.399C120.117 101.399 115.01 101.141 112.482 97.2206C109.283 92.2165 112.482 84.7876 116.145 83.5495C118.827 82.6209 120.943 85.3551 123.47 84.0654C125.534 83.0336 125.792 80.5057 126.617 78.1326C127.701 74.9857 130.074 70.807 135.903 66.5767C139.566 66.4219 144.983 66.7315 150.606 69.3625C155.559 71.5808 157.674 74.2635 160.099 73.3349Z" fill="#4C1FAD"/>
<path d="M160.563 82.1566C163.246 86.2837 165.464 90.6688 167.012 95.3634C167.373 96.4468 167.992 97.5817 167.218 98.5103C166.651 99.181 165.258 99.3874 164.484 99.6969C163.194 100.161 161.905 100.677 160.615 101.141C159.686 101.503 159.274 100.006 160.202 99.6453C161.079 99.3358 161.905 99.0262 162.782 98.6651C163.298 98.4588 165 98.0976 165.361 97.6849C166.445 96.6015 164.897 93.9189 164.433 92.7839C163.04 89.3275 161.286 86.0774 159.222 82.9304C158.655 82.105 159.996 81.3312 160.563 82.1566Z" fill="#161616"/>
<path d="M160.925 100.574C158.087 110.479 154.528 121.519 144.416 126.214C143.539 126.626 142.714 125.285 143.643 124.872C153.341 120.332 156.695 109.705 159.429 100.161C159.738 99.1809 161.234 99.5936 160.925 100.574Z" fill="#161616"/>
<path d="M144.158 126.369C135.13 128.381 125.019 123.531 118.983 117.083C118.312 116.36 119.395 115.277 120.066 115.999C125.741 122.035 135.285 126.781 143.746 124.873C144.726 124.615 145.138 126.111 144.158 126.369Z" fill="#161616"/>
<path d="M129.352 123.583C128.733 128.122 127.083 132.198 124.245 135.809C123.626 136.583 122.543 135.5 123.162 134.726C125.69 131.476 127.237 127.658 127.805 123.583C127.908 122.602 129.456 122.602 129.352 123.583Z" fill="#161616"/>
<path d="M114.598 116.928C114.288 122.035 112.431 126.678 109.129 130.599C108.51 131.372 107.375 130.238 108.046 129.515C111.09 125.904 112.792 121.622 113.102 116.928C113.153 115.947 114.701 115.947 114.598 116.928Z" fill="#161616"/>
<path d="M122.233 86.0775C120.737 83.8076 117.9 83.4981 115.681 84.9425C113.669 86.2323 112.689 88.7085 112.534 90.9785C112.276 94.6413 114.65 102.07 119.808 99.8518C120.737 99.4391 121.511 100.78 120.582 101.193C113.876 104.082 110.316 95.2604 111.09 89.9467C111.554 86.9029 113.308 83.9108 116.352 82.879C119.086 81.8988 121.924 82.9306 123.523 85.3037C124.142 86.1291 122.801 86.9029 122.233 86.0775Z" fill="#161616"/>
<path d="M127.959 125.646C124.967 123.737 122.388 121.416 120.169 118.682C119.55 117.908 120.634 116.824 121.253 117.598C123.368 120.229 125.896 122.499 128.733 124.356C129.558 124.872 128.785 126.214 127.959 125.646Z" fill="#161616"/>
<path d="M156.178 110.789C152.618 111.098 149.059 109.808 146.582 107.177C144.983 105.423 144.364 102.483 147.614 102.586C148.44 102.637 148.698 103.876 147.82 104.082C146.634 104.392 145.654 104.856 144.674 105.681C143.9 106.3 142.816 105.217 143.59 104.598C144.777 103.618 145.912 102.999 147.408 102.637C147.459 103.153 147.563 103.669 147.614 104.134C145.86 104.082 148.182 106.61 148.388 106.816C149.213 107.538 150.09 108.054 151.071 108.467C152.721 109.189 154.372 109.396 156.178 109.241C157.158 109.189 157.158 110.737 156.178 110.789Z" fill="#161616"/>
<path d="M149.368 87.4704C150.245 85.9227 150.555 84.2202 150.142 82.5178C150.503 82.6726 150.916 82.8273 151.277 82.9821C149.884 84.0655 150.194 86.0775 150.4 87.5735C149.936 87.522 149.471 87.4703 149.007 87.3672C149.626 86.4902 149.936 85.5616 149.936 84.4782C149.936 83.498 151.483 83.498 151.483 84.4782C151.483 85.8195 151.122 87.0576 150.349 88.141C149.987 88.6053 149.059 88.6569 148.956 87.9347C148.594 85.6131 148.491 83.1885 150.555 81.5892C150.968 81.2797 151.587 81.5892 151.69 82.0535C152.206 84.1687 151.896 86.3354 150.761 88.1926C150.194 89.1212 148.852 88.3474 149.368 87.4704Z" fill="#161616"/>
<path d="M152.463 76.5333C149.936 73.5411 146.273 75.811 144.931 78.6484C144.519 79.5255 143.177 78.7516 143.59 77.8746C145.344 74.1602 150.4 71.7871 153.547 75.4499C154.217 76.2238 153.134 77.3071 152.463 76.5333Z" fill="#161616"/>
<path opacity="0.07" d="M127.598 75.6562C127.392 76.8428 127.134 78.7 126.721 80.8668C125.586 87.0059 124.606 90.5139 124.245 92.1648C122.904 98.4586 124.658 108.157 131.055 114.503C138.122 121.467 147.77 121.313 150.194 121.209C149.111 122.499 147.409 124.15 144.932 125.233C137.4 128.535 129.765 123.737 128.94 123.17C129.043 126.523 128.321 127.658 127.598 128.019C125.38 128.999 120.427 124.408 118.261 119.455C115.939 114.09 117.126 108.931 117.745 106.816C120.634 102.844 120.789 101.451 120.376 100.987C119.757 100.316 118.054 101.554 116.146 100.883C114.134 100.109 113.308 97.6848 112.792 96.1887C112.122 94.1767 110.316 88.7083 113.669 85.5098C115.784 83.4978 119.241 83.1367 122.491 84.2716C123.162 84.1684 124.039 83.8589 124.709 83.1367C125.586 82.2081 125.586 81.1247 126.051 79.2675C126.36 78.3389 126.773 77.1007 127.598 75.6562Z" fill="#353535"/>
<path opacity="0.1" d="M120.375 110.531C120.788 114.967 121.871 118.578 122.852 121.21C121.046 120.694 119.189 120.126 117.383 119.61C115.835 123.686 114.339 127.813 112.792 131.888C111.657 131.321 110.573 130.754 109.438 130.134C110.728 127.245 112.018 123.686 113.05 119.559C113.927 116.051 114.391 112.801 114.649 110.015C115.526 109.138 116.558 108.054 117.486 106.661C119.086 104.34 120.014 102.173 120.582 100.471C120.272 103.102 120.014 106.558 120.375 110.531Z" fill="#353535"/>
<path opacity="0.13" d="M91.1761 45.8379C91.8983 45.8379 91.4341 52.9572 94.4778 61.6242C95.7675 65.287 98.1406 71.7872 104.228 77.2557C108.562 81.1249 113.05 83.0337 115.887 83.9623C115.113 84.4266 113.875 85.3036 112.947 86.7997C110.677 90.4109 112.121 94.4864 112.534 95.673C113.101 97.3238 113.875 99.4906 116.042 100.626C118.054 101.657 120.118 101.245 120.84 101.038C120.685 101.503 117.435 110.066 110.677 110.789C107.839 111.098 105.518 109.86 103.764 108.931C99.1724 106.558 96.8509 102.999 94.0135 98.6136C90.2475 92.784 87.6165 88.6569 87.2553 82.8273C86.9974 78.2359 88.3903 77.0493 87.4101 72.6642C87.1005 71.2713 86.2752 68.4855 86.4299 64.6163C86.4815 63.7909 86.5331 63.1202 86.5847 62.6559C88.6998 65.0806 90.815 67.5569 92.9301 69.9816C92.2079 68.5887 91.2793 66.422 90.6602 63.6361C89.9895 60.5924 90.0927 58.2193 90.2475 54.2985C90.2991 52.0802 90.5054 45.8379 91.1761 45.8379Z" fill="#353535"/>
</g>
<circle cx="26.5" cy="148.5" r="15.5" fill="#4E53A0" stroke="#0C145A" stroke-width="4"/>
</svg>
