<svg width="20" height="18" viewBox="0 0 20 18" fill="none" xmlns="http://www.w3.org/2000/svg">
<path d="M9.95874 16.5C9.87622 16.5 9.79369 16.5 9.71117 16.4153H9.62865C7.81317 15.4831 3.52202 12.8559 2.03663 8.70339C1.78906 7.94068 1.21141 4.80508 3.02689 2.85593C4.09968 1.66949 5.08994 1.5 5.75012 1.5C7.31803 1.5 8.96847 2.4322 9.95874 3.78814C10.949 2.34746 12.4344 1.5 14.1674 1.5C14.8275 1.5 15.8178 1.66949 16.9731 2.85593C18.7886 4.80508 18.2109 8.02542 17.9634 8.70339C16.478 12.9407 12.1043 15.4831 10.3713 16.4153C10.2063 16.5 10.0413 16.5 9.95874 16.5Z" stroke="#0C145A" stroke-width="2" stroke-linecap="round" stroke-linejoin="round"/>
</svg>
