<svg width="430" height="184" viewBox="0 0 430 184" fill="none" xmlns="http://www.w3.org/2000/svg">
<path d="M305.403 18.5423C305.467 19.5317 305.499 20.521 305.564 21.4784C305.564 21.6699 305.692 21.9252 305.917 21.9252C332.942 25.6272 360.191 22.4996 387.313 22.5635C394.984 22.5635 402.623 22.8507 410.261 23.5847C410.454 23.6166 410.679 23.4251 410.711 23.2336C410.968 21.9252 411.256 20.6167 411.513 19.3083C411.642 18.7019 410.711 18.4466 410.582 19.053C410.326 20.3614 410.037 21.6699 409.78 22.9783C409.94 22.8507 410.101 22.7549 410.229 22.6273C383.365 20.0104 356.404 23.2975 329.475 22.723C321.676 22.5635 313.877 22.0528 306.141 20.9997C306.27 21.1593 306.366 21.3188 306.494 21.4465C306.43 20.4572 306.398 19.4678 306.334 18.5104C306.334 17.936 305.371 17.936 305.403 18.5423Z" fill="#E8E8E8"/>
<path d="M306.211 19.0209C333.365 19.0209 360.55 19.0209 387.704 19.0209C395.407 19.0209 403.11 19.0209 410.813 19.0209C411.423 19.0209 411.423 18.0635 410.813 18.0635C383.659 18.0635 356.474 18.0635 329.321 18.0635C321.617 18.0635 313.914 18.0635 306.211 18.0635C305.601 18.0635 305.601 19.0209 306.211 19.0209Z" fill="#E8E8E8"/>
<path d="M312.055 18.2549C312.857 6.79787 313.531 -4.69104 314.526 -16.1161C314.655 -17.6161 314.815 -19.0841 315.072 -20.5521C315.168 -21.0947 315.2 -22.2116 315.521 -22.6584C315.939 -23.2329 316.837 -23.2329 317.479 -23.3286C318.956 -23.5839 321.427 -24.4775 322.454 -22.9776C322.743 -22.5308 322.807 -21.6053 322.903 -21.0628C323.096 -20.1053 323.224 -19.1479 323.321 -18.1905C323.834 -12.5737 323.096 -6.86118 322.679 -1.24437C322.197 5.26602 321.716 11.7764 321.234 18.2868C321.202 18.8932 322.165 18.8932 322.197 18.2868C322.903 8.96801 323.674 -0.318871 324.252 -9.63766C324.508 -13.9141 324.637 -18.2863 323.578 -22.4989C323.289 -23.6797 322.839 -24.669 321.491 -24.7967C319.437 -24.9562 317.062 -24.2541 315.072 -23.8392C314.912 -23.8073 314.783 -23.6478 314.751 -23.5201C313.05 -16.914 313.114 -9.79723 312.633 -3.03153C312.119 4.0533 311.638 11.17 311.124 18.2549C311.06 18.8612 312.023 18.8612 312.055 18.2549Z" fill="#E8E8E8"/>
<path d="M323.988 -10.563C327.904 -0.765481 332.044 8.93627 336.377 18.5423C336.634 19.1167 337.468 18.6061 337.212 18.0636C332.911 8.52139 328.802 -1.11653 324.919 -10.8183C324.694 -11.3927 323.763 -11.1374 323.988 -10.563Z" fill="#E8E8E8"/>
<path d="M330.404 -18.3816C336.759 -6.12676 343.082 6.16001 349.437 18.4149C349.726 18.9574 350.56 18.4787 350.271 17.9361C343.916 5.6813 337.593 -6.60546 331.238 -18.8603C330.949 -19.4348 330.115 -18.9561 330.404 -18.3816Z" fill="#E8E8E8"/>
<path d="M347.13 -26.6158C348.157 -11.7759 349.184 3.06393 350.179 17.9038C350.211 18.5101 351.174 18.5101 351.142 17.9038C350.115 3.06393 349.088 -11.7759 348.093 -26.6158C348.06 -27.2221 347.098 -27.2221 347.13 -26.6158Z" fill="#E8E8E8"/>
<path d="M347.96 -26.105C349.597 -27.5731 351.812 -27.5731 353.866 -27.222C354.701 -27.0944 355.599 -26.9348 356.402 -26.6476C357.878 -26.105 357.653 -24.7647 357.718 -23.4562C357.91 -18.8926 358.071 -14.3289 358.263 -9.76525C358.616 -0.542198 359.001 8.71277 359.355 17.9358C359.387 18.5422 360.349 18.5422 360.317 17.9358C359.868 6.89369 359.451 -4.14844 359.001 -15.1587C358.905 -17.9032 358.777 -20.6797 358.68 -23.4243C358.616 -24.8285 358.809 -26.5518 357.332 -27.3178C355.792 -28.1156 353.417 -28.4028 351.684 -28.3709C350.015 -28.339 348.538 -27.8922 347.318 -26.7752C346.837 -26.3923 347.511 -25.6902 347.96 -26.105Z" fill="#E8E8E8"/>
<path d="M358.853 -20.6157C360.265 -20.9668 361.837 -21.3178 363.314 -21.0306C365.496 -20.5838 365.946 -18.669 366.042 -16.7222C366.203 -12.7969 366.267 -8.90339 366.363 -4.97801C366.556 2.7451 366.652 10.4682 366.684 18.1913C366.684 18.7977 367.647 18.7977 367.647 18.1913C367.615 8.96826 367.486 -0.222874 367.23 -9.41401C367.165 -11.648 367.101 -13.85 367.037 -16.084C366.973 -17.552 367.005 -19.1796 366.106 -20.4242C364.437 -22.7539 361.003 -22.1795 358.628 -21.5731C357.986 -21.3816 358.243 -20.4561 358.853 -20.6157Z" fill="#E8E8E8"/>
<path d="M367.288 -25.3069C367.545 -25.2111 367.833 -25.1154 368.09 -25.0196C368.122 -24.7962 368.154 -24.5728 368.186 -24.3175C368.251 -23.8069 368.251 -23.2644 368.315 -22.7218C368.379 -21.8921 368.443 -21.0304 368.507 -20.2007C368.636 -18.4135 368.732 -16.5944 368.828 -14.8073C369.053 -11.1053 369.214 -7.40329 369.342 -3.7013C369.631 3.60693 369.727 10.9152 369.727 18.2234C369.727 18.8297 370.69 18.8297 370.69 18.2234C370.69 9.12799 370.497 0.000684738 370.08 -9.09471C369.856 -13.5307 369.599 -17.9667 369.278 -22.4027C369.214 -23.4878 369.406 -25.4664 368.411 -26.2323C367.737 -26.743 366.806 -26.5515 366.453 -25.7856C366.229 -25.2111 367.031 -24.7324 367.288 -25.3069Z" fill="#E8E8E8"/>
<path d="M319.982 23.2342C320.977 24.8937 321.94 27.3829 323.545 28.5637C325.118 29.7445 327.044 28.6914 328.777 29.2977C329.354 29.4892 329.611 28.5637 329.033 28.3723C327.493 27.8297 325.695 28.6914 324.315 27.8297C322.743 26.8723 321.748 24.2873 320.817 22.7235C320.496 22.2129 319.661 22.6916 319.982 23.2342Z" fill="#E8E8E8"/>
<path d="M330.06 23.6489C329.932 25.3084 329.418 26.8083 328.584 28.2125C328.263 28.7551 329.097 29.2338 329.418 28.6912C330.381 27.1275 330.895 25.436 331.023 23.6489C331.087 23.0425 330.125 23.0425 330.06 23.6489Z" fill="#E8E8E8"/>
<path d="M327.332 24.4463C327.621 25.9143 327.91 27.3823 328.231 28.8503C328.36 29.4567 329.29 29.2014 329.162 28.595C328.873 27.127 328.584 25.659 328.263 24.191C328.135 23.5846 327.204 23.8399 327.332 24.4463Z" fill="#E8E8E8"/>
<path d="M328.481 24.4142C328.546 24.4142 328.61 24.4462 328.674 24.4781C328.77 24.6696 328.77 24.861 328.738 25.0525C328.706 25.2759 328.61 25.4993 328.546 25.7227C328.417 26.1695 328.385 26.5844 328.513 27.0312C328.706 27.6375 329.541 27.3822 329.444 26.7759C329.284 25.9142 329.412 25.0525 329.765 24.2547C329.444 24.2228 329.123 24.1589 328.834 24.127C328.738 25.1163 328.674 26.1376 328.578 27.1269C328.513 27.7333 329.476 27.7333 329.541 27.1269C329.637 26.1376 329.701 25.1163 329.797 24.127C329.862 23.5526 329.027 23.5526 328.867 23.9994C328.449 24.9887 328.385 26.0099 328.546 27.0312C328.867 26.9354 329.155 26.8716 329.476 26.7759C329.188 25.8184 330.311 24.6376 329.348 23.776C328.77 23.2653 327.839 23.4568 327.615 24.1909C327.358 24.7653 328.289 25.0206 328.481 24.4142Z" fill="#E8E8E8"/>
<path d="M378.779 17.4254C378.49 16.2446 378.362 15.0957 378.458 13.883C378.298 14.0426 378.137 14.2022 377.977 14.3617C383.658 14.0745 389.339 13.7235 395.02 13.5958C397.876 13.532 400.733 13.532 403.589 13.5958C404.231 13.5958 404.873 13.6277 405.483 13.6277C406.125 13.6596 407.441 13.4362 408.019 13.7235C409.302 14.3298 408.757 16.7872 408.757 17.9042C408.757 18.5105 409.72 18.5105 409.72 17.9042C409.72 16.4042 410.49 13.2128 408.436 12.798C407.024 12.5107 405.355 12.6703 403.91 12.6384C402.113 12.6065 400.316 12.5746 398.518 12.6065C391.682 12.6384 384.845 13.0533 377.977 13.4043C377.72 13.4043 377.495 13.6277 377.495 13.883C377.431 15.1915 377.527 16.4361 377.88 17.6808C377.977 18.2871 378.907 18.0318 378.779 17.4254Z" fill="#E8E8E8"/>
<path d="M382.344 7.81935C382.729 9.5746 383.018 11.3298 383.147 13.117C383.179 13.7234 384.142 13.7234 384.109 13.117C383.981 11.2341 383.692 9.38312 383.275 7.56404C383.147 6.98959 382.216 7.2449 382.344 7.81935Z" fill="#E8E8E8"/>
<path d="M382.985 8.42626C386.868 8.10713 390.752 7.75608 394.636 7.91565C398.295 8.07522 401.986 9.25602 405.645 8.87306C405.484 8.71349 405.324 8.55392 405.163 8.39435C405.035 10.0858 405.227 11.6815 405.773 13.3091C405.966 13.8835 406.896 13.6282 406.704 13.0537C406.19 11.5219 405.998 10.0219 406.126 8.39435C406.158 8.13904 405.901 7.88373 405.645 7.91565C401.986 8.2667 398.295 7.08589 394.636 6.95824C390.752 6.79867 386.836 7.14972 382.985 7.46885C382.375 7.50077 382.375 8.45818 382.985 8.42626Z" fill="#E8E8E8"/>
<path d="M350.316 107.455C350.316 108.795 350.316 110.103 350.316 111.444C350.316 112.05 351.279 112.05 351.279 111.444C351.279 110.103 351.279 108.795 351.279 107.455C351.279 106.848 350.316 106.848 350.316 107.455Z" fill="#E8E8E8"/>
<path d="M350.798 107.135C375.769 107.135 400.74 107.135 425.71 107.135C426.32 107.135 426.32 106.177 425.71 106.177C400.74 106.177 375.769 106.177 350.798 106.177C350.156 106.177 350.156 107.135 350.798 107.135Z" fill="#E8E8E8"/>
<path d="M351.559 111.538C376.145 111.538 400.698 111.538 425.284 111.538C425.894 111.538 425.894 110.581 425.284 110.581C400.698 110.581 376.145 110.581 351.559 110.581C350.949 110.581 350.949 111.538 351.559 111.538Z" fill="#E8E8E8"/>
<path d="M425.227 107.455C425.227 108.38 425.227 109.306 425.227 110.231C425.227 110.837 426.189 110.837 426.189 110.231C426.189 109.306 426.189 108.38 426.189 107.455C426.189 106.848 425.227 106.848 425.227 107.455Z" fill="#E8E8E8"/>
<path d="M357.733 96.6994C358.568 99.9865 359.338 103.306 359.98 106.625C360.108 107.231 361.039 106.976 360.911 106.369C360.269 103.05 359.531 99.7312 358.664 96.4441C358.504 95.8378 357.573 96.0931 357.733 96.6994Z" fill="#E8E8E8"/>
<path d="M374.416 96.4114C373.646 99.6985 373.004 102.986 372.523 106.305C372.426 106.911 373.357 107.166 373.453 106.56C373.935 103.241 374.577 99.9219 375.347 96.6667C375.475 96.0604 374.545 95.8051 374.416 96.4114Z" fill="#E8E8E8"/>
<path d="M355.094 94.9115C355.158 96.571 357.661 96.4433 358.881 96.5071C361.641 96.6348 364.434 96.2199 367.194 96.0603C368.574 95.9646 369.954 95.9327 371.334 96.0603C372.458 96.1561 373.677 96.539 374.769 96.3156C375.988 96.0603 376.759 94.9115 376.053 93.7945C375.732 93.2839 374.897 93.7626 375.218 94.2732C376.117 95.7731 373.068 95.2944 372.779 95.2625C372.105 95.1668 371.399 95.1029 370.725 95.071C369.152 94.9753 367.547 95.071 365.974 95.1987C364.947 95.2625 356.089 96.3157 356.057 94.9115C356.057 94.2732 355.094 94.2732 355.094 94.9115Z" fill="#E8E8E8"/>
<path d="M356.217 94.7836C355.64 92.9964 360.615 93.1879 361.449 93.156C362.925 93.0922 364.434 93.0283 365.91 92.9645C366.713 92.9326 375.058 92.7092 374.833 93.3156C374.641 93.89 375.571 94.1453 375.764 93.5709C376.727 90.7305 366.296 91.9752 364.948 92.039C362.444 92.1348 359.652 91.9113 357.212 92.3901C355.928 92.6454 354.837 93.6028 355.287 95.007C355.479 95.6133 356.41 95.358 356.217 94.7836Z" fill="#E8E8E8"/>
<path d="M360.479 92.1351C359.002 91.4649 357.686 90.5075 356.659 89.2948C356.242 88.7842 353.289 84.5397 355.022 84.2844C355.311 84.2525 355.472 83.8057 355.311 83.5823C354.38 82.2419 353.995 80.5185 353.514 78.9867C352.968 77.3272 352.455 75.6677 351.909 74.0401C351.813 73.689 351.652 73.3699 351.588 73.0188C351.428 72.3487 351.331 72.3487 352.134 72.2848C353 72.221 353.45 72.8912 354.027 73.4656C355.119 74.5507 356.082 75.7315 356.948 76.9761C360.19 81.6355 361.987 87.1247 363.335 92.5819C363.496 93.1883 364.426 92.933 364.266 92.3266C362.533 85.3694 359.997 78.2208 354.862 72.955C354.156 72.221 352.808 70.5296 351.62 70.7211C350.721 70.8806 350.465 71.838 350.529 72.6359C350.657 74.423 351.62 76.3698 352.198 78.0931C352.84 80.0718 353.257 82.3695 354.477 84.0929C354.573 83.8695 354.669 83.6142 354.766 83.3908C352.647 83.7099 353.867 86.646 354.445 87.7949C355.664 90.1246 357.622 91.9117 359.997 93.0287C360.543 93.2202 361.024 92.3904 360.479 92.1351Z" fill="#E8E8E8"/>
<path d="M361.586 83.391C361.489 79.338 361.393 75.1254 362.773 71.2638C363.447 69.3809 364.474 67.6895 365.662 66.0938C365.951 65.6789 366.272 65.0087 366.721 64.7534C367.042 64.2428 367.523 64.179 368.133 64.5939C368.904 64.4024 369.289 64.5939 369.289 65.1683C369.674 66.03 369.546 67.498 369.546 68.3916C369.546 70.5298 369.032 72.5085 368.518 74.5509C368.326 75.253 368.165 75.987 368.23 76.6891C368.294 77.5189 368.743 78.1572 368.968 78.9231C369.61 81.0932 368.486 83.3272 367.716 85.3058C366.946 87.3802 366.143 89.4546 365.373 91.5609C365.148 92.1354 366.079 92.3907 366.304 91.8162C367.331 89.0717 368.422 86.359 369.385 83.5825C370.059 81.6358 370.38 79.9443 369.61 78.0295C368.583 75.4445 370.22 72.5404 370.444 69.8915C370.573 68.1682 370.861 65.2321 369.738 63.7003C367.299 60.3493 363.415 67.498 362.645 69.0937C360.462 73.5616 360.494 78.5721 360.623 83.4229C360.655 84.0293 361.618 84.0293 361.586 83.391Z" fill="#E8E8E8"/>
<path d="M353.492 75.54C356.669 79.976 358.563 85.3056 360.777 90.2522C361.034 90.8267 361.869 90.3161 361.612 89.7735C359.429 84.795 357.504 79.4973 354.326 75.0613C353.973 74.5507 353.138 75.0294 353.492 75.54Z" fill="#E8E8E8"/>
<path d="M362.345 73.2743C362.473 74.9658 363.051 76.4657 364.11 77.7742C364.495 78.2529 365.169 77.5827 364.784 77.104C363.917 75.987 363.404 74.6786 363.307 73.2743C363.275 72.668 362.312 72.668 362.345 73.2743Z" fill="#E8E8E8"/>
<path d="M366.715 73.0514C367.486 71.9025 368.288 70.7536 369.058 69.6047C369.411 69.0941 368.577 68.6154 368.224 69.126C367.454 70.2749 366.651 71.4238 365.881 72.5727C365.56 73.0833 366.394 73.562 366.715 73.0514Z" fill="#E8E8E8"/>
<path d="M376.284 72.4129C375.482 73.6894 374.326 74.6787 373.267 75.7C372.111 76.785 370.956 77.902 369.801 78.9871C369.351 79.402 370.025 80.1041 370.475 79.6573C372.689 77.551 375.482 75.5085 377.118 72.8916C377.439 72.381 376.605 71.9023 376.284 72.4129Z" fill="#E8E8E8"/>
<path d="M375.864 73.6888C375.929 75.3802 378.753 78.5078 376.57 79.529C376.282 79.6886 376.282 80.0715 376.474 80.2949C377.212 81.1885 376.731 82.5289 376.635 83.582C376.538 84.7628 376.635 85.9436 376.314 87.0925C375.736 89.2946 373.682 90.603 371.852 91.7519C371.339 92.0711 371.82 92.9008 372.334 92.5817C374.548 91.1775 376.827 89.5818 377.341 86.8372C377.598 85.3692 377.598 83.8373 377.726 82.3693C377.854 81.3162 377.822 80.4864 377.116 79.6566C377.084 79.912 377.052 80.1673 377.02 80.4226C380.069 78.9865 376.859 75.7313 376.795 73.7526C376.795 73.0824 375.832 73.0824 375.864 73.6888Z" fill="#E8E8E8"/>
<path d="M374.325 78.3805C372.11 81.9229 370.217 85.6249 368.644 89.5184C368.419 90.0928 369.35 90.3481 369.575 89.7737C371.115 85.976 372.977 82.3378 375.16 78.8592C375.481 78.3167 374.646 77.838 374.325 78.3805Z" fill="#E8E8E8"/>
<path d="M359.425 103.242C360.709 104.966 362.474 106.146 364.593 106.593C365.202 106.721 365.459 105.795 364.849 105.668C362.988 105.285 361.383 104.295 360.26 102.763C359.907 102.285 359.072 102.763 359.425 103.242Z" fill="#E8E8E8"/>
<path d="M358.875 99.3158C362.181 101.837 365.68 105.443 369.916 106.305C370.526 106.433 370.783 105.507 370.173 105.379C366.065 104.55 362.598 100.943 359.357 98.4861C358.875 98.1031 358.394 98.9328 358.875 99.3158Z" fill="#E8E8E8"/>
<path d="M361.415 96.8907C363.405 98.5183 365.331 100.178 367.353 101.742C368.22 102.412 369.118 103.05 370.177 103.465C371.172 103.88 372.232 104.071 373.13 104.71C373.644 105.061 374.125 104.231 373.612 103.88C372.906 103.401 372.199 103.178 371.429 102.891C370.113 102.444 369.054 101.837 367.963 100.976C365.973 99.4438 364.047 97.8162 362.121 96.2205C361.608 95.8376 360.934 96.5078 361.415 96.8907Z" fill="#E8E8E8"/>
<path d="M366.687 96.4439C368.549 98.3587 370.796 99.7629 373.363 100.593C373.941 100.784 374.198 99.8586 373.62 99.6672C371.213 98.8693 369.127 97.5609 367.361 95.7418C366.944 95.3269 366.238 95.9971 366.687 96.4439Z" fill="#E8E8E8"/>
<path d="M390.305 105.731C390.113 105.22 389.824 104.55 389.856 104.008C389.984 102.603 390.947 102.476 391.878 102.316C393.226 102.061 394.638 102.029 396.018 102.029C398.361 101.997 400.736 102.188 403.08 102.284C405.423 102.348 407.733 102.22 410.077 102.029C411.039 101.933 412.74 101.55 413.671 101.869C414.634 102.22 414.891 102.699 414.923 103.593C414.955 104.295 414.955 104.997 414.987 105.731C415.019 106.337 415.982 106.337 415.95 105.731C415.918 104.646 416.239 102.731 415.693 101.71C415.18 100.816 413.992 100.912 413.094 100.912C409.435 100.912 405.872 101.454 402.181 101.295C398.779 101.167 395.344 100.88 391.974 101.391C389.214 101.805 388.508 103.497 389.439 106.05C389.567 106.561 390.498 106.305 390.305 105.731Z" fill="#E8E8E8"/>
<path d="M397.106 100.593C397.363 100.018 397.588 99.4438 397.844 98.8694C398.133 98.8375 398.422 98.8056 398.711 98.7417C399.096 98.7098 399.449 98.7417 399.834 98.7098C400.669 98.7098 401.471 98.6779 402.306 98.6779C404.071 98.646 405.804 98.646 407.57 98.6141C409.206 98.5821 410.875 98.5821 412.512 98.5502C412.93 98.5502 413.347 98.5502 413.764 98.5183C414.278 98.5183 414.438 98.3907 414.599 98.7736C414.791 99.2523 414.438 100.593 414.374 101.103C414.31 101.71 415.273 101.71 415.337 101.103C415.401 100.337 415.883 98.7417 415.497 98.0396C415.176 97.4652 414.695 97.5609 414.053 97.5609C410.972 97.5609 407.858 97.6567 404.777 97.6886C403.333 97.7205 401.889 97.7205 400.444 97.7524C399.353 97.7524 398.005 97.6247 397.01 98.1354C395.854 98.7417 395.309 100.305 396.432 101.231C396.914 101.646 397.588 100.976 397.106 100.593Z" fill="#E8E8E8"/>
<path d="M403.718 96.6988C402.884 95.5819 406.382 95.7095 406.607 95.6776C407.377 95.6138 410.009 95.1351 409.496 96.8584C409.303 97.4648 410.234 97.6882 410.427 97.1137C410.651 96.3478 410.394 95.6457 409.785 95.1351C408.725 94.2734 407.409 94.6883 406.158 94.7521C405.163 94.784 403.975 94.4649 403.173 95.2308C402.595 95.7414 402.435 96.5393 402.884 97.1775C403.269 97.6563 404.104 97.1775 403.718 96.6988Z" fill="#E8E8E8"/>
<path d="M354.611 112.241C355.831 113.9 357.275 115.273 358.976 116.422C359.49 116.773 359.971 115.943 359.457 115.592C357.917 114.539 356.537 113.262 355.445 111.73C355.06 111.252 354.226 111.73 354.611 112.241Z" fill="#E8E8E8"/>
<path d="M358.848 116.103C359.907 116.103 360.966 116.103 362.025 116.103C362.635 116.103 363.63 116.262 364.176 115.975C364.593 115.752 364.722 115.241 364.914 114.858C365.428 113.837 366.038 112.88 366.744 111.954C367.129 111.475 366.455 110.805 366.07 111.284C365.717 111.699 365.396 112.145 365.075 112.592C364.689 113.199 364.433 114.06 363.983 114.603C363.085 115.656 360.164 115.177 358.848 115.145C358.238 115.145 358.238 116.103 358.848 116.103Z" fill="#E8E8E8"/>
<path d="M362.417 112.177C362.674 113.134 362.93 114.124 363.219 115.081C363.38 115.687 364.311 115.432 364.15 114.826C363.893 113.868 363.637 112.879 363.348 111.922C363.187 111.315 362.256 111.571 362.417 112.177Z" fill="#E8E8E8"/>
<path d="M401.54 112.018C402.054 113.071 402.6 114.092 403.274 115.049C403.627 115.56 404.076 116.358 404.686 116.645C405.328 116.964 406.226 116.709 406.868 116.645C408.024 116.517 409.179 116.422 410.335 116.294C410.945 116.23 410.945 115.273 410.335 115.337C409.564 115.4 408.794 115.496 408.024 115.56C407.35 115.624 406.355 115.911 405.713 115.783C404.044 115.464 403.017 112.847 402.375 111.507C402.086 110.964 401.251 111.443 401.54 112.018Z" fill="#E8E8E8"/>
<path d="M410.362 111.219C409.976 112.591 409.784 113.996 409.816 115.4C409.848 116.006 410.811 116.006 410.779 115.4C410.747 114.059 410.907 112.751 411.26 111.474C411.453 110.9 410.522 110.645 410.362 111.219Z" fill="#E8E8E8"/>
<path d="M410.779 115.879C412.063 114.667 413.283 113.39 414.47 112.082C414.888 111.635 414.214 110.933 413.796 111.411C412.609 112.72 411.389 113.996 410.105 115.209C409.656 115.624 410.33 116.294 410.779 115.879Z" fill="#E8E8E8"/>
<path d="M204.664 18.5429C204.664 27.5426 204.664 36.5103 204.664 45.51C204.664 46.1163 205.627 46.1163 205.627 45.51C205.627 36.5103 205.627 27.5426 205.627 18.5429C205.627 17.9365 204.664 17.9365 204.664 18.5429Z" fill="#E8E8E8"/>
<path d="M205.435 46.2433C216.893 46.2433 228.383 46.2433 239.842 46.2433C240.452 46.2433 240.452 45.2859 239.842 45.2859C228.383 45.2859 216.893 45.2859 205.435 45.2859C204.793 45.2859 204.793 46.2433 205.435 46.2433Z" fill="#E8E8E8"/>
<path d="M205.435 19.0214C216.572 19.0214 227.677 19.0214 238.815 19.0214C239.424 19.0214 239.424 18.064 238.815 18.064C227.677 18.064 216.572 18.064 205.435 18.064C204.793 18.064 204.793 19.0214 205.435 19.0214Z" fill="#E8E8E8"/>
<path d="M238.812 18.5419C238.812 27.5416 238.812 36.5093 238.812 45.509C238.812 46.1153 239.775 46.1153 239.775 45.509C239.775 36.5093 239.775 27.5416 239.775 18.5419C239.775 17.9356 238.812 17.9356 238.812 18.5419Z" fill="#E8E8E8"/>
<path d="M222.569 17.7442C222.537 17.3294 222.601 16.9464 222.793 16.5634C222.89 16.34 223.275 15.7656 223.499 15.9252C223.756 16.0847 223.852 16.8187 223.885 17.074C223.981 17.5527 223.981 18.0315 223.917 18.5102C223.852 19.1165 224.815 19.1165 224.88 18.5102C224.944 17.6804 224.88 16.8507 224.591 16.0528C224.398 15.5422 224.141 14.9358 223.532 14.872C222.216 14.7124 221.542 16.723 221.606 17.7123C221.638 18.3825 222.601 18.3825 222.569 17.7442Z" fill="#E8E8E8"/>
<path d="M206.48 21.6386C206.48 28.8192 206.48 35.9678 206.48 43.1484C206.48 43.7548 207.443 43.7548 207.443 43.1484C207.443 35.9678 207.443 28.8192 207.443 21.6386C207.443 21.0322 206.48 21.0322 206.48 21.6386Z" fill="#E8E8E8"/>
<path d="M206.973 43.6264C217.051 43.6264 227.129 43.6264 237.208 43.6264C237.817 43.6264 237.817 42.6689 237.208 42.6689C227.129 42.6689 217.051 42.6689 206.973 42.6689C206.363 42.6689 206.363 43.6264 206.973 43.6264Z" fill="#E8E8E8"/>
<path d="M237.979 42.8923C237.979 35.7118 237.979 28.5631 237.979 21.3825C237.979 20.7761 237.016 20.7761 237.016 21.3825C237.016 28.5631 237.016 35.7118 237.016 42.8923C237.016 43.5306 237.979 43.5306 237.979 42.8923Z" fill="#E8E8E8"/>
<path d="M207.223 22.372C216.948 22.372 226.673 22.372 236.431 22.372C237.04 22.372 237.04 21.4146 236.431 21.4146C226.705 21.4146 216.98 21.4146 207.223 21.4146C206.613 21.4146 206.613 22.372 207.223 22.372Z" fill="#E8E8E8"/>
<path d="M207.379 38.5522C211.135 37.4352 214.954 36.4459 218.677 38.1692C221.341 39.4139 223.652 41.2968 226.637 41.8393C227.247 41.9351 227.504 41.0415 226.894 40.9138C223.492 40.2755 220.924 37.8182 217.682 36.7331C214.184 35.5842 210.525 36.6055 207.123 37.6267C206.545 37.8182 206.802 38.7437 207.379 38.5522Z" fill="#E8E8E8"/>
<path d="M219.903 38.0095C224.493 36.4139 229.275 35.8394 234.089 36.3181C234.699 36.3819 234.699 35.4245 234.089 35.3607C229.179 34.882 224.3 35.4564 219.646 37.084C219.068 37.3074 219.325 38.2329 219.903 38.0095Z" fill="#E8E8E8"/>
<path d="M220.895 30.606C220.542 29.9996 220.638 29.106 221.248 28.6911C221.794 28.3082 222.661 28.4678 223.046 28.9784C223.431 29.5209 223.206 30.3826 222.596 30.7017C221.89 31.0528 221.088 30.3826 221.088 29.6805C221.088 29.0741 220.125 29.0741 220.125 29.6805C220.093 30.957 221.409 32.0421 222.693 31.691C223.88 31.3719 224.522 29.872 224.009 28.7869C223.495 27.638 221.954 27.2231 220.863 27.7976C219.676 28.4358 219.387 29.9996 220.029 31.1166C220.382 31.6272 221.184 31.1485 220.895 30.606Z" fill="#E8E8E8"/>
<path d="M377.24 23.1698C378.395 24.7016 378.62 26.776 380.032 28.1164C381.348 29.3929 382.921 29.2015 384.526 28.627C385.103 28.4355 384.847 27.51 384.269 27.7015C383.402 27.9887 382.407 28.3079 381.509 27.9568C380.738 27.6377 380.225 26.9356 379.84 26.2016C379.23 25.0208 378.877 23.7442 378.074 22.6592C377.689 22.1805 376.855 22.6592 377.24 23.1698Z" fill="#E8E8E8"/>
<path d="M384.39 28.2445C385.931 26.936 387.279 25.4361 388.435 23.7766C388.788 23.266 387.953 22.7873 387.6 23.2979C386.509 24.8936 385.193 26.3297 383.716 27.5743C383.235 27.9573 383.909 28.6594 384.39 28.2445Z" fill="#E8E8E8"/>
<path d="M382.054 22.8191C382.503 23.8722 382.696 24.9573 382.663 26.0743C382.631 26.6806 383.594 26.6806 383.626 26.0743C383.658 24.7658 383.402 23.5212 382.888 22.3404C382.663 21.7659 381.829 22.2446 382.054 22.8191Z" fill="#E8E8E8"/>
<path d="M356.344 147.665C356.344 151.909 356.344 156.186 356.344 160.43C356.344 161.037 357.307 161.037 357.307 160.43C357.307 156.186 357.307 151.909 357.307 147.665C357.307 147.059 356.344 147.059 356.344 147.665Z" fill="#E8E8E8"/>
<path d="M344.629 162.186C355.959 162.186 367.321 162.186 378.651 162.186C379.261 162.186 379.261 161.228 378.651 161.228C367.321 161.228 355.959 161.228 344.629 161.228C344.019 161.228 344.019 162.186 344.629 162.186Z" fill="#E8E8E8"/>
<path d="M363.09 162.984C363.09 165.632 363.09 168.313 363.09 170.962C363.09 171.568 364.053 171.568 364.053 170.962C364.053 168.313 364.053 165.632 364.053 162.984C364.053 162.377 363.09 162.377 363.09 162.984Z" fill="#E8E8E8"/>
<path d="M344.313 172.398C354.359 172.398 364.437 172.398 374.483 172.398C375.093 172.398 375.093 171.441 374.483 171.441C364.437 171.441 354.359 171.441 344.313 171.441C343.703 171.441 343.703 172.398 344.313 172.398Z" fill="#E8E8E8"/>
<path d="M351.852 173.196C351.852 175.207 351.852 177.249 351.852 179.26C351.852 179.866 352.814 179.866 352.814 179.26C352.814 177.249 352.814 175.207 352.814 173.196C352.814 172.59 351.852 172.59 351.852 173.196Z" fill="#E8E8E8"/>
<path d="M355.06 18.6705C355.06 17.3301 354.803 15.6387 355.06 14.3302C355.413 12.4792 358.013 12.8303 359.521 12.7346C360.131 12.7026 360.131 11.7452 359.521 11.7771C358.302 11.841 357.018 11.841 355.798 12.0325C355.252 12.1282 354.771 12.2878 354.45 12.7665C354.065 13.3409 354.129 14.1388 354.129 14.8089C354.129 16.0855 354.129 17.3939 354.129 18.6705C354.097 19.3088 355.06 19.3088 355.06 18.6705Z" fill="#E8E8E8"/>
<path d="M337.791 -3.12734C336.764 -2.42524 334.806 -1.49974 334.518 -0.159368C334.389 0.542732 334.71 1.18101 334.967 1.81928C335.416 2.93626 335.866 4.05324 336.347 5.17021C338.209 9.54239 340.295 13.8188 342.606 17.9676C342.895 18.5101 343.729 18.0314 343.44 17.4889C341.675 14.2975 340.038 11.0423 338.53 7.72331C337.727 5.96806 336.957 4.18089 336.251 2.39373C335.833 1.34057 335.256 0.415076 336.026 -0.669989C336.475 -1.30826 337.631 -1.85079 338.305 -2.29758C338.786 -2.64863 338.305 -3.47839 337.791 -3.12734Z" fill="#E8E8E8"/>
<path d="M202.818 153.283C200.186 155.229 197.008 158.357 195.853 162.825C195.018 166.144 195.821 168.091 195.532 172.367C195.339 175.335 194.569 179.516 192.098 184.494C186.481 183.345 177.045 182.228 165.907 184.782C159.263 186.313 153.935 188.707 150.02 190.877C150.629 191.26 151.464 191.707 152.523 191.994C158.525 193.622 164.848 188.611 165.041 188.962C165.233 189.281 157.979 192.664 158.365 195.6C158.621 197.579 162.184 198.632 165.875 199.749C168.988 200.675 171.941 201.568 175.889 201.121C181.313 200.515 185.069 197.802 186.738 196.398C188.342 197.196 190.718 198.249 193.702 199.175C199.191 200.834 206.766 203.132 211.805 200.004C215.079 197.962 216.074 193.175 217.935 183.665C220.182 172.08 221.241 166.272 218.224 161.516C214.276 155.166 206.156 153.698 202.818 153.283Z" fill="white" stroke="#161616" stroke-width="3" stroke-miterlimit="10"/>
<path d="M191.077 184.845C194.961 186.281 198.17 188.898 200.385 192.377C200.706 192.888 201.54 192.409 201.219 191.898C198.876 188.196 195.442 185.452 191.334 183.92C190.724 183.696 190.499 184.622 191.077 184.845Z" fill="#161616"/>
<path d="M232.761 113.997C231.124 114.539 229.038 115.369 226.695 116.518C226.021 116.837 224.32 117.699 222.491 118.88C219.666 120.667 217.612 122.55 215.269 124.911C212.284 127.943 209.267 130.975 205.672 135.826C202.655 139.911 197.969 146.325 194.599 155.74C193.251 159.474 192.481 162.697 192.031 164.995C193.797 163.974 195.401 163.463 196.653 163.176C203.875 161.548 210.808 165.186 217.387 168.601C219.859 169.878 221.817 171.122 223.165 171.984C223.871 168.537 224.577 165.059 225.283 161.612C225.893 158.708 226.47 155.772 227.08 152.868C228.011 152.07 229.263 150.889 230.643 149.357C233.243 146.421 238.41 140.581 239.116 132.475C239.983 123.124 234.398 115.975 232.761 113.997Z" fill="#EC615B"/>
<path d="M230.872 114.379C227.437 114.89 224.484 116.709 221.82 118.815C218.739 121.209 215.851 123.858 213.154 126.666C207.891 132.092 203.301 138.155 199.514 144.697C199.193 145.24 200.027 145.719 200.348 145.176C204.007 138.857 208.372 132.985 213.443 127.719C215.915 125.166 218.515 122.741 221.243 120.475C224.163 118.081 227.277 115.848 231.128 115.273C231.738 115.209 231.481 114.284 230.872 114.379Z" fill="#161616"/>
<path d="M229.524 149.229C227.149 151.623 224.709 153.953 222.238 156.218C221.789 156.633 222.463 157.304 222.912 156.889C225.383 154.623 227.823 152.293 230.198 149.9C230.615 149.453 229.941 148.783 229.524 149.229Z" fill="#161616"/>
<path d="M226.183 153.602C225.06 159.729 223.968 165.888 222.845 172.016C223.07 171.92 223.326 171.824 223.551 171.729C218.448 168.186 212.767 165.537 206.733 163.878C202.015 162.601 196.013 161.357 191.969 164.899C191.519 165.314 192.193 165.984 192.643 165.569C196.751 161.931 203.395 163.846 208.049 165.25C213.409 166.878 218.448 169.367 223.038 172.527C223.294 172.686 223.68 172.527 223.744 172.239C224.867 166.112 225.958 159.953 227.082 153.825C227.21 153.251 226.279 152.995 226.183 153.602Z" fill="#161616"/>
<path d="M199.745 144.251C196.407 150.729 192.235 157.399 191.946 164.899C191.914 165.505 192.877 165.505 192.909 164.899C193.198 157.591 197.306 151.08 200.58 144.729C200.837 144.187 200.002 143.708 199.745 144.251Z" fill="#161616"/>
<path opacity="0.4" d="M228.272 132.188C222.526 143.549 219.413 153.123 217.584 159.825C214.92 169.654 213.989 177.409 207.088 183.856C205.965 184.909 202.659 187.941 197.459 189.824C186.547 193.749 178.458 188.452 171.59 194.068C170.819 194.707 168.541 196.302 168.797 198.121C169.054 199.845 171.429 200.738 171.782 200.898C174.607 201.983 177.528 200.866 181.187 199.398C185.327 197.738 184.878 197.164 186.739 196.845C190.655 196.175 192.452 198.632 197.652 200.26C199.867 200.93 206.414 202.972 211.132 200.26C214.599 198.249 215.658 194.483 217.327 188.132C218.482 183.824 219.67 177.537 219.477 169.622C220.761 170.612 222.045 171.601 223.329 172.59C224.998 159.123 226.635 145.655 228.272 132.188Z" fill="#3D3D3D"/>
<path opacity="0.38" d="M226.344 146.006C221.946 154.272 219.796 161.261 218.641 165.984C216.33 175.462 217.068 179.93 213.922 186.6C210.552 193.845 205.096 198.44 201.309 201.057C203.427 201.536 208.53 202.429 212.221 199.557C214.821 197.547 215.495 194.674 216.49 189.983C217.742 184.207 219.058 177.633 220.342 170.42C221.337 171.058 222.332 171.697 223.327 172.335C224.354 163.591 225.349 154.782 226.344 146.006Z" fill="#3D3D3D"/>
<path d="M232.089 113.358C230.934 120.858 229.81 128.421 228.719 136.017C224.482 165.473 220.823 194.419 217.742 222.886C217.806 223.843 218.063 225.375 219.026 226.907C219.989 228.471 221.273 229.268 221.883 229.683C227.724 233.832 230.645 235.938 233.598 237.343C247.752 244.14 263.415 243.342 263.415 243.342C266.721 243.183 273.301 242.768 280.362 239.959C280.747 239.8 283.443 238.555 288.835 236.034C293.714 233.768 294.581 233.321 295.768 232.236C298.593 229.651 299.684 226.46 300.422 224.194C301.995 219.375 301.834 215.29 301.77 214.301C301.77 214.301 301.449 206.354 301.224 159.952C301.192 150.505 302.123 136.623 307.13 119.485C301.931 116.964 297.052 114.634 291.178 111.826C287.134 109.879 283.379 108.092 277.987 107.454C276.446 107.262 275.066 107.199 273.012 107.23C264.667 107.294 257.798 108.571 254.845 109.081C249.1 110.007 241.333 111.411 232.089 113.358Z" fill="#EC615B"/>
<path d="M231.829 114.475C241.779 112.369 251.825 110.677 261.903 109.433C262.353 109.369 262.609 108.794 262.16 108.539C262.032 108.475 261.903 108.38 261.743 108.316C261.197 107.997 260.716 108.826 261.261 109.145C261.39 109.209 261.518 109.305 261.679 109.369C261.775 109.082 261.839 108.762 261.935 108.475C251.761 109.72 241.618 111.411 231.604 113.55C230.963 113.677 231.219 114.603 231.829 114.475Z" fill="#161616"/>
<path d="M228.846 131.198C225.316 156.218 222.106 181.27 219.218 206.386C218.864 209.546 218.511 212.673 218.158 215.833C217.87 218.577 217.067 221.673 217.42 224.417C217.741 226.843 219.667 228.375 221.432 229.843C223.358 231.438 225.38 232.938 227.498 234.311C236.196 239.895 246.371 243.246 256.706 243.853C268.999 244.555 281.356 241.427 291.851 235.045C292.365 234.725 291.883 233.896 291.37 234.215C273.011 245.353 249.645 245.8 230.933 235.236C228.782 234.023 226.696 232.683 224.706 231.215C222.684 229.715 219.41 227.673 218.576 225.215C218.19 224.034 218.383 222.726 218.511 221.481C218.672 219.918 218.865 218.322 219.025 216.758C219.346 213.822 219.667 210.886 220.02 207.95C221.4 195.982 222.812 184.047 224.353 172.111C226.086 158.548 227.884 144.984 229.809 131.453C229.873 130.846 228.943 130.591 228.846 131.198Z" fill="#161616"/>
<path d="M276.13 107.167C281.779 108.284 287.075 110.869 292.339 113.071C297.506 115.241 303.251 116.996 307.809 120.315C308.322 120.666 308.804 119.836 308.29 119.485C303.829 116.23 298.212 114.507 293.173 112.4C287.717 110.135 282.228 107.422 276.387 106.241C275.777 106.113 275.52 107.039 276.13 107.167Z" fill="#161616"/>
<path d="M301.286 161.292C300.773 174.728 300.259 188.163 300.741 201.567C300.965 208.078 301.992 214.843 300.773 221.322C299.746 226.651 296.729 231.981 291.369 233.96C290.791 234.183 291.048 235.108 291.625 234.885C300.163 231.726 302.378 222.056 302.249 213.95C302.185 208.461 301.704 202.971 301.575 197.45C301.447 191.834 301.511 186.249 301.607 180.632C301.736 174.185 301.992 167.739 302.217 161.292C302.281 160.654 301.318 160.654 301.286 161.292Z" fill="#161616"/>
<path opacity="0.38" d="M296.666 153.729C294.965 159.537 292.301 165.888 288.193 172.207C269.802 200.323 236.133 205.94 227.531 207.121C239.086 208.333 250.769 209.642 262.58 211.046C275.611 212.578 288.482 214.205 301.16 215.865C300.358 201.599 300.358 189.855 300.55 181.462C300.903 164.101 302.155 150.059 299.876 149.612C299.33 149.484 298.368 150.091 296.666 153.729Z" fill="#3D3D3D"/>
<path opacity="0.42" d="M300.616 164.165C299.461 167.547 297.695 172.334 295.096 177.856C291.437 185.674 287.938 193.206 283.413 197.833C270.767 210.759 246.053 205.174 245.988 206.067C245.956 206.578 255.007 208.014 300.712 212.195C300.712 196.174 300.68 180.185 300.616 164.165Z" fill="#3D3D3D"/>
<path d="M118.369 105.412C117.567 103.752 115.288 103.625 114.068 104.869C112.752 106.21 112.142 108.795 112.271 110.614C112.56 114.284 116.154 116.007 117.117 119.294C117.567 120.794 119.877 121.273 120.648 119.741C121.932 117.22 123.729 115.05 125.334 112.752C126.746 110.709 128.897 107.55 128.126 104.933C127.805 103.816 126.81 102.859 125.591 102.731C124.114 102.571 123.087 103.465 122.22 104.55C121.354 105.667 120.584 106.816 119.942 108.061C119.364 109.146 118.915 110.422 117.791 111.028C118.722 111.411 119.685 111.794 120.616 112.177C120.198 110.805 119.781 109.433 119.396 108.092C118.337 108.699 117.246 109.337 116.186 109.943C117.631 111.571 120.102 111.794 121.835 110.422C122.638 109.784 123.087 108.922 123.633 108.092C123.889 107.709 124.114 107.358 124.499 107.103C124.756 106.912 125.077 106.784 125.398 106.688C126.04 106.656 126.008 106.592 125.334 106.497C125.013 105.954 124.692 105.38 124.371 104.837C124.371 104.901 124.371 104.997 124.371 105.061C124.852 104.454 125.302 103.816 125.783 103.21C125.719 103.242 125.655 103.242 125.591 103.273C123.248 104.007 124.243 107.709 126.618 106.975C126.682 106.944 126.746 106.944 126.81 106.912C127.677 106.656 128.158 105.922 128.222 105.061C128.222 104.997 128.222 104.901 128.222 104.837C128.255 104.167 127.805 103.529 127.26 103.178C125.655 102.156 123.28 103.146 121.964 104.199C121.226 104.805 120.712 105.507 120.198 106.305C119.877 106.816 119.524 107.901 118.915 107.199C117.631 105.763 115.159 107.295 115.705 109.05C116.122 110.422 116.539 111.794 116.925 113.135C117.278 114.347 118.658 114.89 119.749 114.284C121.386 113.422 122.285 111.922 123.087 110.326C123.569 109.401 124.05 108.507 124.66 107.678C124.756 107.518 125.623 106.624 125.591 106.465C124.756 105.763 124.339 105.795 124.275 106.561C124.21 106.816 124.114 107.039 124.018 107.263C122.413 111.124 119.203 114.06 117.31 117.762C118.497 117.922 119.653 118.081 120.84 118.209C120.231 116.135 118.85 114.635 117.534 112.975C116.989 112.273 116.379 111.507 116.186 110.646C116.058 110.039 116.122 109.497 116.283 108.922C116.379 108.539 116.507 108.188 116.668 107.837C117.213 107.071 116.668 106.88 115.063 107.295C116.122 109.56 119.428 107.614 118.369 105.412Z" fill="#EC615B"/>
<path d="M120.458 115.879C123.282 112.496 125.754 108.89 127.808 105.028C128.963 102.858 125.625 100.911 124.47 103.082C122.576 106.688 120.362 110.071 117.73 113.166C116.157 115.049 118.853 117.762 120.458 115.879Z" fill="#EC615B"/>
<path d="M128.074 61.7215C127.56 65.0725 127.689 68.3596 128.587 71.6467C129.069 73.4338 131.861 72.6679 131.38 70.8807C130.641 68.1362 130.417 65.2959 130.866 62.4875C131.123 60.6684 128.331 59.9025 128.074 61.7215Z" fill="#5222D0"/>
<path d="M129.156 63.1898C132.687 64.6897 135.512 61.7537 135.64 58.307C135.64 57.9879 135.447 57.1262 135.576 56.839C135.512 56.839 135.447 56.839 135.415 56.839C135.704 56.9347 135.929 57.0943 136.057 57.3815C136.571 58.0198 136.827 58.8495 137.373 59.4878C138.496 60.7963 140.037 60.9878 141.674 61.0835C142.476 61.1154 143.439 61.0197 143.921 61.7856C144.402 62.5196 144.145 63.7642 144.081 64.594C144.017 65.7429 143.921 66.9237 143.824 68.0726C143.792 68.3598 143.503 69.4449 143.921 69.03C143.664 69.3172 142.605 69.381 142.252 69.4768C140.133 69.9555 137.951 70.147 135.8 70.0193C134.677 69.9555 132.976 70.0831 132.334 69.0938C131.756 68.1683 131.724 66.7641 131.885 65.711C131.018 65.8386 130.119 65.9344 129.253 66.062C130.023 67.7534 130.761 69.4449 131.532 71.1682C132.045 72.2852 133.907 71.9661 134.163 70.8172C134.934 67.3705 133.875 63.7642 134.966 60.3814C134.163 60.6048 133.361 60.7963 132.559 61.0197C133.489 62.1366 133.265 64.5302 133.489 65.9025C133.746 67.4981 134.196 68.9662 134.934 70.3704C135.608 71.5831 137.726 71.0725 137.63 69.6364C137.373 65.8067 137.116 61.9452 136.892 58.1155C135.961 58.2432 134.998 58.3708 134.067 58.4985C135.415 62.1047 135.608 65.8705 134.549 69.5725C135.255 69.2853 135.961 68.9981 136.667 68.7109C134.87 67.3386 133.522 65.5514 132.591 63.5089C131.981 62.2005 129.83 62.8707 129.895 64.2429C129.959 65.5195 129.991 66.796 130.055 68.0726C131.018 68.0726 131.981 68.0726 132.944 68.0726C132.88 66.4769 132.944 64.9131 133.265 63.3494C133.393 62.8068 133.522 62.2324 133.682 61.6899C133.778 61.3388 133.907 60.9558 134.035 60.6048C134.452 60.0942 134.388 59.9027 133.842 60.0303C135.383 62.2005 135.576 65.4557 135.319 67.9768C136.218 67.7215 137.116 67.4981 138.015 67.2428C137.277 65.7429 136.795 64.1472 136.603 62.4877C136.506 61.626 136.474 60.7644 136.539 59.9027C136.539 59.775 136.699 58.8815 136.635 58.8176C136.41 58.8495 136.186 58.8495 135.961 58.8814C136.089 59.1368 136.218 59.3602 136.346 59.6155C137.822 62.6154 138.272 65.9982 137.919 69.3172C138.817 69.0619 139.716 68.8385 140.615 68.5832C140.037 67.3386 139.588 66.0301 139.331 64.6897C139.235 64.1153 139.17 63.5408 139.235 62.9664C139.267 62.6473 139.331 62.3281 139.427 62.009C139.78 61.626 139.812 61.4665 139.524 61.5622C139.138 61.4984 138.785 61.4665 138.4 61.4026C138.914 61.6579 139.235 64.1791 139.331 64.7536C139.524 66.1259 139.491 67.562 139.299 68.9343C140.23 68.9343 141.16 68.9343 142.091 68.9343C141.738 67.913 141.481 66.8599 141.321 65.8067C141.16 64.7855 141.257 63.7323 140.936 62.743C141.642 64.945 141.513 67.2747 140.872 69.4449C141.738 69.3172 142.637 69.2215 143.503 69.0938C143.118 68.2641 142.797 67.3705 142.637 66.445C142.541 65.9982 142.508 65.5514 142.476 65.1046C142.476 64.9131 142.444 64.7217 142.476 64.5302C142.573 64.0834 142.348 64.0515 141.834 64.4025C141.546 64.1791 141.257 63.9557 140.968 63.7323C142.797 66.8599 139.138 70.3385 136.025 69.8917C136.378 70.3385 136.731 70.8172 137.084 71.264C137.052 70.6895 136.86 69.8598 137.052 69.3172C136.827 69.6044 136.603 69.8917 136.378 70.1789C135.832 70.5299 138.753 70.1151 137.534 69.9874C135.865 69.8278 135.608 72.3809 137.148 72.7958C138.689 73.2107 140.101 74.0404 141.738 73.849C143.15 73.6894 144.21 72.8596 144.787 71.615C145.397 70.3065 145.526 68.7747 145.333 67.3386C145.237 66.5407 145.044 65.8067 144.723 65.1046C144.595 64.7855 144.434 64.4663 144.274 64.1472C144.177 63.9557 144.049 63.7642 143.921 63.5728C143.792 63.2855 143.728 63.3494 143.792 63.7642C144.691 64.0196 145.59 64.2429 146.488 64.4983C146.521 63.8919 146.585 63.3174 146.617 62.7111C145.686 62.8387 144.723 62.9664 143.792 63.0941C144.338 64.6897 144.242 66.1578 143.6 67.7215C142.894 69.4449 145.686 70.1789 146.392 68.4875C147.195 66.4769 147.259 64.3706 146.585 62.3281C146.071 60.7644 143.857 61.0835 143.76 62.7111C143.728 63.3174 143.664 63.8919 143.632 64.4983C143.536 65.9025 145.718 66.5088 146.328 65.2323C147.034 63.7004 146.841 61.7218 145.205 60.8601C143.792 60.1261 141.899 60.7644 141.225 62.2005C140.294 64.1791 142.38 65.9344 142.573 67.8492C142.669 68.7428 142.669 70.5299 141.674 70.9767C140.711 71.3916 138.882 70.2746 137.983 70.0193C137.855 70.9448 137.726 71.9022 137.598 72.8277C140.519 73.083 140.583 69.2534 138.561 68.0088C137.566 67.4024 136.218 66.9237 135.158 67.562C133.843 68.3598 134.228 69.9555 134.26 71.232C134.292 71.8065 134.677 72.5405 135.319 72.6043C140.454 73.3383 145.14 69.2534 144.145 63.9238C143.953 62.8707 143.536 61.6899 142.348 61.4665C141.353 61.275 140.358 61.8494 139.941 62.743C138.882 65.0089 140.133 68.3598 141.096 70.4342C141.642 71.615 143.407 71.2001 143.728 70.0831C144.37 67.9449 144.563 65.7429 144.177 63.5408C143.889 61.8813 143.375 59.7112 141.289 59.6474C136.635 59.5516 138.561 67.1471 139.363 69.5406C139.78 70.7533 141.899 71.0406 142.155 69.5406C142.541 67.0833 142.508 64.6259 141.867 62.2005C141.481 60.7644 140.711 57.956 138.625 58.69C136.956 59.2963 136.442 61.6899 136.442 63.2536C136.442 65.5514 137.277 67.8173 138.24 69.8278C138.914 71.264 140.807 70.3704 140.936 69.0938C141.225 66.4131 141 63.7004 140.23 61.1154C139.684 59.2963 138.689 55.6263 136.25 55.722C133.875 55.7858 133.746 58.8176 133.746 60.541C133.746 63.3175 134.452 65.9982 135.672 68.5194C136.346 69.9236 138.24 69.0619 138.368 67.7854C138.625 65.5195 138.4 63.2217 137.694 61.0516C137.18 59.4559 136.346 57.1581 134.42 56.9347C132.302 56.7113 131.564 59.1368 131.082 60.7005C130.376 62.9983 130.151 65.4238 130.248 67.8492C130.344 69.7002 133.201 69.7002 133.136 67.8492C133.072 66.5726 133.04 65.2961 132.976 64.0196C132.077 64.2749 131.179 64.4983 130.28 64.7536C131.435 67.2747 133.201 69.3172 135.383 70.9767C136.153 71.5512 137.277 70.9129 137.501 70.1151C138.721 65.9663 138.561 61.5622 137.02 57.5092C136.474 56.105 134.067 56.1688 134.196 57.8921C134.452 61.7218 134.709 65.5833 134.934 69.413C135.832 69.1576 136.731 68.9343 137.63 68.6789C135.961 65.5833 137.084 61.4665 134.805 58.7219C134.067 57.8283 132.687 58.4027 132.398 59.3602C131.275 62.7749 132.366 66.3492 131.596 69.7959C132.462 69.6683 133.361 69.5725 134.228 69.4449C133.457 67.7534 132.719 66.062 131.949 64.3387C131.467 63.2536 129.51 63.5089 129.317 64.6897C128.964 66.9237 129.124 70.0512 131.082 71.5831C131.981 72.2852 133.168 72.349 134.292 72.4767C135.8 72.6362 137.341 72.7001 138.882 72.6043C140.358 72.5086 141.802 72.2852 143.247 71.9661C144.21 71.7427 145.493 71.5831 146.167 70.8172C147.034 69.8917 146.874 68.3917 146.97 67.2109C147.066 65.8067 147.227 64.4344 147.259 63.0302C147.291 60.7324 146.36 58.7219 143.985 58.1474C143.022 57.924 142.027 58.0517 141.032 57.8921C139.491 57.6687 139.331 56.3603 138.496 55.2752C137.437 53.871 135.158 52.9774 133.714 54.3497C132.783 55.2433 132.976 56.3922 133.008 57.5411C133.04 58.5623 132.527 61.1473 130.89 60.4452C128.932 59.9984 127.455 62.4877 129.156 63.1898Z" fill="#5222D0"/>
<path d="M44.1031 79.0833C46.3499 81.1258 48.4682 83.3278 50.2977 85.7532C51.5173 87.3489 52.7691 90.5403 54.9516 90.9871C56.2355 91.2424 57.2626 90.5722 58.2255 89.8063C59.5414 88.7531 60.8252 87.6681 62.1412 86.583C63.4571 85.4979 64.741 84.4448 66.0569 83.3597C66.9877 82.5938 68.0469 81.8917 68.1111 80.5832C68.1753 79.3386 67.3729 78.4131 66.6347 77.4876C65.6076 76.1791 64.5484 74.8707 63.5213 73.5622C62.4942 72.2537 61.4351 70.9453 60.408 69.6368C59.6377 68.6794 58.9316 67.4029 57.6477 67.1157C56.4923 66.8603 55.4331 67.5305 54.4702 68.0411C53.1863 68.7113 51.9346 69.4773 50.747 70.2751C48.404 71.8708 46.2215 73.6899 44.2315 75.7323C43.6217 76.3706 43.6859 77.5514 44.5204 77.9982C46.6066 79.0514 48.5966 80.296 50.394 81.8279C51.1964 82.498 51.9667 83.2321 52.7049 83.998C53.058 84.3809 53.411 84.7639 53.7641 85.1788C53.9887 85.4341 54.2134 85.7213 54.4381 85.9766C54.727 86.7426 55.1442 86.7106 55.6578 85.8171C55.7861 86.6787 55.8824 87.5723 56.0108 88.434C59.3488 86.4234 62.398 83.9342 65.0298 81.0619C66.1211 79.8492 64.741 77.9982 63.2645 78.7961C61.0178 80.0088 58.7069 80.9981 56.2997 81.764C56.8453 82.4661 57.3909 83.1682 57.9366 83.8703C59.2846 81.7321 60.9536 79.8811 62.9115 78.2535C62.1412 77.6791 61.403 77.1046 60.6327 76.4983C58.8674 79.1152 56.6527 81.413 54.1171 83.2959C54.8232 83.8384 55.5294 84.3809 56.2355 84.9235C57.07 81.9236 58.7711 79.2748 61.3067 77.3919C60.6327 76.7217 59.9907 76.0834 59.3167 75.4132C57.8724 78.2535 55.8503 80.679 53.2505 82.53C53.732 82.53 54.2134 82.53 54.6949 82.53C54.7912 82.6257 54.8553 82.7533 54.9516 82.8491C55.0158 82.5938 55.08 82.3385 55.1442 82.1151C55.2405 81.7959 55.3368 81.4768 55.4652 81.1258C55.754 80.2641 56.1392 79.4662 56.5564 78.6684C57.3588 77.1685 58.3538 75.86 59.5414 74.6473C58.7711 74.0728 58.0329 73.4984 57.2626 72.892C55.5615 76.3706 53.2184 79.4024 50.2656 81.9555C51.1001 82.3066 51.9025 82.6257 52.737 82.9767C53.0901 79.2109 54.727 75.7643 57.3909 73.0516C56.6206 72.4772 55.8824 71.9027 55.1121 71.2963C53.7962 73.8494 51.8704 75.86 49.3669 77.2961C50.1051 77.711 50.8112 78.1259 51.5494 78.5407C51.5173 77.3919 51.6778 76.2749 52.2235 75.2536C52.4481 74.8068 52.737 74.392 53.058 74.0409C53.5715 73.4346 54.5344 73.275 53.6357 72.7005C53.2184 72.1899 52.9938 72.2218 52.9617 72.8601C52.8012 73.1793 52.6728 73.4984 52.5123 73.8175C52.2556 74.2962 51.9988 74.743 51.742 75.1898C51.4531 75.6366 51.1643 76.0834 50.8433 76.4983C50.5866 76.8174 50.3619 77.1365 50.073 77.4557C49.6237 77.711 49.5916 77.9025 49.9767 77.9982C50.2014 78.2854 50.4261 78.5727 50.6507 78.8599C50.3298 77.8386 51.389 75.9238 51.8704 75.0622C52.1593 74.5835 53.8283 71.8389 54.5665 71.9984C54.9195 72.0623 55.401 73.8494 55.5294 74.1686C55.7861 74.8707 56.0108 75.6047 56.1713 76.3387C56.3318 77.0727 56.5243 77.8386 56.5243 78.5727C56.5243 79.4343 56.5244 79.4662 55.8182 78.8599C53.7962 77.1365 53.5715 72.7644 56.5564 71.7751C58.065 71.2644 58.5143 73.1793 58.8674 74.2643C59.3809 75.8281 59.8624 77.4238 60.3759 79.0194C61.1783 78.5407 61.9807 78.094 62.7831 77.6152C60.9857 75.86 60.0228 73.626 59.9586 71.1049C59.3488 71.5517 58.739 72.0304 58.1292 72.4771C61.4993 73.7537 62.0449 77.9663 62.4942 81.03C62.751 82.8491 65.5434 82.0832 65.2866 80.2641C64.6447 75.9238 63.4571 71.3921 58.8995 69.7007C58.0329 69.3815 57.0379 70.2113 57.07 71.0729C57.1342 74.3281 58.418 77.2961 60.729 79.5939C61.7239 80.5832 63.5855 79.5939 63.1362 78.1897C62.5584 76.3706 62.0449 74.5515 61.403 72.7644C60.9536 71.4878 60.3759 70.1475 59.1883 69.3815C56.6206 67.6901 53.6036 69.6049 52.2877 71.9346C50.7791 74.6473 51.1643 78.0301 53.2184 80.3279C54.9195 82.2108 58.2254 83.2321 59.1562 80.0726C59.9907 77.2642 58.5464 73.1154 57.1342 70.69C55.2084 67.4348 52.0309 69.8921 50.394 71.9984C49.5274 73.1154 48.8534 74.3281 48.3719 75.6366C47.9226 76.8493 47.1844 78.828 48.083 80.0088C50.2014 82.7534 53.2505 78.094 54.1813 76.5621C54.9837 75.2856 56.1392 73.5303 55.9466 71.9346C55.754 70.4347 54.3418 69.7326 52.9938 70.307C50.0409 71.5836 48.5324 75.509 48.6608 78.4769C48.6929 79.562 49.8483 80.2641 50.8433 79.7216C53.732 78.062 56.075 75.6366 57.6156 72.7005C58.3538 71.2963 56.5244 69.7645 55.3368 70.9453C52.1272 74.2005 50.2656 78.3493 49.8483 82.881C49.72 84.2214 51.4531 84.6363 52.3197 83.9022C55.4331 81.2215 57.9687 77.9344 59.7661 74.2643C60.4401 72.8601 58.7069 71.2963 57.4872 72.5091C55.6257 74.4239 54.1492 76.6259 53.1221 79.0833C52.4481 80.7109 51.0359 83.8065 53.2184 84.9235C53.6678 85.1469 54.2455 85.2107 54.6628 84.9235C57.6798 82.7853 60.1191 80.0726 61.7881 76.7855C62.3659 75.6366 61.082 73.8814 59.7982 74.8069C56.6527 77.1685 54.4381 80.296 53.411 84.0618C53.0901 85.1788 54.4702 86.4553 55.5294 85.6894C58.5143 83.5193 61.0178 80.9343 63.1041 77.8706C64.067 76.4344 62.0128 75.1579 60.8252 76.1153C58.6748 77.8706 56.8774 79.945 55.401 82.3066C54.727 83.3597 55.8503 84.7958 57.0379 84.4129C59.7019 83.5831 62.2696 82.498 64.7089 81.1577C64.1311 80.3917 63.5534 79.6577 62.9436 78.8918C60.4722 81.6045 57.6477 83.9342 54.5023 85.8171C53.3468 86.5192 53.732 87.9872 54.8553 88.434C56.2034 88.9765 57.6477 87.8914 57.7119 86.5192C57.8082 84.8597 56.075 83.2959 55.0479 82.2108C52.4481 79.4024 49.3348 77.1046 45.9326 75.4132C46.0289 76.1791 46.1252 76.9132 46.2215 77.6791C47.73 76.1472 49.3348 74.743 51.0359 73.4665C52.5765 72.3176 54.5023 70.7857 56.3318 70.1794C56.8774 69.9879 56.8453 69.8921 57.2947 70.3389C57.744 70.7857 58.0971 71.3283 58.4501 71.807C59.1562 72.7005 59.8945 73.626 60.6006 74.5196C61.3709 75.5089 62.1733 76.4983 62.9436 77.4876C63.3608 78.0301 65.0619 79.6577 64.9336 80.2641C64.8052 80.9662 63.0399 81.9874 62.4621 82.4661C61.5635 83.2001 60.6648 83.9342 59.7661 84.6682C58.8674 85.4022 57.9687 86.1362 57.07 86.8702C56.6848 87.1894 55.8503 88.1148 55.1763 87.7638C54.9195 87.6361 54.4702 86.6787 54.3097 86.4553C51.9667 82.9448 49.1743 79.7854 46.061 76.9451C44.7771 75.8281 42.723 77.8386 44.1031 79.0833Z" fill="#5222D0"/>
<path d="M45.6445 76.5295C46.8 78.7635 54.0537 91.2098 57.135 86.9653C58.2262 85.4653 55.7227 84.0292 54.6315 85.5292C54.5673 85.593 54.5352 85.6887 54.471 85.7526C54.8882 85.5292 55.3055 85.2738 55.7227 85.0504C55.1771 85.1143 53.8611 83.2952 53.5081 82.8803C52.802 82.0825 52.0959 81.2846 51.4539 80.423C50.2022 78.7315 49.1109 76.9444 48.148 75.0934C47.3135 73.4339 44.81 74.9019 45.6445 76.5295Z" fill="#5222D0"/>
<path d="M103.071 37.1164C99.6365 34.6271 98.3206 29.5209 100.471 25.787C101.53 23.936 103.456 22.4361 105.703 22.6914C108.014 22.9467 109.137 24.6062 109.297 26.7764C109.394 27.9891 109.265 29.2337 109.233 30.4464C109.169 31.5953 109.297 32.9357 108.977 34.0527C108.656 35.1696 107.5 35.776 107.051 36.893C106.666 37.8504 107.083 38.6802 105.959 38.9993C105.638 39.095 105.189 39.0631 104.9 39.1589C104.387 39.095 104.387 39.1908 104.9 39.4142C104.772 38.9993 104.676 38.6163 104.547 38.2014C104.13 36.7972 103.713 35.3611 103.295 33.9569C102.589 31.5953 101.113 28.1167 102.975 25.9147C102.204 26.0104 101.434 26.1062 100.631 26.2019C101.755 27.0317 101.338 30.4145 101.402 31.5634C101.498 33.9569 101.594 36.3505 101.691 38.744C101.787 41.2652 105.285 41.1694 105.542 38.744C105.799 36.2228 105.446 33.7335 105.35 31.1804C105.285 30.0954 105.285 28.9784 105.446 27.8933C105.51 27.3508 105.638 26.8402 105.799 26.3296C105.895 25.9785 106.056 25.6275 106.216 25.3083C106.569 24.7658 106.569 24.702 106.248 25.1168C105.767 25.1807 105.253 25.2445 104.772 25.3083C104.676 25.2764 105.125 26.4572 105.189 26.7125C105.318 27.1912 105.382 27.7019 105.446 28.1806C105.574 29.5209 105.574 30.8932 105.51 32.2336C105.478 32.8399 105.414 33.4463 105.318 34.0846C105.253 34.4676 105.189 34.8505 105.125 35.2335C104.804 35.9994 105.35 36.1909 106.762 35.7122C106.89 35.4569 106.537 34.4356 106.505 34.1484C106.441 33.4782 106.409 32.7761 106.441 32.1059C106.473 30.7975 106.633 29.5528 106.954 28.2763C107.051 27.8933 107.147 27.5423 107.275 27.1593C107.757 26.3296 107.243 26.0423 105.735 26.3296C105.606 26.553 106.12 27.7657 106.184 27.9891C106.473 29.3294 106.537 30.7017 106.409 32.074C106.345 32.7123 106.28 34.7867 105.542 34.9462C103.135 35.5207 104.162 39.2227 106.569 38.6482C109.105 38.0419 109.811 35.4888 110.132 33.2229C110.485 30.5422 110.357 27.5104 109.33 24.9892C108.335 22.5638 105.414 22.5318 104.13 24.7658C102.846 26.9997 102.557 30.1592 102.589 32.6804C102.621 34.7229 102.654 38.2334 105.125 38.9674C107.853 39.7652 108.816 36.8292 109.105 34.7867C109.49 32.1059 109.586 29.3614 109.137 26.6806C108.816 24.702 107.532 20.9042 104.804 21.6383C102.172 22.3084 101.659 26.8721 101.53 29.0422C101.37 32.2974 102.076 35.5207 101.755 38.7759C103.039 38.7759 104.323 38.7759 105.606 38.7759C105.478 35.5526 105.35 32.3293 105.189 29.1061C105.093 26.6487 104.708 24.4786 102.621 22.9467C102.012 22.468 100.792 22.6595 100.278 23.2339C98.1601 25.7232 97.9996 28.7869 98.7378 31.8506C99.123 33.5101 99.6686 35.1697 100.15 36.7972C100.599 38.3291 100.856 40.1801 101.691 41.5205C103.007 43.6906 106.666 43.18 108.559 42.063C109.554 41.4886 110.228 40.5311 110.485 39.4142C110.646 38.7121 110.581 38.4248 111.031 37.8504C111.544 37.2121 112.058 36.7015 112.379 35.9356C112.924 34.7229 112.956 33.3825 113.021 32.1059C113.085 30.5103 113.245 28.8827 113.213 27.2551C113.149 24.4147 112.218 21.734 109.747 20.1064C104.997 16.9789 99.0267 19.883 96.7799 24.6062C94.1481 30.1911 96.2664 36.7972 101.177 40.3716C103.135 41.8715 105.061 38.5525 103.071 37.1164Z" fill="#EC615B"/>
<path d="M102.878 45.5732C103.52 46.5944 104.676 46.9774 105.831 46.6263C106.345 46.4667 106.794 46.1795 107.179 45.8285C107.276 45.7327 107.404 45.637 107.5 45.5093C107.596 45.4136 107.564 45.4136 107.436 45.5412C108.046 45.2221 107.564 45.1264 106.024 45.1902C106.794 45.8285 108.014 45.988 108.752 45.1902C109.426 44.4881 109.554 43.1796 108.752 42.4775C107.821 41.6797 106.634 41.552 105.542 42.1903C105.189 42.3818 104.836 42.669 104.579 42.9882C104.355 43.2754 104.868 42.7967 104.515 43.052C104.579 43.0201 104.644 42.9882 104.708 42.9882C104.034 43.1477 104.515 43.3711 106.152 43.6583C105.607 42.7967 104.419 42.3818 103.52 42.9562C102.718 43.4988 102.301 44.6796 102.878 45.5732Z" fill="#EC615B"/>
<path d="M103.777 48.0945C103.777 48.1902 103.777 48.286 103.777 48.3817C103.777 48.8604 104.002 49.403 104.355 49.7221C104.676 50.0412 105.222 50.2965 105.703 50.2965C106.217 50.2646 106.73 50.1051 107.051 49.7221C107.404 49.3391 107.629 48.8923 107.629 48.3817C107.629 48.286 107.629 48.1902 107.629 48.0945C107.629 47.6158 107.404 47.0733 107.051 46.7541C106.73 46.435 106.185 46.1797 105.703 46.1797C105.19 46.2116 104.676 46.3712 104.355 46.7541C104.002 47.1052 103.777 47.552 103.777 48.0945Z" fill="#EC615B"/>
<path d="M84.7083 12.7981C93.1496 2.80908 101.238 -7.46712 109.005 -18.0305C108.267 -17.7433 107.561 -17.4561 106.823 -17.137C107.561 -16.9136 108.106 -16.5306 108.652 -15.9881C108.556 -16.754 108.459 -17.5199 108.363 -18.3178C100.949 -7.78626 93.5669 2.71333 86.1526 13.2448C87.0192 13.0215 87.9179 12.7981 88.7845 12.5428C88.1426 12.1598 87.5007 11.7768 86.8587 11.3619C87.0834 12.2236 87.3081 13.1172 87.5649 13.9789C90.935 9.60669 94.0162 5.07495 96.8086 0.319813C98.0603 -1.8184 94.7223 -3.73323 93.4706 -1.62692C90.6782 3.0963 87.597 7.65996 84.2269 12.0321C83.5849 12.8619 84.1306 14.1703 84.933 14.6491C85.5749 15.032 86.2168 15.415 86.8587 15.8299C87.7895 16.4043 88.9129 15.9894 89.4906 15.1278C96.9049 4.59625 104.287 -5.90335 111.701 -16.4349C112.183 -17.137 111.958 -18.1901 111.412 -18.7646C110.417 -19.7858 109.23 -20.4879 107.882 -20.9028C107.015 -21.19 106.213 -20.7113 105.699 -20.0092C98.1566 -9.73299 90.2609 0.287903 82.0122 10.0216C80.4074 11.9683 83.1356 14.7129 84.7083 12.7981Z" fill="#EC615B"/>
<path d="M63.1015 121.305C63.1015 121.209 63.1015 121.113 63.1015 121.017C63.1015 118.56 59.25 118.56 59.25 121.017C59.25 121.113 59.25 121.209 59.25 121.305C59.25 123.794 63.1015 123.794 63.1015 121.305C63.1015 121.209 63.1015 121.113 63.1015 121.017C63.1015 118.56 59.25 118.56 59.25 121.017C59.25 121.113 59.25 121.209 59.25 121.305C59.25 123.794 63.1015 123.794 63.1015 121.305Z" fill="#EC615B"/>
<path d="M32.3653 94.5931C34.8367 94.5931 34.8367 90.7634 32.3653 90.7634C29.8939 90.7634 29.8939 94.5931 32.3653 94.5931Z" fill="#EC615B"/>
<path d="M41.0563 96.2839C42.9179 96.2839 42.9179 93.4116 41.0563 93.4116C39.1948 93.4116 39.1948 96.2839 41.0563 96.2839Z" fill="#5222D0"/>
<path d="M159.009 23.3293C160.871 23.3293 160.871 20.457 159.009 20.457C157.148 20.457 157.148 23.3293 159.009 23.3293Z" fill="#5222D0"/>
<path d="M177.105 66.7316C177.105 66.9231 177.105 67.0826 177.105 67.2741C177.105 67.6571 177.266 68.04 177.523 68.2954C177.78 68.5507 178.197 68.7422 178.55 68.7102C178.935 68.6783 179.32 68.5826 179.577 68.2954C179.834 68.0081 179.994 67.6571 179.994 67.2741C179.994 67.0826 179.994 66.9231 179.994 66.7316C179.994 66.3486 179.834 65.9657 179.577 65.7104C179.32 65.455 178.903 65.2636 178.55 65.2955C178.165 65.3274 177.78 65.4231 177.523 65.7104C177.266 65.9976 177.105 66.3486 177.105 66.7316Z" fill="#5222D0"/>
<path d="M165.47 43.9463C170.927 44.808 178.566 47.3291 176.544 54.414C175.613 57.6692 173.045 59.9989 170.509 62.0732C168.006 64.0838 165.535 66.0625 163.256 68.3283C161.073 70.4985 159.083 72.8601 157.254 75.3493C155.809 77.328 153.819 79.7853 154.044 82.4342C154.237 84.7958 156.323 85.3702 158.217 86.1042C160.945 87.1574 163.833 89.0084 164.893 91.8487C166.305 95.6783 163.352 99.0612 160.56 101.327C158.056 103.37 155.328 105.125 153.627 107.933C153.306 108.476 154.14 108.954 154.461 108.412C157.511 103.306 165.278 101.263 166.144 94.8167C166.497 92.2955 165.342 89.9339 163.513 88.2425C162.614 87.3808 161.555 86.6787 160.463 86.0723C159.147 85.3702 157.607 85.083 156.323 84.349C152.728 82.2746 157.222 76.9769 158.762 74.9664C160.977 72.0622 163.448 69.3815 166.176 66.956C170.542 62.9987 177.378 59.4882 177.86 52.8821C178.341 46.1802 171.119 43.9144 165.791 43.0846C165.117 42.925 164.861 43.8505 165.47 43.9463Z" fill="white"/>
<path d="M70.6563 42.9247C64.9432 49.9138 58.4918 56.2646 51.3665 61.8176C44.3695 67.2748 36.7627 71.6151 29.0275 75.9234C21.9021 79.9126 14.7126 83.9976 8.61431 89.5186C5.88613 91.976 2.86909 94.8482 1.32847 98.263C0.140908 100.912 0.0446192 104.358 3.09376 105.731C4.76276 106.465 6.72063 106.209 8.45383 105.922C11.2783 105.444 14.0707 104.837 16.863 104.295C19.7196 103.752 22.5762 103.178 25.4327 102.635C28.1609 102.125 33.2642 101.646 33.3926 105.699C33.4247 106.305 34.3876 106.305 34.3555 105.699C34.2271 101.933 30.183 100.976 27.0696 101.359C22.3194 101.965 17.6333 103.146 12.9152 104.039C9.60929 104.678 0.782833 107.326 1.42476 101.039C1.84201 96.9864 5.69355 93.4759 8.48592 90.8271C14.3916 85.2741 21.4849 81.1573 28.5461 77.2C35.9603 73.0512 43.3424 68.9662 50.1468 63.86C57.9783 57.956 65.0715 51.1265 71.2661 43.5629C71.7154 43.1161 71.0414 42.446 70.6563 42.9247Z" fill="white"/>
<path d="M19.5958 108.475C16.7713 111.858 13.4654 115.848 13.979 120.539C14.3641 124.145 16.9639 127.528 20.8796 127.273C23.3831 127.113 25.5978 125.741 27.7803 124.688C30.5085 123.379 33.3009 122.198 36.1895 121.337C39.0461 120.507 42.031 119.964 45.016 119.901C47.3911 119.869 50.0872 120.028 52.0772 121.496C55.0942 123.666 53.2326 126.922 51.6278 129.347C50.0551 131.677 48.675 134.07 47.4553 136.591C46.364 138.889 45.4011 141.283 44.6308 143.708C44.0531 145.527 43.3791 147.665 44.7913 149.261C47.8084 152.74 52.3981 149.772 54.9337 147.41C58.8174 143.804 63.022 140.804 67.8685 138.57C73.2928 136.081 79.1984 134.613 85.1363 134.294C88.1533 134.134 91.2024 134.23 94.1874 134.708C96.8514 135.123 99.8363 135.953 101.088 138.602C101.345 139.144 102.179 138.666 101.923 138.123C100.189 134.389 95.4391 133.815 91.7802 133.464C86.9978 133.017 82.1192 133.368 77.4332 134.389C72.7471 135.411 68.1574 137.134 63.9848 139.496C61.9307 140.644 60.0049 141.953 58.1433 143.389C56.0571 145.017 54.2918 147.027 52.1734 148.527C50.2798 149.867 46.2356 150.857 45.1123 147.921C44.5666 146.485 45.2728 144.825 45.7221 143.421C46.2036 141.953 46.7492 140.517 47.359 139.113C48.4182 136.623 49.6699 134.23 51.0822 131.932C52.3339 129.921 54.1955 127.879 54.6449 125.485C55.3831 121.592 51.5315 119.581 48.2256 119.103C43.3149 118.433 38.1153 119.549 33.4935 121.209C30.669 122.23 28.005 123.539 25.3089 124.847C22.5165 126.219 19.0502 127.273 16.675 124.56C12.2458 119.518 16.8997 113.167 20.2698 109.114C20.6871 108.667 20.013 107.997 19.5958 108.475Z" fill="white"/>
<path d="M38.0447 124.624C41.0618 123.666 43.7258 126.602 43.79 129.443C43.8541 132.443 41.8642 135.028 39.8742 137.07C39.4249 137.517 40.131 138.187 40.5482 137.74C42.9875 135.251 45.5231 131.709 44.5603 128.007C43.79 125.102 40.8371 122.741 37.788 123.698C37.2102 123.89 37.4349 124.815 38.0447 124.624Z" fill="white"/>
<path d="M150.166 42.2865C151.642 43.4992 153.375 43.7545 155.205 44.1375C157.195 44.5524 158.928 45.3183 160.308 46.8501C162.908 49.7543 163.71 54.1265 161.784 57.5731C161.496 58.1157 162.298 58.5944 162.619 58.0518C164.481 54.7328 164.095 50.6479 162.041 47.5203C161.078 46.0523 159.73 44.7758 158.093 44.0098C155.782 42.9248 152.894 43.2758 150.84 41.6163C150.358 41.2333 149.684 41.9035 150.166 42.2865Z" fill="white"/>
<path d="M32.4566 110.262C34.2861 115.145 40.0955 113.901 43.6582 111.986C45.937 110.773 48.0553 109.209 49.9169 107.422C51.9069 105.475 53.5117 103.178 55.4696 101.199C57.62 99.0289 60.6371 97.0502 63.8788 97.5927C66.7995 98.0714 68.5648 100.656 70.4264 102.635C72.8657 105.188 77.7764 107.805 80.2478 103.752C80.5688 103.21 79.7343 102.731 79.4133 103.273C77.8406 105.826 74.5026 104.933 72.5768 103.401C70.8437 101.997 69.5919 100.082 67.8908 98.6459C64.6812 95.9013 60.6692 96.1566 57.267 98.4544C53.5117 100.976 51.2329 105.156 47.7986 108.06C45.7765 109.752 43.4335 111.316 40.93 112.241C38.266 113.23 34.5428 113.167 33.3874 110.039C33.1627 109.433 32.2319 109.688 32.4566 110.262Z" fill="white"/>
<path d="M40.4817 80.5188C44.59 84.0613 48.0243 88.2739 50.6883 92.9971C50.9772 93.5396 51.8117 93.0609 51.5228 92.5184C48.8267 87.6994 45.3604 83.4549 41.1558 79.8487C40.7064 79.4338 40.0003 80.1359 40.4817 80.5188Z" fill="white"/>
<path d="M41.3176 79.4981C44.784 74.9344 49.6947 70.2751 55.151 68.2007C56.0176 67.8815 57.0126 67.5943 57.9434 67.8177C59.0989 68.073 59.7729 69.0623 60.4469 69.9559C61.4098 71.2005 62.3406 72.4771 63.2714 73.7536C65.1009 76.3067 66.8341 78.9556 68.471 81.6363C68.7919 82.1469 69.6264 81.6682 69.3055 81.1576C67.2513 77.8067 65.0367 74.5196 62.6937 71.3601C60.9284 68.9666 59.3235 66.1582 55.8893 66.956C52.9043 67.6581 50.0477 69.8283 47.7047 71.6473C44.9765 73.7856 42.5693 76.2748 40.451 79.0194C40.13 79.4981 40.9645 79.9768 41.3176 79.4981Z" fill="white"/>
<path d="M51.2699 93.4119C57.8175 90.6674 63.6591 86.6462 68.5056 81.4762C68.9228 81.0294 68.2488 80.3592 67.8316 80.806C63.1134 85.8484 57.4003 89.8376 51.0132 92.4864C50.4354 92.7417 50.6922 93.6672 51.2699 93.4119Z" fill="white"/>
<path d="M45.0425 80.136C48.7014 76.8488 52.7777 74.1362 57.2711 72.0618C57.8168 71.8065 57.3353 70.9767 56.7897 71.232C52.232 73.3383 48.0916 76.1148 44.3685 79.4658C43.887 79.8487 44.5931 80.5508 45.0425 80.136Z" fill="white"/>
<path d="M47.7088 81.7318C49.6988 80.2957 51.6887 78.8915 53.6787 77.4553C54.1922 77.1043 53.7108 76.2745 53.1973 76.6256C51.2073 78.0617 49.2173 79.4659 47.2274 80.902C46.7138 81.285 47.1953 82.1147 47.7088 81.7318Z" fill="white"/>
<path d="M49.0526 83.9339C52.3906 81.6042 55.7286 79.2426 59.0666 76.9129C59.5801 76.5618 59.0987 75.7321 58.5851 76.0831C55.2471 78.4128 51.9091 80.7744 48.5711 83.1041C48.0576 83.4552 48.539 84.2849 49.0526 83.9339Z" fill="white"/>
<path d="M51.8787 86.5508C53.9329 84.8913 56.0833 83.4232 58.3301 82.051C58.8757 81.7318 58.3621 80.9021 57.8486 81.2212C55.5056 82.5935 53.2909 84.1573 51.2047 85.8487C50.7232 86.2636 51.3973 86.9337 51.8787 86.5508Z" fill="white"/>
<path d="M53.3592 89.1676C56.3762 86.7102 59.65 84.6678 63.1485 82.9763C63.6942 82.721 63.2127 81.8913 62.6671 82.1466C59.0723 83.8699 55.7664 86.0081 52.6852 88.4974C52.2037 88.8804 52.8777 89.5506 53.3592 89.1676Z" fill="white"/>
<path d="M119.342 109.21C120.914 107.231 119.053 104.806 116.967 104.231C114.463 103.529 111.607 104.71 110.355 106.944C108.943 109.433 109.52 112.688 111.35 114.795C113.693 117.539 119.791 119.199 118.7 123.731C118.539 124.337 119.47 124.592 119.631 123.986C120.882 118.816 114.624 117.22 112.024 114.125C110.194 111.923 109.873 108.221 112.184 106.21C113.115 105.412 114.431 104.933 115.651 104.997C117.095 105.061 120.208 106.625 118.7 108.572C118.283 109.018 118.957 109.689 119.342 109.21Z" fill="white"/>
<path d="M119.86 109.018C120.116 107.295 120.919 105.763 122.203 104.582C122.813 104.008 123.519 103.561 124.289 103.21C124.674 103.05 125.091 102.891 125.509 102.795C126.407 102.604 126.6 102.604 127.338 103.242C128.076 103.912 128.108 104.104 128.076 105.029C128.076 105.38 128.012 105.731 127.98 106.05C127.884 106.689 127.691 107.295 127.467 107.901C126.985 109.21 126.247 110.423 125.477 111.571C122.716 115.656 118.768 119.39 118.544 124.592C118.512 125.199 119.475 125.199 119.507 124.592C119.796 117.603 127.081 113.582 128.75 107.072C129.071 105.827 129.328 104.231 128.782 103.019C128.108 101.614 126.632 101.551 125.284 101.87C122.01 102.636 119.507 105.476 118.993 108.763C118.833 109.369 119.763 109.657 119.86 109.018Z" fill="white"/>
<path d="M125.311 60.8281C124.733 63.9237 124.605 67.1789 125.311 70.2746C125.985 73.2425 128.135 72.6043 130.607 72.7638C136.223 73.1468 143.67 76.6892 147.361 70.3703C147.682 69.8278 146.847 69.3491 146.526 69.8916C143.381 75.285 136.769 72.6362 131.955 71.966C130.831 71.8064 129.772 71.8064 128.649 71.8383C126.916 71.8383 126.402 71.0086 126.145 69.4767C125.664 66.7002 125.728 63.8918 126.274 61.1153C126.338 60.4771 125.407 60.2218 125.311 60.8281Z" fill="white"/>
<path d="M125.443 62.3605C127.176 61.3074 128.685 61.1159 130.643 60.7967C131.477 60.6691 132.023 60.35 132.151 59.4883C132.504 57.3182 131.574 55.0842 133.307 53.2332C135.233 51.1588 137.832 53.0098 138.635 55.1161C139.02 56.1054 139.245 57.2543 140.015 58.0522C141.01 59.1053 142.326 58.8181 143.578 59.1691C148.424 60.4776 146.98 66.7008 145.953 70.0517C145.76 70.6261 146.691 70.8815 146.883 70.307C147.975 66.8284 149.066 62.4882 146.145 59.584C145.664 59.1053 145.118 58.7224 144.508 58.467C143.578 58.0841 142.55 58.2756 141.588 57.9245C139.726 57.2543 139.758 54.5098 138.635 53.1055C136.613 50.6163 133.146 50.9673 131.766 53.8715C131.381 54.6693 131.253 55.4991 131.188 56.3607C131.124 57.382 131.606 59.4244 130.514 59.8393C129.744 60.1585 128.557 60.0308 127.722 60.2861C126.727 60.5733 125.828 61.0201 124.962 61.5308C124.448 61.8818 124.93 62.7116 125.443 62.3605Z" fill="white"/>
<path d="M129.265 61.371C128.784 65.1368 129.426 68.8707 131.095 72.2855C131.351 72.828 132.186 72.3493 131.929 71.8068C130.324 68.5516 129.747 64.9773 130.228 61.371C130.324 60.7647 129.361 60.7647 129.265 61.371Z" fill="white"/>
<path d="M98.3764 40.1487C94.236 38.2339 91.7646 33.7979 91.9893 29.2662C92.2461 24.6387 95.3915 20.4261 99.4035 18.224C101.907 16.8518 104.571 16.4369 107.107 17.9049C109.418 19.2134 111.054 21.4792 111.985 23.9047C113.654 28.3088 113.044 33.3192 110.413 37.2446C110.059 37.7552 110.894 38.2339 111.247 37.7233C115.612 31.2448 114.617 19.9793 106.625 16.6284C102.613 14.9369 98.3444 17.2028 95.4557 20.0112C92.6312 22.7558 90.8017 26.6812 91.0264 30.6385C91.2832 35.0106 93.8509 39.1275 97.8629 41.0104C98.4406 41.2338 98.9221 40.404 98.3764 40.1487Z" fill="white"/>
<path d="M97.9358 41.2972C97.1013 42.1908 97.326 43.563 98.3531 44.2332C100.022 45.3183 102.911 44.329 104.676 43.9141C106.57 43.4673 109.426 43.0524 110.71 41.3929C111.48 40.3717 111.48 38.9675 110.485 38.1058C110.004 37.7228 109.33 38.393 109.811 38.776C111.288 40.0206 109.362 41.4567 108.207 41.9035C107.244 42.2546 106.249 42.5418 105.254 42.7971C104.323 43.0205 103.392 43.2439 102.461 43.4035C101.884 43.4992 101.242 43.6588 100.664 43.6907C99.8295 43.7226 97.4223 43.2758 98.642 41.9993C99.0592 41.5206 98.3852 40.8504 97.9358 41.2972Z" fill="white"/>
<path d="M99.7977 44.7122C99.926 46.5951 101.531 47.8078 103.392 47.9355C105.96 48.095 107.886 45.9568 109.394 44.2016C109.78 43.7229 109.106 43.0527 108.72 43.5314C107.661 44.776 106.474 46.2121 104.901 46.7547C103.296 47.3291 100.921 46.6908 100.793 44.7122C100.728 44.1058 99.7656 44.1058 99.7977 44.7122Z" fill="white"/>
<path d="M102.395 48.2859C102.138 49.5944 102.941 50.9667 104.321 51.1901C105.733 51.4135 106.953 50.1688 106.985 48.8284C106.985 48.2221 106.022 48.2221 106.022 48.8284C106.022 49.6263 105.252 50.4241 104.385 50.2327C103.647 50.0731 103.166 49.2433 103.326 48.5412C103.454 47.9349 102.524 47.6796 102.395 48.2859Z" fill="white"/>
<path d="M95.8221 28.0851C98.5823 29.8404 100.701 32.2977 102.049 35.2657C102.305 35.8401 103.14 35.3295 102.883 34.787C101.471 31.6595 99.2243 29.1064 96.3035 27.2554C95.7579 26.9362 95.2764 27.766 95.8221 28.0851Z" fill="white"/>
<path d="M100.753 25.7556C101.363 30.3512 102.005 34.9467 102.615 39.5104C102.711 40.1167 103.61 39.8614 103.546 39.2551C102.936 34.6595 102.294 30.0639 101.684 25.5003C101.588 24.8939 100.689 25.1492 100.753 25.7556Z" fill="white"/>
<path d="M102.426 33.5745C103.26 30.5746 105.186 28.1492 107.914 26.6173C108.46 26.3301 107.979 25.5004 107.433 25.7876C104.512 27.4152 102.394 30.0959 101.495 33.3192C101.335 33.9256 102.265 34.1809 102.426 33.5745Z" fill="white"/>
<path d="M67.443 115.624C68.7269 118.4 70.107 121.145 71.6476 123.794C72.4179 125.102 73.445 127.592 75.3387 126.794C75.9164 126.538 75.4029 125.741 74.8572 125.964C73.6376 126.475 71.455 121.528 71.0378 120.73C70.0428 118.911 69.1441 117.028 68.2775 115.145C68.0207 114.571 67.1862 115.05 67.443 115.624Z" fill="white"/>
<path d="M68.2992 116.199C71.0274 114.093 73.6914 111.923 76.4517 109.88C78.8589 108.061 81.4587 106.306 84.4115 105.476C87.589 104.55 90.3493 105.285 92.4677 107.838C94.265 110.008 95.3563 112.688 96.576 115.178C96.8328 115.72 97.6672 115.242 97.4105 114.699C95.0675 109.912 92.3072 103.146 85.7275 104.199C82.4536 104.71 79.5008 106.497 76.8368 108.412C73.6914 110.71 70.6743 113.167 67.5931 115.561C67.1438 115.912 67.8178 116.582 68.2992 116.199Z" fill="white"/>
<path d="M74.0273 126.89C82.4044 125.07 90.1717 121.177 96.6873 115.624C97.1687 115.209 96.4626 114.539 96.0132 114.954C89.6261 120.411 81.9872 124.177 73.7706 125.996C73.1607 126.124 73.4175 127.049 74.0273 126.89Z" fill="white"/>
<path d="M81.8277 117.891C80.1266 117.476 78.7144 115.816 79.1317 113.997C79.5168 112.242 81.6673 110.965 83.3684 111.795C86.8026 113.518 84.4596 118.433 80.929 117.189C80.3513 116.997 80.0945 117.923 80.6723 118.114C82.6622 118.816 85.0695 117.859 85.8398 115.848C86.6101 113.87 85.3583 111.476 83.4005 110.774C81.2821 110.008 78.8749 111.444 78.2651 113.55C77.5589 115.912 79.2921 118.242 81.571 118.816C82.1808 118.976 82.4376 118.05 81.8277 117.891Z" fill="white"/>
<path d="M98.9229 93.6677C98.5378 90.2529 98.5057 86.3594 102.582 85.4339C104.636 84.9552 106.337 84.3489 107.525 82.466C108.744 80.5512 108.584 78.764 108.102 76.6577C107.749 74.9982 107.781 73.5621 109.13 72.3174C110.221 71.3281 111.665 70.9451 113.077 71.3919C113.655 71.5834 113.912 70.6579 113.334 70.4664C111.28 69.8282 109.13 70.626 107.814 72.3174C105.792 74.9663 108.167 77.647 107.364 80.4873C106.883 82.1788 105.567 83.6149 103.866 84.1893C102.486 84.6361 101.009 84.6042 99.8537 85.5616C97.4144 87.5402 97.6391 90.8912 97.96 93.6677C98.0242 94.274 98.9871 94.274 98.9229 93.6677Z" fill="white"/>
<path d="M91.1001 75.7958C90.1052 74.9979 90.9076 73.2107 92.1914 73.8809C92.7049 74.1362 93.0259 74.7426 92.737 75.2851C92.4482 75.8277 91.71 76.1149 91.1643 75.8277C90.6187 75.5404 90.1372 76.3702 90.6829 76.6574C91.6779 77.1361 92.8975 76.7851 93.5074 75.8915C94.1493 74.9341 93.732 73.7214 92.8012 73.1469C91.8704 72.5725 90.6187 72.732 90.0089 73.6895C89.4632 74.583 89.5916 75.8277 90.4261 76.4979C90.9076 76.8489 91.5816 76.1787 91.1001 75.7958Z" fill="white"/>
<path d="M135.009 26.3292C134.431 25.4037 134.078 24.2229 134.431 23.1697C134.72 22.2761 135.619 21.7336 136.549 21.8294C137.577 21.9251 138.122 22.8825 137.577 23.7761C137.095 24.6058 136.1 25.0207 135.169 24.8931C134.559 24.8292 134.559 25.7867 135.169 25.8505C136.549 26.01 138.058 25.1803 138.572 23.8718C139.053 22.691 138.443 21.3826 137.223 20.9996C136.068 20.6166 134.656 21.0634 133.95 22.0528C132.89 23.4889 133.308 25.4356 134.174 26.8717C134.495 27.3185 135.33 26.8398 135.009 26.3292Z" fill="white"/>
<path d="M83.236 65.4557C84.9692 68.5833 88.4997 70.3385 92.0624 69.8279C96.4275 69.1896 98.7705 65.8706 100.504 62.1686C102.526 57.8922 105.318 54.3817 109.78 52.4988C113.824 50.8073 119.055 51.669 122.393 48.5096C123.677 47.2968 124.544 45.6054 124.255 43.8183C124.03 42.446 123.196 41.2971 123.517 39.861C123.902 38.2972 125.122 37.1483 126.662 36.8292C127.272 36.7015 127.015 35.776 126.405 35.9037C124.544 36.3185 123.035 37.7227 122.586 39.6056C122.329 40.6269 122.522 41.5524 122.843 42.5417C123.356 44.1374 123.549 45.4458 122.49 46.9139C120.628 49.4989 117.354 49.8499 114.433 50.2648C111.834 50.6478 109.394 51.3499 107.148 52.6902C105.158 53.8711 103.392 55.4667 102.012 57.3177C100.504 59.3602 99.6692 61.7537 98.4496 63.9558C96.9089 66.6684 94.3733 68.7428 91.1316 68.9343C88.1788 69.0939 85.4185 67.5301 83.9742 64.9451C83.7816 64.4345 82.9471 64.9132 83.236 65.4557Z" fill="white"/>
<path d="M76.5298 13.1177C75.9841 17.1069 75.4385 21.0961 74.9249 25.0853C74.8287 25.6917 75.7594 25.947 75.8557 25.3406C76.4014 21.3514 76.947 17.3622 77.4605 13.373C77.5568 12.7667 76.626 12.5113 76.5298 13.1177Z" fill="white"/>
<path d="M76.369 25.6273C80.1563 22.9146 83.9437 20.2019 87.731 17.4893C88.2446 17.1382 87.7631 16.3085 87.2496 16.6595C83.4622 19.3722 79.6749 22.0848 75.8875 24.7975C75.374 25.1486 75.8554 25.9783 76.369 25.6273Z" fill="white"/>
<path d="M77.1347 13.6601C86.6351 0.990362 95.9751 -11.7751 105.155 -24.6682C105.508 -25.1788 104.673 -25.6576 104.32 -25.1469C95.1406 -12.2538 85.8006 0.543571 76.3001 13.1814C75.9471 13.6601 76.7816 14.1388 77.1347 13.6601Z" fill="white"/>
<path d="M88.918 16.0539C97.6482 4.56497 106.122 -7.11543 114.338 -18.9873C114.691 -19.4979 113.857 -19.9766 113.504 -19.466C105.287 -7.62605 96.8137 4.08627 88.0835 15.5752C87.6984 16.0539 88.5329 16.5326 88.918 16.0539Z" fill="white"/>
<path d="M76.5507 14.1068C78.316 15.16 80.0813 12.8622 81.9108 12.8941C83.2909 12.926 84.5748 13.5643 85.3772 14.7132C85.9549 15.5429 86.2438 16.3408 87.1745 16.8195C87.7202 17.1067 88.2016 16.2769 87.656 15.9897C86.5647 15.4153 86.2438 14.0111 85.313 13.2132C84.671 12.6707 83.9007 12.2877 83.0662 12.0962C82.2317 11.9048 81.3651 11.9048 80.5627 12.0962C79.5356 12.3516 78.0271 13.8515 77.0642 13.277C76.5186 12.9579 76.0372 13.7877 76.5507 14.1068Z" fill="white"/>
<path d="M81.8261 12.384C88.3095 3.89499 94.825 -4.62596 101.308 -13.115C101.694 -13.5937 100.859 -14.0724 100.474 -13.5937C93.9905 -5.10467 87.475 3.41628 80.9916 11.9053C80.6385 12.384 81.473 12.8627 81.8261 12.384Z" fill="white"/>
<path d="M91.9926 6.00044C98.0267 -2.80774 104.414 -11.3287 111.186 -19.5943C111.571 -20.073 110.897 -20.7432 110.512 -20.2645C103.708 -11.935 97.2243 -3.35027 91.1581 5.52173C90.8372 6.03235 91.6717 6.51105 91.9926 6.00044Z" fill="white"/>
<path d="M76.1742 22.5956C76.784 22.085 77.6827 22.5956 77.5223 23.3935C77.3939 23.9998 78.3247 24.2551 78.4531 23.6488C78.6135 22.8828 78.3247 22.085 77.6185 21.6701C76.9124 21.2553 76.0779 21.4148 75.4681 21.9254C75.0188 22.3084 75.6928 22.9786 76.1742 22.5956Z" fill="white"/>
<path d="M76.4648 22.468C76.3043 23.1382 76.0154 23.7445 75.5982 24.287C75.8549 24.4466 76.1438 24.6062 76.4006 24.7658C76.5931 24.0637 76.9783 23.4573 77.5239 22.9467C77.2672 22.9148 77.0104 22.8828 76.7536 22.8509C76.9141 23.202 76.7857 23.5849 76.4648 23.7764C76.6894 23.8722 76.9462 23.9679 77.1709 24.0637C77.0425 23.6169 77.1388 23.202 77.4276 22.8509C77.2351 22.8828 77.0425 22.9148 76.8499 22.9148C77.1067 23.0424 77.0746 23.3935 76.8178 23.5211C77.0104 23.553 77.203 23.585 77.3955 23.585C77.203 23.4254 77.0425 23.2339 76.9462 23.0105C76.9141 22.9148 76.882 22.819 76.8499 22.6914C76.8499 22.6275 76.7857 21.9574 76.6894 22.1488C76.4006 22.6914 77.2351 23.1701 77.5239 22.6275C77.9733 21.7978 76.8178 21.0638 76.1759 21.734C75.5019 22.468 76.1117 23.6807 76.7536 24.2232C76.9141 24.3828 77.1388 24.4147 77.3314 24.287C78.23 23.8403 78.23 22.4999 77.3634 22.0212C77.203 21.9254 76.9141 21.9254 76.7857 22.085C76.2722 22.6914 76.0796 23.4573 76.2722 24.2232C76.3364 24.5105 76.7215 24.67 76.9783 24.5104C77.7807 24.0317 78.0054 23.0743 77.6202 22.2765C77.4918 21.9893 77.0746 21.9893 76.8499 22.1807C76.1759 22.7871 75.7265 23.553 75.5019 24.4147C75.3735 24.8296 75.9833 25.2764 76.3043 24.8934C76.8178 24.2232 77.203 23.4892 77.4276 22.6595C77.556 22.1169 76.6252 21.8616 76.4648 22.468Z" fill="white"/>
<path d="M74.6598 27.4787C74.0179 30.9253 72.5735 34.0848 70.2947 36.7655C69.9095 37.2442 70.5836 37.9144 70.9687 37.4357C73.3438 34.5954 74.9165 31.3402 75.5906 27.7021C75.6869 27.1276 74.7561 26.8723 74.6598 27.4787Z" fill="white"/>
<path d="M67.959 31.4675C64.621 33.9249 61.0904 36.1269 57.4314 38.0736C56.8858 38.3609 57.3672 39.1906 57.9129 38.9034C61.5718 36.9567 65.1024 34.7546 68.4404 32.2973C68.954 31.9143 68.4725 31.0845 67.959 31.4675Z" fill="white"/>
<path d="M146.302 104.423C145.435 103.082 143.991 103.784 143.22 104.806C142.386 105.859 141.712 107.103 141.006 108.252C140.46 109.146 139.818 110.135 139.722 111.252C139.529 113.486 141.23 113.741 142.931 114.284C144.954 114.954 144.825 117.316 143.541 118.624C142.514 119.677 141.006 120.124 139.658 120.571C139.08 120.762 139.337 121.688 139.914 121.496C142.611 120.635 146.623 118.688 145.242 115.114C145.018 114.539 144.633 114.061 144.119 113.741C143.83 113.582 143.509 113.454 143.188 113.358C142.257 113.071 142.001 113.167 141.262 112.369C140.653 112.018 140.46 111.539 140.749 110.901C140.877 110.454 141.038 110.039 141.262 109.656C141.519 109.146 141.84 108.667 142.161 108.188C142.482 107.71 144.729 103.689 145.467 104.869C145.788 105.412 146.623 104.933 146.302 104.423Z" fill="white"/>
<path d="M91.1924 141.985C93.8243 141.315 96.071 143.9 94.9156 146.389C94.6588 146.931 95.4933 147.442 95.7501 146.868C97.2586 143.644 94.4662 140.166 90.9677 141.059C90.3258 141.219 90.5826 142.144 91.1924 141.985Z" fill="white"/>
<path d="M140.361 89.4233C139.141 88.5297 139.141 86.2 141.003 86.1362C141.677 86.1043 142.383 86.4872 142.351 87.2212C142.351 87.8276 141.805 88.5616 141.131 88.4659C140.521 88.3701 140.265 89.2956 140.874 89.3914C142.062 89.5829 143.089 88.7212 143.282 87.5723C143.506 86.3915 142.64 85.3703 141.484 85.2107C140.297 85.0192 139.077 85.6894 138.66 86.8383C138.243 88.1148 138.82 89.4871 139.879 90.253C140.361 90.6041 140.842 89.7743 140.361 89.4233Z" fill="white"/>
<path d="M6.1915 85.4658C6.64085 83.6787 8.18146 82.6574 9.62579 81.6681C11.1343 80.615 12.6749 79.5299 14.2156 78.4768C17.2647 76.3385 20.3138 74.2322 23.363 72.094C23.8765 71.743 23.3951 70.9132 22.8815 71.2643C19.3188 73.7535 15.7562 76.2109 12.1935 78.7001C9.78627 80.3597 6.03102 82.1149 5.26071 85.2105C5.10023 85.8169 6.03102 86.0722 6.1915 85.4658Z" fill="white"/>
<path d="M219.804 255.438C179.459 248.609 139.114 241.779 98.7692 234.95C94.9818 206.451 91.1624 177.984 87.375 149.485C130.801 155.293 174.195 161.101 217.621 166.942C218.36 196.43 219.098 225.918 219.804 255.438Z" fill="white" stroke="#161616" stroke-width="3" stroke-miterlimit="10"/>
<path d="M217.621 166.909L220.446 254.832" stroke="#161616" stroke-width="3" stroke-miterlimit="10"/>
<path d="M217.812 166.846C218.679 195.76 219.546 224.674 220.412 253.587" stroke="#161616" stroke-width="3" stroke-miterlimit="10"/>
<path opacity="0.37" d="M162.258 160.974C164.344 162.059 182.254 171.76 183.505 188.994C184.211 198.504 179.525 205.717 176.573 210.121C160.653 233.928 129.166 238.141 120.629 239.034C133.05 247.236 176.444 274.267 223.882 272.671C234.442 272.32 250.811 271.586 268.56 261.885C281.88 254.608 290.514 245.258 295.457 239.034C292.408 237.152 289.391 235.301 286.342 233.418C263.938 241.045 241.503 248.672 219.1 256.268C217.945 226.78 216.789 197.323 215.634 167.835C197.82 165.601 180.039 163.303 162.258 160.974Z" fill="#3D3D3D"/>
<path d="M307.779 164.324C306.046 165.601 304.185 167.324 302.484 169.59C296.161 178.047 297.027 187.972 297.477 191.195C291.86 190.046 282.423 188.929 271.286 191.482C264.642 193.014 259.314 195.408 255.398 197.578C256.008 197.961 256.843 198.408 257.902 198.695C263.904 200.323 270.227 195.312 270.419 195.663C270.612 195.982 263.358 199.365 263.743 202.301C264 204.28 267.563 205.333 271.254 206.45C274.367 207.376 277.32 208.269 281.268 207.822C286.692 207.216 290.448 204.503 292.117 203.099C293.721 203.897 296.096 204.95 299.081 205.876C304.57 207.535 312.145 209.833 317.184 206.705C320.457 204.663 321.452 199.876 323.314 190.366C325.689 178.174 326.877 172.079 323.603 168.217C319.27 163.079 310.572 163.941 307.779 164.324Z" fill="white" stroke="#161616" stroke-width="3" stroke-miterlimit="10"/>
<path d="M306.173 118.783C307.488 119.804 309.19 121.209 310.987 123.028C311.501 123.538 312.816 124.879 314.132 126.538C316.187 129.091 317.503 131.517 318.947 134.485C320.808 138.282 322.67 142.08 324.532 147.761C326.104 152.548 328.512 160.079 328.8 170.1C328.929 174.058 328.672 177.377 328.415 179.706C327.099 178.206 325.783 177.217 324.692 176.579C318.562 172.845 311.115 174.185 304.086 175.462C301.454 175.941 299.272 176.515 297.763 176.93C298.149 173.419 298.502 169.909 298.887 166.398C299.208 163.462 299.497 160.494 299.818 157.526C299.208 156.473 298.373 154.973 297.603 153.09C296.094 149.484 293.077 142.399 294.811 134.453C296.865 125.325 304.086 120.155 306.173 118.783Z" fill="#EC615B"/>
<path d="M307.294 120.539C310.503 122.198 312.654 125.071 314.515 128.039C316.441 131.102 318.174 134.262 319.715 137.517C322.86 144.155 325.171 151.176 326.68 158.357C326.808 158.963 327.739 158.708 327.611 158.101C326.07 150.634 323.631 143.389 320.293 136.496C318.656 133.113 316.858 129.826 314.804 126.666C312.975 123.858 310.824 121.241 307.807 119.677C307.23 119.422 306.748 120.252 307.294 120.539Z" fill="#161616"/>
<path d="M297.286 152.995C298.763 155.994 300.304 158.931 301.908 161.867C302.197 162.409 303.032 161.93 302.743 161.388C301.138 158.452 299.597 155.516 298.121 152.516C297.832 151.941 296.998 152.42 297.286 152.995Z" fill="#161616"/>
<path d="M299.565 158.484C298.762 164.675 297.96 170.867 297.189 177.058C297.157 177.377 297.542 177.601 297.799 177.505C303.256 175.781 308.937 174.952 314.65 175.143C319.175 175.303 325.177 175.718 327.713 180.122C328.034 180.664 328.836 180.186 328.547 179.643C326.14 175.43 320.876 174.569 316.447 174.282C310.06 173.835 303.641 174.664 297.575 176.579C297.767 176.739 297.992 176.898 298.184 177.026C298.987 170.835 299.789 164.644 300.559 158.452C300.624 157.878 299.661 157.878 299.565 158.484Z" fill="#161616"/>
<path d="M326.612 157.878C327.736 164.899 329.565 172.335 327.672 179.388C327.511 179.994 328.442 180.249 328.602 179.643C330.528 172.431 328.699 164.835 327.543 157.623C327.447 157.016 326.516 157.272 326.612 157.878Z" fill="#161616"/>
<path opacity="0.32" d="M303.733 117.603C306.654 123.028 309.575 129.506 312.046 136.942C316.893 151.623 318.177 164.803 318.273 174.664C314.999 174.856 311.725 175.047 308.451 175.239C309.511 182.802 310.602 190.398 311.661 197.961C309.607 196.78 306.461 195.28 302.417 194.387C301.101 194.1 296.255 193.142 291.087 194.004C280.239 195.823 273.691 204.663 272.215 206.769C273.691 207.376 275.585 207.95 277.864 208.078C284.861 208.493 289.964 204.472 291.473 203.195C296.255 205.589 300.427 206.737 303.38 207.312C308.548 208.365 314.582 209.578 317.92 206.386C318.177 206.131 318.754 205.525 320.006 202.429C321.964 197.514 322.991 192.919 324.339 184.589C324.628 182.738 325.045 180.249 325.462 177.281C326.265 178.079 327.099 178.909 327.902 179.707C328.287 178.27 328.768 176.132 329.025 173.515C329.699 166.718 328.383 161.356 327.131 156.984C322.092 139.304 319.075 128.645 308.997 120.922C306.911 119.39 304.985 118.273 303.733 117.603Z" fill="#3D3D3D"/>
<path opacity="0.29" d="M320.716 139.463C322.866 149.867 323.155 158.707 322.995 165.09C322.834 171.026 322.224 175.366 321.582 179.738C319.689 192.919 318.726 199.493 315.067 202.557C308.134 208.365 295.777 203.961 292.824 202.844C295.617 204.695 305.663 210.982 315.484 207.503C316.511 207.12 317.635 206.642 318.726 205.94C319.881 203.993 321.422 200.993 322.417 197.068C322.995 194.738 323.155 193.046 323.38 191.068C323.733 187.876 324.343 183.217 325.37 177.377C326.301 178.175 327.263 178.972 328.194 179.77C328.515 178.143 328.932 175.653 329.029 172.59C329.318 165.186 327.681 159.569 325.787 153.154C324.76 149.644 323.155 144.921 320.716 139.463Z" fill="#3D3D3D"/>
<path d="M232.48 55.6906C232.801 59.1053 233.379 63.8924 234.663 69.5411C235.498 73.2112 236.011 75.5409 237.102 78.445C238.739 82.8172 241.853 91.1786 249.973 96.6358C251.931 97.9762 255.172 99.7633 259.73 100.816C260.468 100.88 261.207 100.976 261.945 101.04C262.202 102.38 262.523 104.359 262.843 106.752C263.614 112.912 263.229 114.795 264.833 116.454C266.791 118.465 269.905 118.273 270.579 118.209C275.939 117.858 278.635 112.561 278.763 112.273C277.897 110.71 277.03 108.795 276.324 106.561C274.783 101.614 274.751 97.2102 275.008 94.2104C277.479 90.6679 280.208 87.9553 282.968 85.849C284.027 85.0511 284.926 83.9661 286.498 83.4235C288.745 82.6576 289.901 83.4235 291.57 82.9129C294.33 82.0513 295.517 78.5088 296.031 77.0408C297.989 71.2325 295.582 65.4881 294.041 62.0733C292.661 58.9458 289.066 51.1907 280.304 45.1271C271.285 38.8721 253.247 31.9149 241.307 40.9465C239.253 42.5102 234.567 46.6909 232.48 55.6906Z" fill="white"/>
<path d="M233.828 68.8389C231.774 68.4879 226.575 67.2751 223.204 62.8391C218.069 56.1054 220.829 46.6908 223.686 41.7123C228.179 33.8934 236.364 31.1808 246.635 27.766C252.733 25.7555 258.542 23.8406 266.438 24.1598C270.803 24.3513 285.599 24.9895 294.458 35.9359C299.722 42.4144 300.3 49.3716 301.455 63.0944C302.001 69.3814 301.583 72.7962 300.492 76.0514C299.69 78.413 297.09 85.9766 289.611 89.0084C285.696 90.604 282.069 90.2849 280.079 89.9658C281.876 87.3169 283.674 84.7 285.503 82.0512C286.53 82.115 290.189 82.1788 292.982 79.6576C296.801 76.1791 297.475 69.2538 294.683 67.4028C292.629 66.0305 288.552 67.3709 285.022 70.5303C284.701 68.5198 284.187 66.3177 283.321 64.0519C279.277 53.2331 270.482 47.2972 266.181 44.8398C264.48 47.01 259.088 53.3608 249.523 55.882C241.949 57.8606 235.658 56.4564 232.865 55.6267C233.186 60.0307 233.507 64.4348 233.828 68.8389Z" fill="#5222D0"/>
<path d="M232.218 56.5202C233.534 66.3815 234.914 76.6258 239.76 85.4978C243.74 92.7741 250.159 98.9973 258.408 101.072C259.018 101.231 259.275 100.306 258.665 100.146C250.513 98.0718 244.222 91.8167 240.37 84.5723C235.78 75.9556 234.464 66.0624 233.181 56.5202C233.084 55.9138 232.121 55.9138 232.218 56.5202Z" fill="#161616"/>
<path d="M258.415 101.199C264.224 101.199 270.323 98.1034 274.88 94.7844C279.47 91.4334 283.225 87.1251 285.921 82.1466C286.21 81.604 285.376 81.1253 285.087 81.6679C282.487 86.5187 278.86 90.7313 274.399 93.9546C269.938 97.2098 264.032 100.242 258.415 100.242C257.773 100.242 257.773 101.199 258.415 101.199Z" fill="#161616"/>
<path d="M274.852 94.0185C274.21 100.465 275.461 106.912 278.414 112.688C278.703 113.231 279.538 112.752 279.249 112.209C276.36 106.561 275.205 100.305 275.815 94.0185C275.879 93.4121 274.916 93.4121 274.852 94.0185Z" fill="#161616"/>
<path d="M260.894 101.039C261.953 104.677 262.819 108.379 263.461 112.113C263.878 114.603 264.039 117.411 266.831 118.337C271.004 119.741 277.166 117.251 278.771 113.135C278.996 112.56 278.065 112.305 277.84 112.879C276.942 115.209 274.695 116.486 272.384 117.156C270.458 117.698 267.537 118.273 265.901 116.709C264.938 115.783 264.809 114.315 264.617 113.071C264.392 111.762 264.167 110.454 263.911 109.145C263.333 106.337 262.659 103.529 261.856 100.784C261.664 100.21 260.733 100.465 260.894 101.039Z" fill="#161616"/>
<path d="M262.274 104.997C267.987 104.263 271.742 99.9227 274.502 95.2633C274.823 94.7207 273.989 94.242 273.668 94.7846C271.132 99.1248 267.602 103.369 262.274 104.04C261.664 104.135 261.664 105.093 262.274 104.997Z" fill="#161616"/>
<path d="M262.035 101.742C266.497 101.231 270.509 99.157 273.494 95.806C273.911 95.3592 273.237 94.6571 272.82 95.1358C270.027 98.2953 266.24 100.306 262.035 100.785C261.458 100.848 261.425 101.806 262.035 101.742Z" fill="#161616"/>
<path d="M262.195 101.04C265.79 100.529 269.032 99.0613 271.792 96.7317C272.274 96.3168 271.567 95.6466 271.118 96.0615C268.486 98.2954 265.373 99.6677 261.939 100.146C261.329 100.21 261.585 101.136 262.195 101.04Z" fill="#161616"/>
<path d="M262.004 101.838C262.165 102.604 262.133 104.135 263.096 104.391C264.026 104.646 265.439 103.561 266.177 103.114C268.712 101.582 270.831 99.5079 272.5 97.0825C272.853 96.5719 272.018 96.0932 271.665 96.6038C270.478 98.3591 269.033 99.9228 267.332 101.199C266.53 101.806 265.695 102.316 264.829 102.795C264.476 102.987 263.673 103.529 263.32 103.306C263.096 103.178 262.999 101.806 262.967 101.582C262.807 100.976 261.876 101.231 262.004 101.838Z" fill="#161616"/>
<path d="M262.457 102.731C265.218 101.614 267.817 100.21 270.257 98.5183C270.77 98.1673 270.289 97.3375 269.775 97.6886C267.4 99.3481 264.897 100.72 262.201 101.805C261.623 102.029 261.88 102.954 262.457 102.731Z" fill="#161616"/>
<path d="M262.938 103.689C266.019 102.603 268.715 100.912 270.962 98.5504C271.379 98.1036 270.705 97.4335 270.288 97.8803C268.137 100.082 265.602 101.742 262.681 102.763C262.103 102.986 262.36 103.912 262.938 103.689Z" fill="#161616"/>
<path d="M263.453 103.178C265.732 102.189 267.818 100.849 269.616 99.1252C270.065 98.7103 269.391 98.0401 268.942 98.455C267.176 100.115 265.186 101.391 262.972 102.348C262.394 102.604 262.875 103.434 263.453 103.178Z" fill="#161616"/>
<path d="M237.231 80.7744C231.999 78.9234 230.266 72.1258 230.779 67.2111C231.325 61.8177 236.204 55.9456 242.174 58.4667C245.03 59.6795 246.089 62.807 246.86 65.5835C247.662 68.5195 248.015 71.7747 247.245 74.7746C246.571 77.4235 244.934 79.9446 242.366 81.0935C239.799 82.2424 236.749 81.6042 235.016 79.4021C234.631 78.9234 233.957 79.5936 234.342 80.0723C237.263 83.8062 242.751 83.0722 245.704 79.7851C249.459 75.6044 249.074 69.2536 247.47 64.2431C246.731 61.9134 245.768 59.488 243.618 58.1476C241.756 56.9668 239.381 56.6796 237.295 57.2221C232.416 58.5306 229.881 63.6687 229.785 68.36C229.688 73.4981 231.71 79.8489 237.038 81.6999C237.552 81.8914 237.809 80.9659 237.231 80.7744Z" fill="#161616"/>
<path d="M248.337 71.2318C251.483 69.3489 255.302 69.1575 258.576 70.785C259.121 71.0723 259.603 70.2425 259.057 69.9553C255.463 68.1681 251.29 68.3277 247.824 70.4021C247.342 70.7212 247.824 71.551 248.337 71.2318Z" fill="#161616"/>
<path d="M263.678 78.0302C260.051 74.5516 258.543 69.1582 259.955 64.3073C261.431 59.265 266.503 54.9247 271.959 56.7119C277.993 58.6905 278.314 67.2753 276.741 72.3177C275.811 75.2857 273.949 78.2536 270.868 79.3387C267.787 80.4237 265.123 78.7962 262.651 77.0728C262.138 76.7218 261.656 77.5515 262.17 77.9026C264.192 79.3387 266.374 80.7748 268.942 80.6791C271.381 80.5833 273.596 79.2429 275.104 77.4239C278.507 73.3389 279.181 67.1158 277.768 62.1372C276.485 57.6055 272.697 54.6694 267.851 55.4673C263.229 56.2013 259.827 60.3501 258.8 64.6903C257.612 69.7008 259.217 75.1261 262.94 78.7004C263.454 79.1472 264.128 78.4451 263.678 78.0302Z" fill="#161616"/>
<path d="M240.153 67.5302C239.832 69.5408 240.185 71.4875 241.276 73.2109C241.501 73.5619 242.015 73.4981 242.143 73.0832C242.913 70.8812 241.822 68.711 240.731 66.8281C240.506 66.4133 239.832 66.6047 239.832 67.0834C239.864 68.7749 240.217 70.4344 240.859 71.9981C241.084 72.5726 242.015 72.3173 241.79 71.7428C241.18 70.2429 240.827 68.711 240.795 67.0834C240.506 67.1792 240.185 67.243 239.896 67.3388C240.891 69.0302 241.918 70.8812 241.212 72.8598C241.501 72.8279 241.79 72.796 242.079 72.7322C241.116 71.2322 240.763 69.5408 241.052 67.7856C241.18 67.1792 240.249 66.9239 240.153 67.5302Z" fill="#161616"/>
<path d="M268.556 66.6366C268.556 66.2218 268.524 66.126 268.332 65.775C268.107 65.3601 267.433 65.5516 267.433 66.0303C267.465 68.0089 267.625 70.1471 269.166 71.5513C269.487 71.8386 269.936 71.6152 270.001 71.2003C270.257 68.8387 269.551 66.6366 268.075 64.7856C267.754 64.4027 267.176 64.8175 267.272 65.2643C267.658 66.8281 268.139 68.36 268.717 69.828C268.941 70.4024 269.872 70.1471 269.648 69.5727C269.038 68.0727 268.556 66.5728 268.203 65.009C267.946 65.1686 267.658 65.3282 267.401 65.4877C268.717 67.1473 269.262 69.1259 269.038 71.2322C269.327 71.1045 269.583 71.0088 269.872 70.8811C268.492 69.6365 268.428 67.7536 268.396 66.0303C268.107 66.126 267.786 66.1898 267.497 66.2856C267.529 66.4132 267.561 66.5409 267.593 66.6685C267.593 67.243 268.556 67.243 268.556 66.6366Z" fill="#161616"/>
<path d="M251.545 72.9239C250.903 74.8387 250.357 76.7855 250.004 78.7641C249.812 79.8173 249.138 81.7959 249.619 82.8491C250.582 84.9873 254.851 83.6788 256.327 82.9767C256.873 82.7214 256.392 81.8917 255.846 82.147C254.658 82.7214 253.375 83.0087 252.059 82.9129C251.288 82.8491 250.678 82.7214 250.518 81.8598C250.422 81.381 250.743 80.1364 250.839 79.5939C251.224 77.3918 251.802 75.2536 252.508 73.1473C252.668 72.6048 251.738 72.3495 251.545 72.9239Z" fill="#161616"/>
<path d="M256.397 91.3385C258.804 91.0194 260.891 89.4875 261.95 87.2855C262.207 86.7429 261.372 86.2323 261.115 86.8067C260.152 88.8173 258.355 90.1258 256.14 90.413C255.531 90.5087 255.819 91.4342 256.397 91.3385Z" fill="#161616"/>
<path d="M238.137 64.7859C238.747 64.0519 239.871 63.9243 240.641 64.5625C241.122 64.9774 241.796 64.2753 241.315 63.8923C240.191 62.9349 238.458 62.9988 237.463 64.1157C237.046 64.5625 237.72 65.2327 238.137 64.7859Z" fill="#161616"/>
<path d="M265.67 62.9984C266.665 62.1368 268.174 62.1368 269.169 62.9665C269.65 63.3495 270.324 62.6793 269.843 62.2963C268.431 61.0836 266.376 61.1155 264.964 62.3282C264.515 62.7431 265.221 63.4133 265.67 62.9984Z" fill="#161616"/>
<path d="M278.314 67.4028C281.781 66.1901 285.343 65.4561 289.034 65.2646C289.644 65.2327 289.644 64.2753 289.034 64.3072C285.279 64.4987 281.62 65.2327 278.057 66.4773C277.48 66.7007 277.704 67.6262 278.314 67.4028Z" fill="#161616"/>
<path opacity="0.4" d="M283.095 27.6382C285.02 30.0955 292.434 40.1803 291.054 54.0308C290.284 61.7539 287.074 67.4345 285.052 70.4344C286.208 69.5408 287.203 68.9345 287.941 68.5196C289.899 67.4345 291.151 66.7643 292.755 66.8601C293.237 66.892 294.392 66.9877 295.227 67.6579C297.666 69.7004 296.832 76.9448 292.499 80.3277C290.124 82.1786 287.331 82.3701 285.919 82.3382C284.089 84.9232 282.228 87.5082 280.398 90.1252C281.618 90.3166 283.48 90.4762 285.63 90.1571C286.561 90.0294 290.284 89.3592 293.815 86.5508C297.281 83.7743 298.693 80.3915 299.624 78.0937C302.192 71.711 301.678 66.0942 300.78 55.9775C300.394 51.4777 300.17 49.1799 299.271 46.1481C298.308 42.861 296.8 38.0101 292.499 33.6699C289.417 30.4785 285.951 28.6913 283.095 27.6382Z" fill="#3D3D3D"/>
<path opacity="0.48" d="M252.094 54.9245C255.303 52.0842 258.898 48.446 262.365 43.9143C264.515 41.1059 266.312 38.3933 267.789 35.8721C267.243 38.7443 266.698 41.6165 266.184 44.4888C264.932 46.2759 262.846 48.829 259.604 51.1587C256.748 53.1693 254.052 54.2863 252.094 54.9245Z" fill="#3D3D3D"/>
<path opacity="0.27" d="M274.913 51.2864C277.352 59.3605 277.544 66.1262 277.32 70.5941C277.159 73.9132 276.261 91.3061 267.049 97.3059C266.15 97.8803 263.872 99.2207 263.968 99.4122C264.096 99.6356 268.365 97.7527 270.708 96.4761C274.399 94.4975 280.08 90.5083 285.344 82.0831C286.21 82.1788 290.447 82.466 293.496 79.5619C297.187 76.0833 297.829 69.2538 294.909 67.2432C292.822 65.8071 288.842 67.0198 285.344 69.892C284.991 68.424 284.541 66.8922 283.932 65.2646C281.524 58.9457 277.898 54.3501 274.913 51.2864Z" fill="#3D3D3D"/>
<path opacity="0.36" d="M267.172 99.1567C268.006 101.71 268.841 104.263 269.675 106.848C270.831 110.358 271.954 113.901 273.078 117.411C273.719 117.284 275.292 116.837 276.672 115.433C278.052 114.028 278.502 112.497 278.662 111.858C277.411 109.401 275.934 105.667 275.421 100.944C275.164 98.4865 275.228 96.3164 275.421 94.4973C272.692 96.0611 269.932 97.6248 267.172 99.1567Z" fill="#3D3D3D"/>
<path opacity="0.43" d="M251.158 74.0408C249.553 77.4555 247.949 80.8384 246.344 84.2531C248.976 84.1893 251.575 84.1574 254.207 84.0936C252.667 83.6149 251.094 83.1362 249.553 82.6575C250.067 79.7852 250.613 76.913 251.158 74.0408Z" fill="#3D3D3D"/>
</svg>
