<svg width="54" height="61" viewBox="0 0 54 61" fill="none" xmlns="http://www.w3.org/2000/svg">
<rect x="8" y="6" width="53" height="32" fill="white"/>
<path d="M18.4836 45.25H18.4834C17.1078 45.2503 15.7886 45.797 14.816 46.7698C14.8159 46.7699 14.8159 46.7699 14.8158 46.7699L2.86902 58.7168L2.86812 58.7177C2.71528 58.8709 2.52042 58.9753 2.30821 59.0178C2.09598 59.0602 1.87595 59.0387 1.67594 58.956C1.47593 58.8734 1.30494 58.7332 1.18462 58.5533C1.06433 58.3735 1.00009 58.162 1 57.9457C1 57.9456 1 57.9455 1 57.9455V4.375C1 2.41903 1.77701 0.543168 3.16009 -0.839912C4.54317 -2.22299 6.41903 -3 8.375 -3H58.625C60.581 -3 62.4568 -2.22299 63.8399 -0.839912C65.223 0.543168 66 2.41903 66 4.375V37.875C66 39.831 65.223 41.7068 63.8399 43.0899C62.4568 44.473 60.581 45.25 58.625 45.25H18.4836ZM14.6562 7.5625C13.8357 7.5625 13.0488 7.88845 12.4686 8.46864C11.8884 9.04883 11.5625 9.83574 11.5625 10.6562C11.5625 11.4768 11.8884 12.2637 12.4686 12.8439C13.0488 13.4241 13.8357 13.75 14.6562 13.75H52.3438C53.1643 13.75 53.9512 13.4241 54.5314 12.8439C55.1116 12.2637 55.4375 11.4768 55.4375 10.6562C55.4375 9.83574 55.1116 9.04883 54.5314 8.46864C53.9512 7.88845 53.1643 7.5625 52.3438 7.5625H14.6562ZM14.6562 18.0312C13.8357 18.0312 13.0488 18.3572 12.4686 18.9374C11.8884 19.5176 11.5625 20.3045 11.5625 21.125C11.5625 21.9455 11.8884 22.7324 12.4686 23.3126C13.0488 23.8928 13.8357 24.2188 14.6562 24.2188H52.3438C53.1643 24.2188 53.9512 23.8928 54.5314 23.3126C55.1116 22.7324 55.4375 21.9455 55.4375 21.125C55.4375 20.3045 55.1116 19.5176 54.5314 18.9374C53.9512 18.3572 53.1643 18.0312 52.3438 18.0312H14.6562ZM14.6562 28.5C13.8357 28.5 13.0488 28.8259 12.4686 29.4061C11.8884 29.9863 11.5625 30.7732 11.5625 31.5938C11.5625 32.4143 11.8884 33.2012 12.4686 33.7814C13.0488 34.3616 13.8357 34.6875 14.6562 34.6875H35.5938C36.4143 34.6875 37.2012 34.3616 37.7814 33.7814C38.3616 33.2012 38.6875 32.4143 38.6875 31.5938C38.6875 30.7732 38.3616 29.9863 37.7814 29.4061C37.2012 28.8259 36.4143 28.5 35.5938 28.5H14.6562Z" fill="#F3CA20" stroke="black" stroke-width="2"/>
</svg>
