<svg width="90" height="90" viewBox="0 0 90 90" fill="none" xmlns="http://www.w3.org/2000/svg">
<circle cx="45" cy="45" r="44" fill="#FFFCEF" stroke="black" stroke-width="2"/>
<mask id="mask0_688_4954" style="mask-type:alpha" maskUnits="userSpaceOnUse" x="0" y="0" width="90" height="90">
<circle cx="45" cy="45" r="44" fill="#FFFCEF" stroke="black" stroke-width="2"/>
</mask>
<g mask="url(#mask0_688_4954)">
</g>
<path d="M64.2212 26.2972C63.1727 25.8777 62.3301 25.0576 61.8621 24.0086C60.5889 21.0334 57.7056 18.9165 54.3354 18.802C52.5193 18.7448 50.8155 19.2788 49.4113 20.2133C48.5687 20.7855 47.4641 20.7855 46.6216 20.2133C45.2173 19.2788 43.5323 18.7448 41.7161 18.802C39.4319 18.8783 37.3724 19.87 35.8746 21.4339C35.1818 22.1587 34.2644 22.6355 33.2908 22.8643C31.3249 23.2839 29.5275 24.2947 28.1045 25.8014L28.0858 25.8205C25.1276 28.9482 23.5361 33.0487 23.5549 37.378V37.4161C23.5736 37.5687 23.5547 49.2979 23.5547 49.2979H25.4505L63.5641 49.3351L65.4703 49.3053C65.4703 49.3053 65.5542 45.701 65.6067 44.6062C65.6519 43.6609 65.6815 42.1841 65.6815 42.1841C65.719 40.9063 66.2432 39.6857 67.0858 38.7321C68.2653 37.397 69.0142 35.6424 69.0517 33.7162C69.1266 30.3405 67.1045 27.4606 64.2212 26.2972Z" fill="#593B39"/>
<path d="M63.7945 42.6765L63.5625 49.3348C64.5923 49.3348 65.4313 48.4478 65.4688 47.3988C65.4688 47.3988 65.5527 45.7008 65.6051 44.6059C65.6256 44.1774 65.6429 43.6397 65.6557 43.1798C67.8152 44.1478 69.3194 46.3162 69.3194 48.8359C69.3194 52.2575 66.5457 55.0312 63.1241 55.0312C59.7025 55.0312 56.9288 52.2575 56.9288 48.8359C56.9288 45.4144 59.7025 42.6406 63.1241 42.6406C63.3506 42.6406 63.5743 42.6528 63.7945 42.6765Z" fill="#BB806E"/>
<path d="M23.5596 43.1037C23.5571 45.3437 23.5531 47.3914 23.5531 47.3914C23.5906 48.4403 24.4192 49.2976 25.4489 49.2976V42.6578C25.6025 42.6464 25.7576 42.6406 25.9141 42.6406C29.3356 42.6406 32.1094 45.4144 32.1094 48.8359C32.1094 52.2575 29.3356 55.0312 25.9141 55.0312C22.4925 55.0312 19.7188 52.2575 19.7188 48.8359C19.7188 46.2479 21.3057 44.0305 23.5596 43.1037Z" fill="#BB806E"/>
<path d="M63.6487 46.8048L63.5605 49.3349C63.5728 49.3349 63.5851 49.3348 63.5973 49.3345L63.5119 53.5373C63.0562 64.6931 54.6837 72.1876 44.5075 72.1876C34.3314 72.1876 25.9589 64.6931 25.5032 53.5373L25.3594 49.2956C25.3884 49.297 25.4176 49.2977 25.447 49.2977V41.6727C25.3908 40.0325 26.1351 38.77 27.2585 37.6066C28.4755 36.3479 29.2993 34.7077 29.5989 32.9341C29.6176 32.8006 29.7112 32.6861 29.861 32.648C30.0482 32.5908 30.2167 32.7052 30.2729 32.8578C31.4337 35.7948 34.2421 37.8927 37.5374 37.8927C38.3799 37.8927 39.0727 37.1871 39.0727 36.3288V33.0294C39.0727 32.8196 39.2037 32.667 39.3722 32.6289H39.6156C39.6905 32.648 39.7654 32.7052 39.8216 32.7815C42.1432 35.8902 45.8317 37.8927 49.9507 37.8927H59.6305C61.9896 37.8927 63.8806 39.8762 63.8057 42.2983L63.7443 44.0603L63.6719 45.6625L63.6487 46.8048Z" fill="#C68D7B"/>
<path d="M44.5037 59.1752C42.3909 59.1752 40.4304 58.6586 38.7554 57.7784C38.1843 57.4723 37.5752 58.1228 37.9369 58.6777C39.3264 60.8399 41.7628 62.275 44.5037 62.275C47.2447 62.275 49.681 60.8399 51.0706 58.6777C51.4132 58.142 50.8231 57.4914 50.2521 57.7784C48.5771 58.6777 46.6165 59.1752 44.5037 59.1752Z" fill="#990838"/>
<path d="M44.4873 56.9375C45.7836 56.9375 46.9083 56.2795 47.5945 55.2732C48.2045 54.3636 47.5564 53.125 46.4698 53.125H42.5239C41.4373 53.125 40.7892 54.3636 41.3992 55.2732C42.0664 56.2795 43.2101 56.9375 44.4873 56.9375Z" fill="#AB6A55"/>
<path d="M29.6112 49.0646C30.2593 46.5103 32.5849 44.604 35.349 44.604C38.2274 44.604 40.6102 46.6437 41.144 49.3506C41.2584 49.9415 40.7818 50.4943 40.1718 50.4943H30.7549C29.9924 50.4943 29.4205 49.789 29.6112 49.0646Z" fill="white"/>
<path d="M59.4248 49.0646C58.7767 46.5103 56.4511 44.604 53.687 44.604C50.8086 44.604 48.4258 46.6437 47.892 49.3506C47.7777 49.9415 48.2542 50.4943 48.8642 50.4943H58.2811C59.0436 50.4943 59.6155 49.789 59.4248 49.0646Z" fill="white"/>
<path d="M32.4531 49.5031C32.4531 47.4253 34.1497 45.7288 36.2275 45.7288C38.3053 45.7288 40.0019 47.4253 40.0019 49.5031C40.0019 49.8653 39.9638 50.1894 39.8684 50.5134H32.5866C32.5103 50.1894 32.4531 49.8463 32.4531 49.5031Z" fill="#7D4533"/>
<path d="M56.5863 49.5031C56.5863 47.4253 54.8897 45.7288 52.8119 45.7288C50.7341 45.7288 49.0375 47.4253 49.0375 49.5031C49.0375 49.8653 49.0756 50.1894 49.171 50.5134H56.4528C56.5291 50.1894 56.5863 49.8463 56.5863 49.5031Z" fill="#7D4533"/>
<path d="M36.2283 47.3491C37.4102 47.3491 38.3823 48.3022 38.3823 49.5032C38.3823 49.8654 38.287 50.2085 38.1345 50.5135H34.322C34.1695 50.2085 34.0742 49.8654 34.0742 49.5032C34.0742 48.3213 35.0273 47.3491 36.2283 47.3491Z" fill="black"/>
<path d="M52.8126 47.3491C51.6307 47.3491 50.6585 48.3022 50.6585 49.5032C50.6585 49.8654 50.7538 50.2085 50.9063 50.5135H54.7188C54.8713 50.2085 54.9666 49.8654 54.9666 49.5032C54.9666 48.3213 54.0135 47.3491 52.8126 47.3491Z" fill="black"/>
<path d="M35.5961 48.0163C35.5961 48.3848 35.2974 48.6835 34.9289 48.6835C34.5604 48.6835 34.2617 48.3848 34.2617 48.0163C34.2617 47.6478 34.5604 47.3491 34.9289 47.3491C35.2974 47.3491 35.5961 47.6478 35.5961 48.0163Z" fill="white"/>
<path d="M52.3139 48.0163C52.3139 48.3848 52.0152 48.6835 51.6468 48.6835C51.2783 48.6835 50.9796 48.3848 50.9796 48.0163C50.9796 47.6478 51.2783 47.3491 51.6468 47.3491C52.0152 47.3491 52.3139 47.6478 52.3139 48.0163Z" fill="white"/>
<path d="M32.316 42.7612C33.3097 42.4075 34.7332 42.139 36.6153 42.3165C37.1393 42.366 37.6043 41.9812 37.6537 41.4571C37.7031 40.9331 37.3184 40.4681 36.7943 40.4187C34.6352 40.215 32.9324 40.5184 31.6767 40.9653C31.1808 41.1418 30.9219 41.6869 31.0984 42.1828C31.2749 42.6788 31.82 42.9377 32.316 42.7612Z" fill="#593B39"/>
<path d="M56.2775 40.9653C55.0218 40.5184 53.319 40.215 51.1599 40.4187C50.6358 40.4681 50.2511 40.9331 50.3005 41.4571C50.35 41.9812 50.8149 42.366 51.339 42.3165C53.2211 42.139 54.6446 42.4075 55.6383 42.7612C56.1342 42.9377 56.6793 42.6788 56.8558 42.1828C57.0323 41.6869 56.7734 41.1418 56.2775 40.9653Z" fill="#593B39"/>
</svg>
