<svg width="51" height="120" viewBox="0 0 51 120" fill="none" xmlns="http://www.w3.org/2000/svg">
<g clip-path="url(#clip0_688_5014)">
<path d="M-8.73801 18.394C-8.04133 16.9947 -6.39815 16.3973 -5.06787 17.0596L23.8365 31.4503C25.1668 32.1126 25.6804 33.7839 24.9838 35.1832L19.62 45.9566C16.6622 40.0028 11.8924 34.9887 5.59999 31.8559C-0.692413 28.7231 -7.5682 27.9391 -14.1018 29.1674L-8.73801 18.394Z" fill="#5235A6"/>
<path d="M-22.1518 87.5967C-15.8594 90.7295 -8.98361 91.5135 -2.45002 90.2852L-7.8138 101.059C-8.51048 102.458 -10.1537 103.055 -11.4839 102.393L-40.3883 88.0023C-41.7186 87.34 -42.2322 85.6688 -41.5356 84.2694L-36.1718 73.496C-33.214 79.4499 -28.4442 84.4639 -22.1518 87.5967Z" fill="#5235A6"/>
<path d="M20.7427 67.8504C19.4124 67.1881 17.7692 67.7856 17.0725 69.1849L14.5496 74.2522C13.8529 75.6515 14.3666 77.3228 15.6969 77.9851L19.3099 79.7839C20.6402 80.4463 22.2834 79.8488 22.9801 78.4495L25.503 73.3822C26.1996 71.9829 25.686 70.3116 24.3557 69.6493L20.7427 67.8504Z" fill="#5235A6"/>
<path d="M20.6284 74.1171C12.2683 90.9088 -7.44983 98.0782 -23.4133 90.1304C-39.3767 82.1827 -45.5404 62.1274 -37.1803 45.3357C-28.8202 28.544 -9.10204 21.3746 6.8614 29.3223C22.8248 37.2701 28.9886 57.3254 20.6284 74.1171Z" fill="#A4AEEB"/>
<path d="M13.402 70.5194C7.1319 83.1132 -7.6567 88.4903 -19.6293 82.5295C-31.6019 76.5686 -36.2247 61.5272 -29.9546 48.9334C-23.6845 36.3396 -8.89587 30.9626 3.07672 36.9234C15.0493 42.8842 19.6721 57.9257 13.402 70.5194Z" fill="#5235A6"/>
<path d="M1.81427 39.4569C0.483983 38.7946 -1.1592 39.392 -1.85587 40.7913L-9.42454 55.9934C-9.69044 56.5274 -9.78003 57.1011 -9.7152 57.6432L-22.1765 62.9528C-23.5834 63.5522 -24.2982 65.1953 -23.7731 66.6227C-23.2479 68.05 -21.6818 68.7212 -20.2749 68.1218L-7.5381 62.6948C-6.33105 62.1805 -5.63344 60.898 -5.79127 59.6426C-5.30128 59.3682 -4.88105 58.942 -4.60714 58.3918L2.96152 43.1898C3.6582 41.7905 3.14456 40.1192 1.81427 39.4569Z" fill="white"/>
</g>
<defs>
<clipPath id="clip0_688_5014">
<rect width="86.103" height="90.5703" fill="white" transform="translate(-26.6328) rotate(26.4674)"/>
</clipPath>
</defs>
</svg>
