<svg width="81" height="81" viewBox="0 0 81 81" fill="none" xmlns="http://www.w3.org/2000/svg">
<g clip-path="url(#clip0_547_13262)">
<path d="M31.0106 25.3339C39.3427 26.393 45.4892 21.7442 47.738 21.1633C49.9868 20.5824 52.7844 21.9578 53.5625 24.4601C54.5683 27.6942 52.7588 29.1168 49.9284 30.7451C48.9712 31.2957 45.8958 32.8984 45.8958 32.8984L62.3173 42.1933C65.7019 44.109 65.8088 47.4083 64.7553 49.2696C63.7018 51.1309 60.572 52.295 57.5635 50.5921L51.2456 47.0161C51.2456 47.0161 52.8456 48.9849 51.2137 51.8681C49.5818 54.7513 46.5077 54.0999 46.5077 54.0999C46.5077 54.0999 47.3181 55.6509 45.7997 58.3335C44.3664 60.8657 41.1706 60.5465 41.1706 60.5465C41.1706 60.5465 41.4663 62.0711 40.1891 64.3275C39.21 66.0574 35.5771 67.2121 32.9446 65.7221C21.5675 59.2825 5.5661 49.0367 14.0971 33.9647C16.3425 29.9603 22.6786 24.2748 31.0106 25.3339Z" fill="#C68D7B"/>
<path d="M51.2708 47.0301C46.5164 43.8994 44.24 41.2629 43.8209 40.1319L57.259 47.7381C60.8158 49.7513 63.2571 50.1165 64.3438 49.8459C63.0266 51.3489 60.2469 52.1107 57.5637 50.592L51.2708 47.0301Z" fill="#A9715F"/>
<path d="M46.5081 54.0998L41.3935 51.2048C40.9504 50.954 40.7945 50.3915 41.0453 49.9484C41.2961 49.5054 41.8586 49.3495 42.3017 49.6003L49.4411 53.6413C47.9985 54.4087 46.5269 54.1037 46.5081 54.0998Z" fill="#A9715F"/>
<path d="M35.4295 57.2967L41.1709 60.5464C41.1871 60.548 42.6152 60.6861 43.9862 60.0213L36.3377 55.6921C35.8947 55.4413 35.3322 55.5972 35.0814 56.0403C34.8306 56.4834 34.9865 57.0459 35.4295 57.2967Z" fill="#A9715F"/>
</g>
<defs>
<clipPath id="clip0_547_13262">
<rect width="59" height="59" fill="white" transform="matrix(-0.870265 -0.492584 -0.492584 0.870265 80.4082 29.0625)"/>
</clipPath>
</defs>
</svg>
