<svg width="80" height="80" viewBox="0 0 80 80" fill="none" xmlns="http://www.w3.org/2000/svg">
<path d="M65.8604 14.8157C64.4853 14.2655 63.3804 13.1899 62.7665 11.8143C61.0968 7.91237 57.3154 5.13602 52.8955 4.98594C50.5137 4.91091 48.2792 5.61125 46.4376 6.83685C45.3327 7.58721 43.8839 7.58721 42.779 6.83685C40.9374 5.61125 38.7274 4.91091 36.3456 4.98594C33.35 5.08599 30.6489 6.38663 28.6846 8.43763C27.776 9.38809 26.5729 10.0134 25.296 10.3135C22.7178 10.8638 20.3605 12.1895 18.4944 14.1654L18.4698 14.1904C14.5902 18.2924 12.503 23.6701 12.5276 29.3478V29.3979C12.5521 29.598 12.5273 44.9805 12.5273 44.9805H15.0136L64.9987 45.0293L67.4987 44.9902C67.4987 44.9902 67.6087 40.2633 67.6775 38.8275C67.7368 37.5878 67.7757 35.6509 67.7757 35.6509C67.8248 33.9751 68.5123 32.3743 69.6173 31.1237C71.1642 29.3729 72.1464 27.0717 72.1955 24.5455C72.2937 20.1183 69.6418 16.3415 65.8604 14.8157Z" fill="#593B39"/>
<path d="M65.3043 36.297L65 45.0293C66.3505 45.0293 67.4509 43.8659 67.5 42.4902C67.5 42.4902 67.6101 40.2633 67.6788 38.8275C67.7057 38.2655 67.7284 37.5602 67.7452 36.9571C70.5773 38.2267 72.55 41.0704 72.55 44.375C72.55 48.8623 68.9124 52.5 64.425 52.5C59.9377 52.5 56.3 48.8623 56.3 44.375C56.3 39.8877 59.9377 36.25 64.425 36.25C64.7221 36.25 65.0155 36.2659 65.3043 36.297Z" fill="#BB806E"/>
<path d="M12.5371 36.8573C12.5338 39.7951 12.5287 42.4805 12.5287 42.4805C12.5778 43.8561 13.6645 44.9805 15.015 44.9805V36.2726C15.2164 36.2576 15.4198 36.25 15.625 36.25C20.1123 36.25 23.75 39.8877 23.75 44.375C23.75 48.8623 20.1123 52.5 15.625 52.5C11.1377 52.5 7.5 48.8623 7.5 44.375C7.5 40.9808 9.58122 38.0728 12.5371 36.8573Z" fill="#BB806E"/>
<path d="M65.1139 41.7112L64.9983 45.0294C65.0144 45.0294 65.0305 45.0292 65.0465 45.0289L64.9345 50.5407C64.3369 65.1713 53.3565 75.0001 40.0108 75.0001C26.665 75.0001 15.6847 65.1713 15.0871 50.5407L14.8984 44.9778C14.9365 44.9796 14.9748 44.9805 15.0133 44.9805V34.9805C14.9396 32.8295 15.9158 31.1738 17.3891 29.6481C18.9851 27.9973 20.0655 25.8462 20.4584 23.5201C20.483 23.345 20.6057 23.1949 20.8022 23.1449C21.0477 23.0698 21.2687 23.2199 21.3424 23.42C22.8648 27.2719 26.548 30.0232 30.8696 30.0232C31.9746 30.0232 32.8831 29.0978 32.8831 27.9722V23.6451C32.8831 23.37 33.055 23.1699 33.276 23.1199H33.5952C33.6934 23.1449 33.7916 23.2199 33.8653 23.32C36.9101 27.397 41.7473 30.0232 47.1494 30.0232H59.8442C62.9381 30.0232 65.4181 32.6245 65.3199 35.8011L65.2394 38.1118L65.1444 40.2131L65.1139 41.7112Z" fill="#C68D7B"/>
<path d="M40.0049 57.9348C37.234 57.9348 34.6628 57.2572 32.466 56.1029C31.7171 55.7014 30.9183 56.5546 31.3926 57.2823C33.2149 60.118 36.4102 62 40.0049 62C43.5996 62 46.7948 60.118 48.6171 57.2823C49.0665 56.5797 48.2926 55.7265 47.5437 56.1029C45.347 57.2823 42.7758 57.9348 40.0049 57.9348Z" fill="#990838"/>
<path d="M39.9834 55C41.6834 55 43.1584 54.1371 44.0584 52.8173C44.8584 51.6244 44.0084 50 42.5834 50H37.4084C35.9834 50 35.1334 51.6244 35.9334 52.8173C36.8084 54.1371 38.3084 55 39.9834 55Z" fill="#AB6A55"/>
<path d="M20.4742 44.675C21.3242 41.325 24.3742 38.825 27.9992 38.825C31.7742 38.825 34.8992 41.5 35.5992 45.05C35.7492 45.825 35.1242 46.55 34.3242 46.55H21.9742C20.9742 46.55 20.2242 45.625 20.4742 44.675Z" fill="white"/>
<path d="M59.5741 44.675C58.7241 41.325 55.6741 38.825 52.0491 38.825C48.2741 38.825 45.1491 41.5 44.4491 45.05C44.2991 45.825 44.9241 46.55 45.7241 46.55H58.0741C59.0741 46.55 59.8241 45.625 59.5741 44.675Z" fill="white"/>
<path d="M24.1992 45.25C24.1992 42.525 26.4242 40.3 29.1492 40.3C31.8742 40.3 34.0992 42.525 34.0992 45.25C34.0992 45.725 34.0492 46.15 33.9242 46.575H24.3742C24.2742 46.15 24.1992 45.7 24.1992 45.25Z" fill="#7D4533"/>
<path d="M55.8492 45.25C55.8492 42.525 53.6243 40.3 50.8993 40.3C48.1742 40.3 45.9492 42.525 45.9492 45.25C45.9492 45.725 45.9992 46.15 46.1242 46.575H55.6742C55.7743 46.15 55.8492 45.7 55.8492 45.25Z" fill="#7D4533"/>
<path d="M29.1492 42.425C30.6992 42.425 31.9742 43.675 31.9742 45.25C31.9742 45.725 31.8492 46.175 31.6492 46.575H26.6492C26.4492 46.175 26.3242 45.725 26.3242 45.25C26.3242 43.7 27.5742 42.425 29.1492 42.425Z" fill="black"/>
<path d="M50.8991 42.425C49.3491 42.425 48.0741 43.675 48.0741 45.25C48.0741 45.725 48.1991 46.175 48.3991 46.575H53.3991C53.5991 46.175 53.7241 45.725 53.7241 45.25C53.7241 43.7 52.4741 42.425 50.8991 42.425Z" fill="black"/>
<path d="M28.3242 43.3C28.3242 43.7833 27.9325 44.175 27.4492 44.175C26.966 44.175 26.5742 43.7833 26.5742 43.3C26.5742 42.8168 26.966 42.425 27.4492 42.425C27.9325 42.425 28.3242 42.8168 28.3242 43.3Z" fill="white"/>
<path d="M50.2493 43.3C50.2493 43.7833 49.8575 44.175 49.3743 44.175C48.891 44.175 48.4993 43.7833 48.4993 43.3C48.4993 42.8168 48.891 42.425 49.3743 42.425C49.8575 42.425 50.2493 42.8168 50.2493 43.3Z" fill="white"/>
<path d="M24.0211 36.4082C25.3243 35.9443 27.1912 35.5921 29.6595 35.825C30.3468 35.8898 30.9565 35.3852 31.0214 34.6979C31.0862 34.0106 30.5816 33.4009 29.8943 33.3361C27.0627 33.0689 24.8295 33.4668 23.1827 34.0529C22.5324 34.2844 22.1928 34.9993 22.4243 35.6497C22.6558 36.3001 23.3707 36.6397 24.0211 36.4082Z" fill="#593B39"/>
<path d="M55.446 34.0529C53.7992 33.4668 51.5661 33.0689 48.7344 33.3361C48.0471 33.4009 47.5425 34.0106 47.6074 34.6979C47.6722 35.3852 48.2819 35.8898 48.9692 35.825C51.4376 35.5921 53.3045 35.9443 54.6077 36.4082C55.2581 36.6397 55.973 36.3001 56.2045 35.6497C56.436 34.9993 56.0964 34.2844 55.446 34.0529Z" fill="#593B39"/>
</svg>
