<svg width="71" height="71" viewBox="0 0 71 71" fill="none" xmlns="http://www.w3.org/2000/svg">
<path d="M4.4375 19.9687L33.8729 13.6611C34.9455 13.4313 36.0545 13.4313 37.1271 13.6611L66.5625 19.9687V55.025C66.5625 61.397 61.397 66.5625 55.025 66.5625H15.975C9.60302 66.5625 4.4375 61.397 4.4375 55.025V19.9687Z" fill="#B4ACBC"/>
<path d="M6.65625 17.7501L33.7538 11.4968C34.9028 11.2317 36.0972 11.2317 37.2462 11.4968L64.3438 17.7501V54.3595C64.3438 59.8737 59.8736 64.3439 54.3594 64.3439H16.6406C11.1264 64.3439 6.65625 59.8737 6.65625 54.3595V17.7501Z" fill="#F3EEF8"/>
<path d="M17.7484 26.625C17.5034 26.625 17.3047 26.8237 17.3047 27.0687V32.8375C17.3047 33.0826 17.5034 33.2812 17.7484 33.2812H23.9609C24.206 33.2812 24.4047 33.0826 24.4047 32.8375V27.0688C24.4047 26.8237 24.206 26.625 23.9609 26.625H17.7484Z" fill="#998EA4"/>
<path d="M17.7484 38.8281C17.5034 38.8281 17.3047 39.0268 17.3047 39.2719V45.0406C17.3047 45.2857 17.5034 45.4844 17.7484 45.4844H23.9609C24.206 45.4844 24.4047 45.2857 24.4047 45.0406V39.2719C24.4047 39.0268 24.206 38.8281 23.9609 38.8281H17.7484Z" fill="#998EA4"/>
<path d="M17.3047 51.2532C17.3047 51.0081 17.5034 50.8094 17.7484 50.8094H23.9609C24.206 50.8094 24.4047 51.0081 24.4047 51.2532V57.0219C24.4047 57.267 24.206 57.4657 23.9609 57.4657H17.7484C17.5034 57.4657 17.3047 57.267 17.3047 57.0219V51.2532Z" fill="#998EA4"/>
<path d="M32.3921 26.625C32.1471 26.625 31.9484 26.8237 31.9484 27.0687V32.8375C31.9484 33.0826 32.1471 33.2812 32.3921 33.2812H38.6046C38.8497 33.2812 39.0484 33.0826 39.0484 32.8375V27.0688C39.0484 26.8237 38.8497 26.625 38.6046 26.625H32.3921Z" fill="#998EA4"/>
<path d="M31.9484 39.2719C31.9484 39.0268 32.1471 38.8281 32.3921 38.8281H38.6046C38.8497 38.8281 39.0484 39.0268 39.0484 39.2719V45.0406C39.0484 45.2857 38.8497 45.4844 38.6046 45.4844H32.3921C32.1471 45.4844 31.9484 45.2857 31.9484 45.0406V39.2719Z" fill="#998EA4"/>
<path d="M32.3921 50.8094C32.1471 50.8094 31.9484 51.0081 31.9484 51.2532V57.0219C31.9484 57.267 32.1471 57.4657 32.3921 57.4657H38.6046C38.8497 57.4657 39.0484 57.267 39.0484 57.0219V51.2532C39.0484 51.0081 38.8497 50.8094 38.6046 50.8094H32.3921Z" fill="#998EA4"/>
<path d="M46.5922 27.0687C46.5922 26.8237 46.7909 26.625 47.036 26.625H53.2485C53.4935 26.625 53.6922 26.8237 53.6922 27.0688V32.8375C53.6922 33.0826 53.4935 33.2812 53.2485 33.2812H47.036C46.7909 33.2812 46.5922 33.0826 46.5922 32.8375V27.0687Z" fill="#998EA4"/>
<path d="M47.036 50.8094C46.7909 50.8094 46.5922 51.0081 46.5922 51.2532V57.0219C46.5922 57.267 46.7909 57.4657 47.036 57.4657H53.2485C53.4935 57.4657 53.6922 57.267 53.6922 57.0219V51.2532C53.6922 51.0081 53.4935 50.8094 53.2485 50.8094H47.036Z" fill="#998EA4"/>
<path d="M15.975 4.4375C9.60301 4.4375 4.4375 9.60301 4.4375 15.975V19.9688H66.5625V15.975C66.5625 9.60301 61.397 4.4375 55.025 4.4375H15.975Z" fill="#0084CE"/>
<path d="M47.0375 38.8281C46.7924 38.8281 46.5938 39.0268 46.5938 39.2719V45.0406C46.5938 45.2857 46.7924 45.4844 47.0375 45.4844H53.25C53.4951 45.4844 53.6938 45.2857 53.6938 45.0406V39.2719C53.6938 39.0268 53.4951 38.8281 53.25 38.8281H47.0375Z" fill="#0084CE"/>
</svg>
