<svg width="624" height="531" viewBox="0 0 624 531" fill="none" xmlns="http://www.w3.org/2000/svg">
<path d="M34.2684 412.974C107.786 412.974 181.261 412.974 254.778 412.974C327.92 412.974 401.061 412.974 474.161 412.974C515.426 412.974 556.649 412.974 597.914 412.974C598.707 412.974 598.707 411.394 597.914 411.394C524.397 411.394 450.921 411.394 377.404 411.394C304.262 411.394 231.121 411.394 158.021 411.394C116.756 411.394 75.5331 411.394 34.2684 411.394C33.4756 411.394 33.4756 412.974 34.2684 412.974Z" fill="#E8E8E8"/>
<path d="M189.852 410.762C185.596 408.287 181.966 404.337 179.546 399.228C178.42 396.858 177.46 394.172 176.96 391.486C176.501 388.8 177.335 386.061 179.838 386.483C181.466 386.746 182.759 388.115 183.927 389.379C184.178 388.958 184.428 388.537 184.678 388.115C181.966 385.903 179.838 382.849 178.545 379.109C177.669 376.529 175.624 368.365 179.129 367.575C179.546 367.47 179.672 366.838 179.505 366.417C176.167 357.727 175.374 348.036 174.665 338.556C174.331 334.027 173.997 328.549 176.793 325.073C180.089 320.86 184.637 323.809 187.39 327.391C192.522 334.079 195.193 343.612 197.905 352.091C200.742 360.992 203.204 370.051 204.998 379.32C207.042 390.064 208.127 401.071 207.668 412.079C207.626 413.079 208.878 413.079 208.92 412.079C209.838 389.537 204.455 367.681 197.654 347.141C194.859 338.714 191.688 327.865 185.096 323.019C182.551 321.176 179.463 320.649 176.96 322.861C174.414 325.126 173.455 329.129 173.288 332.868C173.079 338.609 173.872 344.665 174.581 350.301C175.291 356.147 176.459 361.887 178.503 367.207C178.628 366.838 178.754 366.417 178.879 366.048C175.207 366.891 175.958 373.579 176.667 376.792C177.794 382.059 180.506 386.535 184.136 389.485C184.72 389.959 185.429 388.8 184.887 388.221C182.884 386.114 180.339 383.744 177.627 385.271C174.748 386.904 175.541 391.117 176.375 394.119C178.545 402.072 183.302 408.603 189.31 412.079C189.936 412.553 190.603 411.183 189.852 410.762Z" fill="#E8E8E8"/>
<path d="M203.163 364.942C201.827 352.355 202.245 340.031 205.374 327.917C206.876 322.071 208.462 316.278 210.005 310.485C211.257 305.797 213.468 297.107 218.767 301.163C222.564 304.059 223.273 311.749 224.15 316.752C225.234 322.861 225.985 329.023 226.444 335.291C227.321 347.088 227.195 359.043 226.194 370.841C225.026 384.745 222.731 398.491 219.602 411.868C219.393 412.869 220.561 413.237 220.812 412.289C226.862 386.325 229.907 358.885 227.404 331.92C226.82 325.389 225.902 318.911 224.65 312.591C223.691 307.851 222.689 301.9 218.892 299.477C215.763 297.529 212.759 299.425 211.09 303.006C210.13 305.06 209.588 307.43 208.962 309.642C208.044 313.118 207.126 316.541 206.208 320.017C204.373 326.969 202.412 333.816 201.661 341.137C200.868 349.037 201.118 357.042 201.953 364.942C201.994 365.943 203.246 365.943 203.163 364.942Z" fill="#E8E8E8"/>
<path d="M178.09 324.073C190.106 351.091 199.577 380.479 201.747 411.657C201.83 412.658 203.082 412.658 202.999 411.657C200.787 380.215 191.316 350.617 179.174 323.283C178.799 322.387 177.714 323.177 178.09 324.073Z" fill="#E8E8E8"/>
<path d="M216.395 300.425C217.397 309.642 217.021 318.964 216.729 328.233C216.437 337.345 216.145 346.456 215.853 355.62C215.269 374.159 214.893 392.855 212.181 411.131C212.056 412.131 213.224 412.553 213.391 411.552C216.103 393.119 216.521 374.317 217.105 355.62C217.397 346.14 217.73 336.66 218.023 327.233C218.315 318.174 218.607 309.063 217.605 300.057C217.522 299.003 216.312 299.477 216.395 300.425Z" fill="#E8E8E8"/>
<path d="M204.419 327.022C209.718 336.028 213.515 346.245 215.518 357.147C215.685 358.148 216.895 357.727 216.728 356.726C214.684 345.666 210.887 335.291 205.504 326.179C205.045 325.389 203.961 326.179 204.419 327.022Z" fill="#E8E8E8"/>
<path d="M224.32 316.067C220.941 323.809 218.27 331.973 216.309 340.505C216.101 341.505 217.311 341.927 217.519 340.926C219.439 332.552 222.109 324.494 225.405 316.857C225.781 316.015 224.696 315.172 224.32 316.067Z" fill="#E8E8E8"/>
<path d="M179.011 367.417C187.814 371.947 195.116 380.215 199.747 390.696C200.123 391.591 201.208 390.801 200.832 389.906C196.034 379.057 188.44 370.63 179.345 365.943C178.593 365.469 178.301 366.996 179.011 367.417Z" fill="#E8E8E8"/>
<path d="M190.772 331.867C190.021 340.873 190.355 349.879 191.69 358.78C191.857 359.781 193.067 359.359 192.9 358.359C191.607 349.616 191.315 340.715 192.024 331.867C192.108 330.867 190.856 330.867 190.772 331.867Z" fill="#E8E8E8"/>
<path d="M41.9447 411.078C40.985 407.549 40.2757 403.863 39.9419 400.123C39.8167 398.543 39.7333 396.963 39.7333 395.331C39.7333 394.488 39.6081 393.277 39.775 392.487C39.775 392.171 39.8167 391.855 39.8167 391.539C40.6095 390.801 41.2771 390.907 41.8195 391.802C42.195 392.223 42.946 391.96 42.9043 391.223C42.7791 389.063 42.7791 386.904 42.9878 384.745C43.1129 383.691 43.2381 382.638 43.4467 381.637C43.5302 381.269 44.5315 377.687 44.615 377.845C44.907 378.372 45.6163 378.372 45.7415 377.635C47.5356 368.313 50.7484 359.623 54.6704 351.459C55.6718 349.353 56.7566 347.246 57.8414 345.192C59.0514 342.927 61.0541 339.346 62.89 343.296C64.7675 347.299 65.3099 353.145 65.4768 357.727C65.8941 367.417 64.1417 377.055 61.68 386.167C59.3017 395.067 56.3393 403.968 51.249 410.973C50.7066 411.71 51.5828 412.816 52.1252 412.079C56.548 406.022 59.3434 398.596 61.6382 390.959C64.0582 382.796 66.0192 374.317 66.6034 365.627C66.8954 361.413 66.8537 357.147 66.353 352.934C65.9358 349.3 65.3099 344.665 63.5158 341.611C59.8024 335.396 55.5049 346.719 53.9611 349.879C49.7887 358.411 46.4091 367.47 44.5315 377.213C44.907 377.161 45.2826 377.108 45.6581 377.003C44.615 375.265 43.3215 377.003 42.8626 378.477C41.5691 382.427 41.3188 387.009 41.6109 391.17C41.9864 390.959 42.3202 390.801 42.6957 390.591C41.9029 389.695 40.6095 388.537 39.483 389.221C38.3147 389.959 38.4816 391.96 38.4816 393.329C38.3564 399.491 39.1492 405.548 40.7347 411.394C40.985 412.447 42.195 412.026 41.9447 411.078Z" fill="#E8E8E8"/>
<path d="M61.2235 341.505C59.8049 353.935 57.4266 366.153 54.047 377.951C50.9177 389.011 45.6605 399.702 44.4923 411.499C44.4088 412.5 45.6605 412.5 45.744 411.499C46.3698 405.232 48.2891 399.439 50.2919 393.751C52.1694 388.379 53.9636 382.954 55.5073 377.424C58.7201 365.89 61.0149 353.987 62.3917 341.874C62.5169 340.926 61.3069 340.505 61.2235 341.505Z" fill="#E8E8E8"/>
<path d="M49.7061 360.307C50.1651 368.681 50.8326 377.003 51.7088 385.324C51.834 386.325 53.0023 385.903 52.9188 384.903C52.0426 376.739 51.375 368.523 50.9578 360.307C50.9161 359.307 49.6644 359.254 49.7061 360.307Z" fill="#E8E8E8"/>
<path d="M57.5083 369.735C60.8462 365.574 63.7251 360.887 66.1451 355.831C66.5623 354.935 65.4775 354.145 65.0603 355.041C62.682 359.991 59.8865 364.521 56.6321 368.629C56.048 369.313 56.9242 370.419 57.5083 369.735Z" fill="#E8E8E8"/>
<path d="M37.3142 410.288C34.4353 405.074 32.0153 399.491 30.1795 393.54C29.345 390.854 28.6357 388.063 28.0516 385.271C27.7595 383.797 27.4674 382.322 27.2171 380.795C27.0502 379.899 25.9654 374.053 27.4674 374.422C27.9681 374.527 28.3436 374.053 28.2185 373.474C27.1754 366.206 26.5078 358.885 26.2992 351.512C26.2157 348.141 26.174 344.665 26.7581 341.4C27.0502 339.82 27.4674 337.977 28.3019 336.66C30.2212 333.711 32.2239 336.133 33.4756 338.345C39.4839 348.984 43.3224 361.782 45.1583 374.58C45.2835 375.581 46.4934 375.159 46.3683 374.159C45.2 366.206 43.2807 358.517 40.6521 351.196C39.2752 347.404 37.7315 343.77 35.9791 340.294C34.8108 337.977 33.3088 334.343 30.9305 333.711C25.715 332.341 25.0475 343.823 25.0057 347.878C24.9223 356.621 25.7568 365.416 27.0085 374.001C27.2588 373.685 27.5092 373.369 27.7595 373.053C22.7527 371.947 26.8833 386.43 27.5092 388.905C29.4702 396.858 32.4326 404.389 36.1877 411.236C36.6884 411.921 37.7732 411.131 37.3142 410.288Z" fill="#E8E8E8"/>
<path d="M29.0925 335.343C33.7655 353.619 37.7293 372.21 40.9837 390.959C41.1506 391.96 42.3606 391.539 42.1937 390.538C38.9393 371.789 34.9755 353.197 30.3025 334.922C30.0521 333.974 28.8422 334.395 29.0925 335.343Z" fill="#E8E8E8"/>
<path d="M26.05 359.781C31.0151 362.467 35.0623 367.049 37.6492 373C38.0247 373.895 39.1095 373.105 38.734 372.21C36.0219 365.995 31.8496 361.203 26.6758 358.411C25.9248 358.043 25.2989 359.412 26.05 359.781Z" fill="#E8E8E8"/>
<path d="M37.6913 346.351C36.6064 351.565 35.9389 356.831 35.6885 362.203C35.6468 363.204 36.8985 363.204 36.9402 362.203C37.1488 356.989 37.8164 351.828 38.9012 346.772C39.1099 345.771 37.8999 345.35 37.6913 346.351Z" fill="#E8E8E8"/>
<path d="M542.631 412.184C539.335 402.072 538.375 391.065 540.044 380.321C539.836 380.531 539.627 380.689 539.46 380.9C540.42 380.689 541.129 381.216 541.63 382.533C541.838 383.27 542.923 383.27 542.84 382.322C542.464 377.687 542.464 373 542.923 368.365C543.173 366.048 543.507 363.783 543.966 361.519C544.175 360.465 544.425 359.412 544.675 358.359C544.842 357.779 544.968 357.147 545.134 356.568C545.427 355.725 545.593 354.83 545.593 353.882C545.927 354.145 546.303 354.409 546.636 354.672C548.055 345.034 551.768 336.344 557.276 329.497C556.984 329.497 556.692 329.497 556.4 329.497C558.319 332.078 558.403 335.765 558.695 339.083C558.987 342.559 559.195 346.035 559.32 349.511C559.613 356.305 559.613 363.151 559.32 369.945C558.778 384.007 557.067 397.911 554.23 411.499C554.022 412.5 555.232 412.921 555.44 411.921C558.403 397.543 560.155 382.796 560.614 367.944C560.864 360.465 560.739 352.987 560.322 345.561C560.03 340.241 560.364 332.605 557.234 328.391C556.984 328.075 556.567 328.075 556.358 328.391C550.684 335.396 546.845 344.402 545.385 354.251C545.26 354.988 545.969 355.62 546.428 355.041C546.511 354.935 546.553 354.883 546.636 354.777C546.803 354.567 546.887 354.303 546.803 353.987C546.47 352.776 545.593 352.407 544.842 353.408C544.3 354.093 544.091 355.304 543.841 356.199C543.34 357.99 542.923 359.781 542.548 361.624C541.212 368.418 540.879 375.423 541.463 382.375C541.88 382.322 542.297 382.217 542.673 382.164C542.089 380.321 540.92 379.215 539.293 379.373C539.043 379.373 538.751 379.583 538.709 379.952C537.04 390.959 537.916 402.283 541.296 412.658C541.755 413.501 542.965 413.132 542.631 412.184Z" fill="#E8E8E8"/>
<path d="M561.241 369.682C562.326 360.307 565.289 351.354 569.962 343.875C571.088 342.085 572.256 340.452 573.55 338.872C574.384 337.871 576.262 335.027 577.555 337.397C578.056 338.293 578.014 339.767 578.014 340.821C577.973 345.929 577.43 351.143 576.804 356.252C574.426 376.002 568.835 395.015 560.449 411.973C560.031 412.816 561.116 413.659 561.534 412.763C569.169 397.227 574.51 380.057 577.263 362.098C577.931 357.779 578.432 353.461 578.765 349.089C579.057 345.561 579.934 340.768 578.891 337.345C576.679 329.971 570.129 341.031 568.543 343.612C563.995 351.091 561.075 359.939 560.031 369.261C559.948 370.261 561.158 370.683 561.241 369.682Z" fill="#E8E8E8"/>
<path d="M560.528 365.732C560.027 374.633 559.067 383.428 557.649 392.171C557.482 393.171 558.692 393.593 558.859 392.592C560.319 383.744 561.279 374.791 561.779 365.732C561.821 364.731 560.569 364.731 560.528 365.732Z" fill="#E8E8E8"/>
<path d="M576.631 336.028C569.538 361.15 562.695 386.325 556.061 411.657C555.811 412.605 557.021 413.027 557.271 412.079C563.864 386.746 570.706 361.571 577.841 336.449C578.091 335.501 576.881 335.08 576.631 336.028Z" fill="#E8E8E8"/>
<path d="M556.189 330.129C552.935 357.516 549.639 384.85 546.384 412.237C546.259 413.237 547.469 413.659 547.594 412.658C550.849 385.271 554.145 357.937 557.399 330.551C557.524 329.55 556.314 329.076 556.189 330.129Z" fill="#E8E8E8"/>
<path d="M545.259 353.566C546.636 364.205 548.013 374.791 549.39 385.429C549.515 386.43 550.725 386.009 550.6 385.008C549.223 374.369 547.846 363.783 546.469 353.145C546.344 352.144 545.134 352.565 545.259 353.566Z" fill="#E8E8E8"/>
<path d="M559.32 345.455C556.525 351.459 554.147 357.727 552.186 364.257C551.894 365.205 553.104 365.627 553.396 364.679C555.315 358.306 557.652 352.144 560.405 346.298C560.823 345.35 559.738 344.56 559.32 345.455Z" fill="#E8E8E8"/>
<path d="M564.574 351.67C564.574 360.729 564.574 369.84 564.574 378.899C564.574 379.899 565.826 379.899 565.826 378.899C565.826 369.84 565.826 360.729 565.826 351.67C565.826 350.669 564.574 350.669 564.574 351.67Z" fill="#E8E8E8"/>
<path d="M173.876 433.198C176.63 430.986 179.926 430.301 183.055 431.513C185.767 432.566 188.02 433.988 190.941 433.83C193.653 433.672 196.282 432.777 198.994 432.566C200.454 432.461 201.914 432.513 203.333 433.145C204.752 433.777 205.753 434.725 207.255 434.831C208.048 434.883 208.048 433.303 207.255 433.251C205.544 433.145 204.084 431.618 202.415 431.197C201.08 430.881 199.703 430.881 198.326 431.039C195.406 431.407 192.527 432.461 189.606 432.25C186.56 432.039 183.973 429.722 180.969 429.353C178.215 429.037 175.545 429.985 173.25 431.829C172.583 432.355 173.209 433.725 173.876 433.198Z" fill="#E8E8E8"/>
<path d="M279.936 428.721C284.108 428.563 288.281 428.353 292.411 428.195C294.456 428.089 296.584 427.826 298.628 428.037C300.339 428.195 301.632 429.406 303.218 429.88C304.511 430.249 305.763 429.985 307.056 429.617C309.268 428.985 311.437 428.405 313.732 428.3C317.696 428.037 321.66 428.616 325.582 429.195C326.375 429.301 326.375 427.721 325.582 427.615C321.66 427.036 317.696 426.457 313.732 426.72C311.855 426.825 309.977 427.141 308.141 427.668C305.93 428.3 304.219 428.774 302.091 427.563C299.004 425.877 295.749 426.457 292.495 426.615C288.323 426.773 284.15 426.983 280.02 427.141C279.143 427.194 279.143 428.774 279.936 428.721Z" fill="#E8E8E8"/>
<path d="M429.893 481.757C434.108 482.547 438.238 481.546 442.369 480.545C444.914 479.913 447.459 479.281 450.088 479.176C452.675 479.071 455.095 479.808 457.598 480.545C459.768 481.177 461.854 481.441 464.065 481.125C466.277 480.756 468.404 480.019 470.616 479.703C475.414 478.965 479.92 481.915 484.718 481.546C485.511 481.493 485.511 479.913 484.718 479.966C480.254 480.282 476.082 477.649 471.617 477.965C469.489 478.123 467.445 478.807 465.317 479.281C462.48 479.913 459.976 479.65 457.181 478.807C453.008 477.491 449.128 477.385 444.872 478.333C439.991 479.387 435.151 481.125 430.186 480.229C429.435 480.071 429.101 481.599 429.893 481.757Z" fill="#E8E8E8"/>
<path d="M545.552 430.617C553.896 427.089 562.95 430.407 571.546 428.932C573.965 428.511 576.427 427.984 578.889 428.247C580.933 428.458 582.853 429.459 584.855 429.722C586.942 429.933 588.986 429.195 591.03 428.932C593.576 428.616 596.079 428.827 598.582 429.406C599.375 429.617 599.709 428.089 598.916 427.879C596.83 427.405 594.702 427.141 592.574 427.194C590.321 427.299 588.152 428.089 585.898 428.142C583.771 428.195 581.768 427.036 579.64 426.72C577.345 426.351 575.05 426.72 572.756 427.089C567.874 427.931 563.201 427.879 558.319 427.563C553.855 427.299 549.432 427.247 545.176 429.09C544.467 429.406 544.759 430.933 545.552 430.617Z" fill="#E8E8E8"/>
<path d="M200.454 471.329C234.876 471.329 269.34 471.329 303.762 471.329C304.555 471.329 304.555 469.749 303.762 469.749C269.34 469.749 234.876 469.749 200.454 469.749C199.661 469.749 199.661 471.329 200.454 471.329Z" fill="#161616"/>
<path d="M296.544 479.913C314.235 479.913 331.884 479.913 349.575 479.913C350.367 479.913 350.367 478.333 349.575 478.333C331.884 478.333 314.235 478.333 296.544 478.333C295.709 478.333 295.709 479.913 296.544 479.913Z" fill="#161616"/>
<path d="M431.102 454.739C449.669 454.739 468.278 454.739 486.845 454.739C487.638 454.739 487.638 453.159 486.845 453.159C468.278 453.159 449.669 453.159 431.102 453.159C430.31 453.159 430.31 454.739 431.102 454.739Z" fill="#161616"/>
<path d="M508.122 457.056C519.137 457.056 530.194 457.056 541.209 457.056C542.002 457.056 542.002 455.476 541.209 455.476C530.194 455.476 519.137 455.476 508.122 455.476C507.329 455.476 507.329 457.056 508.122 457.056Z" fill="#161616"/>
<path d="M54.5457 441.045C74.1976 441.045 93.8077 441.045 113.46 441.045C114.252 441.045 114.252 439.465 113.46 439.465C93.8077 439.465 74.1976 439.465 54.5457 439.465C53.753 439.465 53.753 441.045 54.5457 441.045Z" fill="#161616"/>
<path d="M110.747 435.305C121.637 435.305 132.485 435.305 143.375 435.305C144.168 435.305 144.168 433.725 143.375 433.725C132.485 433.725 121.637 433.725 110.747 433.725C109.954 433.725 109.954 435.305 110.747 435.305Z" fill="#161616"/>
<path d="M297.962 448.155C312.231 448.155 326.459 448.155 340.729 448.155C341.521 448.155 341.521 446.575 340.729 446.575C326.459 446.575 312.231 446.575 297.962 446.575C297.127 446.575 297.127 448.155 297.962 448.155Z" fill="#161616"/>
<path d="M451.006 175.184C451.216 171.129 458.909 175.184 461.069 174.815C463.914 174.341 464.546 171.181 467.813 171.866C469.815 172.287 471.712 173.235 473.819 173.025C475.189 172.867 476.19 172.077 477.507 171.708C479.562 171.129 481.617 171.761 483.145 173.235C483.883 173.92 484.989 172.814 484.251 172.129C481.933 169.917 479.035 169.443 476.085 170.549C473.609 171.497 472.133 171.392 469.657 170.655C468.445 170.286 467.181 169.917 465.916 170.075C464.441 170.286 463.861 171.023 462.86 171.919C459.857 174.499 457.697 172.129 454.536 171.655C452.112 171.287 449.636 172.498 449.478 175.184C449.372 176.237 450.953 176.237 451.006 175.184Z" fill="#5222D0"/>
<path d="M460.015 167.179C460.437 163.703 466.549 166.652 468.34 166.81C470.764 167.021 471.343 165.651 473.082 164.387C476.296 162.017 478.614 165.019 481.828 164.861C482.724 164.809 483.198 164.282 483.936 163.861C485.99 162.702 487.992 162.439 489.837 164.177C490.574 164.861 491.681 163.755 490.943 163.071C488.783 161.069 486.201 160.911 483.619 162.07C482.46 162.597 483.145 163.176 481.143 163.176C480.142 163.176 478.878 162.386 477.876 162.123C476.454 161.754 474.979 161.543 473.556 162.123C471.238 163.071 471.132 165.388 467.866 165.125C466.233 165.019 464.81 164.019 463.124 163.913C460.858 163.755 458.646 164.703 458.329 167.126C458.277 168.179 459.857 168.179 460.015 167.179Z" fill="#5222D0"/>
<path d="M67.1781 298.24C69.3383 296.66 71.1824 295.923 73.7114 297.134C74.7124 297.608 75.6608 298.135 76.7673 298.345C79.0855 298.714 81.193 297.555 83.2478 296.66C85.1446 295.817 86.7252 295.343 88.7273 296.397C89.8338 296.976 90.7294 297.766 91.9939 297.977C94.5229 298.451 98.2638 296.028 100.266 297.977C101.004 298.661 102.11 297.555 101.372 296.871C99.4229 294.975 97.0519 295.87 94.6283 296.291C92.995 296.555 91.9413 296.502 90.466 295.659C89.7811 295.238 89.1488 294.711 88.3585 294.448C87.3048 294.079 86.251 294.027 85.1446 294.237C83.722 294.553 82.4048 295.291 81.0349 295.87C78.5586 296.923 76.9253 296.871 74.3963 295.765C71.1824 294.29 69.1276 294.764 66.2298 296.871C65.5975 297.45 66.3878 298.819 67.1781 298.24Z" fill="#5222D0"/>
<path d="M82.4054 290.077C85.9882 286.074 92.0999 290.709 96.5257 289.761C98.159 289.392 99.2127 288.865 100.899 289.445C101.9 289.813 102.743 290.498 103.744 290.867C105.693 291.551 107.537 291.235 109.329 290.393C110.224 289.971 109.434 288.602 108.538 289.023C104.85 290.814 103.217 288.023 100.003 287.496C99.002 287.338 98.2117 287.601 97.2633 287.917C95.4719 288.444 94.102 288.497 92.2053 288.075C88.5172 287.285 84.1968 285.705 81.1936 289.023C80.614 289.708 81.7205 290.814 82.4054 290.077Z" fill="#5222D0"/>
<path d="M88.8339 133.261C84.7243 130.154 87.464 123.202 92.7328 124.361C94.893 124.835 96.737 126.573 96.737 128.89C96.737 131.629 94.4188 134.051 91.7317 134.209C90.7307 134.262 90.7307 135.842 91.7317 135.789C95.1037 135.631 97.9488 132.945 98.3177 129.575C98.6338 126.309 96.2628 123.571 93.1543 122.886C86.0415 121.253 82.6168 130.575 88.0436 134.683C88.8339 135.263 89.6242 133.893 88.8339 133.261Z" fill="#5222D0"/>
<path d="M201.006 285.468C199.056 286.89 197.581 288.786 196.949 291.103C196.211 293.842 198.108 297.687 196.264 299.741C195.105 301.057 193.103 301.953 192.576 303.743C192.365 304.375 192.418 304.955 192.628 305.587C192.892 306.482 193.261 306.64 193.261 307.588C193.261 309.168 191.891 309.853 190.574 310.537C189.678 311.011 190.468 312.381 191.364 311.907C193.05 311.011 195.21 309.537 195.052 307.377C194.947 306.008 193.63 305.165 194.367 303.691C194.841 302.795 196.053 302.111 196.738 301.426C198.055 300.215 198.951 298.951 198.74 297.107C198.477 295.106 197.897 293.579 198.424 291.525C198.951 289.576 200.11 287.996 201.743 286.837C202.586 286.258 201.796 284.889 201.006 285.468Z" fill="#EC615B"/>
<path d="M208.75 290.735C204.271 290.313 203.745 295.843 203.955 299.056C204.061 300.847 204.166 302.637 203.06 304.112C202.48 304.849 201.637 305.429 201.268 306.324C200.952 307.114 201.163 307.746 201.321 308.589C201.795 311.169 200.373 312.855 198.634 314.54C197.896 315.277 199.003 316.383 199.74 315.646C201.11 314.277 202.691 312.697 203.06 310.695C203.218 309.747 202.849 309.01 202.849 308.115C202.849 306.482 203.85 305.903 204.588 304.744C205.747 303.059 205.694 301.005 205.536 299.056C205.378 296.791 205.22 291.999 208.75 292.315C209.804 292.42 209.751 290.84 208.75 290.735Z" fill="#EC615B"/>
<path d="M213.545 95.9733C213.755 92.3393 219.867 93.7087 222.133 92.4973C223.766 91.602 224.714 89.9693 225.61 88.442C226.137 87.5467 226.611 86.546 227.296 85.756C228.666 84.176 230.247 84.3867 232.143 84.2287C234.62 84.018 236.622 82.8067 238.15 80.858C238.782 80.068 237.676 78.962 237.043 79.752C235.568 81.648 233.724 82.5433 231.353 82.7013C230.194 82.754 229.088 82.7013 227.981 83.228C225.979 84.2287 225.031 86.388 223.977 88.2313C223.134 89.6533 222.343 90.812 220.763 91.3913C219.235 91.9707 217.496 91.6547 215.916 92.0233C213.808 92.4973 212.175 93.814 212.017 96.026C211.911 96.974 213.492 96.974 213.545 95.9733Z" fill="#EC615B"/>
<path d="M218.181 102.557C219.761 99.976 222.975 99.344 225.504 98.08C227.77 96.974 228.929 95.552 229.614 93.1293C230.615 89.39 233.513 89.864 236.727 89.39C238.676 89.074 240.257 88.442 241.047 86.4933C241.416 85.5453 239.888 85.124 239.519 86.072C238.518 88.442 234.567 87.8627 232.459 88.3367C230.299 88.758 228.824 89.7587 228.191 91.918C227.612 93.8667 227.401 95.078 225.61 96.184C224.503 96.8687 223.239 97.3427 222.027 97.8693C219.92 98.7647 217.97 99.7653 216.758 101.767C216.284 102.609 217.654 103.399 218.181 102.557Z" fill="#EC615B"/>
<path d="M455.643 344.191C454.378 340.294 458.383 336.291 462.176 338.661C466.338 341.242 464.02 347.141 459.384 347.035C458.383 346.983 458.383 348.563 459.384 348.615C465.285 348.826 468.393 341.295 463.441 337.661C458.593 334.079 452.376 339.135 454.115 344.665C454.431 345.613 455.959 345.192 455.643 344.191Z" fill="#EC615B"/>
<path d="M207.432 396.173C205.957 393.435 207.537 389.432 211.067 389.959C212.49 390.169 213.86 391.223 213.86 392.803C213.86 394.33 212.648 395.857 211.067 395.91C210.066 395.963 210.066 397.543 211.067 397.49C216.02 397.279 216.916 390.275 212.279 388.642C207.169 386.904 203.797 392.697 206.062 396.963C206.589 397.859 207.959 397.069 207.432 396.173Z" fill="#EC615B"/>
<path d="M431.354 86.9673C429.826 85.282 432.039 82.912 433.935 84.018C436.306 85.44 434.884 88.3367 432.671 88.916C431.67 89.1793 432.091 90.7067 433.092 90.4433C436.938 89.4953 438.256 84.0707 434.146 82.3853C430.669 80.9633 427.718 85.3347 430.194 88.0733C430.932 88.8633 432.039 87.7573 431.354 86.9673Z" fill="#EC615B"/>
<path d="M242.099 183.979C240.413 185.349 238.253 187.403 236.251 190.247C234.512 192.722 233.406 195.092 232.721 196.935C234.301 197.673 237.673 199.516 238.358 202.781C239.149 206.363 236.198 209.628 232.299 213.841C229.718 216.58 225.766 220.267 219.97 223.637C218.969 223.637 216.967 223.532 214.754 222.373C212.12 220.951 210.856 218.845 210.381 218.002C208.168 218.634 205.323 219.687 202.215 221.531C199.317 223.269 197.104 225.165 195.523 226.745C196.261 228.43 198.474 233.065 203.479 235.066C205.429 235.856 207.905 236.277 212.489 235.487C217.125 234.697 223.395 232.801 230.824 227.745C241.414 220.53 246.683 212.103 248.158 209.575C251.846 203.308 254.481 198.831 252.953 193.723C251.003 187.35 243.733 184.559 242.099 183.979Z" fill="#161616"/>
<path d="M210.49 206.837C213.335 202.834 217.234 199.832 221.765 198.041C222.713 197.673 222.292 196.145 221.343 196.514C216.391 198.463 212.228 201.675 209.12 206.047C208.488 206.889 209.857 207.679 210.49 206.837Z" fill="#161616"/>
<path d="M201.796 207.785C206.063 198.463 214.335 191.616 224.346 189.141C225.347 188.877 224.925 187.35 223.924 187.613C213.598 190.141 204.904 197.304 200.426 206.942C200.004 207.943 201.321 208.733 201.796 207.785Z" fill="#161616"/>
<path d="M194.473 209.47C195.685 202.202 199.636 195.829 205.274 191.037C210.648 186.455 218.92 181.504 226.244 182.452C227.245 182.557 227.245 180.977 226.244 180.872C218.762 179.924 210.437 184.822 204.8 189.351C198.688 194.302 194.262 201.201 192.945 208.996C192.787 210.049 194.315 210.471 194.473 209.47Z" fill="#161616"/>
<path d="M284.411 444.521C284.622 451.368 284.78 458.215 284.99 465.061C263.231 471.487 252.535 475.7 252.904 477.701C253.378 480.229 270.817 479.387 305.222 475.173C304.485 463.481 303.747 451.737 302.957 440.045C296.792 441.519 290.628 442.994 284.411 444.521Z" fill="#161616" stroke="#161616" stroke-width="2" stroke-miterlimit="10"/>
<path d="M353.275 309.537C350.114 310.485 350.799 310.853 333.728 323.967C315.656 337.819 306.647 344.771 300.377 348.299C296.741 350.353 293.791 351.828 290.155 355.199C284.149 360.834 281.093 367.259 278.722 373.527C271.346 393.066 270.24 411.763 270.029 420.084C269.818 427.773 269.976 438.623 271.82 451.631C277.51 453.001 282.252 453.369 285.624 453.422C291.473 453.527 299.797 453.633 308.438 449.209C310.967 447.892 312.916 446.523 314.128 445.627C312.6 436.621 311.441 425.298 312.021 412.289C312.495 401.809 313.918 392.592 315.604 384.955C318.396 382.849 322.664 379.847 328.196 376.845C334.571 373.421 340.946 370.893 358.544 365.732C379.619 359.57 380.356 360.255 383.465 357.621C391.526 350.88 397.322 337.292 392.791 325.495C386.89 309.958 366.131 305.797 353.275 309.537Z" fill="white"/>
<path d="M345.158 314.856C335.411 321.65 325.716 328.497 315.969 335.291C307.328 341.347 298.055 347.035 290.152 354.145C282.565 360.939 278.35 369.419 275.611 379.109C272.607 389.853 270.658 400.966 269.657 412.079C268.498 424.877 268.761 437.727 270.236 450.473C270.342 451.473 271.922 451.473 271.817 450.473C269.235 428.669 270.5 406.496 275.663 385.219C278.14 374.949 281.406 365.047 289.046 357.411C296.422 350.037 305.695 344.455 314.178 338.503C324.768 331.077 335.358 323.651 345.948 316.225C346.791 315.646 346.001 314.277 345.158 314.856Z" fill="#161616"/>
<path d="M375.035 359.517C363.443 362.835 352.01 366.522 340.735 370.735C335.782 372.579 330.724 374.422 325.877 376.581C321.873 378.372 318.132 380.637 315.814 384.481C315.287 385.377 316.657 386.167 317.184 385.271C319.713 381.005 324.244 378.899 328.617 377.108C333.675 375.054 338.786 373.105 343.949 371.209C354.328 367.417 364.813 364.047 375.403 361.045C376.404 360.781 375.983 359.254 375.035 359.517Z" fill="#161616"/>
<path d="M316.497 376.581C311.017 398.965 310.016 422.243 313.546 444.995C313.704 445.996 315.232 445.575 315.074 444.574C311.597 422.085 312.598 399.07 318.025 377.003C318.235 376.002 316.707 375.581 316.497 376.581Z" fill="#161616"/>
<path d="M270.923 450.42C271.186 453.369 275.77 452.895 277.772 453.106C282.62 453.58 287.467 453.949 292.367 453.685C300.27 453.264 308.015 451.052 314.232 445.996C315.022 445.364 313.916 444.258 313.126 444.89C307.804 449.209 301.218 451.315 294.474 451.947C290.997 452.263 287.52 452.263 284.042 452.053C282.778 452 272.609 451.737 272.504 450.42C272.398 449.419 270.818 449.419 270.923 450.42Z" fill="#161616"/>
<path opacity="0.11" d="M374.559 341.769C367.288 338.082 358.964 347.509 338.415 356.884C321.608 364.573 317.446 362.677 310.86 366.68C299.269 373.685 288.995 393.645 296.371 451.631C298.004 451.631 299.901 451.473 302.008 451.052C307.541 449.893 311.492 447.26 313.863 445.417C312.019 433.883 310.913 419.347 312.704 402.757C313.442 395.752 314.601 389.327 315.971 383.533C320.976 380.637 328.774 376.476 338.784 372.579C363.073 363.046 378.142 363.625 380.565 355.093C381.83 350.301 378.879 343.928 374.559 341.769Z" fill="#666666"/>
<path opacity="0.12" d="M369.239 361.308C368.976 359.886 351.905 360.623 333.991 366.627C322.558 370.419 316.341 372.526 310.914 378.477C302.273 387.852 301.799 399.913 301.114 416.661C300.798 424.613 301.009 436.095 303.801 449.841C307.279 448.735 310.703 447.681 314.181 446.575C312.864 436.779 312.021 424.982 312.706 411.657C313.232 401.703 314.444 392.803 315.972 385.008C317.5 383.375 319.818 381.058 323.085 378.793C330.198 373.79 336.468 372.526 343.844 370.525C353.38 367.839 369.503 362.677 369.239 361.308Z" fill="#666666"/>
<path d="M457.594 408.655C469.08 404.916 478.827 402.809 485.94 401.545C496.108 399.755 498.479 400.123 500.376 401.545C503.643 403.968 502.958 407.549 504.17 429.88C504.591 437.201 504.802 439.044 503.327 441.309C498.321 449.261 481.672 448.893 480.407 445.417C479.933 444.047 481.514 441.519 489.417 436.411C489.154 431.407 488.89 426.404 488.574 421.401C479.564 423.56 470.555 425.772 461.598 427.931C460.333 421.559 458.964 415.133 457.594 408.655Z" fill="#161616" stroke="#161616" stroke-width="2" stroke-miterlimit="10"/>
<path d="M365.55 317.963C362.072 326.127 364.549 334.869 365.708 338.977C367.025 343.717 368.289 344.349 370.397 350.722C372.662 357.569 373.347 362.519 374.296 368.471C375.666 377.161 377.246 387.062 379.723 396.963C382.778 409.182 384.464 415.449 389.522 422.243C391.735 425.245 396.951 431.987 406.119 435.568C407.858 436.253 410.176 436.99 415.919 437.727C422.241 438.57 432.041 439.834 445.002 438.254C456.067 436.937 465.287 433.988 472.189 431.197C473.559 426.141 473.506 421.927 473.296 419.241C472.979 415.871 472.453 409.603 467.869 404.284C466.552 402.757 464.602 400.545 461.336 399.386C457.753 398.175 454.539 398.965 448.849 400.492C442.263 402.23 439.839 404.126 435.519 403.231C433.675 402.862 432.305 402.125 431.462 401.598C430.197 399.649 428.459 396.7 426.825 392.908C422.558 383.007 422.241 375.054 421.662 366.311C420.345 346.614 419.66 336.765 416.498 325.863C413.179 314.435 412.231 308.694 407.278 305.218C402.167 301.637 396.372 301.9 392.789 302.058C383.99 302.427 370.397 306.64 365.55 317.963Z" fill="white"/>
<path d="M409.806 308.852C418.447 326.969 419.132 347.299 421.028 366.891C422.398 381.058 423.61 400.492 437.994 407.971C438.89 408.445 439.68 407.075 438.784 406.601C431.408 402.757 427.72 395.173 425.665 387.431C423.452 378.951 422.872 370.051 422.135 361.308C420.554 343.191 419.132 324.705 411.229 308.009C410.754 307.114 409.385 307.904 409.806 308.852Z" fill="#161616"/>
<path d="M366.97 344.929C376.243 365.943 373.925 389.906 382.935 410.973C386.518 419.399 391.892 427.299 399.531 432.513C408.804 438.781 420.87 440.045 431.776 439.887C445.528 439.676 459.068 436.516 471.819 431.513C472.767 431.144 472.345 429.617 471.397 429.985C460.28 434.357 448.583 437.359 436.623 438.096C425.243 438.833 412.282 438.254 402.218 432.355C384.568 421.98 379.879 399.702 377.034 381.111C375.137 368.523 373.451 355.831 368.235 344.086C367.919 343.243 366.549 344.033 366.97 344.929Z" fill="#161616"/>
<path d="M430.46 401.861C439.997 407.444 450.903 396.7 460.966 399.965C466.551 401.809 469.291 407.813 470.819 413.079C472.505 418.767 472.716 424.719 471.557 430.512C471.346 431.513 472.874 431.934 473.085 430.933C474.138 425.456 474.086 419.821 472.821 414.396C471.609 409.445 469.502 403.81 465.34 400.545C461.493 397.49 456.383 397.437 451.746 398.333C445.529 399.544 437.362 404.126 431.251 400.545C430.355 400.018 429.565 401.335 430.46 401.861Z" fill="#161616"/>
<path opacity="0.11" d="M402.01 308.167C393.159 316.857 411.02 335.975 411.336 368.102C411.6 393.224 405.646 403.652 413.654 412.079C425.14 424.139 451.115 417.187 453.96 416.397C458.491 415.133 468.186 413.29 468.976 408.392C469.45 405.179 466.078 401.545 462.654 399.755C452.222 394.225 442.474 406.443 433.307 402.441C426.405 399.386 424.877 389.274 421.979 370.472C419.608 355.041 421.083 351.775 418.291 334.817C416.236 322.335 413.602 306.745 407.279 305.85C404.75 305.429 402.432 307.693 402.01 308.167Z" fill="#666666"/>
<path opacity="0.17" d="M416.34 328.813C415.497 328.865 415.445 338.977 415.339 351.459C415.076 386.904 417.078 394.435 421.662 401.071C423.559 403.81 427.141 408.866 433.675 411.71C448.111 418.083 467.289 409.709 467.342 404.389C467.342 401.703 462.442 399.702 461.652 399.386C456.646 397.385 452.8 399.333 442.631 401.071C438.416 401.809 434.834 402.177 432.305 402.388C430.408 400.018 427.774 396.331 425.666 391.381C421.609 382.059 421.925 374.475 421.662 366.417C421.082 346.509 417.394 328.76 416.34 328.813Z" fill="#666666"/>
<path d="M220.555 241.017C220.661 239.806 223.453 239.174 225.139 238.805C232.041 237.278 237.995 238.437 239.575 239.069C242.526 240.227 245.476 241.386 248.48 242.545C248.638 241.649 249.112 239.753 250.64 238.331C253.38 235.856 257.278 236.804 258.332 237.12C259.702 237.489 261.862 238.331 265.55 242.334C269.344 246.442 269.871 248.549 272.031 251.235C277.036 257.449 284.571 259.082 288.364 259.872C291.683 260.609 298.375 262.031 305.909 258.871C312.548 256.08 316.288 251.182 317.922 248.97C319.502 246.811 320.029 245.547 323.191 238.331C329.618 223.637 331.673 219.108 336.152 214.579C338.575 212.103 341.526 209.207 344.582 209.891C348.322 210.734 349.903 216.58 350.588 219.055C351.326 221.794 352.274 227.008 350.114 236.119C349.376 239.279 346.847 248.601 339.524 258.871C336.468 263.19 332.2 269.036 324.613 273.987C321.294 276.146 315.867 279.622 308.016 280.675C301.062 281.623 295.74 280.201 291.209 278.937C286.204 277.568 277.879 274.513 269.08 267.298C263.443 267.561 259.122 267.93 256.119 268.299C251.009 268.878 248.848 269.352 246.53 268.035C245.74 267.561 244.581 266.719 242.947 266.824C241.419 266.929 240.893 267.772 239.575 268.035C238.1 268.351 235.677 268.088 234.307 266.297C233.2 264.875 233.306 263.085 233.358 262.505C232.463 261.715 231.04 260.241 230.355 258.029C229.881 256.501 229.934 255.237 229.934 253.815C229.986 252.13 229.986 251.287 230.408 250.603C231.62 248.496 235.097 248.601 235.624 248.654C233.938 247.39 232.41 246.705 231.462 246.337C228.195 245.02 226.456 245.441 223.453 243.809C222.241 243.071 220.45 242.071 220.555 241.017Z" fill="white"/>
<path d="M345.055 209.207C340.471 207.469 337.046 211.313 334.623 214.737C330.987 219.845 327.879 225.323 325.244 231.011C320.292 241.86 316.92 254.5 306.751 261.768C305.908 262.347 306.698 263.717 307.541 263.137C315.761 257.186 319.87 247.864 323.611 238.753C325.877 233.275 328.3 227.903 331.251 222.795C332.726 220.319 334.254 217.844 335.94 215.527C337.942 212.735 340.629 209.259 344.581 210.734C345.582 211.103 346.003 209.575 345.055 209.207Z" fill="#161616"/>
<path d="M252.906 243.493C250.64 244.23 249.745 241.439 250.43 239.911C250.956 238.7 252.326 238.068 253.485 237.699C255.698 237.067 258.227 237.489 260.282 238.489C263.707 240.175 265.656 243.598 267.764 246.653C271.452 252.025 276.352 256.343 282.305 258.977C294.16 264.191 308.017 261.399 317.132 252.235C317.87 251.498 316.71 250.392 316.025 251.129C309.808 257.449 301.01 260.82 292.158 259.977C283.096 259.135 274.877 253.868 269.608 246.547C265.709 241.017 260.809 233.591 252.748 236.277C250.482 237.015 248.269 239.016 248.638 241.597C248.954 243.914 251.062 245.757 253.38 244.967C254.276 244.704 253.854 243.177 252.906 243.493Z" fill="#161616"/>
<path d="M247.425 241.333C243.21 239.227 238.784 237.594 234.095 237.12C229.985 236.699 224.242 236.857 220.87 239.648C217.814 242.176 221.818 243.809 223.979 244.704C228.931 246.758 234.516 247.39 239.311 249.865C240.206 250.339 240.997 248.97 240.101 248.496C237.15 246.969 233.989 246.231 230.828 245.336C229.142 244.862 227.509 244.335 225.875 243.703C224.98 243.387 223.188 243.019 222.503 242.281C221.292 241.017 222.819 240.227 223.979 239.806C231.302 236.804 239.943 239.332 246.687 242.703C247.53 243.124 248.32 241.755 247.425 241.333Z" fill="#161616"/>
<path d="M238.94 248.865C236.674 247.495 233.829 247.337 231.564 248.759C229.72 249.865 228.192 252.288 229.035 254.447C229.983 256.923 233.671 257.186 235.831 257.607C239.151 258.187 242.312 258.187 245.368 256.659C246.264 256.185 245.473 254.816 244.578 255.29C241.153 257.028 237.359 256.396 233.724 255.553C232.301 255.237 232.249 255.29 231.353 253.763C230.194 252.815 230.247 251.814 231.406 250.866C231.722 250.603 232.038 250.392 232.354 250.129C234.145 249.023 236.358 249.181 238.15 250.234C238.993 250.761 239.783 249.391 238.94 248.865Z" fill="#161616"/>
<path d="M229.879 255.343C228.826 258.239 230.195 261.241 232.883 262.663C236.36 264.507 240.312 263.137 243.631 261.821C244.579 261.452 244.158 259.925 243.209 260.293C240.996 261.189 238.573 262.137 236.149 261.926C232.988 261.663 230.195 259.082 231.407 255.764C231.723 254.816 230.195 254.395 229.879 255.343Z" fill="#161616"/>
<path d="M232.357 261.979C231.409 264.928 233.78 267.403 236.467 268.193C240.419 269.299 243.58 267.087 246.425 264.612C247.215 263.927 246.056 262.821 245.319 263.506C243.527 265.033 241.683 266.666 239.26 266.877C236.836 267.087 232.832 265.613 233.885 262.4C234.202 261.452 232.674 261.031 232.357 261.979Z" fill="#161616"/>
<path d="M241.525 251.656C243.106 252.183 245.529 253.605 244.265 255.553C243.738 256.396 245.108 257.186 245.635 256.343C246.372 255.185 246.32 253.657 245.529 252.499C244.739 251.235 243.316 250.55 241.894 250.129C240.945 249.813 240.524 251.34 241.525 251.656Z" fill="#161616"/>
<path d="M243.791 257.028C244.897 258.239 244.423 260.135 242.843 260.609C241.894 260.873 242.263 262.4 243.264 262.137C246.057 261.347 246.847 257.976 244.95 255.869C244.212 255.185 243.106 256.291 243.791 257.028Z" fill="#161616"/>
<path d="M244.528 260.925C245.582 261.505 245.74 263.085 244.897 263.875C244.159 264.559 245.266 265.718 246.003 264.981C247.584 263.453 247.268 260.609 245.319 259.556C244.476 259.082 243.633 260.451 244.528 260.925Z" fill="#161616"/>
<path d="M246.371 242.597C247.53 243.124 248.689 243.703 249.848 244.23C250.744 244.651 251.587 243.282 250.638 242.861C249.479 242.334 248.32 241.755 247.161 241.228C246.265 240.807 245.475 242.176 246.371 242.597Z" fill="#161616"/>
<path d="M253.535 245.02C254.694 244.019 256.274 243.598 257.802 243.967C258.803 244.177 259.225 242.65 258.224 242.439C256.116 241.965 254.061 242.492 252.428 243.914C251.638 244.599 252.744 245.705 253.535 245.02Z" fill="#161616"/>
<path d="M254.431 246.916C252.956 251.287 254.694 256.133 258.646 258.503C259.542 259.029 260.332 257.66 259.436 257.133C256.064 255.132 254.694 250.971 255.959 247.337C256.275 246.337 254.747 245.915 254.431 246.916Z" fill="#161616"/>
<path d="M243.314 267.087C246.475 269.352 249.899 269.826 253.64 269.089C258.856 268.141 263.862 267.667 269.183 268.246C270.184 268.351 270.184 266.771 269.183 266.666C265.073 266.192 260.964 266.245 256.854 266.877C252.165 267.614 248.319 268.72 244.104 265.718C243.261 265.139 242.471 266.508 243.314 267.087Z" fill="#161616"/>
<path d="M267.814 267.561C275.348 271.143 282.303 275.935 290.1 278.885C297.266 281.571 305.116 282.097 312.598 280.254C320.29 278.358 326.507 273.829 331.934 268.193C337.572 262.4 342.63 255.869 346.213 248.549C350.428 240.017 352.482 230.537 351.429 221.057C351.323 220.056 349.743 220.056 349.848 221.057C351.007 231.485 348.32 241.86 343.157 250.919C338.362 259.345 331.565 267.772 323.61 273.46C315.601 279.148 305.222 281.044 295.633 278.885C285.833 276.673 277.561 270.405 268.551 266.139C267.708 265.771 266.918 267.14 267.814 267.561Z" fill="#161616"/>
<path opacity="0.16" d="M347.163 215.316C345.108 215.421 345.371 224.164 342.895 233.117C339.26 246.073 328.828 263.085 313.495 268.299C302.642 271.985 291.683 268.931 274.243 264.033C268.711 262.505 258.964 259.293 245.476 258.45C234.359 257.765 231.619 259.345 231.514 260.188C231.461 260.715 232.462 261.083 233.042 262.769C233.516 264.191 232.989 264.665 233.463 265.56C234.306 267.193 236.835 267.403 237.731 267.509C239.944 267.719 241.735 266.929 242.683 266.455C243.685 266.929 245.265 267.561 247.215 267.983C251.008 268.773 253.168 268.035 257.963 267.561C262.915 267.087 266.182 266.771 269.765 267.772C273.19 268.72 274.77 270.3 277.721 272.301C278.616 272.881 287.046 278.516 297.478 280.254C300.745 280.781 308.227 281.939 316.551 278.727C321.293 276.936 324.296 274.461 327.721 271.669C329.881 269.879 339.523 261.663 346.583 246.337C349.692 239.648 352.221 234.013 351.536 226.587C350.956 221.162 348.901 215.211 347.163 215.316Z" fill="#666666"/>
<path opacity="0.17" d="M246.317 262.505C248.846 261.241 251.797 262.295 252.956 262.716C259.542 264.981 260.174 263.401 270.132 264.875C278.351 266.087 278.668 268.457 289.468 271.933C299.848 275.303 308.225 277.989 316.497 275.356C328.246 271.617 333.673 259.767 334.095 260.135C334.516 260.451 329.774 271.933 318.447 277.305C308.173 282.203 297.477 279.727 294.421 279.043C289.468 277.884 285.464 275.988 281.091 273.881C275.98 271.459 271.976 268.931 269.078 267.035C265.39 266.877 262.492 267.193 260.49 267.456C255.59 268.193 253.536 269.299 249.531 268.72C248.478 268.562 244.105 267.93 243.736 265.929C243.525 264.612 244.948 263.19 246.317 262.505Z" fill="#666666"/>
<path d="M339.523 211.208C338.1 212.946 336.256 215.843 334.886 238.858C334.149 251.603 333.411 264.981 334.517 284.625C334.992 292.631 335.887 303.585 337.731 316.541C343.632 319.912 354.381 324.915 368.606 325.758C391.42 327.127 408.069 316.805 413.654 313.013C410.809 307.377 406.91 298.635 404.434 287.469C401.378 273.776 402.853 267.719 401.22 250.919C399.06 228.693 398.006 217.581 391.262 210.839C378.353 197.883 350.007 198.305 339.523 211.208Z" fill="#EC615B"/>
<path opacity="0.22" d="M368.238 201.728C371.979 207.311 376.774 215.579 380.567 226.323C382.2 231.011 390.314 255.132 384.413 286.153C381.305 302.637 375.246 315.909 369.45 325.705C373.507 325.969 378.249 325.916 383.465 325.231C397.322 323.335 407.701 317.595 413.866 313.381C411.916 309.8 409.44 304.744 407.332 298.424C406.911 297.055 404.856 290.893 403.486 281.307C402.538 274.777 402.696 272.617 402.064 261.979C401.906 259.503 401.273 249.444 399.903 237.857C397.901 220.899 396.373 217.212 393.844 213.947C390.262 209.312 385.731 206.837 383.728 205.731C377.406 202.465 371.505 201.833 368.238 201.728Z" fill="#666666"/>
<path opacity="0.22" d="M399.956 241.281C399.166 249.813 398.112 258.608 396.848 267.667C393.95 288.101 390.104 307.114 385.73 324.547C389.313 324.073 393.897 323.125 398.902 321.176C405.436 318.648 410.336 315.277 413.655 312.644C406.647 300.32 404.224 289.997 403.328 282.624C402.432 275.198 402.749 268.035 401.01 250.55C400.588 246.653 400.22 243.44 399.956 241.281Z" fill="#666666"/>
<path d="M318.025 148.535C316.971 151.115 317.024 154.17 317.024 160.332C317.024 164.703 317.077 170.813 319.342 178.028C321.081 183.611 322.767 189.193 327.983 194.144C329.458 195.566 335.833 201.623 344.843 201.623C346.582 201.623 348.057 201.412 349.005 201.201C349.427 202.781 350.322 204.993 352.008 207.258C352.904 208.417 353.8 209.312 354.59 209.997C355.855 209.997 359.069 209.786 362.388 207.679C365.549 205.625 367.024 202.939 367.551 201.781C366.603 200.833 364.127 198.041 363.968 193.986C363.916 192.88 364.074 191.932 364.232 191.089C365.971 188.877 367.815 185.981 369.395 182.452C370.186 180.714 370.765 179.081 371.292 177.554C372.082 177.765 373.663 178.028 375.191 177.291C376.824 176.448 377.404 174.815 378.089 172.814C379.09 169.865 380.196 166.547 378.826 163.597C377.509 160.806 375.454 161.438 373.663 158.857C370.923 155.013 373.61 151.115 372.504 146.902C370.818 140.424 361.439 137.633 357.804 136.527C342.893 132.103 322.661 137.053 318.025 148.535Z" fill="white"/>
<path d="M316.655 156.119C317.972 156.329 318.815 154.275 320.87 152.221C322.978 150.167 326.508 148.008 332.83 147.429C337.994 146.902 343.157 146.323 348.32 145.796C349.954 145.901 353.694 146.323 357.435 148.903C360.438 151.01 362.072 153.538 362.862 154.907C364.495 154.96 366.076 155.065 367.709 155.118C368.025 157.067 368.394 159.015 368.71 160.964C368.921 160.753 371.766 158.225 374.717 159.173C377.088 159.911 378.089 162.439 378.51 163.597C379.827 166.81 378.932 169.391 379.722 169.601C380.67 169.917 382.515 166.441 382.725 165.967C383.199 165.072 384.727 161.965 385.149 157.119C385.465 153.169 385.676 150.536 384.148 148.061C383.621 147.218 383.094 146.691 382.936 145.638C382.673 143.637 384.253 142.531 385.149 140.635C385.623 139.634 385.728 138.686 384.359 131.418C382.883 123.623 382.356 122.57 381.566 122.359C380.512 122.149 379.564 123.571 378.352 124.782C376.245 126.941 372.609 129.311 365.865 130.207C365.865 127.837 365.549 125.941 365.286 124.571C364.812 122.465 364.548 122.465 362.862 117.514C361.914 114.723 361.703 113.564 361.071 113.511C360.017 113.406 359.648 116.092 357.172 117.04C356.065 117.461 355.644 117.093 354.169 117.303C352.851 117.461 351.06 118.041 349.005 119.779C349.005 119.779 345.844 121.938 340.575 124.624C334.727 127.573 332.777 124.361 326.718 127.047C322.187 129.048 319.448 132.629 318.288 134.262C317.129 135.895 313.863 140.635 313.863 147.165C313.757 150.905 314.811 155.855 316.655 156.119Z" fill="#5222D0"/>
<path d="M316.707 158.225C315.812 167.179 317.287 176.29 321.08 184.453C324.294 191.353 329.405 198.199 336.781 200.938C344.316 203.729 352.956 201.675 359.226 196.935C365.601 192.09 369.606 184.875 371.976 177.343C372.293 176.395 370.765 175.974 370.449 176.922C368.183 184.085 364.389 190.984 358.33 195.619C352.061 200.359 343.262 202.36 335.938 198.884C329.352 195.777 324.927 189.299 322.081 182.821C318.657 175.079 317.445 166.599 318.288 158.225C318.393 157.225 316.813 157.225 316.707 158.225Z" fill="#161616"/>
<path d="M369.817 162.175C370.555 158.963 374.296 159.068 376.193 161.122C377.826 162.807 378.195 165.283 378.247 167.547C378.353 171.339 376.983 178.344 371.556 176.606C370.608 176.29 370.186 177.817 371.135 178.133C378.827 180.609 380.513 169.917 379.565 164.756C378.985 161.754 377.036 158.541 373.716 158.12C371.187 157.804 368.869 159.384 368.289 161.859C368.079 162.702 369.607 163.123 369.817 162.175Z" fill="#161616"/>
<path d="M336.255 158.857C335.044 161.385 333.832 163.861 332.673 166.389C332.093 167.705 331.461 169.022 331.566 170.549C331.83 173.657 334.569 175.711 337.415 176.395C338.416 176.659 338.837 175.131 337.836 174.868C334.411 174.025 332.304 171.287 333.779 167.811C334.938 165.072 336.308 162.386 337.625 159.647C338.047 158.752 336.677 157.962 336.255 158.857Z" fill="#161616"/>
<path d="M328.561 165.757C328.245 165.388 328.034 164.914 327.981 164.44C327.928 164.229 327.928 163.966 327.981 163.755C327.981 163.597 328.245 163.123 328.245 163.018C328.139 163.018 328.086 163.071 327.981 163.071C328.034 163.229 328.034 163.387 328.034 163.545C328.034 163.808 328.034 164.071 328.034 164.335C327.981 165.019 327.823 165.651 327.56 166.283C327.981 166.178 328.455 166.073 328.877 165.915C328.35 165.441 328.139 164.967 328.192 164.229C328.297 163.229 326.717 163.229 326.611 164.229C326.506 165.283 326.927 166.336 327.77 167.021C328.245 167.442 328.877 167.231 329.088 166.652C329.562 165.441 329.772 164.071 329.562 162.807C329.404 161.912 328.666 161.017 327.718 161.438C326.822 161.807 326.453 163.071 326.453 164.019C326.453 165.072 326.822 166.073 327.56 166.863C328.139 167.653 329.246 166.494 328.561 165.757Z" fill="#161616"/>
<path d="M348.687 164.967C348.529 164.545 348.423 164.177 348.423 163.755C348.423 163.545 348.476 163.334 348.529 163.123C348.529 163.071 348.581 162.965 348.581 162.913C348.687 162.755 348.634 162.755 348.371 162.913C348.371 162.965 348.476 163.229 348.476 163.334C348.476 163.545 348.476 163.755 348.423 163.966C348.318 164.44 348.107 164.861 347.844 165.23C348.265 165.283 348.687 165.335 349.108 165.388C348.476 164.493 348.529 163.439 349.214 162.544C348.792 162.597 348.371 162.649 347.949 162.702C348.476 163.334 348.107 164.282 347.475 164.598C347.844 164.756 348.265 164.914 348.634 165.072C348.476 164.651 348.371 164.282 348.318 163.808C348.318 163.545 348.371 163.281 348.371 163.018C348.371 162.913 348.423 162.86 348.423 162.755C348.265 162.544 348.212 162.491 348.318 162.649C348.476 163.071 348.581 163.387 348.529 163.861C348.529 164.071 348.423 164.387 348.423 164.545C348.423 164.651 348.371 164.703 348.371 164.809C348.739 164.756 348.792 164.651 348.581 164.44C348.002 163.597 346.632 164.387 347.211 165.23C347.791 166.073 349.056 166.81 349.74 165.599C350.267 164.598 350.267 162.86 349.74 161.912C349.161 160.911 347.791 160.595 347.106 161.701C346.474 162.755 346.632 164.335 347.053 165.441C347.264 165.915 347.738 166.178 348.213 165.915C349.846 165.072 350.162 162.913 349.003 161.543C348.634 161.122 348.054 161.333 347.738 161.701C346.79 162.965 346.737 164.809 347.633 166.125C347.896 166.494 348.529 166.705 348.897 166.283C349.846 165.072 350.847 162.228 348.95 161.333C348.107 160.964 347.37 161.491 347.106 162.281C346.737 163.281 346.737 164.387 347.159 165.335C347.58 166.283 349.108 165.915 348.687 164.967Z" fill="#161616"/>
<path d="M331.828 156.119C329.088 154.328 325.506 155.171 323.767 157.857C323.24 158.699 324.61 159.489 325.137 158.647C326.401 156.645 329.036 156.171 331.038 157.435C331.881 158.015 332.671 156.645 331.828 156.119Z" fill="#161616"/>
<path d="M346.369 156.54C348.793 154.486 352.534 155.118 353.64 158.225C353.956 159.173 355.484 158.752 355.168 157.804C353.64 153.538 348.582 152.537 345.263 155.434C344.525 156.066 345.632 157.172 346.369 156.54Z" fill="#161616"/>
<path d="M348.32 201.781C349.163 204.888 350.797 207.679 353.167 209.891C353.905 210.576 355.011 209.47 354.274 208.785C352.114 206.731 350.586 204.256 349.848 201.359C349.532 200.359 348.004 200.78 348.32 201.781Z" fill="#161616"/>
<path d="M362.861 192.037C363.335 195.566 364.547 198.779 366.601 201.728C367.181 202.571 368.551 201.781 367.971 200.938C366.074 198.252 364.863 195.303 364.441 192.037C364.336 191.089 362.755 191.037 362.861 192.037Z" fill="#161616"/>
<path d="M353.273 210.155C358.963 212.103 365.496 207.521 367.604 202.307C367.973 201.359 366.445 200.938 366.076 201.886C364.285 206.31 358.436 210.26 353.694 208.627C352.746 208.311 352.324 209.839 353.273 210.155Z" fill="#161616"/>
<path d="M349.267 202.623C353.061 201.991 356.433 200.201 359.12 197.462C359.805 196.725 358.698 195.619 358.013 196.356C355.484 198.937 352.376 200.517 348.846 201.149C347.845 201.307 348.266 202.781 349.267 202.623Z" fill="#161616"/>
<path d="M350.162 203.677C354.588 202.413 359.593 198.937 361.595 194.723C362.017 193.828 360.647 192.985 360.225 193.933C358.381 197.778 353.797 201.043 349.688 202.202C348.739 202.465 349.161 203.94 350.162 203.677Z" fill="#161616"/>
<path d="M316.97 152.221C313.967 148.693 315.179 142.373 316.654 138.37C318.445 133.472 321.975 129.785 327.086 128.363C331.565 127.099 336.359 127.257 340.732 125.572C345.579 123.676 349.109 118.462 354.694 118.831C355.695 118.883 355.695 117.303 354.694 117.251C348.319 116.829 344.42 122.939 338.677 124.571C333.145 126.204 326.981 125.625 321.975 128.837C318.024 131.365 315.548 135.631 314.441 140.108C313.335 144.374 312.755 149.799 315.811 153.327C316.496 154.117 317.655 153.011 316.97 152.221Z" fill="#5222D0"/>
<path d="M333.829 146.27C333.408 142.425 334.251 138.633 336.516 135.473C339.045 131.945 342.892 130.365 346.685 128.574C349.846 127.099 352.744 125.256 355.01 122.57C357.223 120.042 358.329 116.303 361.121 114.354C360.753 114.249 360.384 114.143 360.015 114.091C362.649 120.253 367.918 127.784 363.176 134.315C362.597 135.157 363.967 135.947 364.546 135.105C369.657 128.047 364.23 119.989 361.385 113.301C361.227 112.932 360.647 112.774 360.278 113.037C357.223 115.091 356.169 118.778 353.798 121.464C350.689 125.098 346.632 126.731 342.47 128.732C335.621 132.05 331.248 138.475 332.143 146.27C332.354 147.271 333.987 147.271 333.829 146.27Z" fill="#5222D0"/>
<path d="M348.741 145.533C352.113 139.265 357.645 134.367 364.389 131.997C367.55 130.891 370.869 130.259 373.873 128.732C376.77 127.31 379.247 125.309 381.407 122.939C380.985 122.886 380.564 122.833 380.142 122.781C382.092 126.941 383.936 131.629 384.305 136.211C384.674 141.161 381.934 144.953 378.931 148.587C378.298 149.377 379.405 150.483 380.037 149.693C383.04 146.007 385.991 142.109 385.885 137.159C385.78 131.945 383.62 126.625 381.46 121.991C381.249 121.517 380.564 121.464 380.195 121.833C377.455 124.782 374.189 127.099 370.395 128.469C367.181 129.627 363.809 130.259 360.701 131.787C354.958 134.578 350.269 139.16 347.265 144.743C346.897 145.638 348.266 146.428 348.741 145.533Z" fill="#5222D0"/>
<path d="M381.933 145.849C385.727 153.222 385.042 161.965 380.195 168.653C379.615 169.496 380.985 170.286 381.565 169.443C386.781 162.281 387.36 152.906 383.303 145.059C382.829 144.163 381.459 144.953 381.933 145.849Z" fill="#5222D0"/>
<path opacity="0.14" d="M362.334 154.381C362.492 156.961 362.598 160.701 362.334 165.177C361.807 173.183 361.386 180.082 357.856 186.56C353.43 194.618 345.843 198.831 340.785 200.938C343.209 201.096 347.108 200.991 351.586 199.516C355.274 198.305 358.067 196.567 359.858 195.197C360.859 199.147 361.913 203.097 362.914 207.047C364.495 205.151 366.022 203.203 367.603 201.307C366.233 198.568 364.863 195.777 363.493 193.038C364.6 191.247 365.654 189.351 366.707 187.297C368.604 183.716 370.132 180.293 371.397 177.027C372.082 177.291 374.084 177.975 375.875 177.027C377.877 175.974 378.351 173.604 378.773 171.445C379.194 169.18 380.353 163.123 376.771 160.49C375.295 159.384 372.714 158.647 370.659 159.753C369.553 160.385 368.973 161.333 368.657 161.912C368.393 159.753 368.183 157.593 367.919 155.434C366.075 155.118 364.178 154.749 362.334 154.381Z" fill="#666666"/>
<path opacity="0.2" d="M350.27 145.427C353.22 142.215 356.75 137.633 359.806 131.576C361.966 127.257 363.389 123.255 364.284 119.884C366.655 124.15 366.445 127.573 366.286 129.048C365.391 135.789 359.279 140.003 355.854 142.373C353.694 143.847 351.692 144.795 350.27 145.427Z" fill="#212121"/>
<path opacity="0.16" d="M361.07 151.326C364.073 150.273 367.604 148.745 371.344 146.481C378.141 142.32 382.725 137.369 385.57 133.735C385.939 135.947 386.308 140.319 383.937 144.321C380.143 150.852 370.817 154.012 361.07 151.326Z" fill="#212121"/>
<path opacity="0.22" d="M326.559 148.482C326.454 146.27 326.612 143.11 327.613 139.476C329.984 131.155 335.885 124.94 336.781 125.467C337.518 125.888 335.727 130.839 326.559 148.482Z" fill="#212121"/>
<path d="M329.141 182.399C336.991 182.768 344.631 181.188 351.691 177.712C352.376 177.396 351.796 176.343 351.111 176.711C344.262 180.082 336.78 181.609 329.193 181.241C328.35 181.188 328.403 182.347 329.141 182.399Z" fill="#161616"/>
<path d="M329.933 182.61C330.986 184.506 331.724 186.56 332.145 188.667C332.304 189.404 333.41 189.088 333.305 188.351C332.883 186.139 332.093 183.979 330.986 181.978C330.618 181.346 329.564 181.978 329.933 182.61Z" fill="#161616"/>
<path d="M332.249 188.719C335.41 191.774 340.521 190.247 343.893 188.298C347.95 186.033 350.9 182.241 351.901 177.712C352.059 176.975 350.9 176.659 350.742 177.396C349.899 181.135 347.739 184.295 344.578 186.507C341.575 188.561 336.148 190.879 333.092 187.877C332.565 187.35 331.722 188.193 332.249 188.719Z" fill="#161616"/>
<path d="M331.514 184.769C335.096 185.717 339.206 184.664 342.631 183.611C345.95 182.61 349.006 180.977 351.324 178.344C351.851 177.765 351.008 176.922 350.481 177.501C348.268 179.977 345.476 181.504 342.314 182.452C339.101 183.4 335.149 184.506 331.83 183.611C331.092 183.453 330.776 184.611 331.514 184.769Z" fill="#161616"/>
<path d="M332.039 185.349C332.461 186.349 332.882 187.35 333.304 188.351C333.567 188.983 334.621 188.509 334.41 187.877C334.041 186.929 333.778 186.033 333.567 185.033C333.304 185.296 333.093 185.507 332.829 185.77C334.094 185.981 335.358 186.086 336.676 186.086C337.308 186.086 337.519 185.033 336.834 184.927C335.622 184.717 334.673 184.769 333.462 185.138C333.093 185.243 332.882 185.665 333.093 186.033C333.409 186.507 333.778 187.034 334.094 187.508C334.515 188.14 335.464 187.613 335.095 186.929C334.937 186.455 334.779 185.981 334.621 185.559C334.252 185.717 333.883 185.875 333.514 186.033C334.041 186.718 334.252 187.455 334.041 188.245C334.41 188.14 334.779 188.035 335.148 187.929C334.41 186.718 333.778 188.14 333.62 188.509C333.462 188.983 334.094 189.509 334.515 189.193C338.836 185.928 343.894 184.295 349.004 182.715C349.742 182.505 349.426 181.346 348.688 181.557C343.472 183.137 338.309 184.822 333.936 188.14C334.252 188.351 334.515 188.561 334.831 188.825C335.042 188.351 335.674 188.245 335.78 187.508C335.885 186.876 335.622 185.928 334.937 185.717C333.04 185.085 333.725 187.771 334.199 188.509C334.515 189.035 335.253 188.772 335.306 188.193C335.411 187.087 335.2 186.297 334.621 185.401C334.252 184.875 333.356 185.191 333.514 185.875C333.725 186.771 333.725 186.718 334.094 187.561C334.41 187.35 334.779 187.139 335.095 186.981C334.779 186.507 334.41 185.981 334.094 185.507C333.988 185.823 333.883 186.086 333.725 186.402C334.621 186.033 335.516 185.981 336.465 186.191C336.517 185.823 336.57 185.401 336.623 185.033C335.411 185.033 334.357 184.98 333.093 184.769C332.619 184.664 332.25 185.033 332.355 185.507C332.566 186.507 332.829 187.403 333.198 188.351C333.567 188.193 333.936 188.035 334.305 187.877C333.883 186.876 333.462 185.875 333.04 184.875C332.777 184.032 331.723 184.664 332.039 185.349Z" fill="#161616"/>
<path d="M335.41 187.245C337.254 186.139 339.151 185.296 341.206 184.559C341.048 184.19 340.89 183.821 340.732 183.453C338.887 184.295 337.043 185.138 335.252 185.928C334.673 186.191 335.094 187.245 335.726 187.034C340.679 185.085 345.579 183.084 350.057 180.135C349.741 179.924 349.478 179.713 349.162 179.45C348.477 181.293 345.421 181.504 343.84 182.083C342.523 182.557 341.258 183.189 339.941 183.663C338.097 184.295 335.937 184.19 334.514 185.77C333.988 186.349 334.831 187.192 335.357 186.613C336.517 185.296 338.677 185.349 340.257 184.822C341.838 184.295 343.366 183.505 344.999 182.979C347.212 182.294 349.425 182.241 350.321 179.819C350.479 179.345 349.846 178.871 349.425 179.134C345.052 181.978 340.205 183.979 335.357 185.875C335.516 186.244 335.674 186.613 335.832 186.981C337.676 186.139 339.52 185.296 341.311 184.506C341.943 184.243 341.469 183.189 340.837 183.4C338.729 184.137 336.727 185.085 334.778 186.191C334.146 186.613 334.778 187.666 335.41 187.245Z" fill="#161616"/>
<path d="M349.637 181.451C349.637 181.399 349.585 181.346 349.585 181.293C349.585 181.241 349.585 181.293 349.585 181.399C349.532 181.451 349.426 181.557 349.374 181.609H349.426C349.268 181.609 349.11 181.662 348.952 181.662C348.689 181.609 348.689 181.135 348.636 181.451C348.636 181.557 348.636 181.609 348.689 181.715C348.742 181.925 348.847 182.031 349.058 182.189C349.321 182.399 349.743 182.241 349.848 181.978C350.006 181.662 349.901 181.346 349.637 181.188C349.637 181.188 349.585 181.188 349.585 181.135C349.637 181.188 349.743 181.293 349.795 181.346C349.848 181.504 349.848 181.504 349.848 181.399C349.848 181.346 349.848 181.293 349.848 181.293C349.848 181.135 349.795 180.977 349.743 180.872C349.585 180.661 349.374 180.503 349.11 180.503C348.425 180.503 348.32 181.293 348.531 181.767C348.636 182.083 348.9 182.294 349.268 182.189C349.532 182.083 349.795 181.715 349.637 181.451Z" fill="#161616"/>
<path d="M349.74 176.659C350.741 177.08 351.584 177.765 352.164 178.713C352.533 179.345 353.586 178.765 353.165 178.133C352.427 176.922 351.373 176.027 350.056 175.553C349.319 175.237 349.003 176.395 349.74 176.659Z" fill="#161616"/>
<path d="M335.359 189.562C339.522 186.613 344.105 184.559 349.058 183.453C349.796 183.295 349.48 182.136 348.742 182.294C343.631 183.4 338.995 185.507 334.727 188.509C334.147 188.983 334.727 190.036 335.359 189.562Z" fill="#161616"/>
<path d="M334.304 188.614C339.467 188.351 344.262 186.771 348.529 183.874C349.162 183.453 348.582 182.399 347.95 182.873C343.84 185.665 339.256 187.245 334.304 187.455C333.513 187.508 333.513 188.667 334.304 188.614Z" fill="#161616"/>
<path d="M339.1 187.297C341.998 186.665 344.685 185.559 347.214 183.979C347.846 183.558 347.266 182.557 346.634 182.979C344.21 184.506 341.629 185.559 338.836 186.191C338.046 186.297 338.362 187.455 339.1 187.297Z" fill="#161616"/>
<path d="M335.463 189.351C339.678 189.246 343.577 188.035 347.055 185.665C347.687 185.243 347.107 184.19 346.475 184.664C343.156 186.929 339.468 188.087 335.463 188.193C334.726 188.193 334.726 189.404 335.463 189.351Z" fill="#161616"/>
<path d="M335.463 189.246C335.411 190.141 336.254 190.247 336.939 190.141C338.519 189.931 340.047 189.562 341.575 189.193C342.313 188.983 341.997 187.877 341.259 188.035C340.469 188.245 339.678 188.403 338.835 188.561C338.466 188.614 336.675 188.719 336.622 189.193C336.728 188.509 335.516 188.509 335.463 189.246Z" fill="#161616"/>
<path d="M345.529 195.408C346.056 193.933 350.798 194.249 354.907 194.776C354.907 193.986 355.066 192.827 355.54 191.563C355.909 190.563 356.488 189.562 358.596 187.245C360.861 184.769 362.02 183.558 363.496 182.663C364.602 181.978 366.446 181.083 369.028 180.661C370.081 181.03 371.188 181.399 372.242 181.715C372.558 180.714 373.19 178.818 374.402 175.131C375.192 172.656 375.666 171.392 376.72 170.971C377.774 170.602 379.196 170.971 379.934 171.866C380.988 173.183 380.039 175.079 379.46 178.291C379.144 180.135 379.407 179.819 379.302 186.718C379.196 193.775 378.933 193.723 378.986 196.672C379.038 199.411 379.407 203.308 380.672 207.995C381.831 207.469 383.675 206.889 385.888 206.942C391.051 206.995 394.686 210.365 397.374 212.946C402.642 217.949 404.908 223.479 406.436 227.377C409.386 234.908 409.755 241.175 409.808 243.914C409.861 248.18 409.966 252.183 407.806 256.817C407.121 258.292 405.224 262.242 400.904 265.244C399.112 266.508 395.74 268.825 391.367 268.457C388.838 268.246 386.573 267.193 384.149 265.244C376.035 258.661 372.294 246.705 371.135 242.545C368.922 234.961 366.499 223.953 366.077 210.207C364.918 210.155 363.548 209.891 362.073 209.312C356.646 207.047 354.539 201.623 354.117 200.253C353.011 200.306 349.059 200.253 346.583 197.515C346.056 196.883 345.318 196.093 345.529 195.408Z" fill="white"/>
<path d="M352.852 199.095C350.059 198.884 346.845 197.831 346.108 194.776C345.95 195.092 345.739 195.408 345.581 195.724C349.638 194.881 353.695 196.093 357.752 195.513C358.753 195.355 358.331 193.828 357.33 193.986C353.273 194.565 349.216 193.354 345.159 194.197C344.738 194.302 344.527 194.776 344.632 195.145C345.528 198.937 349.374 200.359 352.904 200.622C353.905 200.727 353.905 199.147 352.852 199.095Z" fill="#161616"/>
<path d="M355.856 193.459C355.224 189.72 360.967 189.931 363.127 190.51C364.128 190.773 364.55 189.246 363.549 188.983C360.018 188.035 353.485 188.719 354.328 193.828C354.486 194.881 356.014 194.46 355.856 193.459Z" fill="#161616"/>
<path d="M358.122 189.825C358.596 187.982 359.597 186.297 361.389 185.454C363.496 184.506 365.604 185.454 367.553 186.297C368.449 186.718 369.292 185.349 368.343 184.927C365.92 183.821 363.338 182.768 360.756 183.979C358.544 184.98 357.174 187.087 356.594 189.404C356.383 190.405 357.911 190.826 358.122 189.825Z" fill="#161616"/>
<path d="M363.654 183.505C363.549 183.4 365.34 181.925 365.604 181.767C366.341 181.399 367.184 181.188 368.027 181.188C370.082 181.188 371.926 182.189 373.56 183.242C374.403 183.769 375.193 182.452 374.35 181.873C371.715 180.187 368.502 178.871 365.393 180.135C364.076 180.661 360.915 183.031 362.495 184.664C363.233 185.349 364.339 184.243 363.654 183.505Z" fill="#161616"/>
<path d="M379.3 196.83C379.932 192.353 380.143 187.929 379.827 183.4C379.669 180.819 379.932 178.818 380.565 176.29C380.881 174.973 381.144 173.604 380.775 172.287C380.196 170.497 378.194 169.022 376.297 169.97C375.085 170.602 374.769 172.024 374.347 173.235C373.557 175.5 372.819 177.817 372.082 180.082C371.766 181.03 373.294 181.451 373.61 180.503C374.031 179.187 374.453 177.87 374.927 176.606C375.19 175.816 375.612 173.183 376.244 172.709C378.879 172.393 379.932 173.13 379.3 175.026C379.142 175.658 378.984 176.237 378.773 176.869C378.51 177.87 378.246 178.818 378.141 179.819C377.93 182.347 378.404 184.98 378.404 187.561C378.404 190.563 378.194 193.512 377.772 196.461C377.667 197.409 379.195 197.831 379.3 196.83Z" fill="#161616"/>
<path d="M352.009 200.78C354.749 200.991 355.434 203.835 356.698 205.731C357.33 206.731 358.121 207.627 359.069 208.364C360.913 209.839 363.073 210.629 365.444 210.839C366.445 210.945 366.445 209.365 365.444 209.259C361.44 208.891 358.911 206.573 357.067 203.203C355.908 201.096 354.538 199.411 352.009 199.253C350.955 199.147 351.008 200.727 352.009 200.78Z" fill="#161616"/>
<path d="M365.18 210.155C366.813 215.79 366.971 221.583 367.445 227.377C367.867 232.275 368.657 237.173 370.027 241.86C372.714 250.919 377.35 259.293 384.042 266.034C384.779 266.771 385.886 265.613 385.148 264.928C378.246 257.976 373.557 249.233 371.081 239.806C368.446 229.905 369.553 219.529 366.707 209.733C366.391 208.785 364.863 209.207 365.18 210.155Z" fill="#161616"/>
<path d="M377.775 196.198C378.565 204.993 381.147 213.578 385.467 221.267C389.682 228.746 396.162 235.224 397.638 243.967C397.796 244.967 399.324 244.546 399.166 243.545C397.848 235.593 392.422 229.536 388.259 222.9C383.254 214.842 380.251 205.678 379.355 196.251C379.25 195.197 377.669 195.197 377.775 196.198Z" fill="#161616"/>
<path d="M381.409 208.417C389.26 205.889 397.005 212.209 401.115 218.318C405.435 224.743 407.384 232.643 408.28 240.28C409.123 247.759 408.543 255.922 403.538 261.926C398.902 267.509 390.314 269.721 384.465 264.665C383.675 263.98 382.568 265.139 383.359 265.771C388.891 270.563 397.058 269.879 402.484 265.244C409.123 259.609 410.756 250.445 410.071 242.176C409.334 233.17 407.068 223.532 401.589 216.159C397.005 210.049 388.996 204.309 381.041 206.837C380.039 207.205 380.408 208.733 381.409 208.417Z" fill="#161616"/>
<path opacity="0.15" d="M377.983 172.814C375.19 173.867 375.401 181.03 375.612 186.191C376.349 201.517 376.718 209.207 379.721 221.004C384.042 237.805 387.993 242.176 390.153 244.23C393.262 247.179 399.216 251.445 401.745 249.76C405.749 247.074 399.374 231.063 397.793 227.166C392.472 213.894 391.312 209.47 387.361 208.101C384.99 207.311 382.672 207.627 381.038 208.101C378.773 203.255 378.404 199.358 378.457 196.672C378.509 194.407 378.878 194.407 379.036 190.984C379.352 184.769 378.246 184.401 378.826 180.345C379.405 176.395 380.933 174.025 379.827 173.077C379.458 172.551 378.562 172.603 377.983 172.814Z" fill="#666666"/>
<path opacity="0.15" d="M382.516 210.787C386.256 214.421 388.838 217.897 390.577 220.635C394.845 227.219 396.636 233.117 397.268 235.382C398.164 238.595 398.585 241.386 398.849 243.44C397.953 240.701 396.267 236.593 393.317 232.011C390.946 228.325 389.418 227.061 387.416 223.743C385.782 221.004 383.727 216.791 382.516 210.787Z" fill="#666666"/>
</svg>
