<svg width="80" height="80" viewBox="0 0 80 80" fill="none" xmlns="http://www.w3.org/2000/svg">
<path d="M63.7501 36.25C63.1423 36.25 61.9805 36.4433 61.9805 36.4433L15.1339 36.326C15.1339 36.326 11.3747 37.5986 10.1154 39.0474C10.0866 38.6418 10.072 38.2341 10.072 37.825V27.65C10.072 18.8071 16.5705 11.4859 25.0538 10.2003C25.1967 7.30303 27.5884 5 30.497 5H45.022C58.822 5 70.022 16.2 70.022 30V37.825C70.022 38.2683 70.0051 38.71 69.9718 39.1492C68.4813 37.3766 66.2473 36.25 63.7501 36.25Z" fill="#593B39"/>
<path d="M21.0969 53.05L6.09693 63.125C4.72193 64.05 4.62193 66.05 5.89693 67.125L13.8719 74.15C15.6719 75.75 18.4969 75 19.3219 72.75L25.1219 56.525L21.0969 53.05Z" fill="#593B39"/>
<path d="M59.072 53.05L74.072 63.125C75.447 64.05 75.547 66.05 74.272 67.125L66.297 74.15C64.497 75.75 61.672 75 60.847 72.75L55.047 56.525L59.072 53.05Z" fill="#593B39"/>
<path d="M24.375 44.375C24.375 48.8623 20.7373 52.5 16.25 52.5C11.7627 52.5 8.125 48.8623 8.125 44.375C8.125 39.8877 11.7627 36.25 16.25 36.25C20.7373 36.25 24.375 39.8877 24.375 44.375Z" fill="#BB806E"/>
<path d="M71.875 44.375C71.875 48.8623 68.2373 52.5 63.75 52.5C59.2627 52.5 55.625 48.8623 55.625 44.375C55.625 39.8877 59.2627 36.25 63.75 36.25C68.2373 36.25 71.875 39.8877 71.875 44.375Z" fill="#BB806E"/>
<path d="M47.0714 32.5001C37.999 32.5001 30.1951 27.0082 26.8237 19.1572C25.376 24.4826 22.23 29.254 17.7714 32.7001C16.5541 33.6469 15.644 34.9099 15.1333 36.3261C14.9568 36.3504 14.7821 36.3803 14.6094 36.4157L15.0885 50.5375C15.6864 65.185 26.6472 75.0001 39.9994 75.0001C53.3267 75.0001 64.3124 65.185 64.9102 50.5375L65.3894 36.4157C64.8597 36.3071 64.3113 36.2501 63.7495 36.2501C63.1417 36.2501 62.5496 36.3168 61.9799 36.4434C59.7572 34.0182 56.5631 32.5001 52.9714 32.5001H47.0714Z" fill="#C68D7B"/>
<path d="M40.0342 58.4321C37.2633 58.4321 34.6921 57.7546 32.4953 56.6002C31.7464 56.1987 30.9476 57.0519 31.4219 57.7797C33.2442 60.6153 36.4145 62.4973 40.0342 62.4973C43.6538 62.4973 46.8241 60.6153 48.6464 57.7797C49.0958 57.077 48.3219 56.2238 47.573 56.6002C45.3763 57.7797 42.8051 58.4321 40.0342 58.4321Z" fill="#990839"/>
<path d="M40.0084 55C41.6834 55 43.1834 54.1371 44.0584 52.8173C44.8584 51.6244 44.0084 50 42.5834 50H37.4084C35.9834 50 35.1334 51.6244 35.9334 52.8173C36.8334 54.1371 38.3334 55 40.0084 55Z" fill="#AB6A55"/>
<path d="M20.5465 46.1749C21.3715 42.8249 24.4215 40.325 28.0465 40.325C31.7965 40.325 34.9465 43 35.6715 46.55C35.8215 47.325 35.1965 48.05 34.3965 48.05H22.0465C21.0465 48.05 20.2965 47.1249 20.5465 46.1749Z" fill="white"/>
<path d="M59.5466 46.1749C58.7216 42.8249 55.6716 40.325 52.0466 40.325C48.2966 40.325 45.1716 43 44.4216 46.55C44.2716 47.325 44.8966 48.05 45.6966 48.05H58.0466C59.0466 48.05 59.7966 47.1249 59.5466 46.1749Z" fill="white"/>
<path d="M24.2461 46.75C24.2461 44.025 26.4711 41.8 29.1961 41.8C31.9211 41.8 34.1461 44.025 34.1211 46.75C34.1211 47.2 34.0711 47.625 33.9461 48.05H24.4211C24.3211 47.65 24.2461 47.2 24.2461 46.75Z" fill="#7D4533"/>
<path d="M55.871 46.75C55.871 44.025 53.646 41.8 50.921 41.8C48.171 41.8 45.971 44.025 45.996 46.75C45.996 47.2 46.046 47.625 46.171 48.05H55.696C55.796 47.65 55.871 47.2 55.871 46.75Z" fill="#7D4533"/>
<path d="M29.1961 43.925C30.7461 43.925 32.0211 45.2001 32.0211 46.7501C32.0211 47.2251 31.8961 47.675 31.6961 48.05H26.6961C26.4961 47.675 26.3711 47.2251 26.3711 46.7501C26.3711 45.2001 27.6461 43.925 29.1961 43.925Z" fill="black"/>
<path d="M50.9209 43.925C49.371 43.925 48.0959 45.2001 48.0959 46.7501C48.0959 47.2251 48.1959 47.675 48.4209 48.05H53.4209C53.6209 47.675 53.7459 47.2251 53.7459 46.7501C53.7459 45.2001 52.4709 43.925 50.9209 43.925Z" fill="black"/>
<path d="M28.3711 44.8C28.3711 45.2833 27.9793 45.675 27.4961 45.675C27.0128 45.675 26.6211 45.2833 26.6211 44.8C26.6211 44.3168 27.0128 43.925 27.4961 43.925C27.9793 43.925 28.3711 44.3168 28.3711 44.8Z" fill="white"/>
<path d="M50.2461 44.8C50.2461 45.2833 49.8543 45.675 49.3711 45.675C48.8878 45.675 48.4961 45.2833 48.4961 44.8C48.4961 44.3168 48.8878 43.925 49.3711 43.925C49.8543 43.925 50.2461 44.3168 50.2461 44.8Z" fill="white"/>
<path d="M24.7652 37.9277C26.0684 37.4638 27.9353 37.1117 30.4036 37.3445C31.0909 37.4094 31.7007 36.9048 31.7655 36.2175C31.8304 35.5302 31.3258 34.9204 30.6384 34.8556C27.8068 34.5885 25.5737 34.9863 23.9269 35.5724C23.2765 35.8039 22.9369 36.5188 23.1684 37.1692C23.3999 37.8196 24.1148 38.1592 24.7652 37.9277Z" fill="#593B39"/>
<path d="M56.1651 35.5724C54.5183 34.9863 52.2852 34.5885 49.4536 34.8556C48.7663 34.9204 48.2616 35.5302 48.3265 36.2175C48.3913 36.9048 49.0011 37.4094 49.6884 37.3445C52.1567 37.1117 54.0236 37.4638 55.3268 37.9277C55.9772 38.1592 56.6921 37.8196 56.9236 37.1692C57.1551 36.5188 56.8155 35.8039 56.1651 35.5724Z" fill="#593B39"/>
</svg>
