<svg width="568" height="448" viewBox="0 0 568 448" fill="none" xmlns="http://www.w3.org/2000/svg">
<path d="M145.8 166.019C148.099 170.209 148.14 175.181 145.923 179.412C145.553 180.111 146.621 180.727 146.99 180.028C149.413 175.386 149.372 169.963 146.867 165.403C146.457 164.663 145.43 165.321 145.8 166.019Z" fill="#161616"/>
<path d="M147.32 166.224C148.716 165.526 150.359 164.663 151.96 165.033C154.342 165.526 154.424 167.457 154.588 169.429C154.752 172.058 154.629 174.852 152.905 176.988C152.412 177.604 153.274 178.467 153.767 177.851C156.148 174.934 156.436 170.374 155.533 166.8C154.383 162.486 149.702 163.677 146.745 165.156C146.006 165.485 146.622 166.553 147.32 166.224Z" fill="#161616"/>
<path d="M147.32 180.275C149.619 180.562 151.919 179.659 153.438 177.892C153.931 177.276 153.068 176.413 152.576 177.029C151.262 178.59 149.373 179.33 147.32 179.083C146.539 178.96 146.539 180.193 147.32 180.275Z" fill="#161616"/>
<path d="M146.949 111.912C147.483 110.885 148.961 108.091 150.603 110.68C150.891 111.09 150.891 112.241 150.973 112.652C151.137 113.514 151.425 114.418 152.041 115.076C154.094 117.212 155.531 113.72 157.666 114.87C160.376 116.308 156.845 119.348 159.062 121.033C159.596 121.443 160.212 121.443 160.828 121.197C161.239 121.033 161.567 120.663 161.978 120.457C163.497 119.8 164.031 121.156 164.154 122.347C164.195 122.717 164.4 122.922 164.77 122.964C165.222 123.005 165.632 123.046 166.084 123.087C166.864 123.169 166.864 121.936 166.084 121.854C165.632 121.813 165.222 121.772 164.77 121.731C164.975 121.936 165.181 122.142 165.386 122.347C165.263 121.238 165.057 119.8 164.031 119.143C162.922 118.403 162.183 119.061 161.157 119.554C160.664 119.8 160.253 120.622 159.555 119.636C159.309 119.266 159.843 118.116 159.925 117.705C160.089 117.048 160.171 116.472 159.966 115.815C159.637 114.788 158.734 113.925 157.707 113.597C156.434 113.145 155.818 113.679 154.669 114.007C153.642 114.295 152.616 114.213 152.246 113.104C152.123 112.693 152.082 112.2 152.041 111.789C151.917 111.132 151.835 110.433 151.507 109.817C149.823 106.736 146.908 109.324 145.881 111.419C145.512 111.994 146.579 112.611 146.949 111.912Z" fill="#161616"/>
<path d="M154.916 108.091C155.901 107.147 156.804 106.736 157.872 107.64C158.734 108.379 158.57 108.626 158.817 109.612C158.981 110.187 159.145 110.721 159.638 111.132C160.254 111.666 160.952 111.666 161.732 111.584C162.471 111.501 163.333 111.008 163.949 111.789C164.237 112.159 164.196 112.98 164.196 113.432C164.237 114.665 164.237 116.144 165.633 116.596C166.044 116.719 166.495 116.514 166.865 116.637C167.358 116.431 167.563 116.555 167.604 117.089C167.768 117.417 167.85 117.746 167.809 118.157C168.015 119.102 168.384 119.8 169.123 120.458C169.698 120.992 170.56 120.129 169.986 119.595C168.754 118.444 169.616 116.842 168.589 115.815C167.522 114.747 165.838 116.308 165.469 114.336C165.181 112.816 165.756 110.762 163.744 110.228C162.307 109.858 160.788 111.296 160.007 109.324C159.679 108.502 159.802 107.598 159.227 106.818C157.872 105.051 155.367 105.955 154.012 107.229C153.437 107.763 154.341 108.667 154.916 108.091Z" fill="#161616"/>
<path d="M306.19 184.465C304.958 184.342 306.806 181.918 307.175 181.713C308.161 181.179 309.311 181.466 310.05 182.247C311.651 183.972 310.296 186.52 308.12 186.766C307.34 186.848 307.34 188.081 308.12 187.999C309.926 187.793 311.528 186.602 311.939 184.794C312.349 183.027 311.282 181.138 309.639 180.439C308.038 179.782 306.272 180.398 305.327 181.836C304.506 183.069 304.301 185.534 306.231 185.698C306.97 185.78 306.97 184.548 306.19 184.465Z" fill="#161616"/>
<path d="M297.894 181.959C297.032 181.179 298.059 179.618 299.044 180.48C300.071 181.343 298.675 182.534 297.73 181.836C297.114 181.343 296.498 182.411 297.114 182.904C297.976 183.562 299.29 183.356 300.071 182.576C300.974 181.672 300.769 180.275 299.824 179.494C298.88 178.714 297.525 178.755 296.786 179.782C296.129 180.686 296.211 182 297.032 182.781C297.607 183.356 298.51 182.493 297.894 181.959Z" fill="#161616"/>
<path d="M440.341 129.167C440.752 136.809 436.933 144.163 430.486 148.271C429.829 148.682 430.445 149.75 431.102 149.339C437.918 145.025 441.983 137.261 441.573 129.167C441.532 128.387 440.3 128.387 440.341 129.167Z" fill="#161616"/>
<path d="M441.162 130.071C445.104 132.947 443.503 138.164 441.327 141.574C439.274 144.82 435.947 148.682 431.677 148.024C430.897 147.901 430.568 149.093 431.348 149.216C436.481 149.955 440.382 145.642 442.764 141.615C445.145 137.63 446.049 132.125 441.778 129.003C441.121 128.551 440.505 129.619 441.162 130.071Z" fill="#161616"/>
<path d="M95.4978 93.5069C98.0847 97.7795 99.6451 102.504 100.015 107.475C100.097 108.256 101.329 108.256 101.247 107.475C100.836 102.258 99.2755 97.3687 96.5654 92.8906C96.1137 92.1922 95.0461 92.8084 95.4978 93.5069Z" fill="#E8E8E8"/>
<path d="M100.508 92.1511C102.644 96.013 103.834 100.203 104.122 104.599C104.163 105.38 105.395 105.38 105.354 104.599C105.066 99.9981 103.793 95.6021 101.576 91.5349C101.206 90.8365 100.139 91.4527 100.508 92.1511Z" fill="#E8E8E8"/>
<path d="M95.1703 101.395C98.7427 99.0531 102.767 97.8206 107.078 97.7385C107.859 97.7385 107.859 96.506 107.078 96.506C102.603 96.5881 98.3321 97.9028 94.5543 100.368C93.8973 100.779 94.5133 101.847 95.1703 101.395Z" fill="#E8E8E8"/>
<path d="M95.0472 106.407C99.523 103.696 104.409 101.97 109.583 101.189C110.364 101.066 110.035 99.8748 109.255 99.9981C103.958 100.779 98.9892 102.586 94.4313 105.339C93.7743 105.75 94.3902 106.818 95.0472 106.407Z" fill="#E8E8E8"/>
<path d="M336.165 126.661C334.276 127.606 333.537 130.071 335.139 131.673C336.001 132.536 336.74 132.29 337.767 132.618C338.424 132.824 339.163 133.234 339.04 133.892C338.958 134.344 338.506 134.713 338.26 135.083C337.849 135.617 337.356 136.234 337.192 136.891C337.028 137.671 337.233 138.452 337.849 138.986C338.752 139.767 339.943 139.274 340.929 139.767C342.982 140.753 339.245 145.066 342.407 145.888C343.187 146.094 343.516 144.902 342.735 144.697C341.421 144.368 343.064 141.862 343.187 141.081C343.269 140.383 343.146 139.685 342.612 139.192C341.216 137.836 337.11 139.274 339.204 135.823C339.861 134.755 341.052 133.44 340.272 132.043C340.025 131.591 339.615 131.345 339.122 131.221C338.629 131.139 337.849 131.221 337.356 131.18C335.18 131.057 334.933 128.633 336.781 127.688C337.479 127.401 336.863 126.332 336.165 126.661Z" fill="#E8E8E8"/>
<path d="M345.282 133.563C343.927 134.097 343.886 135.576 344.707 136.685C345.241 137.466 346.103 137.63 346.801 138.164C348.526 139.438 347.007 140.506 346.719 141.985C346.227 144.532 348.937 143.67 349.717 145.313C350.374 146.669 350.128 148.189 351.811 148.805C352.55 149.093 352.879 147.901 352.14 147.614C350.949 147.203 351.113 144.943 350.456 144.039C350.251 143.711 349.963 143.505 349.676 143.259C349.512 143.135 349.265 143.177 349.142 143.094C348.855 143.053 348.649 142.848 348.567 142.437C347.992 142.067 347.91 141.698 348.403 141.287C348.772 140.136 349.512 139.438 348.731 138.247C348.444 137.795 347.91 137.466 347.459 137.178C347.089 136.932 344.42 135.289 345.652 134.796C346.35 134.467 346.021 133.275 345.282 133.563Z" fill="#E8E8E8"/>
<path d="M424.614 216.51C421.617 214.374 422.11 209.896 425.353 208.253C427.817 207.02 431.184 208.17 432.457 210.594C433.73 213.018 432.622 216.428 430.199 217.702C427.653 219.016 424.491 217.866 423.054 215.524C422.643 214.867 421.576 215.483 421.986 216.141C423.834 219.222 428.105 220.578 431.266 218.523C434.264 216.551 435.208 211.991 432.991 209.115C430.815 206.322 426.462 205.664 423.711 207.924C420.508 210.512 420.754 215.237 424.039 217.62C424.655 218.03 425.271 216.962 424.614 216.51Z" fill="#E8E8E8"/>
<path d="M141.2 228.342C141.652 226.863 142.309 226.453 143.089 227.151C143.294 227.233 143.5 227.356 143.664 227.439C143.951 227.521 144.321 227.603 144.608 227.562C145.224 227.48 145.717 227.11 146.005 226.617C147.031 224.974 145.881 223.371 144.855 222.098C144.321 221.481 143.336 220.66 143.459 219.715C143.623 217.907 144.691 218.647 145.594 218.523C146.251 218.441 146.826 218.195 147.154 217.579C147.483 217.044 147.401 216.346 147.319 215.771C147.278 215.442 147.154 215.072 147.154 214.744C146.867 213.881 147.278 213.347 148.386 213.142C148.92 213.511 149.372 213.963 149.741 214.538C150.193 215.196 151.261 214.579 150.809 213.922C149.7 212.361 146.415 210.225 145.881 213.47C145.635 215.114 147.154 216.839 144.732 217.25C143.541 217.455 142.72 217.455 142.35 218.852C142.022 220.002 142.473 221.112 143.171 222.016C143.5 222.426 143.869 222.796 144.198 223.166C144.608 223.577 144.896 224.029 145.101 224.563C144.608 225.056 144.157 225.549 143.664 226.042C143.294 226.124 142.35 225.343 141.816 225.302C139.435 225.138 138.162 228.342 140.543 229.369C141.323 229.698 141.939 228.63 141.2 228.342Z" fill="#E8E8E8"/>
<path d="M151.22 226.576C150.563 225.508 149.537 223.864 149.989 222.509C150.317 221.481 151.713 221.03 152.329 220.208C153.274 218.934 153.15 217.25 152.288 215.976C152.124 216.305 151.918 216.593 151.754 216.921C154.095 217.086 156.066 215.689 156.764 213.429C157.01 212.649 155.819 212.361 155.573 213.1C155.039 214.826 153.561 215.812 151.754 215.689C151.303 215.648 150.974 216.223 151.22 216.634C151.754 217.414 151.96 218.523 151.426 219.386C150.933 220.126 150.276 220.167 149.742 220.701C149.249 221.194 148.921 221.687 148.798 222.426C148.469 224.111 149.373 225.795 150.194 227.192C150.563 227.89 151.631 227.274 151.22 226.576Z" fill="#E8E8E8"/>
<path d="M276.625 14.2982C278.801 16.8043 280.156 19.7212 280.731 22.9668C280.854 23.7474 282.045 23.4187 281.922 22.6381C281.306 19.1871 279.787 16.0648 277.487 13.3944C276.954 12.8192 276.091 13.682 276.625 14.2982Z" fill="#E8E8E8"/>
<path d="M277.693 14.4214C279.089 13.1479 284.673 8.1357 286.726 9.57362C287.753 10.3131 288.656 11.9975 289.313 13.1068C290.134 14.5036 290.791 15.9826 291.325 17.5027C291.572 18.2422 292.762 17.9135 292.516 17.174C291.818 15.2431 290.956 13.3533 289.847 11.6278C289.149 10.5185 288.081 8.6287 286.808 8.09462C285.371 7.47837 283.606 8.75195 282.415 9.45037C280.403 10.6007 278.555 11.9975 276.83 13.5587C276.255 14.0928 277.118 14.9555 277.693 14.4214Z" fill="#E8E8E8"/>
<path d="M282.045 23.7473C285.248 21.0358 288.738 18.8173 292.598 17.1329C293.337 16.8042 292.68 15.7361 291.982 16.0647C288.04 17.7902 284.468 20.0909 281.183 22.8846C280.567 23.3776 281.429 24.2403 282.045 23.7473Z" fill="#E8E8E8"/>
<path d="M289.19 12.1618C290.75 10.8472 294.241 7.51941 296.171 9.69683C297.567 11.258 298.47 13.8052 299.291 15.695C299.62 16.4345 300.687 15.7772 300.359 15.0787C299.579 13.3122 298.757 11.6277 297.772 9.98441C297.279 9.12166 296.663 7.807 295.637 7.43725C294.446 7.02641 293.173 7.88916 292.229 8.46433C290.832 9.286 289.559 10.2309 288.328 11.258C287.712 11.8332 288.615 12.6959 289.19 12.1618Z" fill="#E8E8E8"/>
<path d="M286.151 19.6801C288.081 20.5428 289.723 21.6932 291.242 23.1722C291.53 23.4597 291.982 23.3776 292.228 23.0489C294.035 20.4607 296.416 18.4887 299.291 17.1329C300.03 16.8042 299.373 15.7361 298.675 16.0647C295.595 17.5027 293.09 19.639 291.16 22.3916C291.489 22.3505 291.817 22.3094 292.146 22.2683C290.585 20.7072 288.82 19.5157 286.808 18.6119C286.027 18.3243 285.412 19.3514 286.151 19.6801Z" fill="#E8E8E8"/>
<path d="M295.103 65.3647C295.021 64.9128 294.898 64.4609 294.816 64.009C295.185 63.6392 295.555 63.3106 296.006 63.0641C296.253 62.8997 296.54 62.7354 296.787 62.53C297.279 62.1191 297.608 61.7083 297.854 61.1331C298.142 60.3936 298.06 59.6952 297.977 58.9146C297.936 58.6681 297.895 58.3806 297.854 58.1341C297.813 57.8465 297.977 54.5187 299.291 55.5869C299.907 56.0799 300.77 55.2171 300.154 54.7241C299.25 53.9846 298.306 54.1079 297.485 54.8885C296.089 56.2442 296.746 57.8465 296.828 59.4898C296.951 61.9548 293.748 62.0781 293.461 64.3376C293.337 65.3647 293.748 66.3097 294.816 66.5151C295.555 66.6794 295.883 65.488 295.103 65.3647Z" fill="#EC615B"/>
<path d="M299.62 61.9548C300.605 62.7354 302.001 62.1602 302.206 60.8866C302.412 59.7774 301.673 58.7503 301.755 57.6411C301.878 56.121 302.905 54.8063 304.301 54.2722C305.04 53.9846 304.711 52.7932 303.972 53.0808C302.617 53.5738 301.549 54.4776 300.975 55.8334C300.687 56.4496 300.523 57.1481 300.523 57.8465C300.523 58.1751 300.564 58.5038 300.605 58.7914C300.605 58.7914 301.221 61.6261 300.523 61.051C299.866 60.5991 299.004 61.4618 299.62 61.9548Z" fill="#EC615B"/>
<path d="M193.679 197.53C192.94 197.119 192.857 196.174 193.391 195.558C193.925 194.942 194.911 194.695 195.691 194.818C196.348 194.942 197.087 195.27 197.374 195.928C197.703 196.667 197.21 197.941 196.225 197.817C195.444 197.694 195.116 198.886 195.896 199.009C197.292 199.214 198.524 198.269 198.729 196.831C198.976 195.311 197.744 194.079 196.348 193.709C194.911 193.298 193.104 193.75 192.242 195.065C191.461 196.256 191.79 197.941 193.104 198.598C193.761 198.968 194.377 197.9 193.679 197.53Z" fill="#EC615B"/>
<path d="M128.8 52.136C129.047 51.3143 129.293 50.4515 129.498 49.6299C129.745 49.712 129.991 49.7942 130.238 49.8764C130.566 49.9175 130.895 50.1229 131.223 50.205C131.675 50.3283 132.209 50.3694 132.66 50.2461C133.728 49.8764 134.056 48.8493 134.056 47.8222C134.056 46.7951 133.687 45.6859 134.508 44.8642C135.165 44.2069 136.274 43.9604 137.136 44.1658C139.969 44.8231 139.682 48.3974 138.45 50.3283C138.039 50.9856 139.107 51.6019 139.518 50.9445C140.873 48.7671 141.201 45.4805 138.984 43.7139C137.341 42.3992 134.549 42.6457 133.276 44.3712C132.414 45.5215 132.989 46.5486 132.742 47.8633C132.332 50.0407 129.252 48.0276 127.856 48.5206C125.228 49.4655 126.008 52.7933 128.349 53.4095C129.211 53.5328 129.539 52.3414 128.8 52.136Z" fill="#EC615B"/>
<path d="M395.869 232.327C396.732 231.67 397.676 231.629 398.703 232.163C399.154 232.41 399.77 231.999 399.606 231.465C399.237 230.725 399.319 230.068 399.935 229.493C400.222 228.219 400.879 228.137 401.865 229.205C402.152 229.78 402.973 229.452 403.014 228.876C403.014 228.342 403.055 227.767 403.138 227.233C403.261 225.918 404.123 225.59 405.642 226.206C405.971 226.946 406.997 226.288 406.71 225.59C406.217 224.439 404.903 224.07 403.754 224.522C402.029 225.22 401.824 227.274 401.782 228.876C402.152 228.753 402.563 228.671 402.932 228.548C402.357 227.315 400.879 226.863 399.647 227.48C398.087 228.301 398.005 230.232 398.415 231.752C398.703 231.506 399.031 231.3 399.319 231.054C397.923 230.355 396.609 230.397 395.254 231.218C394.597 231.67 395.212 232.738 395.869 232.327Z" fill="#EC615B"/>
<path d="M363.966 62.1191C361.748 62.7765 360.188 64.6663 359.9 67.0081C359.613 69.2266 360.927 71.9791 363.391 72.2256C365.197 72.39 367.004 70.3358 365.895 68.6514C364.705 66.8026 362.405 68.1584 361.461 69.4731C358.792 73.2938 361.173 80.771 366.676 79.0044C368.195 78.5114 370.084 76.6626 369.222 74.8961C368.154 72.7186 365.772 75.0604 365.156 76.2929C363.883 78.8401 363.555 82.4965 366.183 84.3041C368.236 85.701 371.069 84.7971 371.726 82.3732C371.891 81.8391 371.11 81.264 370.7 81.757C367.866 85.3312 370.043 90.2612 374.642 90.4256C375.422 90.4666 375.422 89.2341 374.642 89.1931C371.193 89.0698 369.386 85.3723 371.562 82.6608C371.234 82.4554 370.864 82.25 370.536 82.0446C369.92 84.3863 367.045 84.0166 365.937 82.2911C364.951 80.6888 365.28 78.5114 366.183 76.9091C366.388 76.4983 367.497 74.5674 368.154 75.7999C368.482 76.4572 367.251 77.4021 366.84 77.6486C365.567 78.3471 363.883 78.1416 362.898 77.0735C361.871 76.0053 361.543 74.362 361.666 72.9241C361.748 72.1435 361.912 71.2396 362.282 70.5823C362.446 70.3358 362.652 70.0893 362.816 69.8428C363.842 68.8568 363.801 69.1444 362.652 70.7466C361.83 70.8288 361.132 68.5692 361.091 68.0351C361.05 67.5011 361.132 66.967 361.255 66.474C361.666 64.9539 362.775 63.8036 364.294 63.3516C365.074 63.1051 364.746 61.9137 363.966 62.1191Z" fill="#EC615B"/>
<path d="M143.049 87.2211C142.72 86.2351 142.884 85.2901 143.623 84.5095C144.445 83.6468 145.43 83.7701 146.457 83.9344C147.196 84.0576 147.771 84.1398 148.469 83.729C149.003 83.4003 149.372 82.784 149.619 82.25C149.783 81.8391 149.906 81.4283 149.988 81.0175C150.029 80.7299 150.111 80.4423 150.152 80.1958C150.235 79.2098 150.933 78.799 152.206 78.9633C152.164 79.7028 153.191 79.7439 153.396 79.1276C153.725 78.1827 154.135 77.1967 154.998 76.6215C156.271 75.7588 158.077 75.9231 158.324 77.6897C158.447 78.4703 159.597 78.1416 159.515 77.3611C159.268 75.6766 157.667 74.6085 155.983 74.855C153.93 75.1425 152.821 77.0735 152.247 78.8401C152.657 78.8811 153.068 78.9633 153.437 79.0044C153.52 77.7719 152.37 76.9913 151.179 77.1556C149.249 77.4021 149.167 79.5795 148.756 81.0175C148.469 82.0445 148.222 82.8251 146.785 82.784C146.375 82.784 145.882 82.4965 145.43 82.4965C144.65 82.4965 143.87 82.784 143.254 83.236C141.899 84.263 141.324 85.9885 141.858 87.5908C142.104 88.2892 143.295 88.0016 143.049 87.2211Z" fill="#5222D0"/>
<path d="M372.916 127.072C375.864 127.072 378.254 124.515 378.254 121.361C378.254 118.207 375.864 115.651 372.916 115.651C369.968 115.651 367.578 118.207 367.578 121.361C367.578 124.515 369.968 127.072 372.916 127.072Z" fill="#5222D0"/>
<path d="M84.1642 128.345C86.1145 128.345 87.6956 126.782 87.6956 124.853C87.6956 122.925 86.1145 121.361 84.1642 121.361C82.2139 121.361 80.6328 122.925 80.6328 124.853C80.6328 126.782 82.2139 128.345 84.1642 128.345Z" fill="#5222D0"/>
<path d="M136.437 277.067C138.07 277.067 139.393 275.633 139.393 273.863C139.393 272.093 138.07 270.658 136.437 270.658C134.804 270.658 133.48 272.093 133.48 273.863C133.48 275.633 134.804 277.067 136.437 277.067Z" fill="#5222D0"/>
<path d="M366.716 134.179C370.14 134.179 372.917 131.549 372.917 128.304C372.917 125.06 370.14 122.43 366.716 122.43C363.292 122.43 360.516 125.06 360.516 128.304C360.516 131.549 363.292 134.179 366.716 134.179Z" fill="#EC615B"/>
<path d="M243.98 7.97136C245.726 7.97136 247.142 6.38951 247.142 4.4382C247.142 2.48688 245.726 0.905029 243.98 0.905029C242.234 0.905029 240.818 2.48688 240.818 4.4382C240.818 6.38951 242.234 7.97136 243.98 7.97136Z" fill="#EC615B"/>
<path d="M417.511 196.297C419.96 196.297 421.946 194.09 421.946 191.367C421.946 188.645 419.96 186.437 417.511 186.437C415.062 186.437 413.076 188.645 413.076 191.367C413.076 194.09 415.062 196.297 417.511 196.297Z" fill="#EC615B"/>
<path d="M71.764 170.826C76.6625 170.826 80.6335 166.761 80.6335 161.746C80.6335 156.732 76.6625 152.667 71.764 152.667C66.8655 152.667 62.8945 156.732 62.8945 161.746C62.8945 166.761 66.8655 170.826 71.764 170.826Z" fill="#EC615B"/>
<path d="M133.564 403.563C125.598 391.566 114.922 378.502 116.318 363.219C116.112 363.424 115.907 363.63 115.702 363.835C116.934 363.794 118.001 364 119.151 364.493C119.603 364.698 120.26 364.369 120.054 363.794C119.644 362.644 118.905 361.986 118.083 361.124C116.564 359.521 116.441 357.878 116.523 355.783C116.646 352.455 116.071 349.415 114.675 346.375C114.552 346.662 114.429 346.991 114.306 347.279C115.373 346.909 116.441 346.539 117.509 346.169C117.796 346.046 118.042 345.759 117.919 345.43C115.291 337.788 116.605 329.202 117.18 321.355C117.796 312.974 118.617 304.634 119.603 296.294C119.274 296.459 118.987 296.664 118.658 296.828C124.161 300.361 127.117 306.401 129.417 312.276C132.045 318.972 134.303 325.792 136.192 332.735C140.134 347.032 142.516 361.781 143.337 376.612C143.789 384.87 143.747 393.169 143.214 401.426C143.173 402.207 144.404 402.207 144.446 401.426C146.375 371.025 141.735 340.007 130.484 311.659C128.062 305.538 124.941 299.417 119.274 295.76C118.823 295.473 118.412 295.842 118.33 296.294C117.303 304.922 116.482 313.549 115.866 322.177C115.291 329.941 114.141 338.24 116.687 345.759C116.81 345.512 116.975 345.266 117.098 345.019C116.03 345.389 114.963 345.759 113.895 346.128C113.484 346.252 113.361 346.662 113.525 347.032C114.347 348.84 114.963 350.73 115.168 352.743C115.332 354.427 115.086 356.07 115.209 357.755C115.291 358.905 115.496 359.973 116.195 360.959C117.016 362.11 118.33 362.849 118.823 364.205C119.11 363.958 119.438 363.753 119.726 363.507C118.412 362.931 117.098 362.644 115.661 362.685C115.291 362.685 115.086 362.972 115.045 363.301C113.649 378.831 124.407 392.101 132.496 404.261C132.948 404.836 134.016 404.22 133.564 403.563Z" fill="#E8E8E8"/>
<path d="M119.643 299.17C129.005 324.313 134.631 350.812 136.232 377.598C136.684 385.157 136.807 392.758 136.643 400.358C136.643 401.139 137.874 401.139 137.874 400.358C138.49 373.572 135.164 346.703 127.978 320.862C125.925 313.426 123.503 306.072 120.834 298.841C120.587 298.102 119.396 298.431 119.643 299.17Z" fill="#E8E8E8"/>
<path d="M116.318 325.135C122.395 328.914 127.364 334.132 130.854 340.418C131.224 341.116 132.291 340.5 131.922 339.801C128.349 333.351 123.216 327.969 116.934 324.067C116.277 323.656 115.661 324.724 116.318 325.135Z" fill="#E8E8E8"/>
<path d="M117.55 309.975C120.999 312.563 123.792 315.768 125.968 319.465C126.378 320.164 127.446 319.547 127.035 318.849C124.736 314.946 121.779 311.618 118.166 308.907C117.55 308.455 116.934 309.523 117.55 309.975Z" fill="#E8E8E8"/>
<path d="M135.616 358.905C136.355 353.811 137.792 348.84 139.927 344.156C140.256 343.458 139.188 342.801 138.86 343.54C136.683 348.347 135.205 353.359 134.425 358.618C134.302 359.357 135.493 359.686 135.616 358.905Z" fill="#E8E8E8"/>
<path d="M138.574 335.57C142.351 323.039 148.88 311.7 155.409 300.444C155.04 300.403 154.67 300.361 154.301 300.279C157.668 316.713 160.46 333.228 162.595 349.867C162.8 349.661 163.006 349.456 163.211 349.251C161.774 349.168 160.337 349.086 158.899 349.004C158.407 348.963 158.037 349.744 158.448 350.072C160.912 351.962 160.665 355.249 160.378 358.042C160.008 361.74 159.598 365.396 159.187 369.094C159.433 368.888 159.721 368.683 159.967 368.519C158.858 368.272 157.791 368.19 156.641 368.19C156.189 368.19 155.861 368.724 156.107 369.135C159.269 374.558 154.342 380.227 152.042 384.911C149.743 389.636 148.264 394.73 147.525 399.947C147.402 400.728 148.593 401.057 148.716 400.276C149.578 393.949 151.631 387.951 154.793 382.405C157.175 378.214 159.926 373.243 157.175 368.519C157.011 368.847 156.805 369.135 156.641 369.464C157.668 369.423 158.653 369.505 159.639 369.751C160.049 369.833 160.378 369.587 160.419 369.176C160.87 364.944 161.527 360.713 161.733 356.481C161.856 353.852 161.486 351.017 159.31 349.292C159.146 349.661 159.023 349.99 158.858 350.36C160.296 350.442 161.733 350.524 163.17 350.606C163.457 350.606 163.827 350.319 163.786 349.99C161.61 333.269 158.817 316.589 155.409 300.074C155.286 299.54 154.547 299.499 154.301 299.91C147.731 311.249 141.16 322.711 137.342 335.323C137.177 335.981 138.368 336.309 138.574 335.57Z" fill="#E8E8E8"/>
<path d="M154.259 301.799C150.111 326.285 147.278 351.017 145.759 375.832C145.718 376.612 146.95 376.612 146.991 375.832C148.469 351.14 151.302 326.532 155.409 302.128C155.573 301.347 154.382 301.019 154.259 301.799Z" fill="#E8E8E8"/>
<path d="M141.817 326.655C143.5 332.365 145.471 337.953 147.688 343.458C147.976 344.197 149.167 343.869 148.879 343.129C146.662 337.624 144.732 331.996 143.007 326.326C142.761 325.546 141.57 325.874 141.817 326.655Z" fill="#E8E8E8"/>
<path d="M1.46542 350.894C15.5499 346.252 30.9894 343.211 45.854 343.992C53.5737 344.403 60.9239 346.786 68.233 349.004C75.3369 351.14 82.4407 353.359 89.5855 355.413C97.6338 357.714 105.764 359.563 114.1 360.138C114.88 360.179 114.88 358.946 114.1 358.905C98.7425 357.919 83.9189 352.496 69.3007 348.059C62.3611 345.964 55.4626 343.622 48.1945 342.924C40.7212 342.225 33.1246 342.924 25.7334 343.951C17.3566 345.142 9.10305 347.073 1.09586 349.703C0.397802 349.949 0.726299 351.14 1.46542 350.894Z" fill="#E8E8E8"/>
<path d="M45.2795 343.499C57.2698 340.87 69.3011 338.24 81.1271 334.83C92.7478 331.462 104.081 326.162 116.194 324.683C116.975 324.601 116.975 323.368 116.194 323.45C104.245 324.929 93.0763 330.065 81.5788 333.434C69.5475 336.967 57.2698 339.637 44.9921 342.349C44.1709 342.472 44.4994 343.663 45.2795 343.499Z" fill="#E8E8E8"/>
<path d="M133.974 321.889C137.259 321.684 140.585 321.643 143.87 321.766C144.65 321.807 144.65 320.574 143.87 320.533C140.544 320.41 137.259 320.451 133.974 320.657C133.194 320.739 133.194 321.971 133.974 321.889Z" fill="#E8E8E8"/>
<path d="M17.2336 399.496C31.0306 397.524 44.7044 401.016 58.255 403.152C64.7018 404.179 71.1897 404.795 77.7186 404.631C85.0278 404.426 92.3369 403.686 99.5639 404.96C100.344 405.083 100.673 403.891 99.8924 403.768C92.7886 402.536 85.6848 403.152 78.4988 403.398C71.2718 403.645 64.168 402.905 57.0642 401.755C43.76 399.578 30.4147 396.414 16.9051 398.345C16.1249 398.427 16.4534 399.619 17.2336 399.496Z" fill="#E8E8E8"/>
<path d="M99.2767 415.6C99.441 414.327 104.327 414.902 105.19 414.902C106.257 414.902 110.199 414.286 110.733 415.436C110.815 415.148 110.897 414.861 110.938 414.573C108.926 415.929 106.709 416.504 104.286 416.34C103.506 416.299 103.506 417.531 104.286 417.572C106.914 417.737 109.337 417.079 111.554 415.641C111.842 415.436 111.924 415.107 111.76 414.779C111.39 413.998 110.774 413.793 109.953 413.669C108.023 413.382 105.888 413.628 103.958 413.628C102.11 413.628 98.2912 412.93 98.0038 415.559C97.9217 416.381 99.1946 416.381 99.2767 415.6Z" fill="#E8E8E8"/>
<path d="M100.179 395.264C99.3992 395.675 98.5779 395.552 97.7567 394.894C97.7156 395.223 97.6745 395.552 97.6335 395.88C98.66 395.1 99.8509 394.607 101.165 394.648C102.232 394.689 103.177 395.264 104.245 395.305C105.23 395.346 106.133 394.935 107.119 394.812C108.679 394.566 110.116 394.894 111.513 395.675C112.211 396.045 112.827 395.017 112.129 394.607C111.102 394.031 110.075 393.621 108.885 393.538C107.201 393.374 105.641 394.278 104.039 394.073C102.725 393.908 101.658 393.374 100.261 393.497C99.0296 393.621 97.962 394.114 96.9765 394.853C96.689 395.059 96.5248 395.552 96.8533 395.839C97.962 396.743 99.1117 397.031 100.467 396.538C101.247 396.209 100.918 395.017 100.179 395.264Z" fill="#E8E8E8"/>
<path d="M37.9298 412.683C40.024 415.272 42.8163 412.848 45.1568 412.355C47.0868 411.944 48.6061 413.094 50.495 413.094C52.507 413.094 54.6833 412.149 56.449 413.423C57.106 413.875 57.722 412.807 57.065 412.355C55.9973 411.574 54.8476 411.451 53.5336 411.533C51.5626 411.697 50.0022 411.944 48.0312 411.328C46.6761 410.876 45.5264 410.876 44.1713 411.369C42.5288 411.985 40.1883 413.628 38.71 411.821C38.2994 411.204 37.396 412.108 37.9298 412.683Z" fill="#E8E8E8"/>
<path d="M170.562 404.467C173.272 403.398 175.448 403.727 178.281 404.056C180.047 404.261 181.279 403.645 182.839 402.947C184.482 402.207 185.59 402.577 187.069 403.398C187.685 403.727 188.259 404.015 188.958 404.138C191.052 404.549 193.885 403.152 195.651 404.672C196.267 405.206 197.129 404.302 196.513 403.809C194.953 402.495 193.269 402.782 191.339 402.947C189.738 403.07 188.506 402.782 187.151 402.002C186.33 401.55 185.549 401.139 184.605 401.139C183.743 401.139 182.962 401.509 182.182 401.837C180.334 402.659 179.226 402.905 177.173 402.577C174.75 402.207 172.533 402.33 170.233 403.234C169.494 403.563 169.822 404.754 170.562 404.467Z" fill="#E8E8E8"/>
<path d="M440.792 338.487C455.369 331.79 470.029 325.053 485.386 320.369C500.867 315.686 516.963 313.385 533.142 313.755C542.34 313.96 551.538 315.028 560.572 316.877C561.352 317.041 561.68 315.85 560.9 315.686C544.804 312.358 528.255 311.618 511.954 313.549C495.775 315.439 480.294 320.205 465.224 326.326C456.766 329.777 448.43 333.598 440.135 337.419C439.478 337.747 440.094 338.815 440.792 338.487Z" fill="#E8E8E8"/>
<path d="M507.52 339.843C517.129 336.35 526.984 333.639 537.044 331.831C542.218 330.886 547.392 330.229 552.648 329.736C556.426 329.407 563.448 327.805 566.158 331.42C566.609 332.037 567.718 331.42 567.225 330.804C564.885 327.682 560.82 327.969 557.288 328.175C551.704 328.504 546.078 329.12 540.535 329.983C529.16 331.749 517.991 334.707 507.192 338.651C506.453 338.939 506.781 340.13 507.52 339.843Z" fill="#E8E8E8"/>
<path d="M440.835 313.467C452.086 311.002 463.871 312.317 474.26 317.288C474.958 317.616 475.615 316.548 474.876 316.22C464.159 311.125 452.086 309.728 440.507 312.276C439.726 312.44 440.055 313.631 440.835 313.467Z" fill="#E8E8E8"/>
<path d="M465.923 369.998C467.688 367.902 470.48 370.285 472.328 371.025C473.848 371.641 475.038 371.477 476.517 370.819C478.898 369.751 480.828 370.696 483.21 370.614C485.674 370.532 487.686 368.19 489.944 370.244C490.519 370.778 491.422 369.916 490.806 369.381C489.328 368.067 487.727 367.82 485.879 368.478C484.934 368.847 484.236 369.299 483.169 369.381C482.348 369.423 481.526 369.217 480.705 369.135C479.72 369.012 478.734 368.847 477.79 369.012C476.229 369.299 474.997 370.532 473.273 370.08C472.041 369.751 471.014 368.888 469.823 368.395C468.14 367.738 466.21 367.615 464.978 369.094C464.526 369.751 465.389 370.614 465.923 369.998Z" fill="#E8E8E8"/>
<path d="M513.268 401.55C510.64 393.169 509.449 384.459 509.777 375.667C509.449 375.832 509.161 376.037 508.833 376.201C509.736 376.653 510.681 377.105 511.584 377.557C512.036 377.762 512.488 377.516 512.529 377.023C513.103 368.56 514.992 360.302 518.072 352.373C517.785 352.496 517.456 352.619 517.169 352.743C517.661 352.989 518.154 353.236 518.688 353.523C518.893 353.647 519.263 353.647 519.427 353.441C522.63 349.415 526.161 345.717 530.103 342.39C529.775 342.349 529.446 342.308 529.118 342.266C532.033 346.334 531.828 351.675 531.623 356.44C531.376 361.74 530.678 366.958 529.487 372.134C527.147 382.158 523.082 391.69 517.456 400.317C517.004 400.975 518.072 401.591 518.524 400.933C524.478 391.854 528.748 381.706 531.007 371.066C532.115 365.889 532.772 360.631 532.937 355.372C533.06 350.689 533.101 345.594 530.227 341.609C529.98 341.28 529.57 341.198 529.241 341.486C525.299 344.814 521.768 348.47 518.565 352.537C518.811 352.496 519.058 352.455 519.304 352.455C518.811 352.209 518.318 351.962 517.785 351.675C517.415 351.469 517.045 351.675 516.881 352.044C513.76 360.056 511.913 368.437 511.297 377.023C511.625 376.859 511.913 376.653 512.241 376.489C511.338 376.037 510.393 375.585 509.49 375.133C509.079 374.928 508.587 375.174 508.546 375.667C508.217 384.541 509.408 393.374 512.077 401.837C512.323 402.618 513.514 402.289 513.268 401.55Z" fill="#E8E8E8"/>
<path d="M531.541 370.409C534.333 364.41 537.618 358.659 541.314 353.195C541.068 353.277 540.862 353.4 540.616 353.482C542.997 354.098 544.311 351.921 545.543 350.278C547.802 347.238 550.635 344.814 553.961 342.965C553.674 342.842 553.345 342.718 553.058 342.595C556.795 354.263 554.413 366.341 547.432 376.283C544.147 380.967 540.369 385.445 536.51 389.677C532.65 393.826 528.42 397.565 523.329 400.153C522.63 400.523 523.246 401.591 523.944 401.221C529.118 398.592 533.471 394.771 537.372 390.539C541.478 386.061 545.502 381.337 548.911 376.325C555.768 366.259 557.985 353.975 554.249 342.308C554.125 341.938 553.715 341.732 553.345 341.938C551.128 343.17 549.075 344.649 547.227 346.457C546.406 347.279 545.625 348.182 544.886 349.127C543.983 350.278 542.792 352.784 540.944 352.332C540.657 352.25 540.411 352.373 540.246 352.619C536.551 358.084 533.266 363.835 530.473 369.833C530.145 370.491 531.213 371.148 531.541 370.409Z" fill="#E8E8E8"/>
<path d="M525.752 349.579C522.918 357.303 519.469 365.068 517.621 373.12C515.733 381.337 514.583 389.759 513.187 398.058C513.063 398.838 514.254 399.167 514.377 398.386C515.815 390.087 516.923 381.624 518.812 373.449C520.66 365.396 524.109 357.673 526.943 349.908C527.23 349.168 526.039 348.84 525.752 349.579Z" fill="#E8E8E8"/>
<path d="M547.391 355.701C542.834 363.014 538.276 370.326 533.718 377.598C529.57 384.254 525.095 390.786 522.22 398.099C521.933 398.838 523.124 399.167 523.411 398.427C526.368 390.991 531.008 384.295 535.237 377.516C539.631 370.45 544.065 363.383 548.459 356.276C548.87 355.619 547.802 355.002 547.391 355.701Z" fill="#E8E8E8"/>
<path d="M514.91 357.221C515.321 361.37 516.306 365.355 517.826 369.217C518.113 369.957 519.304 369.628 519.016 368.888C517.538 365.15 516.553 361.247 516.142 357.221C516.06 356.44 514.828 356.399 514.91 357.221Z" fill="#E8E8E8"/>
<path d="M518.278 376.982C523 372.915 527.353 368.478 531.377 363.712C531.869 363.096 531.007 362.233 530.514 362.849C526.49 367.615 522.138 372.052 517.415 376.119C516.8 376.653 517.703 377.516 518.278 376.982Z" fill="#E8E8E8"/>
<path d="M537.043 357.467C536.674 361.617 536.756 365.725 537.29 369.833C537.372 370.614 538.604 370.614 538.521 369.833C537.988 365.725 537.905 361.576 538.275 357.467C538.357 356.646 537.125 356.646 537.043 357.467Z" fill="#E8E8E8"/>
<path d="M53.3675 224.193C47.4134 222.55 43.1019 216.757 43.184 210.553C43.2661 203.61 49.5076 196.215 56.7757 196.38C64.4133 196.585 68.5195 205.87 67.7804 212.566C66.9181 220.537 58.993 225.549 51.3965 223.453C50.6163 223.248 50.2878 224.439 51.068 224.645C57.1863 226.329 63.7974 223.946 67.0824 218.441C70.3674 212.895 69.2587 205.541 65.7684 200.324C62.237 195.065 55.5849 193.75 50.1235 196.914C44.9086 199.995 41.3362 206.363 42.0753 212.443C42.8144 218.441 47.2081 223.741 53.039 225.343C53.8192 225.59 54.1477 224.398 53.3675 224.193Z" fill="#E8E8E8"/>
<path d="M40.9681 255.375C42.241 256.854 43.9246 257.84 45.8956 258.046C46.9221 258.169 47.9487 258.046 48.9342 257.676C50.4946 257.142 51.7675 255.991 53.5743 256.32C55.8327 256.69 57.5163 258.251 59.8979 257.963C62.4848 257.676 64.7432 255.827 67.4534 256.033C69.9171 256.238 72.0113 257.922 74.434 258.415C76.5692 258.867 77.9243 258.087 79.7311 257.142C84.3711 254.677 89.6682 257.799 94.5136 256.156C95.2527 255.909 94.9242 254.718 94.1851 254.964C89.8324 256.402 85.2745 254.019 80.8808 255.293C78.4581 255.991 76.9388 257.799 74.1876 257.101C72.0934 256.567 70.2867 255.293 68.1514 254.923C66.1394 254.554 64.3737 255.252 62.5259 255.95C61.4582 256.361 60.3085 256.813 59.1177 256.813C57.6394 256.813 56.4076 255.991 55.0936 255.498C53.2047 254.8 51.8086 255.046 50.0018 255.868C47.0453 257.224 44.0477 257.183 41.8304 254.512C41.3376 253.896 40.4342 254.759 40.9681 255.375Z" fill="#E8E8E8"/>
<path d="M72.7087 244.652C75.9526 246.46 79.6893 243.79 82.8922 245.474C84.1651 246.131 84.9864 247.2 86.5468 246.994C87.8197 246.83 88.8052 245.844 89.7907 245.104C92.0081 243.379 93.8148 243.79 96.2375 244.776C98.0443 245.515 99.7689 245.967 101.699 245.926C106.051 245.844 110.363 243.954 114.675 245.392C115.414 245.638 115.742 244.447 115.003 244.201C111.307 242.968 107.612 244.036 103.875 244.488C101.658 244.776 99.5636 244.735 97.4694 243.913C95.7448 243.256 94.0201 242.27 92.0902 242.516C90.8173 242.68 89.8728 243.42 88.8873 244.201C88.0661 244.858 87.2859 245.68 86.1772 245.68C85.0685 245.721 84.4115 244.858 83.4671 244.365C80.2642 242.598 76.4454 245.31 73.2836 243.543C72.6266 243.173 72.0106 244.242 72.7087 244.652Z" fill="#E8E8E8"/>
<path d="M437.056 219.016C439.519 218.359 441.285 218.359 443.461 219.797C444.529 220.495 445.638 221.03 446.911 221.276C449.169 221.687 451.51 221.153 453.686 220.578C456.355 219.838 459.065 218.852 461.857 218.852C464.814 218.852 467.237 220.906 470.234 220.66C475.819 220.167 479.309 214.621 485.304 215.278C490.519 215.853 495.693 219.14 500.826 216.634C501.524 216.305 500.908 215.237 500.21 215.565C494.872 218.154 489.082 213.799 483.58 214.004C481.075 214.086 478.939 215.155 476.804 216.387C474.217 217.948 471.384 220.085 468.14 219.304C466.662 218.975 465.389 218.154 463.911 217.825C462.761 217.579 461.611 217.579 460.461 217.702C457.915 217.948 455.493 218.811 453.07 219.468C450.237 220.208 447.28 220.742 444.611 219.14C443.503 218.441 442.517 217.62 441.203 217.373C439.684 217.086 438.164 217.496 436.727 217.866C435.988 218.03 436.276 219.222 437.056 219.016Z" fill="#E8E8E8"/>
<path d="M481.773 229.862C484.114 228.507 486.824 228.26 489.288 229.411C490.766 230.068 491.916 230.931 493.599 230.807C497.418 230.52 500.046 227.151 504.029 228.959C505.22 229.493 506.37 230.068 507.725 229.862C509.409 229.575 510.599 228.219 512.119 227.644C515.855 226.206 520.085 228.301 523.986 227.439C524.766 227.274 524.437 226.083 523.657 226.247C519.797 227.069 515.814 225.097 511.995 226.37C510.23 226.946 508.875 228.63 506.945 228.63C505.015 228.63 503.496 227.069 501.483 227.11C497.788 227.192 494.831 230.89 491.054 229.082C487.686 227.439 484.484 226.946 481.075 228.918C480.459 229.164 481.075 230.232 481.773 229.862Z" fill="#E8E8E8"/>
<path d="M449.786 291.241C452.414 290.419 454.262 291.077 456.644 292.104C457.958 292.638 459.19 292.761 460.586 292.515C462.31 292.145 463.871 291.323 465.554 290.871C468.1 290.214 469.537 291.611 471.755 292.473C475.04 293.747 477.709 291.405 480.747 290.666C484.607 289.721 488.139 292.473 492.04 291.898C492.82 291.775 492.491 290.584 491.711 290.707C487.933 291.282 484.525 288.571 480.706 289.433C478.9 289.844 477.339 290.83 475.574 291.364C472.987 292.145 471.508 290.748 469.25 289.844C466.17 288.653 463.46 290.625 460.504 291.282C458.368 291.775 456.931 290.707 455.001 290.05C453.153 289.433 451.265 289.515 449.458 290.091C448.678 290.296 449.006 291.487 449.786 291.241Z" fill="#E8E8E8"/>
<path opacity="0.22" d="M528.668 415.929C473.685 426.446 418.661 436.922 363.679 447.44C297.855 426.898 232.073 406.356 166.25 385.815C254.001 386.143 341.751 386.431 429.461 386.76C462.557 396.496 495.612 406.233 528.668 415.929Z" fill="#666666"/>
<path opacity="0.19" d="M464.774 400.399C418.414 411.533 372.013 422.667 325.654 433.8C273.34 417.819 220.986 401.837 168.672 385.815C239.628 379.858 310.625 373.901 381.581 367.944C409.298 378.79 437.015 389.594 464.774 400.399Z" fill="#666666"/>
<path d="M166.045 261.579C166.661 302.539 167.318 343.499 167.934 384.5C219.919 396.25 271.863 407.959 323.848 419.708C323.766 372.298 323.643 324.888 323.561 277.478C271.042 272.137 218.523 266.837 166.045 261.579Z" fill="white" stroke="#161616" stroke-width="2" stroke-miterlimit="10"/>
<path d="M438.289 250.774C438.084 295.965 437.878 341.157 437.673 386.349C399.854 397.482 361.995 408.575 324.176 419.708C324.053 371.764 323.93 323.861 323.807 275.917C361.954 267.577 400.142 259.196 438.289 250.774Z" fill="white" stroke="#161616" stroke-width="2" stroke-miterlimit="10"/>
<path d="M322.492 277.067C270.548 271.685 218.645 266.303 166.742 260.921C200.947 252.212 235.152 243.502 269.357 234.792C325.284 240.174 381.253 245.556 437.18 250.979C398.951 259.648 360.721 268.358 322.492 277.067Z" fill="white" stroke="#161616" stroke-width="2" stroke-miterlimit="10"/>
<path d="M360.517 243.625C347.172 242.721 333.868 241.818 320.522 240.914C294.242 250.527 267.962 260.141 241.724 269.754C241.477 313.344 241.231 356.933 240.943 400.523C252.728 403.357 264.513 406.151 276.298 408.986C275.805 363.835 275.272 318.726 274.779 273.575C303.358 263.633 331.938 253.609 360.517 243.625Z" fill="#161616" stroke="#161616" stroke-width="2" stroke-miterlimit="10"/>
<path d="M372.014 405.165C382.896 401.837 393.818 398.509 404.7 395.182C404.33 350.031 403.92 304.922 403.55 259.771C350.251 253.485 296.911 247.2 243.612 240.914C234.373 243.214 225.175 245.515 215.936 247.857C268.085 255.95 320.234 264.003 372.425 272.096C372.302 316.466 372.178 360.795 372.014 405.165Z" fill="#161616" stroke="#161616" stroke-width="2" stroke-miterlimit="10"/>
<path d="M374.765 182.411C378.543 183.972 379.159 193.75 377.106 201.392C369.222 230.684 318.181 242.557 315.758 238.079C314.732 236.148 323.519 232.492 341.997 214.169C362.364 193.956 369.797 180.398 374.765 182.411Z" fill="white" stroke="#161616" stroke-width="2" stroke-miterlimit="10"/>
<path d="M269.728 201.679C270.713 206.322 273.136 211.704 288.699 226.658C299.128 236.682 304.384 241.694 305.863 240.708C308.86 238.654 298.923 218.893 289.479 204.802C284.633 197.571 276.133 184.958 271.822 186.602C268.742 187.752 268.496 195.886 269.728 201.679Z" fill="white" stroke="#161616" stroke-width="2" stroke-miterlimit="10"/>
<path d="M308.901 257.881C314.934 257.881 319.824 252.713 319.824 246.337C319.824 239.961 314.934 234.792 308.901 234.792C302.869 234.792 297.979 239.961 297.979 246.337C297.979 252.713 302.869 257.881 308.901 257.881Z" fill="#161616" stroke="#161616" stroke-width="2" stroke-miterlimit="10"/>
<path d="M309.107 241.653C315.308 235.614 321.59 229.205 327.873 222.508C341.752 207.718 354.112 193.134 365.076 179.001C367.457 178.714 372.138 178.426 374.109 181.096C376.984 184.917 372.426 192.477 370.291 196.051C359.409 214.169 324.793 233.437 309.107 241.653Z" fill="#161616" stroke="#161616" stroke-width="2" stroke-miterlimit="10"/>
<path d="M272.233 185.985C273.752 184.589 278.474 187.423 281.266 189.108C304.426 203.035 307.259 235.984 307.711 241.982C288.822 217.578 268.414 189.56 272.233 185.985Z" fill="#161616" stroke="#161616" stroke-width="2" stroke-miterlimit="10"/>
<path d="M174.626 283.764C193.351 284.092 212.157 284.01 230.841 284.873C249.729 285.736 268.454 288.365 287.096 291.611C297.608 293.459 308.12 295.472 318.632 297.527C319.413 297.691 319.741 296.5 318.961 296.335C300.565 292.761 282.128 289.228 263.526 286.722C244.72 284.216 225.913 283.394 206.942 283.065C196.184 282.901 185.385 282.696 174.626 282.531C173.846 282.531 173.846 283.764 174.626 283.764Z" fill="#161616"/>
<path d="M334.155 296.91C365.609 287.461 397.679 280.107 430.159 274.931C430.94 274.808 430.611 273.616 429.831 273.739C397.392 278.916 365.322 286.27 333.827 295.719C333.088 295.924 333.416 297.116 334.155 296.91Z" fill="#161616"/>
<path d="M277.652 353.482C277.652 365.93 277.652 378.338 277.652 390.786C277.652 391.566 278.884 391.566 278.884 390.786C278.884 378.338 278.884 365.93 278.884 353.482C278.884 352.702 277.652 352.702 277.652 353.482Z" fill="#161616"/>
<path d="M281.719 383.35C281.719 389.553 281.719 395.798 281.719 402.002C281.719 402.782 282.951 402.782 282.951 402.002C282.951 395.798 282.951 389.553 282.951 383.35C282.951 382.528 281.719 382.528 281.719 383.35Z" fill="#161616"/>
<path d="M366.717 321.807C366.717 331.749 366.717 341.691 366.717 351.633C366.717 352.414 367.949 352.414 367.949 351.633C367.949 341.691 367.949 331.749 367.949 321.807C367.949 321.026 366.717 321.026 366.717 321.807Z" fill="#161616"/>
<path d="M368.936 363.178C368.936 369.874 368.936 376.612 368.936 383.309C368.936 384.089 370.167 384.089 370.167 383.309C370.167 376.612 370.167 369.874 370.167 363.178C370.167 362.397 368.936 362.397 368.936 363.178Z" fill="#161616"/>
<path d="M218.852 320.205C218.852 325.587 218.852 330.968 218.852 336.35C218.852 337.131 220.083 337.131 220.083 336.35C220.083 330.968 220.083 325.587 220.083 320.205C220.083 319.424 218.852 319.424 218.852 320.205Z" fill="#161616"/>
<path d="M215.361 340.705C215.361 345.06 215.361 349.415 215.361 353.77C215.361 354.55 216.593 354.55 216.593 353.77C216.593 349.415 216.593 345.06 216.593 340.705C216.593 339.925 215.361 339.925 215.361 340.705Z" fill="#161616"/>
<path opacity="0.21" d="M435.662 386.184C398.542 397.482 361.421 408.821 324.301 420.119C324.301 372.956 324.301 325.792 324.301 278.628C361.627 270.083 398.952 261.538 436.278 253.033C436.114 297.403 435.909 341.773 435.662 386.184Z" fill="#666666"/>
<path opacity="0.21" d="M438.124 386.719C400.306 397.072 362.528 407.425 324.71 417.778C324.464 376.489 324.217 335.241 323.93 293.952C340.642 309.276 357.396 324.601 374.108 339.966C395.296 332.94 416.526 325.915 437.714 318.89C437.878 341.486 438.001 364.123 438.124 386.719Z" fill="#666666"/>
<path opacity="0.14" d="M376.613 184.548C374.601 184.137 372.466 197.982 365.444 209.362C359.08 219.674 346.391 231.752 318.428 238.736C322.041 238.408 327.544 237.668 333.99 235.778C340.684 233.848 368.935 225.631 376.367 203.569C379.406 194.449 378.256 184.876 376.613 184.548Z" fill="#666666"/>
<path opacity="0.2" d="M275.23 272.548C287.098 280.6 299.006 288.653 310.873 296.705C299.95 294.815 289.069 292.966 278.146 291.077C278.598 313.015 280.404 337.624 284.593 364.328C287.344 381.871 290.752 398.181 294.53 413.135C288.74 411.533 282.909 409.931 277.119 408.287C276.503 363.055 275.887 317.781 275.23 272.548Z" fill="#666666"/>
<path opacity="0.13" d="M278.105 272.918C295.557 270.412 313.05 267.906 330.501 265.399C322.823 264.372 315.144 263.345 307.465 262.359C302.168 264.331 297.815 265.687 294.777 266.591C291.656 267.495 289.316 268.07 285.825 269.426C282.499 270.699 279.83 272.014 278.105 272.918Z" fill="#666666"/>
<path d="M420.262 377.105C419.112 378.173 418.003 379.283 416.854 380.351C418.825 387.951 420.795 395.552 422.766 403.152C424.327 402.371 425.928 401.632 427.489 400.851C425.107 392.922 422.684 384.993 420.262 377.105Z" fill="#161616" stroke="#161616" stroke-width="3" stroke-miterlimit="10"/>
<path d="M422.52 373.531C421.371 373.202 420.262 372.874 419.112 372.545C418.907 368.601 418.66 364.657 418.455 360.713C425.148 358.289 431.883 355.865 438.576 353.4C439.151 353.564 439.767 353.729 440.341 353.893C434.428 360.425 428.474 366.999 422.52 373.531Z" fill="#161616" stroke="#161616" stroke-width="3" stroke-miterlimit="10"/>
<path d="M422.314 360.713C422.479 365.068 422.684 369.381 422.848 373.736C428.556 372.093 434.223 370.491 439.93 368.847C440.012 363.958 440.095 359.111 440.218 354.222C434.223 356.399 428.269 358.535 422.314 360.713Z" fill="white" stroke="#161616" stroke-width="3" stroke-miterlimit="10"/>
<path d="M420.426 376.982C427.489 375.174 434.51 373.367 441.573 371.559C441.327 373.654 441.203 376.037 441.286 378.625C441.573 385.445 443.38 391.032 445.063 394.894C439.191 396.866 433.319 398.879 427.447 400.851C425.107 392.881 422.766 384.952 420.426 376.982Z" fill="white" stroke="#161616" stroke-width="3" stroke-miterlimit="10"/>
<path d="M427.693 372.257C427.652 372.997 427.775 373.736 428.063 374.435C428.35 375.174 429.541 374.846 429.254 374.106C429.007 373.49 428.925 372.874 428.925 372.257C428.966 371.477 427.734 371.477 427.693 372.257Z" fill="#161616"/>
<path d="M431.473 371.6C431.39 372.257 431.514 372.915 431.76 373.49C431.883 373.777 432.171 374.024 432.499 373.901C432.787 373.818 433.074 373.449 432.91 373.161C432.704 372.627 432.622 372.134 432.663 371.6C432.704 371.271 432.376 370.984 432.047 370.984C431.719 370.984 431.473 371.271 431.473 371.6Z" fill="#161616"/>
<path d="M426.258 401.837C427.12 405.863 430.98 409.52 434.142 411.985C437.632 414.696 441.738 416.299 446.091 416.792C446.871 416.874 446.871 415.641 446.091 415.559C441.861 415.066 437.796 413.423 434.47 410.67C431.678 408.37 428.229 405.083 427.449 401.509C427.284 400.728 426.093 401.057 426.258 401.837Z" fill="#161616"/>
<path d="M429.131 400.769C433.155 406.891 438.493 412.56 446.049 413.793C446.829 413.916 447.157 412.724 446.377 412.601C439.109 411.41 434.058 406.028 430.157 400.153C429.747 399.454 428.679 400.071 429.131 400.769Z" fill="#161616"/>
<path d="M446.707 413.053C446.994 411.779 447.405 410.547 448.021 409.355C448.267 408.904 448.637 408.452 448.801 408C448.431 407.26 448.308 407.301 448.513 408.082C448.596 408.493 448.637 408.904 448.678 409.355C448.76 410.506 448.678 411.615 448.555 412.765C448.513 413.258 448.554 414.943 448.226 415.313C447.897 415.682 447.158 415.641 446.748 415.682C445.968 415.723 445.968 416.956 446.748 416.915C447.569 416.874 448.431 417.243 449.088 416.545C449.745 415.806 449.622 414.368 449.745 413.464C449.951 411.903 450.033 410.3 449.868 408.698C449.786 407.959 449.827 406.932 449.129 406.562C448.965 406.48 448.678 406.439 448.513 406.562C446.83 407.877 445.968 410.835 445.516 412.765C445.311 413.505 446.501 413.834 446.707 413.053Z" fill="#161616"/>
<path d="M438.616 397.483C442.435 402.125 448.348 404.343 454.261 403.563C455.041 403.44 454.712 402.289 453.932 402.371C448.43 403.111 442.968 400.892 439.478 396.62C438.985 396.003 438.123 396.866 438.616 397.483Z" fill="#161616"/>
<path d="M435.331 399.044C439.93 404.015 446.459 406.767 453.235 406.562C454.015 406.521 454.015 405.288 453.235 405.329C446.747 405.535 440.587 402.947 436.194 398.181C435.701 397.565 434.798 398.468 435.331 399.044Z" fill="#161616"/>
<path d="M455.166 402.782C455.371 402.002 455.617 401.221 455.905 400.481C455.987 400.235 456.726 397.893 457.013 397.893C456.808 397.729 456.603 397.606 456.438 397.441C456.849 398.674 456.562 400.399 456.438 401.632C456.274 403.152 455.946 404.631 455.535 406.11C455.33 406.891 456.521 407.219 456.726 406.439C457.178 404.877 457.506 403.275 457.67 401.632C457.794 400.276 458.081 398.427 457.629 397.113C457.547 396.866 457.301 396.661 457.054 396.661C455.207 396.784 454.385 401.057 454.016 402.454C453.769 403.234 454.96 403.563 455.166 402.782Z" fill="#161616"/>
<path d="M452.782 406.48C453.768 406.891 454.794 407.055 455.862 406.849C456.642 406.726 456.314 405.535 455.533 405.658C454.835 405.781 454.096 405.699 453.398 405.412C452.7 405.083 452.043 406.151 452.782 406.48Z" fill="#161616"/>
<path d="M430.322 406.89C430.486 405.904 431.348 405.288 432.334 405.411C433.114 405.494 433.114 404.261 432.334 404.179C430.855 404.015 429.377 405.083 429.131 406.562C428.966 407.342 430.157 407.671 430.322 406.89Z" fill="#161616"/>
<path d="M433.935 410.547C434.1 409.725 434.715 409.15 435.496 408.986C436.276 408.821 435.947 407.63 435.167 407.794C433.976 408.041 432.991 408.986 432.745 410.177C432.58 410.999 433.73 411.328 433.935 410.547Z" fill="#161616"/>
<path d="M437.753 413.464C438.041 412.601 438.739 411.985 439.642 411.821C440.423 411.656 440.094 410.465 439.314 410.629C438 410.876 436.973 411.862 436.563 413.135C436.316 413.875 437.507 414.203 437.753 413.464Z" fill="#161616"/>
<path d="M441.779 412.026C440.834 412.683 440.383 413.751 440.588 414.902C440.711 415.682 441.902 415.354 441.779 414.573C441.697 413.998 441.943 413.423 442.395 413.094C443.052 412.642 442.436 411.574 441.779 412.026Z" fill="#161616"/>
<path d="M448.144 408.493C447.363 410.588 447.774 413.299 447.774 415.518C447.774 416.299 449.006 416.299 449.006 415.518C449.006 413.423 448.595 410.793 449.334 408.821C449.581 408.082 448.39 407.753 448.144 408.493Z" fill="#161616"/>
<path d="M441.533 402.33C441.533 401.673 441.943 401.098 442.6 400.933C443.38 400.728 443.052 399.537 442.272 399.742C441.122 400.03 440.301 401.139 440.301 402.33C440.301 403.111 441.533 403.111 441.533 402.33Z" fill="#161616"/>
<path d="M438.206 400.153C438.534 399.496 439.15 399.085 439.889 398.961C440.218 398.92 440.382 398.51 440.3 398.222C440.218 397.852 439.889 397.729 439.561 397.811C438.534 397.975 437.631 398.633 437.138 399.578C436.81 400.235 437.877 400.851 438.206 400.153Z" fill="#161616"/>
<path d="M448.143 404.754C448.143 404.425 448.307 404.138 448.636 403.974C449.334 403.604 448.718 402.536 448.02 402.905C447.322 403.275 446.911 404.015 446.952 404.754C446.911 405.535 448.143 405.535 448.143 404.754Z" fill="#161616"/>
<path d="M425.312 366.177C426.133 366.177 426.954 366.177 427.775 366.177C428.556 366.177 428.556 364.944 427.775 364.944C426.954 364.944 426.133 364.944 425.312 364.944C424.532 364.944 424.532 366.177 425.312 366.177Z" fill="#161616"/>
<path d="M435.126 363.548C435.742 362.931 436.358 362.315 436.974 361.699C437.549 361.124 436.645 360.261 436.111 360.836C435.496 361.452 434.88 362.069 434.264 362.685C433.73 363.219 434.592 364.082 435.126 363.548Z" fill="#161616"/>
<path d="M430.487 367.985C431.637 368.354 432.869 367.82 433.485 366.834C433.895 366.136 432.828 365.52 432.417 366.218C432.088 366.793 431.431 366.999 430.815 366.834C430.035 366.588 429.748 367.779 430.487 367.985Z" fill="#161616"/>
<path d="M438.864 380.803C436.729 381.419 434.593 382.035 432.458 382.651C432.171 382.076 431.801 381.254 431.637 380.186C431.431 378.995 431.514 378.009 431.637 377.352C433.936 376.9 436.236 376.448 438.535 375.996C438.33 376.612 438.125 377.68 438.33 378.954C438.453 379.734 438.658 380.351 438.864 380.803Z" fill="#EC615B"/>
<path opacity="0.24" d="M426.586 359.357C426.709 363.465 426.873 367.615 426.997 371.723C431.226 370.614 435.455 369.546 439.685 368.437C439.726 363.917 439.767 359.439 439.767 354.92C435.414 356.44 430.98 357.878 426.586 359.357Z" fill="#666666"/>
<path opacity="0.24" d="M426.586 376.242C427.161 379.036 427.9 381.994 428.721 385.034C430.076 389.923 431.637 394.401 433.238 398.427C436.934 397.154 440.588 395.921 444.284 394.648C443.38 392.717 442.518 390.416 441.82 387.787C440.219 381.542 440.424 376.078 440.917 372.339C436.154 373.654 431.39 374.969 426.586 376.242Z" fill="#666666"/>
<path d="M211.172 49.3011C211.336 52.6289 211.624 57.4767 212.157 63.2695C213.471 77.6897 214.252 90.138 217.578 99.998C220.082 107.434 225.995 121.361 240.778 135.371C239.916 138.205 238.519 141.78 236.179 145.642C233.305 150.366 230.02 153.735 227.556 155.912C215.401 144.039 209.037 132.207 205.669 124.566C197.416 105.75 197.211 88.6179 197.046 75.9231C196.923 65.6112 197.785 56.9426 198.689 50.739C197.211 49.3422 194.952 47.1648 192.119 44.5765C186.945 39.893 184.974 38.373 185.302 37.7156C185.59 37.1405 187.725 37.1815 196.595 40.345C188.957 30.526 185.549 25.2674 186.37 24.4868C187.109 23.7884 191.215 26.7464 198.73 33.3608C193.145 19.4746 192.242 15.3252 192.981 14.9555C193.72 14.5857 196.595 17.9135 204.643 31.2655C203.37 20.5017 203.781 18.0778 204.438 17.9135C205.587 17.667 208.133 24.3635 208.872 26.3766C210.597 30.978 211.541 34.922 212.034 37.5924C218.974 32.1283 220.37 32.6213 220.698 32.95C221.889 34.0181 218.727 39.4411 217.947 40.7969C215.689 44.7409 213.102 47.5345 211.172 49.3011Z" fill="white" stroke="#161616" stroke-width="2" stroke-miterlimit="10"/>
<path opacity="0.15" d="M193.351 15.6128C192.653 15.9825 195.24 22.8845 198.607 28.7595C199.551 30.3617 200.126 31.1423 205.095 38.6195C207.107 41.6596 208.749 44.1246 209.858 45.768C208.421 51.684 206.86 59.8185 206.45 69.5963C206.162 76.4161 205.711 89.9325 210.474 106.119C215.648 123.703 224.64 136.398 231.21 144.08C234.372 141.246 237.534 138.411 240.696 135.576C227.104 122.512 221.109 109.406 218.358 101.97C214.457 91.3705 213.389 81.1818 212.445 72.3078C211.418 63.064 211.295 55.2582 211.377 49.5476C213.471 47.9043 216.592 45.0285 218.892 40.5504C219.384 39.5644 222.095 34.3468 220.739 33.1965C219.302 31.964 214.087 35.908 211.911 37.5924C207.107 21.6931 205.177 18.1189 204.397 18.2832C203.945 18.3654 203.822 19.68 203.657 21.7753C203.329 26.048 204.068 29.54 204.766 31.7175C204.725 31.7996 204.725 31.7996 193.351 15.6128Z" fill="#666666"/>
<path opacity="0.2" d="M219.63 36.9351C217.947 37.7156 214.374 39.6466 211.541 43.7549C208.954 47.4935 208.256 51.1088 208.051 52.9576C207.476 58.7092 207.353 65.2826 208.092 72.39C210.679 97.6973 222.546 116.267 230.225 126.168C224.928 117.417 218.111 103.983 214.21 86.4405C210.843 71.404 210.72 58.3395 211.336 48.9314C212.937 47.247 214.744 45.1106 216.469 42.4813C217.783 40.5093 218.809 38.6195 219.63 36.9351Z" fill="#666666"/>
<path d="M281.184 133.275C278.35 134.59 275.969 135.494 274.573 138.082C271.821 143.135 275.476 149.873 276.379 151.558C278.679 155.83 281.964 158.46 284.469 160.021C292.435 156.57 304.343 149.996 314.896 137.877C328.529 122.224 332.471 105.626 334.524 96.7113C337.275 84.5507 337.398 74.1566 337.029 67.0902C339.041 63.5982 341.956 58.6682 345.693 52.7522C348.978 47.4935 350.785 44.7409 350.086 44.0014C349.553 43.4673 347.5 43.9192 340.231 49.1368C342.859 38.9071 343.722 33.6073 342.777 33.2376C341.874 32.9089 339.328 37.0583 335.14 45.7269C335.756 33.8949 335.468 27.8967 334.277 27.7324C333.046 27.527 330.787 33.9771 327.502 47.0005C325.572 38.0032 324.176 33.5662 323.273 33.6484C322.205 33.7717 321.877 40.1396 322.205 52.7111C316.005 49.3012 312.473 48.0687 311.611 49.0957C310.42 50.5337 314.403 56.2032 323.56 66.1864C323.765 70.0482 323.724 76.2107 322.246 83.4825C321.507 87.1389 316.251 112.857 298.348 123.046C292.558 126.373 287.179 130.482 281.184 133.275Z" fill="white" stroke="#161616" stroke-width="2" stroke-miterlimit="10"/>
<path opacity="0.16" d="M342.777 33.1554C342.12 32.95 341.012 36.7297 336.495 43.2208C335.427 44.782 334.934 45.3572 334.524 46.5897C333.415 50.1639 335.386 52.4235 335.304 55.4226C335.222 57.5589 334.113 60.558 329.021 64.1733C329.884 67.2546 330.828 71.6505 331.116 76.9503C332.224 98.1082 321.137 113.597 317.277 120.047C313.623 126.168 302.7 142.026 276.133 151.763C276.338 152.79 277.077 155.625 279.623 157.884C281.183 159.281 282.826 159.898 283.812 160.144C289.314 157.884 296.952 154.023 304.836 147.531C317.277 137.261 323.314 126.045 326.188 120.54C337.809 98.4368 337.809 76.8681 337.029 66.1043C339.369 62.4068 341.422 59.1612 343.024 56.614C348.772 47.4935 350.579 44.5766 349.881 43.8782C349.511 43.5084 348.28 43.6728 344.297 46.3843C342.941 47.2059 341.586 48.0687 340.231 48.8903C343.147 36.6064 343.352 33.3198 342.777 33.1554Z" fill="#666666"/>
<path opacity="0.28" d="M344.462 54.2722C335.017 60.065 332.8 64.995 332.595 68.5281C332.512 69.925 332.759 70.2947 333.046 73.6225C333.046 73.6225 332.8 79.7028 332.882 87.3032C333.005 98.1492 328.529 107.968 323.068 119.882C320.194 126.127 315.923 134.344 309.6 143.341C314.158 138.822 319.044 133.029 323.438 125.839C337.481 102.627 337.481 78.9633 336.66 67.5832C339.247 63.1051 341.834 58.6681 344.462 54.2722Z" fill="#666666"/>
<path opacity="0.11" d="M311.488 49.7942C320.645 54.4777 323.232 55.2583 323.52 54.8474C323.766 54.4366 322.247 52.8343 320.851 51.9305C320.276 51.5608 319.495 51.191 317.935 50.5337C315.143 49.3423 314.404 49.2601 313.87 49.2601C312.802 49.219 311.981 49.5477 311.488 49.7942Z" fill="#666666"/>
<path d="M189.369 308.784C189.04 310.838 190.929 313.262 194.625 318.15C196.596 320.739 198.402 322.711 199.593 323.984C197.745 327.312 194.502 334.461 196.103 343.006C196.596 345.758 197.458 350.319 199.922 350.894C204.192 351.921 210.557 340.294 213.062 334.789C215.895 328.586 217.127 322.957 217.743 318.972C213.472 313.22 209.161 307.469 204.89 301.717C196.39 302.457 189.903 305.168 189.369 308.784Z" fill="#161616" stroke="#161616" stroke-width="2" stroke-miterlimit="10"/>
<path d="M239.628 220.988C242.338 241.407 238.15 249.459 233.428 252.91C229.157 256.033 224.928 255.005 214.827 257.922C205.998 260.511 199.223 264.208 194.747 267.084C195.322 271.192 196.513 276.451 198.894 282.161C202.672 291.2 207.928 297.568 211.665 301.388C210.926 302.95 207.846 308.948 200.66 311.988C194.829 314.494 189.573 313.59 187.643 313.179C181.073 307.099 170.972 295.801 166.414 279.162C164.566 272.384 162.308 263.633 165.634 253.855C167.728 247.734 170.972 244.283 177.501 237.381C179.636 235.121 188.957 225.466 205.464 216.675C215.114 211.539 220 208.951 225.79 210.142C233.14 211.745 237.698 217.907 239.628 220.988Z" fill="#EC615B"/>
<path opacity="0.21" d="M230.019 219.756C223.367 223.782 214.128 229.657 203.452 237.34C184.974 250.651 176.515 257.758 173.476 265.153C170.52 272.343 172.614 285.489 199.305 311.577C200.742 311.29 203 310.591 205.259 309.03C208.913 306.524 210.597 303.155 211.213 301.635C208.215 298.554 204.643 294.199 201.44 288.447C196.882 280.231 195.075 272.548 194.295 267.33C202.672 261.455 210.022 259.032 215.36 257.922C223.326 256.238 229.773 256.895 234.701 251.801C237.205 249.213 238.191 246.255 239.094 243.543C241.64 235.943 240.696 229.205 239.915 225.713C236.63 223.782 233.304 221.769 230.019 219.756Z" fill="#666666"/>
<path opacity="0.16" d="M227.556 225.549C226.694 229.328 225.298 233.56 223.204 237.997C215.894 253.28 203.863 261.743 197.17 265.687C202.549 262.113 207.312 260.223 210.679 259.155C211.829 258.785 213.02 258.456 225.626 255.17C231.375 253.65 233.017 253.239 234.742 251.596C235.769 250.61 237.452 248.596 238.766 241.284C239.423 237.545 240.08 232.081 239.629 225.302C235.563 225.384 231.539 225.467 227.556 225.549Z" fill="#666666"/>
<path opacity="0.17" d="M194.336 266.18C193.228 271.398 191.914 281.422 195.363 293.131C197.539 300.526 200.947 306.113 203.575 309.77C204.807 309.071 206.532 307.88 208.215 305.99C209.653 304.347 210.556 302.744 211.131 301.512C208.133 298.431 204.52 294.076 201.358 288.283C196.595 279.573 194.952 271.439 194.336 266.18Z" fill="#666666"/>
<path d="M217.988 306.729C220.698 310.55 223.45 314.33 226.16 318.151C224.681 322.053 220.945 333.598 226.447 342.718C227.392 344.28 229.075 347.073 231.416 347.114C236.384 347.196 240.039 334.871 240.778 332.489C242.01 328.421 243.283 322.136 242.544 314.042C240.696 302.169 232.073 295.76 226.16 297.075C220.739 298.266 218.276 305.908 217.988 306.729Z" fill="#161616" stroke="#161616" stroke-width="2" stroke-miterlimit="10"/>
<path d="M268.783 219.633C272.273 241.653 265.169 249.295 262.582 251.554C260.16 253.65 257.819 254.471 244.72 258.826C239.834 260.47 232.648 262.852 223.86 265.728C224.435 269.837 225.626 275.095 228.008 280.806C231.785 289.844 237.041 296.212 240.778 300.033C240.039 301.594 236.959 307.592 229.773 310.632C223.942 313.138 218.686 312.235 216.757 311.824C210.187 305.743 200.085 294.445 195.527 277.807C193.679 271.028 191.421 262.277 194.747 252.499C196.841 246.378 200.085 242.927 206.614 236.025C208.749 233.765 218.071 224.111 234.578 215.319C244.227 210.184 249.114 207.595 254.904 208.787C262.336 210.348 266.853 216.551 268.783 219.633Z" fill="#EC615B"/>
<path opacity="0.21" d="M241.763 218.729C240.449 222.796 237.862 229.369 232.934 236.313C220.698 253.485 206.901 254.512 202.959 264.126C200.002 271.316 202.096 284.462 228.787 310.55C230.388 309.893 232.442 308.907 234.577 307.305C237.657 305.004 239.586 302.416 240.736 300.608C237.698 297.445 234.166 293.09 230.963 287.42C226.241 278.998 224.27 271.151 223.367 265.728C232.688 262.565 240.202 260.223 245.212 258.662C255.231 255.622 260.364 254.307 264.347 249.254C266.811 246.09 267.837 242.763 268.494 240.585C270.548 233.889 269.973 228.055 269.398 224.686C260.2 222.755 251.002 220.742 241.763 218.729Z" fill="#666666"/>
<path opacity="0.16" d="M257.038 224.481C256.176 228.301 254.821 232.533 252.685 236.929C244.226 254.225 229.156 262.688 222.094 266.016C229.239 263.756 235.685 261.702 241.311 259.894C241.311 259.894 244.226 258.949 251.371 256.402C260.487 253.116 262.048 252.294 263.608 250.733C266.359 247.939 267.098 244.817 268.207 240.256C269.028 236.764 269.932 231.259 269.069 224.275C265.086 224.357 261.062 224.439 257.038 224.481Z" fill="#666666"/>
<path opacity="0.17" d="M223.819 265.153C222.71 270.371 221.396 280.395 224.845 292.104C227.022 299.499 230.43 305.086 233.058 308.742C234.29 308.044 236.014 306.853 237.698 304.963C239.135 303.319 240.038 301.717 240.613 300.485C237.616 297.403 234.002 293.049 230.84 287.256C226.077 278.546 224.435 270.412 223.819 265.153Z" fill="#666666"/>
<path d="M239.71 132.659C231.744 138.575 227.966 147.655 227.104 149.791C226.57 151.065 225.051 155.091 224.352 160.637C223.531 166.964 224.188 172.264 224.845 175.756C225.133 180.645 224.968 188.738 221.56 197.941C219.138 204.555 215.853 209.485 213.266 212.813C218.522 216.839 228.418 223.371 242.502 226.411C253.794 228.876 263.403 228.137 269.439 227.151C272.97 217.168 276.42 205.788 279.253 193.134C281.922 181.22 283.688 170.127 284.797 160.103C283.031 159.24 277.857 156.529 275.229 150.531C275.065 150.161 271.287 141.246 275.475 135.905C277.98 132.741 281.512 133.111 281.512 132.125C281.512 129.496 256.463 120.252 239.71 132.659Z" fill="white" stroke="#161616" stroke-width="2" stroke-miterlimit="10"/>
<path opacity="0.13" d="M250.673 128.346C249.852 129.825 249.565 133.769 249.565 135.987C249.565 138.329 249.811 140.301 250.098 141.698C250.098 145.354 254.04 163.431 251.289 180.604C248.127 200.324 237.492 215.524 232.318 222.139C236.466 224.07 242.666 226.37 250.509 227.397C258.311 228.383 264.84 227.726 269.357 226.946C272.313 218.482 275.105 209.156 277.569 199.009C280.936 185.123 283.031 172.181 284.303 160.637C282.168 159.24 275.434 154.475 273.791 146.217C273.34 143.834 272.519 139.808 274.941 136.192C277.118 132.906 280.608 131.879 281.84 131.591C265.825 125.593 252.891 124.319 250.673 128.346Z" fill="#666666"/>
<path opacity="0.17" d="M273.873 148.969C274.407 156.159 274.284 165.033 272.313 174.934C267.18 200.94 252.562 218.318 244.678 226.37C247.963 227.233 252.356 228.055 257.571 228.055C262.252 228.096 266.236 227.48 269.315 226.781C275.023 211.58 280.074 193.873 282.907 173.907C283.564 169.306 284.098 164.828 284.467 160.432C282.661 159.363 280.197 157.597 277.815 154.885C275.967 152.749 274.694 150.654 273.873 148.969Z" fill="#666666"/>
<path opacity="0.14" d="M245.869 134.262C247.922 138.123 251.864 140.547 256.094 140.629C262.746 140.794 268.125 135.083 267.345 133.07C266.811 131.673 262.746 130.852 245.869 134.262Z" fill="#666666"/>
<path d="M234.536 80.812C233.222 80.6888 231.99 87.7551 229.157 98.6833C224.722 115.897 222.053 120.334 224.845 126.25C225.338 127.277 227.309 131.386 231.621 133.029C236.138 134.754 242.666 133.604 245.828 129.742C253.014 120.95 238.807 102.627 235.768 83.9754C235.604 83.1538 235.275 80.8942 234.536 80.812Z" fill="#5222D0"/>
<path d="M246.28 123.785C246.65 125.305 247.06 127.647 246.691 130.441C246.485 132.166 246.034 133.604 245.623 134.754C247.389 135.247 250.099 135.782 253.343 135.617C257.162 135.412 260.159 134.303 261.925 133.481C261.309 132.125 260.734 130.646 260.2 128.962C259.256 126.045 258.763 123.333 258.476 120.992C257.901 121.69 255.971 123.744 252.686 124.443C249.606 125.1 247.142 124.155 246.28 123.785Z" fill="white" stroke="#161616" stroke-width="2" stroke-miterlimit="10"/>
<path d="M234.906 85.5366C230.84 96.2183 231.128 110.721 239.258 121.074C240.531 122.717 241.763 123.908 242.584 124.648C248.251 125.182 252.603 124.278 255.231 123.498C257.079 122.964 258.968 122.388 260.98 121.033C265.456 118.034 267.304 113.514 268.002 111.296C269.316 112.364 270.342 112.528 271.041 112.487C274.736 112.241 278.555 105.38 276.297 100.779C275.065 98.2725 272.437 97.2454 271.369 96.9167C270.548 93.6711 267.55 83.6468 258.106 78.0184C255.683 76.5805 248.415 72.2667 242.215 75.2247C238.108 77.1556 236.507 81.3461 234.906 85.5366Z" fill="white" stroke="#161616" stroke-width="2" stroke-miterlimit="10"/>
<path d="M247.389 126.25C247.266 126.291 247.102 126.332 246.979 126.415C246.322 126.661 246.445 127.565 247.143 127.606C250.551 127.935 254.78 125.675 257.532 123.826C258.189 123.374 257.573 122.306 256.916 122.758C254.329 124.484 250.346 126.661 247.143 126.373C247.184 126.784 247.266 127.195 247.307 127.565C247.43 127.524 247.595 127.483 247.718 127.401C248.457 127.154 248.128 125.963 247.389 126.25Z" fill="#161616"/>
<path d="M247.511 126.825C250.139 126.456 252.726 125.757 255.19 124.771C255.929 124.484 255.6 123.292 254.861 123.58C252.356 124.566 249.81 125.264 247.182 125.634C246.402 125.757 246.731 126.949 247.511 126.825Z" fill="#161616"/>
<path d="M247.677 126.168C248.58 126.25 249.525 126.209 250.428 125.963C251.208 125.757 250.88 124.566 250.1 124.771C249.319 124.977 248.498 125.018 247.677 124.935C246.897 124.853 246.897 126.086 247.677 126.168Z" fill="#161616"/>
<path d="M255.273 105.133C256.053 105.133 256.053 103.901 255.273 103.901C254.492 103.901 254.492 105.133 255.273 105.133Z" fill="#161616"/>
<path d="M259.091 104.517C259.091 104.476 259.091 104.435 259.091 104.435C259.091 104.106 258.804 103.819 258.475 103.819C258.147 103.819 257.859 104.106 257.859 104.435C257.859 104.476 257.859 104.517 257.859 104.517C257.859 104.846 258.147 105.133 258.475 105.133C258.804 105.092 259.091 104.846 259.091 104.517Z" fill="#161616"/>
<path d="M257.161 107.516C257.941 107.516 257.941 106.284 257.161 106.284C256.381 106.284 256.381 107.516 257.161 107.516Z" fill="#161616"/>
<path d="M236.097 102.34C236.877 102.34 236.877 101.107 236.097 101.107C235.317 101.107 235.317 102.34 236.097 102.34Z" fill="#161616"/>
<path d="M239.013 101.436C239.793 101.436 239.793 100.203 239.013 100.203C238.233 100.203 238.191 101.436 239.013 101.436Z" fill="#161616"/>
<path d="M238.313 104.312C239.093 104.312 239.093 103.079 238.313 103.079C237.492 103.079 237.492 104.312 238.313 104.312Z" fill="#161616"/>
<path d="M232.812 93.3014C231.991 92.1921 229.979 89.152 230.061 85.0025C230.102 82.1267 231.088 80.0315 231.621 78.9222C233.469 75.1425 236.261 73.0884 238.561 71.4861C240.696 69.966 244.679 67.1724 250.346 66.6383C257.86 65.8988 263.568 69.5963 267.51 72.1845C275.107 77.1556 278.556 83.6057 279.295 85.0025C280.568 87.4675 281.225 89.6039 282.251 92.8084C283.36 96.3415 283.36 97.3275 285.208 105.462C287.015 113.473 287.261 113.761 287.097 115.527C286.604 121.567 282.703 125.634 282.087 126.291C276.585 131.879 269.44 131.591 267.017 131.509C263.732 131.386 262.336 130.482 261.802 130.112C258.558 127.77 258.353 123.374 258.353 122.471C259.626 121.731 261.31 120.581 262.87 118.814C265.909 115.404 266.853 111.666 267.182 109.817C270.343 110.762 273.505 109.529 274.819 107.229C276.667 103.86 274.08 98.9709 271.165 98.56C270.713 98.4779 269.481 98.4368 267.88 99.7925C266.566 96.7524 264.225 92.3565 260.078 88.0016C254.986 82.6197 249.525 79.8671 246.24 78.4703C244.392 79.2509 241.641 80.7299 238.972 83.3181C235.03 87.0156 233.469 91.165 232.812 93.3014Z" fill="#5222D0"/>
<path opacity="0.14" d="M257.037 84.7971C258.721 87.5086 261.349 92.6851 261.226 99.4228C260.979 115.281 245.745 124.155 244.801 124.648C245.786 124.812 255.395 126.332 262.088 119.513C265.619 115.897 266.687 111.707 267.016 109.776C267.714 110.022 269.274 110.392 271.081 109.858C271.532 109.735 274.16 108.954 275.023 106.489C275.433 105.38 275.31 104.353 275.228 103.778C275.187 103.079 275.023 101.436 273.791 99.998C273.339 99.505 272.641 98.6833 271.491 98.4368C269.644 98.067 268.206 99.4228 268.001 99.5871C267.057 97.3275 265.619 94.5339 263.484 91.5759C261.185 88.659 258.926 86.3994 257.037 84.7971Z" fill="#666666"/>
<path opacity="0.18" d="M255.766 135.083C254.534 131.591 253.302 128.058 252.111 124.566C254.123 123.908 256.177 123.21 258.189 122.553C259.297 126.168 260.365 129.824 261.474 133.44C259.585 134.015 257.696 134.549 255.766 135.083Z" fill="#666666"/>
<path opacity="0.21" d="M267.468 107.968C266.442 110.269 264.635 113.638 261.391 116.842C256.053 122.142 249.976 123.867 247.225 124.484C248.415 124.566 255.601 125.059 260.939 120.622C263.855 118.198 265.374 115.117 265.374 115.117C266.154 113.514 266.606 111.871 266.811 111.173C267.14 109.899 267.345 108.79 267.468 107.968Z" fill="#666666"/>
<path opacity="0.18" d="M258.475 134.59C257.284 130.975 256.134 127.318 254.943 123.703C255.97 123.374 256.996 123.005 258.023 122.676C259.132 126.291 260.281 129.907 261.39 133.522C260.446 133.851 259.46 134.22 258.475 134.59Z" fill="#666666"/>
<path d="M246.28 93.4246C245.171 97.8205 244.268 102.258 243.529 106.736C243.406 107.475 243.159 108.338 243.94 108.749C244.843 109.242 247.019 108.543 247.964 108.338C248.744 108.174 248.415 106.982 247.635 107.146C246.978 107.311 245.787 107.681 245.171 107.598C244.35 107.475 244.556 107.639 244.802 106.695C245.13 105.298 245.295 103.778 245.582 102.381C246.157 99.5049 246.773 96.6291 247.471 93.7944C247.676 93.0138 246.485 92.6851 246.28 93.4246Z" fill="#161616"/>
<path d="M235.973 97.6151C237.575 95.7663 240.367 95.7252 242.009 97.4918C242.42 97.9437 243.077 97.2864 242.666 96.8345C240.695 94.6981 237.246 94.7392 235.316 96.9577C234.947 97.4096 235.604 98.067 235.973 97.6151Z" fill="#161616"/>
<path d="M252.849 98.0671C255.026 96.6702 257.941 97.2865 259.337 99.505C259.666 99.998 260.446 99.5461 260.117 99.0531C258.475 96.4237 254.984 95.6021 252.356 97.2865C251.864 97.5741 252.356 98.3957 252.849 98.0671Z" fill="#161616"/>
<path d="M238.519 90.5077C239.997 89.7271 241.64 89.7682 243.077 90.5898C243.611 90.8774 244.062 90.0968 243.529 89.8092C241.804 88.8232 239.792 88.7822 238.026 89.7271C237.533 89.9736 237.985 90.7953 238.519 90.5077Z" fill="#161616"/>
<path d="M253.343 90.7542C255.355 90.4255 257.285 90.9596 258.887 92.151C259.379 92.5208 259.831 91.6991 259.338 91.3704C257.49 90.0147 255.314 89.5217 253.097 89.8503C252.522 89.9736 252.768 90.8364 253.343 90.7542Z" fill="#161616"/>
<path d="M240.243 113.555C244.76 114.952 249.523 113.925 253.096 110.844C253.547 110.474 252.89 109.817 252.439 110.187C249.113 113.062 244.678 113.966 240.49 112.652C239.915 112.446 239.668 113.35 240.243 113.555Z" fill="#161616"/>
</svg>
