<svg width="77" height="76" viewBox="0 0 77 76" fill="none" xmlns="http://www.w3.org/2000/svg">
<mask id="path-1-inside-1_547_13234" fill="white">
<path d="M76.9602 61.8063C68.7692 70.3032 57.5382 75.1982 45.7381 75.4145C33.9379 75.6307 22.5352 71.1505 14.0383 62.9595C5.54141 54.7684 0.646415 43.5375 0.430155 31.7373C0.213896 19.9372 4.69409 8.53444 12.8851 0.0375506L44.9227 30.9219L76.9602 61.8063Z"/>
</mask>
<path d="M76.9602 61.8063C68.7692 70.3032 57.5382 75.1982 45.7381 75.4145C33.9379 75.6307 22.5352 71.1505 14.0383 62.9595C5.54141 54.7684 0.646415 43.5375 0.430155 31.7373C0.213896 19.9372 4.69409 8.53444 12.8851 0.0375506L44.9227 30.9219L76.9602 61.8063Z" fill="#3AABD7" stroke="black" stroke-width="4" mask="url(#path-1-inside-1_547_13234)"/>
</svg>
