<svg width="35" height="35" viewBox="0 0 35 35" fill="none" xmlns="http://www.w3.org/2000/svg">
<mask id="path-1-inside-1_547_14963" fill="white">
<path fill-rule="evenodd" clip-rule="evenodd" d="M17.5 35C27.165 35 35 27.165 35 17.5C35 7.83502 27.165 0 17.5 0C7.83502 0 0 7.83502 0 17.5C0 17.6739 0.00253562 17.8471 0.00757189 18.0198H0V35H17.3267V34.9992C17.3844 34.9997 17.4422 35 17.5 35Z"/>
</mask>
<path fill-rule="evenodd" clip-rule="evenodd" d="M17.5 35C27.165 35 35 27.165 35 17.5C35 7.83502 27.165 0 17.5 0C7.83502 0 0 7.83502 0 17.5C0 17.6739 0.00253562 17.8471 0.00757189 18.0198H0V35H17.3267V34.9992C17.3844 34.9997 17.4422 35 17.5 35Z" fill="#E03E3D"/>
<path d="M0.00757189 18.0198V20.0198H2.06676L2.00672 17.9615L0.00757189 18.0198ZM0 18.0198V16.0198H-2V18.0198H0ZM0 35H-2V37H0V35ZM17.3267 35V37H19.3267V35H17.3267ZM17.3267 34.9992L17.3462 32.9993L15.3267 32.9796V34.9992H17.3267ZM33 17.5C33 26.0604 26.0604 33 17.5 33V37C28.2696 37 37 28.2696 37 17.5H33ZM17.5 2C26.0604 2 33 8.93959 33 17.5H37C37 6.73045 28.2696 -2 17.5 -2V2ZM2 17.5C2 8.93959 8.93959 2 17.5 2V-2C6.73045 -2 -2 6.73045 -2 17.5H2ZM2.00672 17.9615C2.00225 17.8083 2 17.6544 2 17.5H-2C-2 17.6933 -1.99718 17.886 -1.99158 18.0781L2.00672 17.9615ZM0 20.0198H0.00757189V16.0198H0V20.0198ZM2 35V18.0198H-2V35H2ZM17.3267 33H0V37H17.3267V33ZM15.3267 34.9992V35H19.3267V34.9992H15.3267ZM17.5 33C17.4486 33 17.3973 32.9998 17.3462 32.9993L17.3073 36.9991C17.3715 36.9997 17.4358 37 17.5 37V33Z" fill="black" mask="url(#path-1-inside-1_547_14963)"/>
<path d="M26.2336 12.5918C25.946 11.9248 25.5312 11.3203 25.0125 10.8123C24.4935 10.3027 23.8815 9.89773 23.2099 9.61942C22.5134 9.32969 21.7665 9.18138 21.0123 9.18312C19.9543 9.18312 18.9221 9.47327 18.0251 10.0213C17.8105 10.1524 17.6066 10.2964 17.4134 10.4533C17.2203 10.2964 17.0164 10.1524 16.8018 10.0213C15.9048 9.47327 14.8725 9.18312 13.8145 9.18312C13.0527 9.18312 12.3145 9.32927 11.617 9.61942C10.9432 9.89882 10.3358 10.3007 9.81434 10.8123C9.29499 11.3197 8.88012 11.9244 8.59325 12.5918C8.29495 13.2861 8.14258 14.0233 8.14258 14.7819C8.14258 15.4976 8.28851 16.2434 8.57822 17.0021C8.82072 17.6362 9.16838 18.2938 9.61261 18.9579C10.3165 20.0089 11.2844 21.1051 12.4861 22.2162C14.4777 24.0581 16.4499 25.3305 16.5336 25.3821L17.0422 25.7088C17.2675 25.8528 17.5572 25.8528 17.7826 25.7088L18.2912 25.3821C18.3749 25.3284 20.3449 24.0581 22.3386 22.2162C23.5404 21.1051 24.5082 20.0089 25.2121 18.9579C25.6564 18.2938 26.0062 17.6362 26.2465 17.0021C26.5362 16.2434 26.6822 15.4976 26.6822 14.7819C26.6843 14.0233 26.5319 13.2861 26.2336 12.5918Z" fill="white"/>
</svg>
