<svg width="500" height="460" viewBox="0 0 500 460" fill="none" xmlns="http://www.w3.org/2000/svg">
<path fill-rule="evenodd" clip-rule="evenodd" d="M344.845 5.63889C344.845 4.14336 345.387 2.70909 346.351 1.65159C347.315 0.594097 348.622 0 349.986 0H463.085C464.448 0 465.756 0.594097 466.72 1.65159C467.684 2.70909 468.225 4.14336 468.225 5.63889V11.2778H493.93C495.293 11.2778 496.601 11.8719 497.565 12.9294C498.529 13.9869 499.071 15.4211 499.071 16.9167V50.75C499.071 58.2276 496.362 65.399 491.542 70.6865C486.721 75.974 480.183 78.9444 473.366 78.9444H464.714C456.792 103.53 436.285 121.597 411.676 123.824V157.889H447.662C449.025 157.889 450.333 158.483 451.297 159.54C452.261 160.598 452.803 162.032 452.803 163.528V197.361C452.803 198.857 452.261 200.291 451.297 201.348C450.333 202.406 449.025 203 447.662 203H365.408C364.045 203 362.737 202.406 361.773 201.348C360.809 200.291 360.268 198.857 360.268 197.361V163.528C360.268 162.032 360.809 160.598 361.773 159.54C362.737 158.483 364.045 157.889 365.408 157.889H401.394V123.824C376.79 121.597 356.278 103.53 348.356 78.9444H339.704C332.887 78.9444 326.349 75.974 321.529 70.6865C316.708 65.399 314 58.2276 314 50.75V16.9167C314 15.4211 314.542 13.9869 315.506 12.9294C316.47 11.8719 317.777 11.2778 319.141 11.2778H344.845V5.63889ZM457.944 56.3889V11.2778H355.127V56.3889C355.127 87.5325 378.142 112.778 406.535 112.778C434.928 112.778 457.944 87.5325 457.944 56.3889ZM468.225 22.5556V67.6667H473.366C477.457 67.6667 481.379 65.8844 484.272 62.7119C487.164 59.5394 488.789 55.2366 488.789 50.75V22.5556H468.225ZM324.282 22.5556H344.845V67.6667H339.704C335.614 67.6667 331.691 65.8844 328.799 62.7119C325.907 59.5394 324.282 55.2366 324.282 50.75V22.5556ZM370.549 169.167V191.722H442.521V169.167H370.549Z" fill="#E8E8E8"/>
<path d="M10.8403 412.29C29.805 413.162 48.7697 413.598 67.7344 413.558C68.4667 413.558 68.4667 412.37 67.7344 412.37C48.7697 412.409 29.805 411.974 10.8403 411.102C10.1079 411.062 10.1079 412.251 10.8403 412.29Z" fill="#E8E8E8"/>
<path d="M68.8894 382.818C71.8575 394.266 74.6328 405.794 77.1768 417.361C77.331 418.113 78.4489 417.796 78.2947 417.044C75.7121 405.477 72.9753 393.949 70.0073 382.501C69.8145 381.788 68.6967 382.105 68.8894 382.818Z" fill="#E8E8E8"/>
<path d="M120.545 383.689C119.466 394.583 118.386 405.517 117.345 416.41C117.268 417.163 118.425 417.163 118.502 416.41C119.581 405.517 120.66 394.583 121.701 383.689C121.74 382.937 120.583 382.937 120.545 383.689Z" fill="#E8E8E8"/>
<path d="M77.4871 418.43C84.2327 419.658 91.0554 420.213 97.9166 420.015C104.469 419.817 111.639 419.302 117.883 417.163C118.577 416.925 118.269 415.776 117.575 416.014C111.369 418.113 104.392 418.628 97.9166 418.826C91.171 419.024 84.4254 418.47 77.7955 417.282C77.0631 417.123 76.7547 418.272 77.4871 418.43Z" fill="#E8E8E8"/>
<path d="M69.3524 383.214C77.3314 385.512 86.0043 385.551 94.2531 385.591C103.119 385.67 111.984 385.155 120.773 384.125C121.505 384.046 121.505 382.858 120.773 382.937C112.216 383.967 103.62 384.442 95.0241 384.403C86.6596 384.363 77.794 384.363 69.6607 382.065C68.9284 381.867 68.62 383.016 69.3524 383.214Z" fill="#E8E8E8"/>
<path d="M66.0369 379.134C66.114 379.887 66.1911 380.679 66.2682 381.431C66.3067 381.907 66.3067 382.501 66.4994 382.937C66.962 383.967 68.5038 383.61 69.3904 383.61C70.1228 383.61 70.1228 382.422 69.3904 382.422C68.9664 382.422 68.5424 382.422 68.0798 382.422C67.5016 382.422 67.5016 382.303 67.4631 381.709C67.386 380.837 67.3089 380.005 67.2318 379.134C67.1162 378.381 65.9598 378.342 66.0369 379.134Z" fill="#E8E8E8"/>
<path d="M66.8093 379.768C76.4459 380.917 86.1209 381.471 95.8345 381.55C100.614 381.59 105.394 381.511 110.212 381.352C112.602 381.273 114.992 381.154 117.382 381.036C118.5 380.996 120.041 380.6 121.159 380.837C122.508 381.075 122.431 382.264 122.586 383.492C122.701 383.254 122.855 383.016 122.971 382.779C122.47 382.779 121.969 382.779 121.468 382.779C120.735 382.62 120.427 383.769 121.159 383.927C121.93 384.086 122.508 384.086 123.241 383.927C123.588 383.848 123.703 383.492 123.626 383.214C123.434 381.828 123.588 380.085 121.969 379.728C121.005 379.491 119.81 379.768 118.808 379.808C117.536 379.887 116.303 379.926 115.031 380.006C109.634 380.243 104.199 380.402 98.764 380.402C88.0482 380.402 77.371 379.887 66.7322 378.579C66.0769 378.5 66.0769 379.689 66.8093 379.768Z" fill="#E8E8E8"/>
<path d="M75.174 408.567C78.2577 412.726 81.881 416.331 85.9669 419.421C86.5837 419.857 87.1618 418.827 86.5451 418.391C82.6134 415.42 79.1057 411.934 76.1377 407.933C75.7137 407.339 74.7115 407.933 75.174 408.567Z" fill="#E8E8E8"/>
<path d="M72.5946 396.484C78.6078 405.397 86.0087 413.201 94.5659 419.579C95.1827 420.015 95.7608 418.985 95.1441 418.549C86.7796 412.29 79.4944 404.605 73.5968 395.89C73.1728 395.256 72.1706 395.85 72.5946 396.484Z" fill="#E8E8E8"/>
<path d="M70.2377 385.868C80.6452 398.545 92.209 410.389 106.009 419.183C106.625 419.579 107.242 418.549 106.587 418.153C92.8643 409.438 81.3776 397.673 71.0472 385.036C70.5846 384.442 69.7752 385.314 70.2377 385.868Z" fill="#E8E8E8"/>
<path d="M81.3022 385.194C91.2086 397.039 102.194 408.289 114.452 417.559C115.069 417.994 115.647 416.965 115.03 416.529C102.849 407.338 91.9409 396.088 82.1117 384.363C81.6106 383.768 80.8011 384.6 81.3022 385.194Z" fill="#E8E8E8"/>
<path d="M93.9467 386.027C100.654 394.464 108.363 401.991 116.92 408.448C117.537 408.884 118.115 407.854 117.498 407.418C109.018 401.04 101.386 393.553 94.7562 385.195C94.2936 384.6 93.4842 385.432 93.9467 386.027Z" fill="#E8E8E8"/>
<path d="M104.277 385.591C108.594 390.582 113.528 394.861 119.001 398.465C119.618 398.861 120.196 397.832 119.58 397.435C114.183 393.91 109.326 389.632 105.086 384.759C104.585 384.165 103.776 384.997 104.277 385.591Z" fill="#E8E8E8"/>
<path d="M50.9297 320.307C53.4352 325.734 55.1312 331.438 56.0948 337.38C56.1334 337.658 56.4032 337.816 56.6345 337.816C56.8658 337.816 58.0993 337.776 58.1763 338.173C58.2149 338.331 57.444 339.242 57.3669 339.44C57.1356 340.074 57.1356 340.827 57.3669 341.461C57.6752 342.213 58.2534 342.728 58.9473 343.005C59.1785 343.124 59.4484 343.164 59.7182 343.204C59.9495 343.243 60.1807 343.243 60.412 343.204C60.7204 343.164 60.6818 343.204 60.3349 343.362C59.9495 343.956 59.4098 344.035 59.2556 344.907C59.14 345.739 59.5255 346.531 59.8338 347.244C61.1058 350.017 61.8382 352.948 62.879 355.84C66.4637 365.664 73.325 373.785 81.0727 380.48C81.6509 380.955 82.4604 380.123 81.8822 379.648C73.9032 372.755 66.8107 364.318 63.4572 353.978C63.0331 352.632 62.6477 351.285 62.1851 349.977C61.7997 348.829 61.0673 347.64 60.7204 346.491C60.3349 345.858 60.3735 345.145 60.8746 344.432C61.0288 344.313 61.1829 344.194 61.3371 344.075C61.4528 343.877 61.684 343.758 61.7997 343.52C61.9539 343.085 61.8382 342.689 61.5298 342.372C61.0287 341.857 60.2578 342.134 59.6025 341.936C57.097 341.183 59.14 339.44 59.3327 338.173C59.6025 336.509 57.5981 336.707 56.5189 336.628C56.7116 336.786 56.9043 336.905 57.0585 337.063C56.0948 331.042 54.3217 325.219 51.7777 319.713C51.6235 319 50.6213 319.594 50.9297 320.307Z" fill="#E8E8E8"/>
<path d="M51.3519 320.03C63.8794 323.476 74.865 332.231 82.8441 342.61C91.3242 353.622 96.605 366.853 99.4574 380.52C99.6116 381.272 100.729 380.956 100.575 380.203C97.6843 366.338 92.2879 352.949 83.6921 341.778C75.5974 331.28 64.419 322.407 51.6988 318.921C50.9279 318.683 50.6195 319.832 51.3519 320.03Z" fill="#E8E8E8"/>
<path d="M55.9037 324.943C71.2451 340.273 83.0788 359.089 90.364 379.807C90.6338 380.52 91.7516 380.203 91.4818 379.49C84.1195 358.614 72.2088 339.599 56.7132 324.111C56.2121 323.556 55.3641 324.388 55.9037 324.943Z" fill="#E8E8E8"/>
<path d="M62.7241 349.859C65.962 350.216 69.1228 350.969 72.1294 352.197C75.0589 353.385 78.2582 354.89 80.1084 357.624C80.5324 358.257 81.5346 357.663 81.1106 357.029C79.2604 354.296 76.3694 352.751 73.4399 351.484C70.0093 349.978 66.4245 349.067 62.6856 348.671C61.9917 348.592 61.9917 349.78 62.7241 349.859Z" fill="#E8E8E8"/>
<path d="M68.4702 328.151C68.4317 332.707 69.164 337.183 70.5902 341.501C70.8215 342.214 71.9393 341.897 71.7081 341.184C70.3204 336.985 69.6266 332.628 69.6266 328.151C69.6266 327.399 68.4702 327.399 68.4702 328.151Z" fill="#E8E8E8"/>
<path d="M89.631 349.701C91.5198 342.451 97.8028 338.133 103.161 333.697C108.866 328.983 114.378 323.952 119.62 318.723C119.312 318.525 118.965 318.327 118.656 318.129C116.922 322.922 116.575 327.953 116.652 333.023C116.729 338.094 117.847 343.917 116.266 348.829C116.459 348.671 116.652 348.552 116.806 348.393C115.573 348.473 114.339 348.591 113.106 348.671C112.72 348.71 112.335 349.186 112.605 349.582C113.491 350.81 114.532 351.206 114.493 353.028C114.493 354.296 114.185 355.761 113.761 356.95C113.337 358.178 112.219 359.01 111.834 360.159C111.525 361.188 112.296 362.06 112.296 363.09C112.335 364.793 111.14 366.219 110.292 367.566C109.482 368.834 108.75 370.141 108.095 371.488C106.784 374.142 105.743 376.875 104.972 379.728C104.78 380.48 105.897 380.797 106.09 380.045C107.054 376.519 108.442 373.112 110.253 369.943C111.487 367.804 113.799 365.308 113.53 362.615C113.414 361.545 112.874 361.228 113.337 360C113.375 359.96 114.069 359.01 114.108 358.931C114.84 357.703 115.187 356.316 115.418 354.93C115.573 353.9 115.881 352.632 115.727 351.602C115.495 350.136 114.416 350.018 113.607 348.908C113.453 349.225 113.26 349.503 113.106 349.819C114.339 349.74 115.573 349.621 116.806 349.542C117.076 349.503 117.269 349.384 117.346 349.106C118.81 344.511 117.924 339.163 117.77 334.41C117.615 328.983 117.808 323.516 119.697 318.366C119.928 317.772 119.119 317.416 118.733 317.772C113.144 323.358 107.285 328.705 101.156 333.697C95.914 337.975 90.2478 342.332 88.4361 349.304C88.3205 350.136 89.4383 350.453 89.631 349.701Z" fill="#E8E8E8"/>
<path d="M115.341 323.873C111.563 330.647 107.709 337.342 104.086 344.195C100.693 350.533 97.6869 357.109 96.2607 364.2C96.1065 364.952 97.2243 365.269 97.3785 364.517C98.8432 357.267 101.965 350.612 105.435 344.155C108.981 337.54 112.72 331.043 116.343 324.467C116.69 323.834 115.688 323.2 115.341 323.873Z" fill="#E8E8E8"/>
<path d="M103.97 334.885C104.471 337.143 104.702 339.401 104.625 341.699C104.587 342.452 105.743 342.452 105.782 341.699C105.859 339.283 105.628 336.945 105.088 334.569C104.895 333.816 103.816 334.133 103.97 334.885Z" fill="#E8E8E8"/>
<path d="M110.253 327.319C110.677 329.023 110.754 330.687 110.561 332.39C110.484 333.143 111.64 333.143 111.717 332.39C111.949 330.568 111.833 328.785 111.371 327.003C111.178 326.289 110.06 326.606 110.253 327.319Z" fill="#E8E8E8"/>
<path d="M110.52 335.203C112.794 333.816 115.146 332.588 117.574 331.558C118.268 331.281 117.959 330.132 117.266 330.409C114.722 331.479 112.293 332.746 109.903 334.173C109.287 334.569 109.865 335.599 110.52 335.203Z" fill="#E8E8E8"/>
<path d="M100.579 355.088C102.043 353.821 103.508 352.593 105.011 351.404C106.592 350.137 108.326 348.433 110.254 347.641C110.948 347.364 110.639 346.215 109.945 346.492C108.211 347.166 106.785 348.473 105.32 349.661C103.431 351.167 101.581 352.672 99.7692 354.257C99.191 354.732 100.001 355.564 100.579 355.088Z" fill="#E8E8E8"/>
<path d="M55.9399 332.866C58.6381 333.143 61.3364 333.42 64.0346 333.658C64.767 333.737 64.767 332.549 64.0346 332.469C61.3364 332.192 58.6381 331.915 55.9399 331.677C55.2075 331.598 55.2075 332.786 55.9399 332.866Z" fill="#E8E8E8"/>
<path d="M126.674 411.894C174.972 411.894 223.232 411.894 271.53 411.894C285.137 411.894 298.744 411.894 312.35 411.894C313.083 411.894 313.083 410.706 312.35 410.706C264.052 410.706 215.792 410.706 167.494 410.706C153.887 410.706 140.281 410.706 126.674 410.706C125.903 410.706 125.903 411.894 126.674 411.894Z" fill="#E8E8E8"/>
<path d="M290.031 314.841C290.031 320.624 290.031 326.408 290.031 332.191C290.031 332.944 291.188 332.944 291.188 332.191C291.188 326.408 291.188 320.624 291.188 314.841C291.188 314.088 290.031 314.088 290.031 314.841Z" fill="#E8E8E8"/>
<path d="M263.433 334.846C282.128 334.846 300.823 334.846 319.518 334.846C320.25 334.846 320.25 333.658 319.518 333.658C300.823 333.658 282.128 333.658 263.433 333.658C262.701 333.658 262.662 334.846 263.433 334.846Z" fill="#E8E8E8"/>
<path d="M276 335.163C276 340.154 276 345.145 276 350.176C276 350.929 277.156 350.929 277.156 350.176C277.156 345.185 277.156 340.194 277.156 335.163C277.156 334.371 276 334.371 276 335.163Z" fill="#E8E8E8"/>
<path d="M304.91 334.846C304.91 339.243 304.91 343.68 304.91 348.077C304.91 348.829 306.067 348.829 306.067 348.077C306.067 343.68 306.067 339.243 306.067 334.846C306.067 334.093 304.91 334.093 304.91 334.846Z" fill="#E8E8E8"/>
<path d="M286.596 351.325C300.897 351.325 315.197 351.325 329.498 351.325C330.23 351.325 330.23 350.137 329.498 350.137C315.197 350.137 300.897 350.137 286.596 350.137C285.864 350.137 285.864 351.325 286.596 351.325Z" fill="#E8E8E8"/>
<path d="M254.26 423.382C285.829 423.382 317.399 423.382 348.968 423.382C349.7 423.382 349.7 422.194 348.968 422.194C317.399 422.194 285.829 422.194 254.26 422.194C253.528 422.194 253.528 423.382 254.26 423.382Z" fill="#E8E8E8"/>
<path d="M384.706 413.122C409.638 413.122 434.601 413.122 459.533 413.122C466.542 413.122 473.55 413.122 480.558 413.122C481.147 413.122 481.147 411.934 480.558 411.934C455.626 411.934 430.663 411.934 405.731 411.934C398.722 411.934 391.714 411.934 384.706 411.934C384.116 411.934 384.116 413.122 384.706 413.122Z" fill="#E8E8E8"/>
<path d="M0.549282 433.404C32.3113 433.404 64.1118 433.404 95.8738 433.404C96.6062 433.404 96.6062 432.216 95.8738 432.216C64.1118 432.216 32.3113 432.216 0.549282 432.216C-0.183094 432.216 -0.183094 433.404 0.549282 433.404Z" fill="#E8E8E8"/>
<path d="M64.6153 445.289C90.5568 445.289 116.498 445.289 142.44 445.289C143.172 445.289 143.172 444.1 142.44 444.1C116.498 444.1 90.5568 444.1 64.6153 444.1C63.8444 444.1 63.8444 445.289 64.6153 445.289Z" fill="#E8E8E8"/>
<path d="M319.157 277.01C219.847 284.18 120.536 291.31 21.2642 298.48C18.5705 226.463 15.8768 154.446 13.2227 82.4283C112.969 81.0814 212.716 79.7346 312.463 78.3877C314.681 144.582 316.9 210.776 319.157 277.01Z" fill="white" stroke="#161616" stroke-width="3.5" stroke-miterlimit="10"/>
<path d="M97.5977 117.486C116.85 117.486 136.142 117.486 155.394 117.486C156.146 117.486 156.146 116.297 155.394 116.297C136.142 116.297 116.85 116.297 97.5977 116.297C96.845 116.297 96.845 117.486 97.5977 117.486Z" fill="#161616"/>
<path d="M119.229 122.358C139.075 122.358 158.922 122.358 178.768 122.358C179.521 122.358 179.521 121.17 178.768 121.17C158.922 121.17 139.075 121.17 119.229 121.17C118.437 121.17 118.437 122.358 119.229 122.358Z" fill="#161616"/>
<path d="M25.2646 238.585C25.9777 255.143 26.6907 271.741 27.4038 288.3C27.4434 289.052 28.6318 289.052 28.5922 288.3C27.8791 271.741 27.1661 255.143 26.453 238.585C26.4134 237.832 25.225 237.832 25.2646 238.585Z" fill="#161616"/>
<path d="M112.533 228.919C114.237 228.919 115.94 228.919 117.683 228.919C118.436 228.919 118.436 227.73 117.683 227.73C115.98 227.73 114.276 227.73 112.533 227.73C111.781 227.73 111.781 228.919 112.533 228.919Z" fill="#161616"/>
<path d="M122.158 228.919C126.555 228.919 130.913 228.919 135.31 228.919C136.063 228.919 136.063 227.73 135.31 227.73C130.913 227.73 126.555 227.73 122.158 227.73C121.406 227.73 121.406 228.919 122.158 228.919Z" fill="#161616"/>
<path d="M145.252 228.285C150.481 228.285 155.71 228.285 160.979 228.285C161.731 228.285 161.731 227.096 160.979 227.096C155.75 227.096 150.521 227.096 145.252 227.096C144.499 227.096 144.499 228.285 145.252 228.285Z" fill="#161616"/>
<path d="M119.623 237.238C126.041 237.238 132.458 237.238 138.876 237.238C139.628 237.238 139.628 236.049 138.876 236.049C132.458 236.049 126.041 236.049 119.623 236.049C118.831 236.049 118.831 237.238 119.623 237.238Z" fill="#161616"/>
<path d="M128.893 232.761C136.38 232.761 143.867 232.761 151.353 232.761C152.106 232.761 152.106 231.573 151.353 231.573C143.867 231.573 136.38 231.573 128.893 231.573C128.14 231.573 128.14 232.761 128.893 232.761Z" fill="#161616"/>
<path d="M168.67 275.108C181.267 275.108 193.904 275.108 206.501 275.108C207.253 275.108 207.253 273.919 206.501 273.919C193.904 273.919 181.267 273.919 168.67 273.919C167.917 273.919 167.917 275.108 168.67 275.108Z" fill="#161616"/>
<path d="M199.762 278.317C206.377 278.317 213.032 278.317 219.648 278.317C220.4 278.317 220.4 277.128 219.648 277.128C213.032 277.128 206.377 277.128 199.762 277.128C199.009 277.128 199.009 278.317 199.762 278.317Z" fill="#161616"/>
<path d="M217.074 273.484C223.61 273.484 230.107 273.484 236.643 273.484C237.396 273.484 237.396 272.295 236.643 272.295C230.107 272.295 223.61 272.295 217.074 272.295C216.322 272.295 216.322 273.484 217.074 273.484Z" fill="#161616"/>
<path d="M250.428 166.092C262.51 166.092 274.592 166.092 286.674 166.092C287.427 166.092 287.427 164.903 286.674 164.903C274.592 164.903 262.51 164.903 250.428 164.903C249.675 164.903 249.675 166.092 250.428 166.092Z" fill="#161616"/>
<path d="M239.215 167.994C243.058 167.994 246.9 167.994 250.743 167.994C251.495 167.994 251.495 166.805 250.743 166.805C246.9 166.805 243.058 166.805 239.215 166.805C238.423 166.805 238.423 167.994 239.215 167.994Z" fill="#161616"/>
<path d="M241.436 171.202C254.35 171.202 267.303 171.202 280.217 171.202C280.97 171.202 280.97 170.013 280.217 170.013C267.303 170.013 254.35 170.013 241.436 170.013C240.683 170.013 240.683 171.202 241.436 171.202Z" fill="#161616"/>
<path d="M289.25 168.31C291.706 168.31 294.163 168.31 296.619 168.31C297.371 168.31 297.371 167.122 296.619 167.122C294.163 167.122 291.706 167.122 289.25 167.122C288.458 167.122 288.458 168.31 289.25 168.31Z" fill="#161616"/>
<path d="M279.623 216.718C283.268 216.718 286.873 216.718 290.517 216.718C291.27 216.718 291.27 215.529 290.517 215.529C286.873 215.529 283.268 215.529 279.623 215.529C278.831 215.529 278.831 216.718 279.623 216.718Z" fill="#161616"/>
<path d="M272.571 219.927C276.532 219.927 280.493 219.927 284.415 219.927C285.168 219.927 285.168 218.738 284.415 218.738C280.454 218.738 276.492 218.738 272.571 218.738C271.778 218.738 271.778 219.927 272.571 219.927Z" fill="#161616"/>
<path d="M278.318 223.135C286.122 223.135 293.926 223.135 301.73 223.135C302.483 223.135 302.483 221.947 301.73 221.947C293.926 221.947 286.122 221.947 278.318 221.947C277.566 221.947 277.566 223.135 278.318 223.135Z" fill="#161616"/>
<path d="M293.092 219.293C295.429 219.293 297.806 219.293 300.143 219.293C300.896 219.293 300.896 218.104 300.143 218.104C297.806 218.104 295.429 218.104 293.092 218.104C292.3 218.104 292.3 219.293 293.092 219.293Z" fill="#161616"/>
<path d="M129.926 169.895C135.472 169.895 140.978 169.895 146.524 169.895C147.277 169.895 147.277 168.707 146.524 168.707C140.978 168.707 135.472 168.707 129.926 168.707C129.173 168.707 129.173 169.895 129.926 169.895Z" fill="#161616"/>
<path d="M142.007 173.301C150.168 173.301 158.368 173.301 166.528 173.301C167.281 173.301 167.281 172.113 166.528 172.113C158.368 172.113 150.168 172.113 142.007 172.113C141.255 172.113 141.215 173.301 142.007 173.301Z" fill="#161616"/>
<path d="M163.514 168.746C168.148 168.746 172.823 168.746 177.458 168.746C178.21 168.746 178.21 167.558 177.458 167.558C172.823 167.558 168.148 167.558 163.514 167.558C162.761 167.558 162.761 168.746 163.514 168.746Z" fill="#161616"/>
<path d="M21.7363 105.522C22.6078 135.589 23.4793 165.695 24.3508 195.762C24.5885 204.318 24.8262 212.835 25.1035 221.392C25.1431 222.144 26.3315 222.144 26.2919 221.392C25.4204 191.325 24.5489 161.219 23.6774 131.152C23.4397 122.596 23.202 114.079 22.9247 105.522C22.9247 104.77 21.7363 104.77 21.7363 105.522Z" fill="#161616"/>
<path d="M309.689 203.804C310.284 223.69 310.878 243.536 311.472 263.422C311.512 264.175 312.7 264.175 312.66 263.422C312.066 243.536 311.472 223.69 310.878 203.804C310.878 203.051 309.689 203.051 309.689 203.804Z" fill="#161616"/>
<path d="M227.65 194.693C227.888 197.109 228.126 199.565 228.324 201.982C230.621 201.388 232.879 200.754 235.177 200.159C234.86 197.743 234.583 195.287 234.266 192.871C232.047 193.465 229.869 194.099 227.65 194.693Z" fill="#EC615B"/>
<path d="M226.266 213.193C228.642 212.876 230.98 212.598 233.356 212.281C233.673 215.173 233.951 218.065 234.268 220.957C232.128 221.036 229.989 221.115 227.89 221.195C227.335 218.501 226.82 215.847 226.266 213.193Z" fill="#EC615B"/>
<path d="M234.939 230.741C235.692 233.237 236.445 235.772 237.237 238.268C239.376 237.278 241.515 236.287 243.615 235.297C242.941 233.078 242.228 230.9 241.555 228.681C239.376 229.394 237.158 230.068 234.939 230.741Z" fill="#EC615B"/>
<path d="M78.3477 254.351C78.8626 262.036 79.3776 269.721 79.8926 277.366C93.3612 276.495 106.83 275.663 120.298 274.792C120.536 267.899 120.813 260.966 121.051 254.074C106.83 254.193 92.5689 254.272 78.3477 254.351Z" fill="#5222D0"/>
<path d="M245.797 97.9964C247.35 97.9964 248.609 96.95 248.609 95.6592C248.609 94.3684 247.35 93.322 245.797 93.322C244.244 93.322 242.984 94.3684 242.984 95.6592C242.984 96.95 244.244 97.9964 245.797 97.9964Z" fill="#5222D0"/>
<path d="M54.6595 115.506C55.9503 115.506 56.9967 114.814 56.9967 113.961C56.9967 113.107 55.9503 112.416 54.6595 112.416C53.3687 112.416 52.3223 113.107 52.3223 113.961C52.3223 114.814 53.3687 115.506 54.6595 115.506Z" fill="#EC615B"/>
<path d="M91.8574 160.309C92.8638 160.309 93.6796 159.351 93.6796 158.169C93.6796 156.988 92.8638 156.03 91.8574 156.03C90.851 156.03 90.0352 156.988 90.0352 158.169C90.0352 159.351 90.851 160.309 91.8574 160.309Z" fill="#EC615B"/>
<path opacity="0.21" d="M75.1391 106.949C75.8521 106.83 77.2386 113.446 80.6454 125.449C85.1217 141.255 89.5584 154.01 92.7671 162.725C87.8946 165.736 77.0009 171.48 62.1459 171.678C51.6483 171.797 43.3691 169.103 38.457 167.043C48.0831 168.113 55.8473 167.835 61.2744 167.32C69.8705 166.528 68.3652 165.617 74.8618 165.3C77.5555 165.181 81.0811 165.181 84.6859 163.002C85.9932 162.21 86.9439 161.339 87.5777 160.705C85.0425 155.476 81.7942 147.791 79.1797 138.165C75.0203 122.517 74.1091 107.147 75.1391 106.949Z" fill="#6D6C6C"/>
<path opacity="0.25" d="M112.259 149.93C112.893 154.961 114.042 160.586 115.943 166.607C121.37 183.72 130.521 195.921 137.414 203.447C133.294 206.498 128.184 209.667 122.044 212.321C103.425 220.362 86.035 219.174 76.7258 217.748C76.3693 215.648 76.0128 213.549 75.6562 211.449C79.6176 211.568 83.8166 211.489 88.2137 211.251C103.901 210.261 117.369 206.735 128.104 202.814C124.698 197.03 122.242 192.039 120.538 188.276C116.419 179.283 113.368 172.509 112.299 163.359C111.625 157.773 111.903 153.059 112.259 149.93Z" fill="#6D6C6C"/>
<path opacity="0.14" d="M238.189 176.154C238.585 185.186 239.536 192.673 240.368 198.06C242.309 210.419 243.735 218.976 248.806 228.602C251.975 234.584 255.54 238.981 258.115 241.833C253.638 245.675 247.617 250.033 239.892 253.519C220.482 262.353 202.26 260.57 193.743 259.144C193.307 257.203 192.871 255.262 192.436 253.281C193.505 253.36 195.169 253.44 197.189 253.479C203.923 253.638 217.947 253.875 234.03 248.488C238.546 246.983 244.884 244.447 252.014 240.248C249.202 236.485 246.429 232.009 244.012 226.819C234.465 206.339 236.367 186.453 238.189 176.154Z" fill="#6D6C6C"/>
<path opacity="0.18" d="M268.533 87.3008C269.325 90.9848 270.474 96.6099 271.622 103.622C273.762 117.169 273.603 122.081 276.099 130.083C277.406 134.243 279.743 140.145 284.14 146.879C280.456 149.89 275.861 153.02 270.196 155.634C251.657 164.23 233.91 161.814 225.75 160.11C225.829 158.526 225.908 156.941 225.988 155.396C227.018 155.674 228.563 156.03 230.464 156.347C232.96 156.743 242.19 158.09 259.54 153.733C264.334 152.544 270.791 150.643 278.198 147.592C276.772 145.057 274.673 141.096 272.771 136.025C267.225 121.329 267.265 108.573 267.344 101.997C267.384 98.3925 267.621 93.3616 268.533 87.3008Z" fill="#6D6C6C"/>
<path d="M31.7247 104.692C27.8029 125.449 31.7643 146.444 35.7256 166.885C35.8841 167.637 37.0329 167.32 36.8744 166.568C32.9527 146.365 29.0309 125.568 32.8735 105.009C32.9923 104.295 31.8435 103.939 31.7247 104.692Z" fill="#161616"/>
<path d="M32.8335 104.533C38.4982 108.336 45.3513 109.009 52.046 108.534C59.6914 107.979 67.2576 106.355 74.8237 105.088C75.5764 104.969 75.2595 103.82 74.5068 103.939C67.2576 105.127 60.0083 106.672 52.6798 107.266C45.9851 107.821 39.132 107.306 33.4277 103.463C32.7939 103.067 32.1997 104.097 32.8335 104.533Z" fill="#161616"/>
<path d="M74.0303 105.919C75.1394 124.854 77.9916 144.186 87.5781 160.823C87.9742 161.497 89.0042 160.903 88.608 160.229C79.1404 143.75 76.3278 124.617 75.2187 105.919C75.1791 105.167 73.9907 105.167 74.0303 105.919Z" fill="#161616"/>
<path d="M36.7175 167.201C45.7097 169.815 55.3754 168.231 64.5261 167.478C72.6469 166.805 81.3619 166.488 88.3338 161.734C88.9676 161.298 88.3734 160.268 87.7396 160.704C80.728 165.497 71.9339 165.656 63.7735 166.329C54.9793 167.042 45.7097 168.508 37.0344 166.012C36.2817 165.854 35.9648 167.003 36.7175 167.201Z" fill="#161616"/>
<path d="M51.9275 114.199C51.1352 113.842 52.0067 113.09 52.4821 112.971C53.0763 112.812 54.225 112.733 54.5023 113.407C54.7004 113.922 54.3835 114.595 53.9081 114.793C53.1555 115.15 52.3236 114.714 51.8086 114.199C51.254 113.644 50.4221 114.476 50.9767 115.031C51.9671 116.021 53.5912 116.536 54.8192 115.625C55.8096 114.912 56.1661 113.327 55.3342 112.377C54.3835 111.307 52.3632 111.426 51.2936 112.218C50.3429 112.931 50.1449 114.635 51.3729 115.189C52.0463 115.546 52.6405 114.516 51.9275 114.199Z" fill="#161616"/>
<path d="M67.8121 167.36C64.9599 181.819 68.0101 196.436 71.1 210.618C71.2584 211.371 72.4072 211.054 72.2488 210.301C69.1985 196.357 66.1879 181.938 68.9609 167.677C69.1193 166.924 67.9705 166.607 67.8121 167.36Z" fill="#161616"/>
<path d="M84.1692 152.188C93.3199 150.445 102.589 149.811 111.859 150.168C111.661 149.97 111.463 149.772 111.265 149.574C109.403 168.667 117.563 186.85 127.467 202.656C127.863 203.289 128.893 202.695 128.497 202.061C118.712 186.414 110.591 168.469 112.453 149.574C112.493 149.257 112.136 148.979 111.859 148.979C102.471 148.623 93.0822 149.296 83.8522 151.039C83.0996 151.198 83.4165 152.346 84.1692 152.188Z" fill="#161616"/>
<path d="M71.7344 211.45C90.9866 213.708 110.516 210.816 128.342 203.21C129.055 202.893 128.421 201.903 127.748 202.18C110.159 209.707 90.7489 212.48 71.7344 210.261C70.9818 210.182 70.9818 211.371 71.7344 211.45Z" fill="#161616"/>
<path d="M91.6193 157.06C91.6193 157.021 91.7381 156.822 91.7381 156.743C91.7777 156.585 91.8966 156.426 92.0154 156.307C92.2531 156.109 92.5304 155.951 92.8473 155.911C93.4415 155.832 93.9961 156.149 94.1545 156.743C94.2734 157.219 94.0753 157.852 93.5207 157.932C93.0057 158.011 92.5304 157.654 92.4511 157.139C92.3323 156.387 91.1835 156.704 91.3024 157.456C91.5004 158.843 93.283 159.516 94.4318 158.843C95.6995 158.09 95.6202 156.149 94.5507 155.238C93.3623 154.248 91.3816 154.763 90.7082 156.109C90.3913 156.783 90.3913 157.694 91.1439 158.09C91.7381 158.407 92.6096 158.13 92.7681 157.377C92.8869 156.624 91.7381 156.307 91.6193 157.06Z" fill="#161616"/>
<path d="M35.6433 126.241C46.1804 127.707 56.6384 125.528 66.7398 122.636C67.4925 122.438 67.1756 121.289 66.4229 121.487C56.5195 124.3 46.2597 126.518 35.9602 125.092C35.2075 124.973 34.8906 126.122 35.6433 126.241Z" fill="#161616"/>
<path d="M37.625 134.005C43.0917 134.599 48.5584 134.044 53.8269 132.381C54.54 132.143 54.2627 130.994 53.51 131.232C48.3603 132.856 43.0125 133.371 37.625 132.816C36.8724 132.737 36.8724 133.926 37.625 134.005Z" fill="#161616"/>
<path d="M37.625 143.592C48.083 144.82 58.6202 144.067 68.7612 141.413C69.5139 141.215 69.197 140.066 68.4443 140.264C58.3825 142.918 47.9642 143.631 37.625 142.403C36.8724 142.285 36.8724 143.473 37.625 143.592Z" fill="#161616"/>
<path d="M76.7641 204.398C87.2617 204.873 97.7593 203.606 107.821 200.595C108.534 200.397 108.257 199.248 107.504 199.446C97.5216 202.417 87.1825 203.685 76.7641 203.21C75.9719 203.17 75.9719 204.359 76.7641 204.398Z" fill="#161616"/>
<path d="M78.7871 195.327C83.4615 195.168 88.1359 194.812 92.8103 194.297C93.563 194.218 93.563 193.029 92.8103 193.109C88.1359 193.624 83.5012 193.98 78.7871 194.138C78.0345 194.178 78.0345 195.366 78.7871 195.327Z" fill="#161616"/>
<path d="M82.5899 179.006C85.6797 179.402 88.8884 178.61 91.9387 178.174C95.3058 177.659 98.6333 177.184 102 176.669C102.753 176.55 102.436 175.401 101.684 175.52C98.5937 175.995 95.4643 176.471 92.3744 176.906C89.1657 177.382 85.8382 178.253 82.5899 177.817C81.8372 177.699 81.8372 178.887 82.5899 179.006Z" fill="#161616"/>
<path d="M222.582 90.1926C218.264 111.386 217.829 133.173 221.275 154.525C221.394 155.277 222.543 154.961 222.424 154.208C219.017 133.094 219.493 111.465 223.731 90.5095C223.89 89.7568 222.741 89.4399 222.582 90.1926Z" fill="#161616"/>
<path d="M223.93 90.4699C238.309 87.182 253.165 86.5085 267.822 88.4892C268.574 88.608 268.891 87.4593 268.138 87.3404C253.283 85.3201 238.23 85.9936 223.613 89.3211C222.9 89.5192 223.217 90.6679 223.93 90.4699Z" fill="#161616"/>
<path d="M267.464 87.4197C267.028 107.821 267.306 129.37 277.645 147.632C278.041 148.306 279.031 147.711 278.675 147.038C268.454 128.974 268.217 107.623 268.653 87.4197C268.692 86.6671 267.504 86.6671 267.464 87.4197Z" fill="#161616"/>
<path d="M222.184 155.159C226.621 156.505 231.374 156.585 235.97 156.624C240.921 156.664 245.873 156.347 250.825 155.674C260.292 154.406 269.522 151.831 278.356 148.107C279.069 147.83 278.435 146.8 277.762 147.077C268.928 150.801 259.619 153.336 250.112 154.564C245.675 155.119 241.199 155.436 236.722 155.396C232.008 155.396 227.057 155.357 222.541 153.97C221.748 153.812 221.471 154.961 222.184 155.159Z" fill="#161616"/>
<path d="M246.429 91.7377C245.082 92.2131 244.488 93.758 244.963 95.0652C245.517 96.5309 247.221 96.8874 248.489 96.016C249.717 95.1445 250.113 93.4015 248.924 92.2923C247.894 91.3416 246.112 91.3019 245.161 92.3319C244.646 92.8865 245.478 93.7184 245.993 93.1638C247.181 91.8962 249.518 93.6788 247.894 94.9464C247.26 95.4217 246.349 95.4217 246.072 94.5899C245.874 93.956 246.072 93.0846 246.746 92.8469C247.459 92.6092 247.142 91.4604 246.429 91.7377Z" fill="#161616"/>
<path d="M223.176 108.613C233.991 108.89 244.766 108.692 255.54 107.979C256.293 107.939 256.293 106.751 255.54 106.791C244.766 107.504 233.951 107.741 223.176 107.424C222.384 107.424 222.384 108.613 223.176 108.613Z" fill="#161616"/>
<path d="M224.245 114.634C228.285 114.792 232.326 114.951 236.327 115.109C237.079 115.149 237.079 113.961 236.327 113.921C232.286 113.762 228.246 113.604 224.245 113.446C223.452 113.406 223.452 114.594 224.245 114.634Z" fill="#161616"/>
<path d="M223.139 123.032C233.319 123.587 243.619 124.062 253.641 121.844C254.394 121.685 254.077 120.537 253.324 120.695C243.381 122.874 233.201 122.399 223.139 121.844C222.386 121.804 222.386 122.993 223.139 123.032Z" fill="#161616"/>
<path d="M75.454 251.815C74.5429 259.738 74.226 267.7 74.5033 275.663C74.5429 276.415 75.7313 276.415 75.6917 275.663C75.4144 267.7 75.7313 259.738 76.6424 251.815C76.7217 251.063 75.5333 251.063 75.454 251.815Z" fill="#161616"/>
<path d="M75.8555 252.291C89.9579 252.291 104.1 252.093 118.202 251.658C118.955 251.618 118.955 250.43 118.202 250.469C104.1 250.905 89.9579 251.103 75.8555 251.103C75.1029 251.103 75.1029 252.291 75.8555 252.291Z" fill="#161616"/>
<path d="M118.081 251.103C118.2 257.996 118.319 264.849 118.438 271.742C118.438 272.494 119.626 272.494 119.626 271.742C119.507 264.849 119.388 257.996 119.269 251.103C119.269 250.35 118.041 250.35 118.081 251.103Z" fill="#161616"/>
<path d="M74.3867 274.791C74.4659 277.366 78.9423 276.218 80.408 276.138C84.607 275.861 88.806 275.584 92.9654 275.267C101.482 274.673 109.999 274.118 118.516 273.524C119.269 273.484 119.269 272.296 118.516 272.335C111.267 272.811 104.057 273.326 96.8079 273.801C93.3616 274.039 89.9152 274.277 86.4688 274.514C85.4389 274.593 75.5751 275.544 75.5355 274.791C75.5751 274.039 74.3867 274.039 74.3867 274.791Z" fill="#161616"/>
<path d="M79.063 257.639C88.5702 257.203 98.0774 257.56 107.505 258.748C108.258 258.827 108.258 257.639 107.505 257.56C98.0774 256.371 88.5702 256.015 79.063 256.45C78.2707 256.49 78.2707 257.678 79.063 257.639Z" fill="#161616"/>
<path d="M79.4161 263.66C84.7243 263.264 90.0721 262.828 95.3803 262.432C96.1329 262.393 96.1329 261.204 95.3803 261.244C90.0721 261.64 84.7243 262.076 79.4161 262.472C78.6634 262.512 78.6634 263.7 79.4161 263.66Z" fill="#161616"/>
<path d="M81.2021 269.721C88.8475 268.73 97.1663 266.71 104.851 268.096C105.604 268.215 105.921 267.106 105.168 266.948C97.3248 265.522 89.0059 267.502 81.2021 268.532C80.489 268.651 80.4494 269.839 81.2021 269.721Z" fill="#161616"/>
<path d="M184.239 184.393C177.941 206.814 178.733 230.82 186.458 252.806C186.695 253.519 187.844 253.202 187.607 252.489C179.961 230.701 179.169 206.933 185.388 184.71C185.586 183.958 184.437 183.641 184.239 184.393Z" fill="#161616"/>
<path d="M185.028 184.79C202.656 184.711 220.205 182.413 237.278 177.937C238.031 177.739 237.714 176.59 236.961 176.788C220.006 181.225 202.577 183.522 185.028 183.602C184.236 183.602 184.236 184.79 185.028 184.79Z" fill="#161616"/>
<path d="M236.957 177.223C236.244 188.236 236.72 199.328 238.7 210.221C239.691 215.727 240.879 221.234 243.058 226.384C245.237 231.494 248.247 236.128 251.773 240.367C252.248 240.961 253.12 240.129 252.605 239.535C249 235.217 245.95 230.424 243.81 225.195C241.79 220.204 240.681 214.856 239.77 209.587C237.868 198.931 237.433 188.038 238.106 177.223C238.185 176.471 236.997 176.471 236.957 177.223Z" fill="#161616"/>
<path d="M186.611 253.44C209.033 255.024 232.444 252.489 252.092 240.922C252.766 240.526 252.172 239.496 251.498 239.892C231.969 251.38 208.795 253.796 186.611 252.251C185.859 252.172 185.859 253.36 186.611 253.44Z" fill="#161616"/>
<path d="M210.459 188.355C209.786 187.206 211.133 185.78 212.282 186.691C213.51 187.682 212.202 189.266 210.895 188.751C210.182 188.474 209.865 189.623 210.578 189.9C211.648 190.336 212.955 189.86 213.589 188.91C214.302 187.84 213.985 186.493 212.995 185.74C210.855 184.037 208.162 186.691 209.429 188.949C209.826 189.623 210.855 189.028 210.459 188.355Z" fill="#161616"/>
<path d="M185.422 202.022C197.266 201.824 209.111 200.992 220.916 199.566C221.668 199.487 221.668 198.298 220.916 198.377C209.15 199.843 197.306 200.635 185.422 200.833C184.669 200.873 184.669 202.061 185.422 202.022Z" fill="#161616"/>
<path d="M225.155 194.059C225.512 195.881 225.868 197.743 226.225 199.565C226.383 200.318 227.532 200.001 227.373 199.248C227.017 197.426 226.66 195.564 226.304 193.742C226.185 192.989 225.036 193.306 225.155 194.059Z" fill="#161616"/>
<path d="M225.946 193.901C228.125 193.584 230.304 193.267 232.522 192.91C233.275 192.791 232.958 191.643 232.205 191.762C230.027 192.078 227.848 192.395 225.63 192.752C224.877 192.871 225.194 194.02 225.946 193.901Z" fill="#161616"/>
<path d="M232.167 192.554C232.484 194.257 232.761 195.961 233.078 197.624C233.197 198.377 234.346 198.06 234.227 197.307C233.91 195.604 233.632 193.901 233.316 192.237C233.197 191.524 232.048 191.841 232.167 192.554Z" fill="#161616"/>
<path d="M227.214 200.477C229.551 200.001 231.77 199.368 233.988 198.496C234.701 198.219 234.384 197.07 233.671 197.347C231.453 198.179 229.195 198.853 226.897 199.328C226.145 199.486 226.461 200.635 227.214 200.477Z" fill="#161616"/>
<path d="M227.413 195.248C227.849 196.238 228.443 197.03 229.315 197.704C229.632 197.941 230.226 197.941 230.305 197.426C230.622 195.287 231.375 193.386 232.642 191.603C233.078 190.969 232.048 190.375 231.612 191.009C230.305 192.831 229.473 194.891 229.156 197.109C229.473 197.03 229.83 196.951 230.147 196.832C229.394 196.238 228.839 195.525 228.443 194.614C228.126 193.94 227.096 194.535 227.413 195.248Z" fill="#161616"/>
<path d="M227.85 212.242C227.216 215.094 227.493 217.867 228.642 220.521C228.959 221.234 229.949 220.6 229.672 219.927C228.642 217.589 228.444 215.054 228.999 212.559C229.157 211.806 228.008 211.489 227.85 212.242Z" fill="#161616"/>
<path d="M228.639 212.638C231.016 212.242 233.393 211.885 235.77 211.489C235.532 211.251 235.294 211.014 235.057 210.776C234.661 213.311 234.938 215.728 235.928 218.104C236.205 218.817 237.354 218.501 237.077 217.788C236.166 215.648 235.849 213.39 236.205 211.093C236.285 210.617 235.968 210.301 235.492 210.38C233.116 210.736 230.739 211.132 228.362 211.529C227.57 211.608 227.887 212.757 228.639 212.638Z" fill="#161616"/>
<path d="M229.154 220.56C231.769 220.481 234.264 219.966 236.721 219.095C237.434 218.817 237.117 217.669 236.404 217.946C234.066 218.817 231.65 219.293 229.154 219.372C228.402 219.372 228.402 220.56 229.154 220.56Z" fill="#161616"/>
<path d="M229.515 215.054C229.871 216.084 230.465 216.797 231.416 217.352C231.852 217.59 232.248 217.273 232.327 216.837C232.565 214.737 233.119 212.717 233.991 210.776C234.308 210.103 233.278 209.469 232.961 210.182C232.01 212.321 231.416 214.539 231.139 216.837C231.456 216.679 231.733 216.48 232.05 216.322C231.376 215.926 230.98 215.451 230.703 214.698C230.426 214.024 229.277 214.341 229.515 215.054Z" fill="#161616"/>
<path d="M230.307 230.623C230.584 233.277 231.297 235.772 232.485 238.149C232.802 238.823 233.832 238.228 233.515 237.555C232.446 235.376 231.772 233.039 231.535 230.623C231.416 229.87 230.227 229.87 230.307 230.623Z" fill="#161616"/>
<path d="M230.861 230.504C233.912 230.781 236.764 230.226 239.497 228.88C239.22 228.761 238.903 228.642 238.626 228.523C239.141 230.939 240.21 233.039 241.874 234.901C242.389 235.455 243.221 234.623 242.706 234.069C241.2 232.366 240.25 230.464 239.774 228.246C239.695 227.85 239.22 227.731 238.903 227.889C236.368 229.117 233.674 229.593 230.861 229.355C230.109 229.276 230.109 230.464 230.861 230.504Z" fill="#161616"/>
<path d="M233.557 238.584C236.647 237.436 239.697 236.208 242.668 234.861C243.381 234.544 242.747 233.514 242.074 233.831C239.182 235.138 236.211 236.326 233.24 237.436C232.527 237.713 232.844 238.862 233.557 238.584Z" fill="#161616"/>
<path d="M232.921 232.603C233.872 233.435 236.051 236.287 237.16 234.188C237.675 233.237 237.556 231.93 237.873 230.86C238.348 229.355 239.141 227.968 240.17 226.78C240.646 226.186 239.814 225.354 239.339 225.948C238.229 227.255 237.358 228.681 236.843 230.345C236.605 231.098 236.407 231.89 236.288 232.682C236.13 233.673 235.853 233.435 235.1 232.96C234.625 232.643 234.189 232.167 233.753 231.771C233.198 231.256 232.367 232.088 232.921 232.603Z" fill="#161616"/>
<path d="M186.492 221.392C197.584 221.273 208.636 220.362 219.569 218.619C220.322 218.5 220.005 217.352 219.253 217.471C208.398 219.174 197.465 220.085 186.492 220.164C185.74 220.204 185.74 221.392 186.492 221.392Z" fill="#161616"/>
<path d="M185.227 205.309C192.397 205.507 199.527 205.27 206.657 204.676C207.41 204.596 207.41 203.408 206.657 203.487C199.527 204.081 192.357 204.279 185.227 204.121C184.474 204.081 184.474 205.27 185.227 205.309Z" fill="#161616"/>
<path d="M186.93 223.729C194.456 224.086 201.983 223.809 209.43 222.858C210.183 222.779 210.183 221.59 209.43 221.67C201.943 222.581 194.417 222.898 186.93 222.541C186.177 222.501 186.177 223.69 186.93 223.729Z" fill="#161616"/>
<path d="M211.963 222.303C214.102 222.343 216.202 222.066 218.261 221.392C218.974 221.155 218.658 220.006 217.945 220.244C216.003 220.877 214.023 221.155 211.963 221.115C211.21 221.115 211.21 222.303 211.963 222.303Z" fill="#161616"/>
<path d="M190.971 238.624C200.003 238.07 208.995 237.238 217.948 236.01C218.701 235.891 218.701 234.702 217.948 234.821C208.995 236.01 200.003 236.881 190.971 237.436C190.179 237.475 190.179 238.664 190.971 238.624Z" fill="#161616"/>
<path d="M191.998 241.397C194.969 241.397 197.94 241.397 200.911 241.397C201.664 241.397 201.664 240.208 200.911 240.208C197.94 240.208 194.969 240.208 191.998 240.208C191.245 240.208 191.245 241.397 191.998 241.397Z" fill="#161616"/>
<path d="M194.573 244.052C199.208 243.774 203.842 243.339 208.477 242.784C212.201 242.309 216.202 242.111 219.41 239.932C220.044 239.496 219.45 238.466 218.816 238.902C215.449 241.199 210.933 241.318 207.011 241.754C202.892 242.229 198.732 242.586 194.612 242.863C193.82 242.903 193.781 244.091 194.573 244.052Z" fill="#161616"/>
<path d="M239.816 212.044C247.026 211.688 254.196 210.737 261.286 209.232C261.049 209.113 260.811 208.954 260.573 208.835C263.901 218.739 268.813 227.969 275.111 236.327C275.547 236.921 276.617 236.327 276.141 235.733C269.922 227.493 265.05 218.343 261.722 208.558C261.603 208.241 261.326 208.083 261.009 208.162C254.037 209.667 246.986 210.578 239.856 210.935C239.024 210.895 239.024 212.084 239.816 212.044Z" fill="#161616"/>
<path d="M241.039 245.477C242.108 246.982 242.98 248.567 243.733 250.27C243.812 250.508 244.168 250.627 244.406 250.548C250.229 248.607 255.973 246.468 261.598 244.051C264.45 242.823 267.263 241.555 270.076 240.209C271.422 239.575 272.769 238.901 274.077 238.228C274.869 237.832 275.78 237.594 276.057 236.723C276.136 236.485 276.018 236.168 275.78 236.049C275.423 235.851 275.225 235.851 274.869 236.049C274.631 236.168 274.512 236.485 274.591 236.723C274.591 236.762 274.631 236.802 274.631 236.841C274.829 237.594 275.978 237.277 275.78 236.525C275.78 236.485 275.74 236.445 275.74 236.406C275.661 236.643 275.542 236.841 275.463 237.079C275.384 237.079 275.265 237.079 275.186 237.079C275.106 236.841 274.988 236.643 274.908 236.406C274.671 237.119 272.175 237.871 271.502 238.228C270.392 238.783 269.283 239.298 268.134 239.852C265.48 241.12 262.787 242.308 260.053 243.457C254.824 245.675 249.477 247.656 244.089 249.439C244.327 249.518 244.525 249.637 244.763 249.716C244.05 248.012 243.138 246.428 242.069 244.923C241.633 244.249 240.603 244.843 241.039 245.477Z" fill="#161616"/>
<path d="M247.933 215.134C247.854 214.619 248.804 214.143 249.161 214.5C249.636 214.975 248.844 215.847 248.289 215.649C247.576 215.371 247.259 216.52 247.972 216.797C249.676 217.431 251.34 214.975 250.032 213.668C249.438 213.074 248.527 213.113 247.814 213.47C247.061 213.866 246.665 214.619 246.824 215.451C246.903 216.203 248.052 215.847 247.933 215.134Z" fill="#161616"/>
<path d="M72.4094 183.443C76.8065 183.522 81.2432 183.324 85.6007 182.73C90.1562 182.096 94.6722 180.789 99.3069 180.987C100.06 181.026 100.06 179.838 99.3069 179.798C95.0683 179.64 90.9485 180.709 86.7891 181.343C82.0355 182.096 77.2026 182.373 72.3698 182.254C71.6567 182.254 71.6567 183.443 72.4094 183.443Z" fill="#161616"/>
<path d="M73.0391 170.331C79.7734 170.846 86.5077 170.251 93.0439 168.548C93.7966 168.35 93.4797 167.201 92.727 167.399C86.27 169.063 79.6942 169.657 73.0391 169.142C72.2864 169.103 72.2864 170.291 73.0391 170.331Z" fill="#161616"/>
<path d="M225.473 136.976C224.799 141.334 224.245 146.048 226.978 149.851C227.414 150.484 228.444 149.89 228.008 149.256C225.473 145.731 226.027 141.334 226.622 137.293C226.74 136.541 225.592 136.224 225.473 136.976Z" fill="#161616"/>
<path d="M225.829 136.937C235.257 137.293 244.685 136.382 253.876 134.203C253.638 134.085 253.4 133.926 253.162 133.807C253.994 137.887 255.579 141.69 257.797 145.176C258.193 145.81 259.223 145.216 258.827 144.582C256.648 141.175 255.143 137.452 254.311 133.49C254.232 133.173 253.875 133.015 253.598 133.094C244.527 135.233 235.218 136.144 225.869 135.788C225.077 135.709 225.077 136.897 225.829 136.937Z" fill="#161616"/>
<path d="M227.969 149.811C238.189 149.494 248.291 147.989 258.115 145.295C258.868 145.097 258.551 143.948 257.798 144.146C248.053 146.84 238.071 148.345 227.969 148.622C227.177 148.662 227.177 149.85 227.969 149.811Z" fill="#161616"/>
<path d="M208.481 399.376C220.959 390.938 227.218 386.7 228.842 386.185C232.803 384.917 245.638 380.837 256.849 387.69C264.89 392.602 272.298 403.258 269.208 410.389C266.99 415.459 260.216 417.044 254.076 418.509C245.004 420.648 237.24 419.46 232.882 418.43C231.179 420.094 228.446 422.312 224.603 423.778C218.225 426.234 210.857 425.798 210.501 424.332C210.342 423.58 211.927 422.114 219.612 419.104C218.701 418.113 217.354 416.925 215.452 416.093C209.827 413.518 204.202 416.014 203.133 416.529C208.639 419.737 209.827 421.401 209.55 422.312C208.837 424.61 197.626 425.362 194.616 420.094C194.299 419.579 193.427 417.796 194.14 414.429C195.567 408.249 200.716 404.645 208.481 399.376Z" fill="#161616"/>
<path d="M262.831 408.17C264.098 405.556 269.803 406.19 272.021 406.427C274.873 406.744 277.408 407.021 279.706 409.042C281.449 410.547 283.984 413.835 283.073 416.489C282.241 419.024 279.112 418.826 273.051 421.797C272.021 422.312 262.118 427.185 262.791 430.393C263.068 431.701 264.851 431.661 270.516 434.077C275.428 436.137 278.32 437.405 280.736 440.178C281.924 441.564 284.301 444.298 283.667 447.071C282.479 452.181 271.863 453.052 271.585 452.26C271.348 451.587 278.795 449.725 278.874 446.239C278.953 443.585 274.794 441.446 272.179 440.059C264.494 436.058 259.305 437.484 257.285 433.642C256.136 431.463 256.77 429.126 256.889 428.69C257.483 426.551 259.147 424.729 267.267 420.649C274.675 416.925 277.963 416.053 277.923 414.39C277.884 412.845 275.032 411.577 273.289 411.141C268.377 409.834 264.772 412.924 263.108 411.181C262.395 410.389 262.435 409.042 262.831 408.17Z" fill="#161616"/>
<path d="M195.17 388.997C197.666 390.859 200.161 392.721 202.657 394.583C206.222 394.226 209.748 393.909 213.313 393.553C215.531 391.414 217.75 389.235 219.968 387.096C220.126 388.443 220.443 391.493 220.562 392.959C221.949 406.15 222.067 407.299 221.236 408.804C218.502 413.677 209.272 415.657 203.964 412.251C201.389 410.587 200.399 408.091 198.537 403.298C196.279 397.514 195.487 392.444 195.17 388.997Z" fill="#161616"/>
<path d="M205.233 402.703C204.639 403.931 203.331 404.684 201.984 404.446C201.628 404.367 201.469 404.961 201.826 405.001C203.45 405.278 205.074 404.486 205.748 402.981C205.906 402.664 205.431 402.347 205.233 402.703Z" fill="white"/>
<path d="M210.741 402.308C212.048 403.575 213.791 404.13 215.574 403.853C215.97 403.813 215.772 403.219 215.415 403.298C213.831 403.536 212.286 403.021 211.137 401.912C210.86 401.634 210.463 402.03 210.741 402.308Z" fill="white"/>
<path d="M208.636 406.071C208.517 406.071 208.438 406.031 208.319 406.031C208.359 405.991 208.359 405.912 208.399 405.873C208.478 405.952 208.597 406.031 208.676 406.11C208.676 406.031 208.636 405.991 208.636 405.912C208.517 405.556 207.963 405.714 208.082 406.071C208.28 406.942 208.597 408.289 207.527 408.725C207.171 408.883 207.329 409.438 207.686 409.279C209.112 408.685 208.953 407.14 208.676 405.873C208.478 405.912 208.28 405.991 208.121 406.031C208.121 406.11 208.161 406.15 208.161 406.229C208.201 406.348 208.319 406.467 208.438 406.467C209.468 406.388 208.636 404.961 208.161 405.793C207.963 406.071 208.438 406.388 208.636 406.071Z" fill="white"/>
<path d="M208.244 406.348C208.442 407.022 208.482 407.774 208.917 408.368C209.274 408.844 209.829 409.082 210.423 408.963C210.779 408.883 210.621 408.329 210.264 408.408C209.155 408.646 208.997 406.903 208.799 406.19C208.719 405.833 208.165 405.992 208.244 406.348Z" fill="white"/>
<path d="M206.341 406.902C205.193 406.387 204.004 406.15 202.737 406.229C202.34 406.269 202.34 406.863 202.737 406.823C203.885 406.744 204.995 406.942 206.024 407.417C206.381 407.576 206.698 407.061 206.341 406.902Z" fill="white"/>
<path d="M205.314 407.695C204.323 407.774 203.452 408.17 202.778 408.844C202.501 409.121 202.937 409.517 203.214 409.279C203.808 408.725 204.521 408.368 205.353 408.289C205.67 408.249 205.67 407.655 205.314 407.695Z" fill="white"/>
<path d="M210.978 406.625C212.127 406.19 213.276 406.031 214.504 406.15C214.9 406.19 214.9 405.595 214.504 405.556C213.236 405.437 212.008 405.635 210.82 406.071C210.463 406.19 210.582 406.784 210.978 406.625Z" fill="white"/>
<path d="M211.772 407.695C212.643 407.576 213.475 407.655 214.307 407.972C214.663 408.091 214.822 407.536 214.465 407.417C213.594 407.1 212.683 407.021 211.772 407.14C211.376 407.14 211.376 407.774 211.772 407.695Z" fill="white"/>
<path d="M202.417 400.961C203.011 400.604 203.724 400.604 204.319 400.961C204.636 401.159 204.952 400.644 204.636 400.446C203.843 400.01 202.932 400.01 202.14 400.446C201.783 400.644 202.1 401.159 202.417 400.961Z" fill="white"/>
<path d="M210.742 400.168C211.336 399.851 212.01 399.772 212.723 399.851C213.079 399.891 213.277 399.337 212.881 399.297C212.049 399.178 211.217 399.297 210.465 399.693C210.069 399.812 210.385 400.327 210.742 400.168Z" fill="white"/>
<path d="M201.27 387.73C202.498 387.215 203.726 386.7 204.915 386.145C204.677 385.987 204.479 385.829 204.241 385.63C203.766 387.136 203.053 388.483 202.102 389.75C201.864 390.067 202.26 390.543 202.617 390.424C203.964 389.909 205.311 389.433 206.658 388.918C207.173 388.72 206.975 387.849 206.42 388.047C205.073 388.562 203.726 389.037 202.379 389.552C202.538 389.79 202.696 389.988 202.894 390.226C203.924 388.918 204.637 387.492 205.152 385.908C205.271 385.512 204.835 385.274 204.479 385.393C203.251 385.908 202.023 386.423 200.834 386.977C200.28 387.215 200.755 387.968 201.27 387.73Z" fill="#161616"/>
<path d="M203.253 380.52C204.084 380.045 204.916 379.728 205.827 379.53C205.669 379.292 205.511 379.094 205.312 378.856C204.956 379.649 204.52 380.441 204.005 381.154C203.807 381.471 204.084 381.788 204.401 381.827C205.471 381.906 206.461 381.629 207.293 380.995C207.729 380.639 207.293 379.886 206.857 380.243C206.144 380.797 205.352 381.035 204.441 380.956C204.56 381.193 204.679 381.392 204.837 381.629C205.352 380.877 205.788 380.124 206.144 379.332C206.303 378.975 206.026 378.579 205.629 378.658C204.639 378.856 203.688 379.213 202.817 379.728C202.302 380.045 202.738 380.797 203.253 380.52Z" fill="#161616"/>
<path d="M209.786 390.106C208.478 388.799 210.736 388.046 210.974 386.898C211.212 385.551 209.627 384.283 211.41 383.253C211.925 382.976 211.45 382.184 210.974 382.501C210.34 382.857 209.825 383.412 209.667 384.164C209.429 385.432 210.538 386.185 209.588 387.333C209.152 387.888 208.637 388.046 208.479 388.799C208.32 389.552 208.637 390.186 209.152 390.74C209.588 391.136 210.221 390.503 209.786 390.106Z" fill="#161616"/>
<path d="M367.645 426.511C367.645 430.987 367.645 435.424 367.645 439.9C335.955 452.458 329.498 456.934 329.973 458.558C330.092 458.954 330.924 460.143 347.561 458.202C364.041 456.261 377.39 453.448 386.66 451.151C385.036 442 383.372 432.849 381.748 423.698C377.034 424.649 372.32 425.6 367.645 426.511Z" fill="#161616"/>
<path d="M381.865 237.04C380.954 238.743 380.638 240.13 380.558 240.447C374.894 264.532 367.486 278.753 362.653 306.68C353.423 360.475 361.385 421.599 362.138 427.343C364.673 428.452 369.546 430.116 375.765 429.878C381.232 429.64 385.47 428.016 387.887 426.868C386.976 409.319 387.887 387.65 393.948 363.763C401.355 334.489 410.744 324.784 419.181 290.558C425.44 265.205 432.69 235.693 420.172 226.938C410.585 220.125 388.124 225.116 381.865 237.04Z" fill="#EC615B"/>
<path opacity="0.2" d="M403.773 249.677C397.435 278.594 391.533 309.414 386.542 342.016C381.828 372.676 378.302 402.03 375.688 429.918C379.688 429.086 383.65 428.254 387.651 427.422C387.136 415.102 387.69 404.605 388.483 396.563C389.433 386.581 391.85 363.328 401.555 340.114C402.823 337.143 404.447 333.538 407.101 326.764C411.577 315.554 414.826 305.967 416.291 301.451C423.184 279.902 426.63 254.906 427.7 246.666C419.698 247.617 411.736 248.647 403.773 249.677Z" fill="#6D6C6C"/>
<path opacity="0.19" d="M416.847 300.025C401.318 320.268 394.069 338.609 390.424 350.929C387.097 362.139 385.631 372.043 383.73 384.877C381.036 403.1 380.006 418.47 379.57 429.403C382.185 428.769 384.76 428.096 387.374 427.462C386.938 412.132 388.008 399.019 389.315 388.799C390.9 376.677 392.722 362.615 399.06 345.7C401.358 339.56 402.467 337.817 407.696 324.546C411.736 314.167 414.826 305.651 416.847 300.025Z" fill="#6D6C6C"/>
<path d="M453.211 421.955C455.429 427.462 457.687 432.968 459.906 438.514C441.287 450.358 432.493 457.251 433.483 459.271C434.711 461.767 450.794 456.815 481.733 444.495C478.445 433.8 475.157 423.144 471.869 412.448C465.65 415.617 459.43 418.786 453.211 421.955Z" fill="#161616"/>
<path d="M437.921 237.515C447.626 246.388 447.309 258.827 448.537 279.426C448.537 279.426 451.548 330.092 461.649 370.814C464.185 380.995 468.78 396.801 477.297 415.736C475.871 417.558 471.988 421.995 465.175 424.332C458.203 426.709 452.261 425.441 450.042 424.847C437.921 404.169 429.325 386.541 423.779 374.34C398.07 318.01 396.01 288.339 396.01 272.85C396.01 256.926 396.287 237.832 408.131 231.454C417.045 226.661 430.117 230.385 437.921 237.515Z" fill="#EC615B"/>
<path opacity="0.15" d="M410.43 243.576C414.827 260.491 419.58 277.683 424.651 295.113C437.882 340.351 452.262 383.094 467.354 423.183C468.82 422.43 470.603 421.4 472.425 420.014C474.287 418.588 475.752 417.162 476.862 415.894C474.802 411.101 471.949 404.169 468.939 395.652C464.383 382.619 456.976 358.653 453.133 326.724C449.449 296.063 447.587 280.733 447.746 271.067C447.864 263.105 448.577 246.903 438.278 238.188C436.139 236.406 434.039 235.336 432.574 234.702C425.166 237.673 417.798 240.644 410.43 243.576Z" fill="#6D6C6C"/>
<path opacity="0.22" d="M448.222 281.367C446.399 299.787 445.805 324.466 450.242 352.988C454.718 381.668 462.839 405.08 470.168 422.114C472.426 420.252 474.683 418.39 476.941 416.488C474.248 410.111 470.722 401.237 467.197 390.383C460.423 369.507 457.491 353.226 454.956 338.608C452.381 323.635 449.687 304.264 448.222 281.367Z" fill="#6D6C6C"/>
<path d="M262.753 92.8074C261.169 93.5996 258.99 94.9861 257.287 97.3629C256.376 98.5909 255.266 100.215 255.108 102.513C255.068 103.424 254.95 105.404 256.217 106.712C256.574 107.108 257.524 107.86 262.199 107.702C266.358 107.544 268.458 107.464 269.527 106.355C271.587 104.216 270.835 100.175 269.527 97.7591C267.467 93.9166 263.427 92.9658 262.753 92.8074Z" fill="white" stroke="#161616" stroke-width="2" stroke-miterlimit="10"/>
<path d="M286.679 102.75C292.265 109.128 301.217 112.931 317.657 119.705C338.375 128.262 348.753 132.54 361.034 134.045C374.304 135.669 381.395 133.966 383.851 138.284C387.06 143.869 379.533 154.327 371.769 163.082C365.985 161.814 360.004 160.23 353.824 158.17C319.954 146.959 295.473 127.232 279.39 110.832C277.37 111.267 273.924 111.703 270.002 110.515C266.635 109.524 261.881 106.989 262.158 104.969C262.515 102.513 271.111 102.077 271.626 102.037C269.011 100.968 265.248 99.1456 261.168 96.1746C259.98 95.3031 253.166 90.2722 253.998 88.6877C254.711 87.3012 260.891 89.2026 266.714 90.9852C272.022 92.6094 275.706 93.7582 279.747 96.5311C283.629 99.1456 285.887 101.839 286.679 102.75Z" fill="white" stroke="#161616" stroke-width="2" stroke-miterlimit="10"/>
<path d="M259.264 93.2432C260.214 94.3128 260.412 95.7389 261.244 96.8481C261.957 97.8384 262.987 98.5514 264.057 99.1456C267.266 100.928 270.672 102.394 273.96 104.018C274.515 104.295 275.228 103.543 274.673 103.067C272.97 101.602 271.148 100.294 269.246 99.106C268.612 98.7099 267.979 99.7399 268.652 100.136C270.474 101.285 272.217 102.513 273.841 103.899C274.079 103.582 274.317 103.265 274.554 102.949C271.425 101.443 268.295 99.9775 265.206 98.3534C263.74 97.6007 262.433 96.7292 261.68 95.2239C261.165 94.194 260.888 93.2036 260.095 92.3321C259.581 91.8568 258.749 92.6887 259.264 93.2432Z" fill="white"/>
<path d="M262.355 97.4025C264.177 98.1948 265.92 99.2248 267.505 100.453C268.099 100.928 268.931 100.096 268.337 99.6209C266.673 98.3136 264.89 97.2441 262.949 96.3726C262.236 96.0557 261.642 97.0856 262.355 97.4025Z" fill="white"/>
<path d="M257.683 92.5301C259.188 94.9465 261.169 96.9272 263.506 98.5117C264.14 98.9475 264.734 97.9175 264.1 97.4818C261.921 96.0161 260.099 94.1542 258.713 91.8963C258.317 91.3021 257.287 91.8963 257.683 92.5301Z" fill="white"/>
<path d="M259.465 95.7785C260.258 96.8481 261.129 97.8384 262.12 98.7099C262.833 99.3438 265.962 101.602 264.338 102.751C264.021 102.949 264.338 103.464 264.655 103.265C265.764 102.513 265.328 101.166 264.655 100.255C264.14 99.5814 263.427 99.0665 262.753 98.4723C261.723 97.5612 260.812 96.5708 259.98 95.5012C259.743 95.1447 259.228 95.4616 259.465 95.7785Z" fill="#161616"/>
<path d="M258.63 99.898C259.818 101.522 262.076 103.82 264.294 103.146C264.651 103.027 264.492 102.473 264.136 102.592C262.234 103.186 260.135 101.007 259.145 99.6207C258.907 99.3037 258.392 99.581 258.63 99.898Z" fill="#161616"/>
<path d="M256.891 102.671C258.199 104.454 260.1 105.484 262.318 105.602C262.714 105.642 262.714 105.048 262.318 105.008C260.338 104.889 258.595 103.939 257.406 102.354C257.169 102.037 256.654 102.354 256.891 102.671Z" fill="#161616"/>
<path d="M255.624 106.236C257.486 108.177 260.576 108.217 262.437 106.236C262.715 105.959 262.279 105.523 262.002 105.8C260.378 107.543 257.684 107.504 256.06 105.8C255.782 105.523 255.347 105.959 255.624 106.236Z" fill="#161616"/>
<path d="M256.02 92.451C260.417 95.3428 263.586 100.215 269.092 101.166C269.449 101.245 269.647 100.651 269.251 100.611C263.823 99.7002 260.654 94.8278 256.337 91.9756C255.98 91.6983 255.703 92.2133 256.02 92.451Z" fill="#161616"/>
<path opacity="0.2" d="M255.542 105.405C254.116 103.464 255.304 99.3043 258.751 95.3826C262.633 97.6405 266.475 99.9381 270.357 102.196C269.644 102.196 263.385 102.275 262.95 104.216C262.871 104.533 262.95 105.009 263.544 105.682C265.525 106.633 268.852 107.9 273.13 108.019C275.349 108.059 277.29 107.782 278.795 107.425C286.876 115.585 301.097 127.905 322.013 136.858C340.394 144.701 356.873 146.959 367.767 147.593C367.41 152.268 367.054 156.902 366.697 161.577C348.753 156.823 324.43 147.791 300.266 129.648C292.026 123.469 284.975 117.091 278.954 110.951C273.408 111.862 269.961 110.911 267.783 109.802C265.921 108.851 264.732 107.663 262.276 107.465C260.652 107.346 259.266 107.742 257.483 106.87C257.285 106.791 256.136 106.197 255.542 105.405Z" fill="#6D6C6C"/>
<path opacity="0.14" d="M306.566 133.372C312.112 136.343 318.53 139.353 325.858 141.928C341.822 147.593 356.281 149.375 367.333 149.772C367.175 153.812 367.056 157.892 366.898 161.933C355.41 159.239 340.991 154.525 325.7 145.969C318.371 141.888 312.033 137.571 306.566 133.372Z" fill="#6D6C6C"/>
<path d="M369.19 144.661C366.932 149.771 366.813 154.01 366.615 161.616C366.457 167.36 366.853 173.539 369.943 189.781C373.706 209.429 375.489 212.598 376.083 223.017C376.558 231.177 375.925 237.872 375.33 242.308C380.322 245.042 388.68 248.765 399.613 249.597C418.945 251.063 433.245 242.546 438.157 239.298C438.751 226.859 439.346 214.381 439.98 201.942C437.801 191.326 435.226 183.007 433.364 177.54C427.501 160.308 422.035 152.148 425.521 143.512C427.462 138.719 431.304 135.788 433.958 134.164C432.096 132.738 412.567 118.279 391.255 125.766C389.037 126.518 375.013 131.47 369.19 144.661Z" fill="white" stroke="#161616" stroke-width="2" stroke-miterlimit="10"/>
<path opacity="0.19" d="M391.176 125.726C397.118 135.233 400.445 143.631 402.347 149.494C402.347 149.494 411.656 177.778 404.842 215.728C403.377 223.809 400.762 235.297 395.613 248.449C397.593 248.884 399.97 249.241 402.664 249.36C402.664 249.36 406.823 249.558 411.498 248.964C417.202 248.211 426.986 245.161 438.514 239.298C438.712 226.027 438.91 212.796 439.108 199.526C436.177 188.315 433.206 179.323 430.987 173.025C425.639 158.011 421.876 150.96 424.966 143.513C426.986 138.64 431.106 135.629 434.315 133.886C430.116 131.113 422.352 126.796 411.735 125.132C402.981 123.785 395.771 124.736 391.176 125.726Z" fill="#6D6C6C"/>
<path opacity="0.11" d="M396.602 124.815C402.979 132.658 410.427 144.106 415.022 159.199C428.055 202.299 406.624 240.09 401.672 248.369C405.831 248.33 410.704 247.973 416.012 246.943C425.48 245.121 433.046 241.873 438.473 238.981C438.671 226.621 438.869 214.262 439.067 201.942C435.7 190.494 432.531 179.64 428.213 164.904C425.282 154.802 422.984 146.523 427.302 139.907C429.402 136.699 432.333 134.916 434.551 133.886C421.915 130.836 409.238 127.825 396.602 124.815Z" fill="#6D6C6C"/>
<path d="M393.67 205.745C393.552 197.268 393.472 188.83 393.354 180.353C413.675 179.323 433.997 178.293 454.358 177.263C455.071 185.107 455.784 192.95 456.537 200.794C435.581 202.457 414.626 204.082 393.67 205.745Z" fill="white" stroke="#161616" stroke-width="2" stroke-miterlimit="10"/>
<path d="M387.49 202.972C387.49 199.882 387.49 196.792 387.49 193.703C413.596 191.762 439.701 189.781 465.806 187.84C466.004 191.643 466.202 195.485 466.44 199.288C440.136 200.477 413.794 201.744 387.49 202.972Z" fill="white" stroke="#161616" stroke-width="2" stroke-miterlimit="10"/>
<path d="M389.67 189.028C389.987 193.584 390.304 198.1 390.581 202.655C414.745 200.714 438.87 198.734 463.034 196.793C463.232 192.673 463.43 188.553 463.668 184.394C438.989 185.938 414.309 187.483 389.67 189.028Z" fill="white" stroke="#161616" stroke-width="2" stroke-miterlimit="10"/>
<path d="M383.768 199.249C384.481 217.313 385.194 235.376 385.946 253.44C412.883 250.429 439.821 247.458 466.758 244.448C467.59 226.701 468.422 208.954 469.253 191.207C440.732 193.901 412.25 196.555 383.768 199.249Z" fill="white" stroke="#161616" stroke-width="2" stroke-miterlimit="10"/>
<path d="M388.363 206.3C400.604 204.676 412.844 203.527 425.164 202.814C425.719 202.774 425.719 201.903 425.164 201.903C412.844 202.616 400.564 203.765 388.363 205.389C387.809 205.468 387.809 206.379 388.363 206.3Z" fill="#161616"/>
<path d="M402.029 208.716C411.418 207.528 420.806 206.3 430.234 205.111C430.789 205.032 430.789 204.161 430.234 204.2C420.846 205.389 411.457 206.617 402.029 207.805C401.475 207.924 401.475 208.795 402.029 208.716Z" fill="#161616"/>
<path d="M447.15 234.069C446.991 236.565 446.991 239.1 447.229 241.596C447.268 242.15 448.179 242.15 448.14 241.596C447.902 239.1 447.863 236.565 448.061 234.069C448.1 233.514 447.189 233.514 447.15 234.069Z" fill="#161616"/>
<path d="M447.546 234.148C452.458 234.267 457.331 233.99 462.203 233.356C462.045 233.198 461.886 233.039 461.768 232.92C461.688 235.218 461.768 237.476 461.926 239.734C461.966 240.288 462.877 240.288 462.837 239.734C462.639 237.476 462.599 235.178 462.679 232.92C462.679 232.683 462.481 232.445 462.243 232.485C457.37 233.118 452.498 233.356 447.586 233.277C446.952 233.237 446.952 234.109 447.546 234.148Z" fill="#161616"/>
<path d="M447.904 242.309C452.777 242.388 457.57 241.873 462.323 240.803C462.878 240.684 462.64 239.813 462.086 239.932C457.411 240.962 452.697 241.477 447.904 241.397C447.35 241.397 447.35 242.269 447.904 242.309Z" fill="#161616"/>
<path d="M449.766 236.921C452.776 237.119 455.747 236.961 458.758 236.485C459.312 236.406 459.075 235.535 458.52 235.614C455.628 236.089 452.697 236.208 449.766 236.01C449.211 235.97 449.211 236.882 449.766 236.921Z" fill="#161616"/>
<path d="M451.665 239.417C454.795 239.338 457.805 238.744 460.776 237.674C461.291 237.476 461.093 236.604 460.539 236.803C457.687 237.872 454.716 238.427 451.665 238.545C451.111 238.506 451.071 239.417 451.665 239.417Z" fill="#161616"/>
<path opacity="0.2" d="M396.562 251.38C397.276 234.663 397.989 217.946 398.662 201.19C421.796 199.328 444.97 197.506 468.104 195.644C467.589 211.489 467.035 227.335 466.52 243.18C443.188 245.914 419.895 248.647 396.562 251.38Z" fill="#6D6C6C"/>
<path opacity="0.2" d="M459.389 184.83C459.508 189.425 459.27 194.891 458.082 200.952C455.151 215.847 448.099 226.582 443.306 232.643C446.554 236.961 449.803 241.279 453.091 245.597C443.148 246.745 433.205 247.894 423.262 249.043C424.846 230.9 426.431 212.757 428.015 194.654C427.5 192.277 426.946 189.9 426.431 187.523C437.404 186.573 448.416 185.701 459.389 184.83Z" fill="#6D6C6C"/>
<path d="M431.819 133.094C440.098 131.985 449.962 151 453.884 164.666C458.4 180.393 456.419 193.98 454.795 201.15C451.626 215.213 445.05 225.116 440.93 230.464C441.564 232.564 443.03 238.268 440.613 244.527C437.048 253.678 427.382 258.075 426.63 257.243C426.392 256.966 426.867 255.817 430.631 251.499C429.838 252.331 424.134 257.996 417.717 256.649C416.607 256.411 415.221 256.134 414.429 255.025C412.567 252.331 415.657 246.23 422.232 239.456C415.062 241.239 413.161 240.764 412.804 239.971C411.893 238.07 419.222 232.683 421.876 230.702C425.798 227.81 429.323 225.829 431.74 224.601C438.514 210.539 438.157 199.566 437.563 194.416C436.691 186.81 433.839 178.531 433.285 176.946C431.7 172.391 430.947 171.361 427.778 163.161C422.668 150.009 422.668 147.751 422.866 146.008C423.579 140.779 427.105 133.728 431.819 133.094Z" fill="white" stroke="#161616" stroke-width="2" stroke-miterlimit="10"/>
<path d="M414.588 253.915C418.985 251.42 422.827 248.211 426.036 244.329C426.511 243.735 425.679 242.903 425.204 243.497C422.075 247.3 418.311 250.469 413.994 252.925C413.32 253.242 413.914 254.272 414.588 253.915Z" fill="#161616"/>
<path d="M418.471 256.57C422.828 254.312 426.552 251.182 429.562 247.3C430.038 246.706 429.008 246.112 428.532 246.706C425.68 250.43 422.036 253.401 417.876 255.54C417.203 255.896 417.797 256.926 418.471 256.57Z" fill="#161616"/>
<path opacity="0.17" d="M428.492 134.996C420.609 141.849 452.775 171.915 447.268 206.062C443.505 229.474 427.897 244.765 427.897 244.765C423.54 249.122 415.34 254.47 416.33 256.332C417.043 257.679 421.995 256.451 423.778 255.896C427.145 254.866 429.482 253.123 430.789 251.974C428.808 254.193 426.551 256.926 427.026 257.481C427.699 258.194 433.324 255.262 436.85 251.142C442.951 244.012 442.079 234.109 441.485 230.068C442.911 228.206 444.773 225.592 446.674 222.264C448.417 219.293 453.448 210.024 455.627 197.427C459.469 175.124 451.586 157.536 448.417 150.643C445.565 144.503 440.732 134.322 433.404 133.887C432.453 133.768 430.037 133.649 428.492 134.996Z" fill="#6D6C6C"/>
<path opacity="0.22" d="M455.191 196.793C453.052 203.012 450.517 209.548 447.506 216.401C445.367 221.274 443.188 225.829 440.97 230.147C439.861 233.712 437.761 239.06 433.602 244.567C429.244 250.35 424.451 253.876 421.242 255.896C422.153 255.936 423.262 255.856 424.49 255.539C427.58 254.826 429.64 253.123 430.67 252.093C429.482 253.598 428.254 255.064 427.065 256.569C428.016 256.411 429.521 256.134 431.185 255.381C439.9 251.459 441.722 240.803 441.841 240.09C442.158 238.149 442.356 234.822 441.168 230.702C444.02 227.335 447.625 222.304 450.517 215.53C453.725 208.083 454.795 201.388 455.191 196.793Z" fill="#6D6C6C"/>
<path d="M360.082 107.028C353.704 114.317 358.101 124.498 358.695 125.884C360.914 131.034 366.657 138.362 373.946 137.768C379.255 137.293 382.622 132.817 383.454 131.628C389.316 123.19 387.375 107.068 377.472 102.908C372.005 100.611 364.479 101.958 360.082 107.028Z" fill="#5222D0"/>
<path d="M376.162 113.525C376.44 116.655 379.728 117.328 381.946 122.478C383.531 126.201 383.531 129.846 383.253 132.46C385.828 132.698 390.582 132.817 395.969 130.757C400.208 129.133 403.179 126.796 404.961 125.171C404.13 123.31 402.902 120.576 401.436 117.328C395.098 103.503 394.068 102.314 392.523 101.72C386.343 99.3831 375.647 107.702 376.162 113.525Z" fill="white" stroke="#161616" stroke-width="2" stroke-miterlimit="10"/>
<path d="M353.345 72.6044C351.998 74.5058 351.166 76.843 351.048 86.8652C350.968 95.4217 351.444 103.226 352.236 110.158C354.019 109.128 355.801 108.098 357.584 107.068C358.376 109.009 359.723 111.663 362.021 114.238C366.576 119.348 372.122 121.091 374.578 121.725C377.153 121.091 383.57 119.111 388.443 113.05C391.651 109.009 392.681 105.008 392.919 104.097C394.385 98.1154 392.959 93.1638 392.206 91.1039C393.157 90.6681 394.622 89.8362 395.732 88.3309C398.069 85.1618 398.703 79.4971 395.811 77.5957C393.672 76.1696 389.869 77.0015 387.017 79.9329C386.383 78.4672 385.392 76.4469 383.808 74.3474C383.412 73.8324 380.441 69.9503 376.796 67.93C369.785 63.8894 358.178 65.7909 353.345 72.6044Z" fill="white" stroke="#161616" stroke-width="2" stroke-miterlimit="10"/>
<path d="M350.455 85.0428C348.87 84.7655 345.939 83.9336 344.552 81.5172C342.175 77.437 345.661 71.2177 346.533 69.6728C347.246 68.3656 349.147 65.2361 357.229 59.5714C363.369 55.2535 366.458 53.1144 369.786 52.0844C381.591 48.5588 392.405 54.6593 394.426 55.8081C398.664 58.2245 401.358 60.839 403.497 62.8989C406.785 66.068 410.469 69.7124 414.589 73.9114C425.166 87.6177 428.889 100.136 430.395 107.623C432.098 116.1 433.841 124.736 428.77 129.806C423.7 134.877 414.43 133.847 408.766 131.43C400.883 128.063 397.515 120.933 394.901 115.426C390.464 105.998 390.187 96.9665 390.623 91.1037C394.584 89.9549 396.604 86.2312 395.693 83.4187C394.98 81.2003 392.326 78.982 389.593 79.7742C387.493 80.3684 385.988 82.5472 386.107 85.0824C384.205 85.0428 379.135 84.6071 374.302 80.9626C370.776 78.3085 368.994 75.1395 368.162 73.3965C365.983 73.6738 361.626 74.466 357.229 77.6351C353.544 80.1704 351.485 83.2206 350.455 85.0428Z" fill="#5222D0"/>
<path opacity="0.24" d="M376.68 92.6091C381.434 98.3531 382.939 104.414 382.939 104.414C384.484 111.227 382.266 117.011 381.275 119.348C383.771 117.447 386.306 115.545 388.802 113.644C390.545 119.427 392.248 125.171 393.991 130.955C395.298 130.836 397.992 130.361 400.686 128.459C402.746 126.994 403.974 125.29 404.647 124.221C401.438 121.25 395.298 114.674 392.486 104.335C391.139 99.3434 390.941 94.9067 391.099 91.5792C394.704 90.1135 396.566 86.5879 395.813 83.6565C395.259 81.5174 393.08 78.9425 390.268 79.3386C387.93 79.6951 385.989 81.9927 386.029 84.8053C384.246 84.8053 380.047 84.6072 375.65 81.9531C371.095 79.2198 368.916 75.4169 368.084 73.7927C368.282 81.3985 370.619 85.7956 372.719 88.4101C374.105 90.1927 374.739 90.2719 376.68 92.6091Z" fill="#6D6C6C"/>
<path d="M358.261 90.9452C357.825 92.5298 357.865 94.1539 358.459 95.6988C358.657 96.2534 359.41 96.293 359.608 95.6988C360.083 94.2727 360.083 92.7674 359.648 91.3414C359.41 90.6283 358.261 90.9056 358.499 91.6583C358.895 92.9259 358.855 94.1539 358.459 95.4215C358.855 95.4215 359.212 95.4215 359.608 95.4215C359.093 94.0747 359.014 92.6882 359.41 91.3017C359.608 90.5095 358.499 90.1926 358.261 90.9452Z" fill="#161616"/>
<path d="M356.834 88.4895C357.864 87.8557 359.132 87.9745 360.003 88.8064C360.558 89.3214 361.389 88.4895 360.835 87.9745C359.607 86.7861 357.705 86.5484 356.24 87.4595C355.606 87.8557 356.2 88.8856 356.834 88.4895Z" fill="#161616"/>
<path d="M361.11 98.5512C361.862 98.5512 361.862 97.3628 361.11 97.3628C360.318 97.3628 360.318 98.5512 361.11 98.5512Z" fill="#161616"/>
<path d="M363.727 95.1047C363.727 95.1443 363.727 95.1839 363.727 95.2235C363.727 95.5404 364.004 95.8177 364.321 95.8177C364.638 95.8177 364.915 95.5404 364.915 95.2235C364.915 95.1839 364.915 95.1443 364.915 95.1047C364.915 94.7878 364.638 94.5105 364.321 94.5105C364.004 94.5105 363.727 94.7482 363.727 95.1047Z" fill="#161616"/>
<path d="M363.844 98.0756C364.596 98.0756 364.596 96.8872 363.844 96.8872C363.091 96.8872 363.091 98.0756 363.844 98.0756Z" fill="#161616"/>
<path d="M347.526 92.7675C347.051 94.3521 347.091 95.9762 347.645 97.5211C347.843 98.0757 348.596 98.0757 348.794 97.5211C349.269 96.0951 349.309 94.5897 348.913 93.1637C348.715 92.411 347.566 92.7279 347.764 93.4806C348.121 94.7482 348.081 95.9762 347.645 97.2042C348.041 97.2042 348.398 97.2042 348.794 97.2042C348.319 95.8574 348.239 94.4709 348.675 93.0844C348.873 92.3318 347.724 92.0149 347.526 92.7675Z" fill="#161616"/>
<path d="M346.851 89.7964C347.683 89.3607 348.832 89.5587 349.387 90.351C349.822 90.9452 350.852 90.351 350.417 89.7568C349.426 88.4496 347.723 88.0138 346.257 88.7665C345.584 89.123 346.178 90.1529 346.851 89.7964Z" fill="#161616"/>
<path d="M360.2 111.346C363.25 110.792 365.904 109.168 367.885 106.751C368.241 106.315 367.608 105.682 367.251 106.117C365.389 108.415 362.894 109.92 359.962 110.475C359.408 110.594 359.645 111.465 360.2 111.346Z" fill="#161616"/>
<path d="M366.382 106.197C367.095 106.434 367.689 106.791 368.204 107.306C368.6 107.702 369.234 107.068 368.838 106.672C368.204 106.038 367.452 105.602 366.62 105.325C366.065 105.167 365.827 106.038 366.382 106.197Z" fill="#161616"/>
<path opacity="0.45" d="M391.059 54.3821C396.09 61.3541 402.546 71.2178 408.687 83.8149C415.183 97.125 419.937 107.147 416.253 111.109C411.38 116.377 394.545 108.019 391.851 106.632C392.405 110.237 393.792 115.981 397.872 121.725C399.932 124.617 403.537 129.727 410.192 132.104C414.193 133.53 417.758 133.451 419.145 133.332C421.006 133.213 423.145 133.054 425.483 131.787C425.483 131.787 428.533 130.163 430.593 126.835C433.722 121.765 432.058 114.911 429.84 106.315C427.186 96.0158 423.621 89.1627 420.135 82.3888C419.263 80.725 418.233 78.784 416.57 76.526C414.906 74.2284 413.678 73.0004 408.528 68.0487C400.883 60.641 399.694 59.5714 397.397 58.0265C394.861 56.2835 392.604 55.1347 391.059 54.3821Z" fill="#371B9B"/>
<path opacity="0.43" d="M381.512 121.765C381.829 122.676 382.542 125.251 381.512 128.103C379.967 132.341 375.689 133.768 375.015 133.966C370.143 135.55 364.003 133.054 359.883 127.627C360.437 129.054 361.665 131.589 364.201 133.807C365.468 134.916 368.915 137.887 373.787 137.531C374.619 137.452 379.967 137.055 382.423 132.421C384.205 129.133 383.809 125.013 381.512 121.765Z" fill="#371B9B"/>
</svg>
