<svg width="86" height="86" viewBox="0 0 86 86" fill="none" xmlns="http://www.w3.org/2000/svg">
<path d="M45.2394 26.875H67.1875C70.2746 26.875 72.5625 29.1628 72.5625 32.25V34.9375L37.625 63.1562L7.0127 75.8694C5.96891 74.2563 5.375 71.9519 5.375 69.875V21.7159C5.375 18.6287 7.87858 16.125 10.9657 16.125H28.905C31.0782 16.125 33.1626 16.9853 34.7036 18.518L41.2954 25.2291C42.3435 26.2705 43.7621 26.875 45.2394 26.875Z" fill="#FFB02E"/>
<path d="M75.0089 34.9375H29.2543C27.2167 34.9379 25.2288 35.5679 23.5629 36.7412C21.897 37.9145 20.6343 39.5738 19.9475 41.4922C7.60916 76.8732 8.62771 74.3306 8.31596 74.7284C8.18407 74.932 8.00394 75.1 7.79155 75.2172C7.57917 75.3344 7.34108 75.3972 7.09852 75.4003C6.9252 75.398 6.75587 75.3479 6.60938 75.2552C7.52766 76.9834 8.9252 78.4098 10.6342 79.3633C12.3433 80.3167 14.2912 80.7566 16.2441 80.6302H64.49C65.6627 80.6248 66.8026 80.242 67.741 79.5388C68.6794 78.8356 69.3666 77.8492 69.7012 76.7253L80.349 42.2313C80.6146 41.3919 80.6786 40.5016 80.536 39.6328C80.3933 38.764 80.0479 37.9411 79.5278 37.2307C79.0077 36.5203 78.3277 35.9425 77.5425 35.5441C76.7574 35.1456 75.8893 34.9379 75.0089 34.9375Z" fill="#FCD53F"/>
</svg>
