<svg width="80" height="80" viewBox="0 0 80 80" fill="none" xmlns="http://www.w3.org/2000/svg">
<path d="M54.9823 14.6352C38.2157 6.08615 18.3425 9.38599 9.28532 24.3426C0.22816 39.2992 5.99596 59.1999 22.1744 68.7943C30.1236 73.5068 42.9556 78.3209 48.1694 71.902C53.2805 65.6131 45.7411 61.6288 47.5 58.1482C50.3325 52.5486 63.0001 59.8949 71.2863 50.843C80.6233 40.6384 71.3092 22.9639 54.9823 14.6352ZM60 47.5C55.637 47.5 52.5 44.3169 52.5 40C52.5 35.6831 55.637 32.5 60 32.5C64.363 32.5 67.5 35.6831 67.5 40C67.5 44.3169 64.363 47.5 60 47.5Z" fill="#FBB8AB"/>
<path d="M35.625 27.5C38.7316 27.5 41.25 24.9816 41.25 21.875C41.25 18.7684 38.7316 16.25 35.625 16.25C32.5184 16.25 30 18.7684 30 21.875C30 24.9816 32.5184 27.5 35.625 27.5Z" fill="#F3CA20"/>
<path d="M20.625 37.5C23.7316 37.5 26.25 34.9816 26.25 31.875C26.25 28.7684 23.7316 26.25 20.625 26.25C17.5184 26.25 15 28.7684 15 31.875C15 34.9816 17.5184 37.5 20.625 37.5Z" fill="white"/>
<path d="M20.625 55C23.7316 55 26.25 52.4816 26.25 49.375C26.25 46.2684 23.7316 43.75 20.625 43.75C17.5184 43.75 15 46.2684 15 49.375C15 52.4816 17.5184 55 20.625 55Z" fill="#339969"/>
<path d="M34.375 66.25C37.4816 66.25 40 63.7316 40 60.625C40 57.5184 37.4816 55 34.375 55C31.2684 55 28.75 57.5184 28.75 60.625C28.75 63.7316 31.2684 66.25 34.375 66.25Z" fill="white"/>
</svg>
