<svg width="118" height="120" viewBox="0 0 118 120" fill="none" xmlns="http://www.w3.org/2000/svg">
<g clip-path="url(#clip0_547_13241)">
<path d="M58.262 18.394C58.9587 16.9947 60.6018 16.3973 61.9321 17.0596L90.8365 31.4503C92.1668 32.1126 92.6804 33.7839 91.9838 35.1832L86.62 45.9566C83.6622 40.0028 78.8924 34.9887 72.6 31.8559C66.3076 28.7231 59.4318 27.9391 52.8982 29.1674L58.262 18.394Z" fill="white"/>
<path d="M44.8482 87.5967C51.1406 90.7295 58.0164 91.5135 64.55 90.2852L59.1862 101.059C58.4895 102.458 56.8463 103.055 55.5161 102.393L26.6117 88.0023C25.2814 87.34 24.7678 85.6688 25.4644 84.2694L30.8282 73.496C33.786 79.4499 38.5558 84.4639 44.8482 87.5967Z" fill="white"/>
<path d="M87.7427 67.8504C86.4124 67.1881 84.7692 67.7856 84.0725 69.1849L81.5496 74.2522C80.853 75.6515 81.3666 77.3228 82.6969 77.9851L86.3099 79.7839C87.6402 80.4463 89.2834 79.8488 89.9801 78.4495L92.503 73.3822C93.1996 71.9829 92.686 70.3116 91.3557 69.6493L87.7427 67.8504Z" fill="white"/>
<path d="M87.6284 74.1171C79.2683 90.9088 59.5502 98.0782 43.5867 90.1304C27.6233 82.1827 21.4596 62.1274 29.8197 45.3357C38.1798 28.544 57.898 21.3746 73.8614 29.3223C89.8248 37.2701 95.9886 57.3254 87.6284 74.1171Z" fill="#A4AEEB"/>
<path d="M80.402 70.5194C74.1319 83.1132 59.3433 88.4903 47.3707 82.5295C35.3981 76.5686 30.7753 61.5272 37.0454 48.9334C43.3155 36.3396 58.1041 30.9626 70.0767 36.9234C82.0493 42.8842 86.6721 57.9257 80.402 70.5194Z" fill="#5235A6"/>
<path d="M68.8143 39.4569C67.484 38.7946 65.8408 39.392 65.1441 40.7913L57.5755 55.9934C57.3096 56.5274 57.22 57.1011 57.2848 57.6432L44.8235 62.9528C43.4166 63.5522 42.7018 65.1953 43.2269 66.6227C43.7521 68.05 45.3182 68.7212 46.7251 68.1218L59.4619 62.6948C60.6689 62.1805 61.3666 60.898 61.2087 59.6426C61.6987 59.3682 62.1189 58.942 62.3929 58.3918L69.9615 43.1898C70.6582 41.7905 70.1446 40.1192 68.8143 39.4569Z" fill="white"/>
<path d="M63.5416 62.1247C62.1482 64.9233 58.8619 66.1183 56.2013 64.7936C53.5407 63.469 52.5134 60.1265 53.9068 57.3278C55.3002 54.5292 58.5865 53.3343 61.2471 54.6589C63.9077 55.9836 64.9349 59.3261 63.5416 62.1247Z" fill="#FCD53F"/>
</g>
<defs>
<clipPath id="clip0_547_13241">
<rect width="86.103" height="90.5703" fill="white" transform="translate(40.3672) rotate(26.4674)"/>
</clipPath>
</defs>
</svg>
